<svg width="21" height="20" viewBox="0 0 21 20" fill="none" xmlns="http://www.w3.org/2000/svg">
<g id="ViewGridAddOutline" clip-path="url(#clip0_1311_12)">
<path id="Vector (Stroke)" fill-rule="evenodd" clip-rule="evenodd" d="M1.57812 0.934563C2.14509 0.367593 2.91407 0.0490723 3.71588 0.0490723H6.04146C6.84328 0.0490723 7.61226 0.367593 8.17923 0.934563C8.7462 1.50153 9.06472 2.27051 9.06472 3.07233V5.39791C9.06472 6.19973 8.7462 6.9687 8.17923 7.53567C7.61226 8.10264 6.84328 8.42116 6.04146 8.42116H3.71588C2.91406 8.42116 2.14509 8.10264 1.57812 7.53567C1.01115 6.9687 0.692627 6.19973 0.692627 5.39791V3.07233C0.692627 2.27051 1.01115 1.50153 1.57812 0.934563ZM3.71588 1.44442C3.28413 1.44442 2.87007 1.61593 2.56478 1.92122C2.25949 2.22652 2.08798 2.64058 2.08798 3.07233V5.39791C2.08798 5.82966 2.25949 6.24372 2.56478 6.54901C2.87007 6.8543 3.28414 7.02582 3.71588 7.02582H6.04146C6.47321 7.02582 6.88728 6.85431 7.19257 6.54901C7.49786 6.24372 7.66937 5.82966 7.66937 5.39791V3.07233C7.66937 2.64058 7.49786 2.22652 7.19257 1.92122C6.88728 1.61593 6.47321 1.44442 6.04146 1.44442H3.71588ZM13.206 0.934563C13.773 0.367593 14.542 0.0490723 15.3438 0.0490723H17.6694C18.4712 0.0490723 19.2402 0.367593 19.8071 0.934563C20.3741 1.50153 20.6926 2.27051 20.6926 3.07233V5.39791C20.6926 6.19973 20.3741 6.9687 19.8071 7.53567C19.2402 8.10264 18.4712 8.42116 17.6694 8.42116H15.3438C14.542 8.42116 13.773 8.10264 13.206 7.53567C12.6391 6.9687 12.3205 6.19973 12.3205 5.39791V3.07233C12.3205 2.27051 12.6391 1.50153 13.206 0.934563ZM15.3438 1.44442C14.912 1.44442 14.498 1.61593 14.1927 1.92122C13.8874 2.22652 13.7159 2.64058 13.7159 3.07233V5.39791C13.7159 5.82966 13.8874 6.24372 14.1927 6.54901C14.498 6.85431 14.912 7.02582 15.3438 7.02582H17.6694C18.1011 7.02582 18.5152 6.85431 18.8205 6.54901C19.1258 6.24372 19.2973 5.82966 19.2973 5.39791V3.07233C19.2973 2.64058 19.1258 2.22652 18.8205 1.92122C18.5152 1.61593 18.1011 1.44442 17.6694 1.44442H15.3438ZM1.57812 12.5625C2.14509 11.9955 2.91406 11.677 3.71588 11.677H6.04146C6.84328 11.677 7.61226 11.9955 8.17923 12.5625C8.7462 13.1294 9.06472 13.8984 9.06472 14.7002V17.0258C9.06472 17.8276 8.7462 18.5966 8.17923 19.1636C7.61226 19.7305 6.84328 20.0491 6.04146 20.0491H3.71588C2.91406 20.0491 2.14509 19.7305 1.57812 19.1636C1.01115 18.5966 0.692627 17.8276 0.692627 17.0258V14.7002C0.692627 13.8984 1.01115 13.1294 1.57812 12.5625ZM3.71588 13.0723C3.28414 13.0723 2.87007 13.2438 2.56478 13.5491C2.25949 13.8544 2.08798 14.2685 2.08798 14.7002V17.0258C2.08798 17.4576 2.25949 17.8716 2.56478 18.1769C2.87007 18.4822 3.28414 18.6537 3.71588 18.6537H6.04146C6.47321 18.6537 6.88728 18.4822 7.19257 18.1769C7.49786 17.8716 7.66937 17.4576 7.66937 17.0258V14.7002C7.66937 14.2685 7.49786 13.8544 7.19257 13.5491C6.88728 13.2438 6.47321 13.0723 6.04146 13.0723H3.71588ZM16.5066 11.677C16.8919 11.677 17.2043 11.9893 17.2043 12.3747V15.1654H19.995C20.3803 15.1654 20.6926 15.4777 20.6926 15.863C20.6926 16.2483 20.3803 16.5607 19.995 16.5607H17.2043V19.3514C17.2043 19.7367 16.8919 20.0491 16.5066 20.0491C16.1213 20.0491 15.8089 19.7367 15.8089 19.3514V16.5607H13.0182C12.6329 16.5607 12.3205 16.2483 12.3205 15.863C12.3205 15.4777 12.6329 15.1654 13.0182 15.1654H15.8089V12.3747C15.8089 11.9893 16.1213 11.677 16.5066 11.677Z" fill="#525252"/>
</g>
<defs>
<clipPath id="clip0_1311_12">
<rect width="20" height="20" fill="white" transform="translate(0.692627)"/>
</clipPath>
</defs>
</svg>
