<svg width="21" height="20" viewBox="0 0 21 20" fill="none" xmlns="http://www.w3.org/2000/svg">
<g id="Trophy" clip-path="url(#clip0_1311_185)">
<g id="Vector">
<path d="M6.52596 20.0194C5.91231 20.0194 5.41485 19.5219 5.41485 18.9083C5.41485 18.2946 5.91231 17.7972 6.52596 17.7972H9.63707V14.3527C8.77503 14.149 8.00536 13.7648 7.32804 13.2C6.65073 12.6351 6.15374 11.9268 5.83707 11.075C4.51763 10.9083 3.41369 10.3018 2.52527 9.25552C1.63684 8.20922 1.19263 6.98237 1.19263 5.57496V4.46385C1.19263 3.85274 1.39934 3.32959 1.81277 2.89441C2.22619 2.45922 2.72318 2.24163 3.30374 2.24163H5.41485V2.01941C5.41485 0.91484 6.31028 0.0194092 7.41485 0.0194092H13.9704C15.075 0.0194092 15.9704 0.91484 15.9704 2.01941V2.24163H18.0815C18.6621 2.24163 19.1591 2.45922 19.5725 2.89441C19.9859 3.32959 20.1926 3.85274 20.1926 4.46385V5.57496C20.1926 6.98237 19.7484 8.20922 18.86 9.25552C17.9716 10.3018 16.8676 10.9083 15.5482 11.075C15.2315 11.9268 14.7345 12.6351 14.0572 13.2C13.3799 13.7648 12.6102 14.149 11.7482 14.3527V17.7972H14.8593C15.4729 17.7972 15.9704 18.2946 15.9704 18.9083C15.9704 19.5219 15.4729 20.0194 14.8593 20.0194H6.52596ZM5.41485 9.68945V3.72064H2.52085V5.57496C2.52085 6.27867 2.71437 7.48237 3.1014 8.04719C3.48844 8.612 4.78152 9.44871 5.41485 9.68945ZM10.6926 12.6891C11.5723 12.6891 12.8802 12.3651 13.496 11.7169C14.1117 11.0688 14.4196 10.2817 14.4196 9.35579V1.48545H6.87834V9.35579C6.87834 10.2817 7.18621 11.0688 7.80195 11.7169C8.41769 12.3651 9.813 12.6891 10.6926 12.6891ZM15.9704 9.62067C16.6037 9.37992 17.7493 8.53105 18.1363 7.96623C18.5234 7.40142 18.7169 6.27867 18.7169 5.57496V3.74215H15.9704V9.62067Z" fill="#525252"/>
<path d="M10.6927 3.71483L11.0941 5.18725L12.5666 5.58874L11.0941 5.99023L10.6927 7.46264L10.2912 5.99023L8.81875 5.58874L10.2912 5.18725L10.6927 3.71483Z" fill="#525252"/>
</g>
</g>
<defs>
<clipPath id="clip0_1311_185">
<rect width="20" height="20" fill="white" transform="translate(0.692627)"/>
</clipPath>
</defs>
</svg>
