<svg width="20" height="21" viewBox="0 0 20 21" fill="none" xmlns="http://www.w3.org/2000/svg">
<g id="selected=false" clip-path="url(#clip0_1311_392)">
<path id="Vector (Stroke)" fill-rule="evenodd" clip-rule="evenodd" d="M10.0667 1.69873C7.71473 1.69873 5.45914 2.63302 3.79608 4.29608C2.13302 5.95914 1.19873 8.21473 1.19873 10.5667C1.19873 11.7312 1.4281 12.8844 1.87376 13.9603C2.16477 14.6628 2.54428 15.3235 3.00192 15.9267C5.17945 14.7858 7.60395 14.1898 10.0671 14.1935C12.6153 14.1936 15.0189 14.8192 17.1314 15.9266C17.5891 15.3234 17.9685 14.6628 18.2595 13.9603C18.7052 12.8844 18.9346 11.7312 18.9346 10.5667C18.9346 8.21473 18.0003 5.95914 16.3372 4.29608C14.6742 2.63302 12.4186 1.69873 10.0667 1.69873ZM17.7252 16.9968C18.3807 16.2161 18.914 15.3384 19.3054 14.3935C19.808 13.1802 20.0667 11.8799 20.0667 10.5667C20.0667 7.91449 19.0131 5.37095 17.1377 3.49558C15.2624 1.62022 12.7188 0.56665 10.0667 0.56665C7.41449 0.56665 4.87095 1.62022 2.99558 3.49558C1.12022 5.37095 0.0666504 7.91449 0.0666504 10.5667C0.0666504 11.8799 0.325308 13.1802 0.827855 14.3935C1.21926 15.3384 1.75264 16.2161 2.40813 16.9968C2.41829 17.01 2.42895 17.0226 2.44007 17.0347C2.61663 17.2429 2.80193 17.4441 2.99558 17.6377C3.92417 18.5663 5.02656 19.3029 6.23982 19.8054C7.45307 20.308 8.75343 20.5667 10.0667 20.5667C11.3799 20.5667 12.6802 20.308 13.8935 19.8054C15.1067 19.3029 16.2091 18.5663 17.1377 17.6377C17.3314 17.4441 17.5167 17.2429 17.6932 17.0347C17.7044 17.0226 17.715 17.01 17.7252 16.9968ZM16.3672 16.8071C14.4711 15.8588 12.3319 15.3256 10.0667 15.3256L10.0658 15.3256C7.87596 15.3222 5.7191 15.8311 3.76617 16.8072C3.77612 16.8172 3.78609 16.8272 3.79608 16.8372C4.61954 17.6607 5.59714 18.3139 6.67304 18.7595C7.74895 19.2052 8.9021 19.4346 10.0667 19.4346C11.2312 19.4346 12.3844 19.2052 13.4603 18.7595C14.5362 18.3139 15.5138 17.6607 16.3372 16.8372C16.3473 16.8272 16.3573 16.8171 16.3672 16.8071ZM10.0671 14.1935C10.0672 14.1935 10.0674 14.1935 10.0675 14.1935L10.0667 14.7595V14.1935C10.0668 14.1935 10.0669 14.1935 10.0671 14.1935ZM10.0667 5.8916C9.38276 5.8916 8.72688 6.16327 8.24329 6.64686C7.75971 7.13044 7.48803 7.78632 7.48803 8.47021C7.48803 9.15411 7.75971 9.80999 8.24329 10.2936C8.72688 10.7772 9.38276 11.0488 10.0667 11.0488C10.7505 11.0488 11.4064 10.7772 11.89 10.2936C12.3736 9.80999 12.6453 9.15411 12.6453 8.47021C12.6453 7.78632 12.3736 7.13044 11.89 6.64686C11.4064 6.16327 10.7505 5.8916 10.0667 5.8916ZM7.44279 5.84636C8.13868 5.15047 9.08251 4.75952 10.0667 4.75952C11.0508 4.75952 11.9946 5.15047 12.6905 5.84636C13.3864 6.54225 13.7773 7.48608 13.7773 8.47021C13.7773 9.45435 13.3864 10.3982 12.6905 11.0941C11.9946 11.79 11.0508 12.1809 10.0667 12.1809C9.08251 12.1809 8.13868 11.79 7.44279 11.0941C6.7469 10.3982 6.35596 9.45435 6.35596 8.47021C6.35596 7.48608 6.7469 6.54225 7.44279 5.84636Z" fill="#525252"/>
</g>
<defs>
<clipPath id="clip0_1311_392">
<rect width="20" height="20" fill="white" transform="translate(0 0.5)"/>
</clipPath>
</defs>
</svg>
