<svg width="17" height="20" viewBox="0 0 17 20" fill="none" xmlns="http://www.w3.org/2000/svg">
<g id="DocumentReportOutline" clip-path="url(#clip0_1311_327)">
<path id="Vector (Stroke)" fill-rule="evenodd" clip-rule="evenodd" d="M3.20833 1.25C2.82156 1.25 2.45063 1.40365 2.17714 1.67714C1.90365 1.95063 1.75 2.32156 1.75 2.70833V17.2917C1.75 17.6784 1.90365 18.0494 2.17714 18.3229C2.45063 18.5964 2.82156 18.75 3.20833 18.75H13.625C14.0118 18.75 14.3827 18.5964 14.6562 18.3229C14.9297 18.0494 15.0833 17.6784 15.0833 17.2917V7.30638C15.0833 7.30634 15.0833 7.30643 15.0833 7.30638C15.0833 7.19593 15.0394 7.08989 14.9613 7.0118L9.3216 1.37215C9.24351 1.29404 9.13753 1.25006 9.02708 1.25C9.02704 1.25 9.02713 1.25 9.02708 1.25H3.20833ZM1.29325 0.793252C1.80116 0.285341 2.49004 0 3.20833 0H9.02708C9.46904 9.44361e-05 9.893 0.175726 10.2055 0.488267C10.2055 0.488244 10.2055 0.488289 10.2055 0.488267L15.845 6.12778C16.1576 6.44027 16.3332 6.86413 16.3333 7.30612V17.2917C16.3333 18.01 16.048 18.6988 15.5401 19.2067C15.0322 19.7147 14.3433 20 13.625 20H3.20833C2.49004 20 1.80116 19.7147 1.29325 19.2067C0.785341 18.6988 0.5 18.01 0.5 17.2917V2.70833C0.5 1.99004 0.785341 1.30116 1.29325 0.793252ZM11.5417 8.33333C11.8868 8.33333 12.1667 8.61316 12.1667 8.95833V15.2083C12.1667 15.5535 11.8868 15.8333 11.5417 15.8333C11.1965 15.8333 10.9167 15.5535 10.9167 15.2083V8.95833C10.9167 8.61316 11.1965 8.33333 11.5417 8.33333ZM8.41667 10.4167C8.76184 10.4167 9.04167 10.6965 9.04167 11.0417V15.2083C9.04167 15.5535 8.76184 15.8333 8.41667 15.8333C8.07149 15.8333 7.79167 15.5535 7.79167 15.2083V11.0417C7.79167 10.6965 8.07149 10.4167 8.41667 10.4167ZM5.29167 12.5C5.63684 12.5 5.91667 12.7798 5.91667 13.125V15.2083C5.91667 15.5535 5.63684 15.8333 5.29167 15.8333C4.94649 15.8333 4.66667 15.5535 4.66667 15.2083V13.125C4.66667 12.7798 4.94649 12.5 5.29167 12.5Z" fill="#525252"/>
</g>
<defs>
<clipPath id="clip0_1311_327">
<rect width="16" height="20" fill="white" transform="translate(0.5)"/>
</clipPath>
</defs>
</svg>
