<svg width="17" height="20" viewBox="0 0 17 20" fill="none" xmlns="http://www.w3.org/2000/svg">
<g id="DocumentReport">
<path id="Subtract" fill-rule="evenodd" clip-rule="evenodd" d="M1.73223 0.732233C2.20107 0.263392 2.83696 0 3.5 0H9.2325C9.89549 0.000141594 10.5313 0.263627 11 0.7325L15.2675 5C15.7364 5.46873 15.9999 6.10451 16 6.7675V17.5C16 18.163 15.7366 18.7989 15.2678 19.2678C14.7989 19.7366 14.163 20 13.5 20H3.5C2.83696 20 2.20107 19.7366 1.73223 19.2678C1.26339 18.7989 1 18.163 1 17.5V2.5C1 1.83696 1.26339 1.20107 1.73223 0.732233ZM12.005 7.91543C12.005 7.58406 11.7364 7.31543 11.405 7.31543C11.0737 7.31543 10.805 7.58406 10.805 7.91543V14.2066C10.805 14.538 11.0737 14.8066 11.405 14.8066C11.7364 14.8066 12.005 14.538 12.005 14.2066V7.91543ZM8.50001 9.43555C8.83138 9.43555 9.10001 9.70418 9.10001 10.0355L9.10001 14.2066C9.10001 14.538 8.83138 14.8066 8.50001 14.8066C8.16864 14.8066 7.90001 14.538 7.90001 14.2066V10.0355C7.90001 9.70418 8.16864 9.43555 8.50001 9.43555ZM5.06509 11.4709C5.39646 11.4709 5.66509 11.7396 5.66509 12.0709L5.66509 14.2066C5.66509 14.538 5.39646 14.8066 5.06509 14.8066C4.73372 14.8066 4.46509 14.538 4.46509 14.2066V12.0709C4.46509 11.7396 4.73372 11.4709 5.06509 11.4709Z" fill="#066FAA"/>
</g>
</svg>
