<svg width="21" height="20" viewBox="0 0 21 20" fill="none" xmlns="http://www.w3.org/2000/svg">
<g id="selected=true" clip-path="url(#clip0_1311_125)">
<path id="Vector" fill-rule="evenodd" clip-rule="evenodd" d="M20.6926 10C20.6926 12.6522 19.6391 15.1957 17.7637 17.0711C15.8883 18.9464 13.3448 20 10.6926 20C8.04046 20 5.49692 18.9464 3.62156 17.0711C1.7462 15.1957 0.692627 12.6522 0.692627 10C0.692627 7.34784 1.7462 4.8043 3.62156 2.92893C5.49692 1.05357 8.04046 0 10.6926 0C13.3448 0 15.8883 1.05357 17.7637 2.92893C19.6391 4.8043 20.6926 7.34784 20.6926 10ZM13.1926 6.25C13.1926 6.91304 12.9292 7.54893 12.4604 8.01777C11.9916 8.48661 11.3557 8.75 10.6926 8.75C10.0296 8.75 9.3937 8.48661 8.92486 8.01777C8.45602 7.54893 8.19263 6.91304 8.19263 6.25C8.19263 5.58696 8.45602 4.95107 8.92486 4.48223C9.3937 4.01339 10.0296 3.75 10.6926 3.75C11.3557 3.75 11.9916 4.01339 12.4604 4.48223C12.9292 4.95107 13.1926 5.58696 13.1926 6.25ZM10.6926 11.25C9.49588 11.2498 8.32422 11.5931 7.3169 12.2393C6.30957 12.8854 5.50893 13.8072 5.01013 14.895C5.71347 15.7133 6.58547 16.3697 7.56631 16.8193C8.54715 17.269 9.61363 17.5012 10.6926 17.5C11.7716 17.5012 12.8381 17.269 13.8189 16.8193C14.7998 16.3697 15.6718 15.7133 16.3751 14.895C15.8763 13.8072 15.0757 12.8854 14.0684 12.2393C13.061 11.5931 11.8894 11.2498 10.6926 11.25Z" fill="#066FAA"/>
</g>
<defs>
<clipPath id="clip0_1311_125">
<rect width="20" height="20" fill="white" transform="translate(0.692627)"/>
</clipPath>
</defs>
</svg>
