<svg width="21" height="20" viewBox="0 0 21 20" fill="none" xmlns="http://www.w3.org/2000/svg">
<g id="ViewGridAdd" clip-path="url(#clip0_1311_321)">
<path id="Vector" d="M3.54977 0.0490723C2.79201 0.0490723 2.06528 0.350092 1.52946 0.88591C0.993646 1.42173 0.692627 2.14845 0.692627 2.90622V5.76336C0.692627 6.52112 0.993646 7.24784 1.52946 7.78366C2.06528 8.31948 2.79201 8.6205 3.54977 8.6205H6.40691C7.16467 8.6205 7.8914 8.31948 8.42722 7.78366C8.96304 7.24784 9.26406 6.52112 9.26406 5.76336V2.90622C9.26406 2.14845 8.96304 1.42173 8.42722 0.88591C7.8914 0.350092 7.16467 0.0490723 6.40691 0.0490723H3.54977ZM3.54977 11.4776C2.79201 11.4776 2.06528 11.7787 1.52946 12.3145C0.993646 12.8503 0.692627 13.577 0.692627 14.3348V17.1919C0.692627 17.9497 0.993646 18.6764 1.52946 19.2122C2.06528 19.7481 2.79201 20.0491 3.54977 20.0491H6.40691C7.16467 20.0491 7.8914 19.7481 8.42722 19.2122C8.96304 18.6764 9.26406 17.9497 9.26406 17.1919V14.3348C9.26406 13.577 8.96304 12.8503 8.42722 12.3145C7.8914 11.7787 7.16467 11.4776 6.40691 11.4776H3.54977ZM12.1212 2.90622C12.1212 2.14845 12.4222 1.42173 12.958 0.88591C13.4939 0.350092 14.2206 0.0490723 14.9783 0.0490723H17.8355C18.5932 0.0490723 19.32 0.350092 19.8558 0.88591C20.3916 1.42173 20.6926 2.14845 20.6926 2.90622V5.76336C20.6926 6.52112 20.3916 7.24784 19.8558 7.78366C19.32 8.31948 18.5932 8.6205 17.8355 8.6205H14.9783C14.2206 8.6205 13.4939 8.31948 12.958 7.78366C12.4222 7.24784 12.1212 6.52112 12.1212 5.76336V2.90622ZM16.4069 11.4776C16.7858 11.4776 17.1492 11.6282 17.4171 11.8961C17.685 12.164 17.8355 12.5273 17.8355 12.9062V14.3348H19.2641C19.6429 14.3348 20.0063 14.4853 20.2742 14.7532C20.5421 15.0211 20.6926 15.3845 20.6926 15.7634C20.6926 16.1422 20.5421 16.5056 20.2742 16.7735C20.0063 17.0414 19.6429 17.1919 19.2641 17.1919H17.8355V18.6205C17.8355 18.9994 17.685 19.3627 17.4171 19.6307C17.1492 19.8986 16.7858 20.0491 16.4069 20.0491C16.028 20.0491 15.6647 19.8986 15.3968 19.6307C15.1289 19.3627 14.9783 18.9994 14.9783 18.6205V17.1919H13.5498C13.1709 17.1919 12.8075 17.0414 12.5396 16.7735C12.2717 16.5056 12.1212 16.1422 12.1212 15.7634C12.1212 15.3845 12.2717 15.0211 12.5396 14.7532C12.8075 14.4853 13.1709 14.3348 13.5498 14.3348H14.9783V12.9062C14.9783 12.5273 15.1289 12.164 15.3968 11.8961C15.6647 11.6282 16.028 11.4776 16.4069 11.4776Z" fill="#066FAA"/>
</g>
<defs>
<clipPath id="clip0_1311_321">
<rect width="20" height="20" fill="white" transform="translate(0.692627)"/>
</clipPath>
</defs>
</svg>
