<svg width="20" height="20" viewBox="0 0 20 20" fill="none" xmlns="http://www.w3.org/2000/svg">
<g id="Person play" clip-path="url(#clip0_1311_74)">
<path id="Vector" d="M3.35929 10.1905L0.978341 7.80952C0.787865 7.61905 0.692627 7.39683 0.692627 7.14286C0.692627 6.88889 0.787865 6.66667 0.978341 6.47619L3.35929 4.09524C3.54977 3.90476 3.77199 3.80952 4.02596 3.80952C4.27993 3.80952 4.50215 3.90476 4.69263 4.09524L7.07358 6.47619C7.26406 6.66667 7.35929 6.88889 7.35929 7.14286C7.35929 7.39683 7.26406 7.61905 7.07358 7.80952L4.69263 10.1905C4.50215 10.381 4.27993 10.4762 4.02596 10.4762C3.77199 10.4762 3.54977 10.381 3.35929 10.1905ZM8.31167 20C8.04183 20 7.81564 19.9087 7.6331 19.7262C7.45056 19.5437 7.35929 19.3175 7.35929 19.0476V15.2381C6.56564 15.1746 5.77993 15.0873 5.00215 14.9762C4.22437 14.8651 3.4466 14.7222 2.66882 14.5476C2.39898 14.4841 2.18072 14.3333 2.01406 14.0952C1.84739 13.8571 1.80374 13.6032 1.8831 13.3333C1.96247 13.0635 2.12517 12.8651 2.3712 12.7381C2.61723 12.6111 2.87517 12.5794 3.14501 12.6429C4.30374 12.9127 5.47437 13.0952 6.65691 13.1905C7.83945 13.2857 9.02596 13.3333 10.2164 13.3333C11.4069 13.3333 12.5934 13.2857 13.776 13.1905C14.9585 13.0952 16.1291 12.9127 17.2879 12.6429C17.5577 12.5794 17.8156 12.6111 18.0617 12.7381C18.3077 12.8651 18.4704 13.0635 18.5498 13.3333C18.6291 13.6032 18.5855 13.8571 18.4188 14.0952C18.2522 14.3333 18.0339 14.4841 17.7641 14.5476C16.9863 14.7222 16.2085 14.8651 15.4307 14.9762C14.6529 15.0873 13.8672 15.1746 13.0736 15.2381V19.0476C13.0736 19.3175 12.9823 19.5437 12.7998 19.7262C12.6172 19.9087 12.391 20 12.1212 20H8.31167ZM10.2164 5.71429C9.42279 5.71429 8.74818 5.43651 8.19263 4.88095C7.63707 4.3254 7.35929 3.65079 7.35929 2.85714C7.35929 2.06349 7.63707 1.38889 8.19263 0.833333C8.74818 0.277778 9.42279 0 10.2164 0C11.0101 0 11.6847 0.277778 12.2402 0.833333C12.7958 1.38889 13.0736 2.06349 13.0736 2.85714C13.0736 3.65079 12.7958 4.3254 12.2402 4.88095C11.6847 5.43651 11.0101 5.71429 10.2164 5.71429ZM10.2164 12.381C9.69263 12.381 9.24421 12.1944 8.8712 11.8214C8.49818 11.4484 8.31167 11 8.31167 10.4762C8.31167 9.95238 8.49818 9.50397 8.8712 9.13095C9.24421 8.75794 9.69263 8.57143 10.2164 8.57143C10.7402 8.57143 11.1887 8.75794 11.5617 9.13095C11.9347 9.50397 12.1212 9.95238 12.1212 10.4762C12.1212 11 11.9347 11.4484 11.5617 11.8214C11.1887 12.1944 10.7402 12.381 10.2164 12.381ZM14.7641 10L13.6688 8.09524C13.5895 7.95238 13.5498 7.79365 13.5498 7.61905C13.5498 7.44444 13.5895 7.28571 13.6688 7.14286L14.7641 5.2381C14.8434 5.07937 14.9545 4.96032 15.0974 4.88095C15.2402 4.80159 15.399 4.7619 15.5736 4.7619H17.7164C17.891 4.7619 18.0498 4.80159 18.1926 4.88095C18.3355 4.96032 18.4466 5.07937 18.526 5.2381L19.6212 7.14286C19.7006 7.28571 19.7402 7.44444 19.7402 7.61905C19.7402 7.79365 19.7006 7.95238 19.6212 8.09524L18.526 10C18.4466 10.1587 18.3355 10.2778 18.1926 10.3571C18.0498 10.4365 17.891 10.4762 17.7164 10.4762H15.5736C15.399 10.4762 15.2402 10.4365 15.0974 10.3571C14.9545 10.2778 14.8434 10.1587 14.7641 10Z" fill="#066FAA"/>
</g>
<defs>
<clipPath id="clip0_1311_74">
<rect width="19.0476" height="20" fill="white" transform="translate(0.692627)"/>
</clipPath>
</defs>
</svg>
