<svg width="21" height="20" viewBox="0 0 21 20" fill="none" xmlns="http://www.w3.org/2000/svg">
<g id="Trophy" clip-path="url(#clip0_1311_80)">
<path id="Subtract" fill-rule="evenodd" clip-rule="evenodd" d="M9.58152 14.3333V17.7778H6.24818C5.93337 17.7778 5.66948 17.8843 5.45652 18.0972C5.24355 18.3102 5.13707 18.5741 5.13707 18.8889C5.13707 19.2037 5.24355 19.4676 5.45652 19.6806C5.66948 19.8935 5.93337 20 6.24818 20H15.1371C15.4519 20 15.7158 19.8935 15.9287 19.6806C16.1417 19.4676 16.2482 19.2037 16.2482 18.8889C16.2482 18.5741 16.1417 18.3102 15.9287 18.0972C15.7158 17.8843 15.4519 17.7778 15.1371 17.7778H11.8037V14.3333C12.7111 14.1296 13.5213 13.7454 14.2343 13.1806C14.9473 12.6157 15.4704 11.9074 15.8037 11.0556C17.1926 10.8889 18.3547 10.2824 19.2899 9.23611C20.225 8.18982 20.6926 6.96296 20.6926 5.55556V4.44444C20.6926 3.83333 20.475 3.31019 20.0399 2.875C19.6047 2.43981 19.0815 2.22222 18.4704 2.22222H16.2482C16.2482 1.61111 16.0306 1.08796 15.5954 0.652778C15.1602 0.217593 14.6371 0 14.026 0H7.35929C6.74818 0 6.22503 0.217593 5.78985 0.652778C5.35466 1.08796 5.13707 1.61111 5.13707 2.22222H2.91485C2.30374 2.22222 1.78059 2.43981 1.3454 2.875C0.91022 3.31019 0.692627 3.83333 0.692627 4.44444V5.55556C0.692627 6.96296 1.16022 8.18982 2.0954 9.23611C3.03059 10.2824 4.19263 10.8889 5.58152 11.0556C5.91485 11.9074 6.438 12.6157 7.15096 13.1806C7.86392 13.7454 8.67411 14.1296 9.58152 14.3333ZM5.13707 3.82125V9.39589C4.4704 9.15514 3.58212 8.61815 3.17471 8.05334C2.76731 7.48852 2.30374 6.25926 2.30374 5.55556V3.82125H5.13707ZM18.4704 7.98236C18.063 8.54718 16.9148 9.15514 16.2482 9.39589V3.82125H19.0815V5.55556C19.0815 6.25926 18.8778 7.41755 18.4704 7.98236ZM11.0941 5.18726L10.6926 3.71484L10.2911 5.18726L8.81873 5.58875L10.2911 5.99023L10.6926 7.46265L11.0941 5.99023L12.5665 5.58875L11.0941 5.18726Z" fill="#066FAA"/>
</g>
<defs>
<clipPath id="clip0_1311_80">
<rect width="20" height="20" fill="white" transform="translate(0.692627)"/>
</clipPath>
</defs>
</svg>
