<svg width="21" height="20" viewBox="0 0 21 20" fill="none" xmlns="http://www.w3.org/2000/svg">
<g id="Person play" clip-path="url(#clip0_1311_180)">
<path id="Subtract" fill-rule="evenodd" clip-rule="evenodd" d="M1.614 7.84996L3.91407 10.15C4.3046 10.5406 4.93776 10.5406 5.32829 10.15L7.62836 7.84996C8.01888 7.45944 8.01888 6.82627 7.62836 6.43575L5.32829 4.13568C4.93776 3.74515 4.3046 3.74515 3.91407 4.13568L1.614 6.43575C1.22347 6.82627 1.22347 7.45944 1.614 7.84996ZM7.95451 19C7.95451 19.5523 8.40223 20 8.95451 20H12.6688C13.2211 20 13.6688 19.5523 13.6688 19V15.2381C14.6371 15.1587 15.5974 15.0437 16.5498 14.8929C17.1872 14.7919 17.821 14.6679 18.4513 14.5208C18.9711 14.3994 19.2795 13.8713 19.15 13.3534C19.0166 12.8199 18.4709 12.5024 17.9351 12.6265C16.924 12.8606 15.9106 13.0288 14.895 13.131C13.5537 13.2659 12.1926 13.3333 10.8117 13.3333C9.4307 13.3333 8.06959 13.2659 6.72832 13.131C5.71267 13.0288 4.69929 12.8606 3.68819 12.6265C3.15242 12.5024 2.60669 12.8199 2.47331 13.3534C2.34384 13.8713 2.65217 14.3994 3.17201 14.5208C3.8023 14.6679 4.43615 14.7919 5.07356 14.8929C6.02594 15.0437 6.98626 15.1587 7.95451 15.2381V19ZM7.06353 7.14286L4.62118 9.54885L2.20896 7.14286L4.62118 4.75793L7.06353 7.14286ZM8.78785 4.88095C9.3434 5.43651 10.018 5.71429 10.8117 5.71429C11.6053 5.71429 12.2799 5.43651 12.8355 4.88095C13.391 4.3254 13.6688 3.65079 13.6688 2.85714C13.6688 2.06349 13.391 1.38889 12.8355 0.833333C12.2799 0.277778 11.6053 0 10.8117 0C10.018 0 9.3434 0.277778 8.78785 0.833333C8.23229 1.38889 7.95451 2.06349 7.95451 2.85714C7.95451 3.65079 8.23229 4.3254 8.78785 4.88095ZM9.46642 11.8214C9.83943 12.1944 10.2878 12.381 10.8117 12.381C11.3355 12.381 11.7839 12.1944 12.1569 11.8214C12.5299 11.4484 12.7164 11 12.7164 10.4762C12.7164 9.95238 12.5299 9.50397 12.1569 9.13095C11.7839 8.75794 11.3355 8.57143 10.8117 8.57143C10.2878 8.57143 9.83943 8.75794 9.46642 9.13095C9.0934 9.50397 8.90689 9.95238 8.90689 10.4762C8.90689 11 9.0934 11.4484 9.46642 11.8214ZM15.3339 9.9692C15.5114 10.2825 15.8438 10.4762 16.2039 10.4762H18.2765C18.6367 10.4762 18.969 10.2825 19.1466 9.9692L20.1989 8.11206C20.3723 7.80623 20.3723 7.43187 20.1989 7.12604L19.1466 5.26889C18.969 4.95556 18.6367 4.7619 18.2765 4.7619H16.2039C15.8438 4.7619 15.5114 4.95556 15.3339 5.26889L14.2815 7.12603C14.1082 7.43187 14.1082 7.80623 14.2815 8.11206L15.3339 9.9692ZM8.81539 2.62235L8.8024 2.85371L8.81539 3.08507L8.85421 3.31352L8.91836 3.53619L9.00703 3.75027L9.11912 3.95308L9.25322 4.14207L9.40762 4.31485L9.58041 4.46926L9.76939 4.60335L9.9722 4.71544L10.1863 4.80412L10.409 4.86826L10.6374 4.90708L10.8688 4.92007L11.1001 4.90708L11.3286 4.86826L11.5512 4.80412L11.7653 4.71544L11.9681 4.60335L12.1571 4.46926L12.3299 4.31485L12.4843 4.14207L12.6184 3.95308L12.7305 3.75027L12.8192 3.53619L12.8833 3.31352L12.9221 3.08507L12.9351 2.85371L12.9221 2.62235L12.8833 2.3939L12.8192 2.17124L12.7305 1.95715L12.6184 1.75434L12.4843 1.56536L12.3299 1.39258L12.1571 1.23817L11.9681 1.10408L11.7653 0.991988L11.5512 0.903311L11.3286 0.839162L11.1001 0.800346L10.8688 0.787354L10.6374 0.800346L10.409 0.839162L10.1863 0.903311L9.9722 0.991988L9.76939 1.10408L9.58041 1.23817L9.40762 1.39258L9.25322 1.56536L9.11912 1.75434L9.00703 1.95715L8.91836 2.17124L8.85421 2.3939L8.81539 2.62235ZM16.1341 5.67701L15.0159 7.6139L16.1341 9.5508H18.3707L19.4889 7.6139L18.3707 5.67701H16.1341Z" fill="#525252"/>
</g>
<defs>
<clipPath id="clip0_1311_180">
<rect width="20" height="20" fill="white" transform="translate(0.692627)"/>
</clipPath>
</defs>
</svg>
