<svg width="48" height="49" viewBox="0 0 48 49" fill="none" xmlns="http://www.w3.org/2000/svg">
<g id="double P v1" style="mix-blend-mode:luminosity" opacity="0.5">
<g id="Vector">
<path fill-rule="evenodd" clip-rule="evenodd" d="M3.60718 24.1798L23.9999 44.5725L44.3927 24.1798L23.9999 3.78699L3.60718 24.1798ZM1.31165 22.868C0.587197 23.5925 0.587199 24.767 1.31165 25.4915L22.6882 46.868C23.4127 47.5925 24.5872 47.5925 25.3117 46.868L46.6883 25.4915C47.4127 24.767 47.4127 23.5925 46.6882 22.868L25.3117 1.49146C24.5872 0.767006 23.4127 0.767009 22.6882 1.49146L1.31165 22.868Z" fill="#895A3A" style="mix-blend-mode:lighten"/>
<path d="M32.9992 30.9307H28.9844C28.2484 30.9307 27.6183 30.6663 27.0941 30.1375C26.57 29.6087 26.3079 28.9729 26.3079 28.2303V25.5299C26.3079 24.7873 26.57 24.1516 27.0941 23.6228C27.6183 23.094 28.2484 22.8296 28.9844 22.8296H31.6609V20.1292H27.6462C27.267 20.1292 26.9492 19.9998 26.6927 19.741C26.4362 19.4822 26.3079 19.1615 26.3079 18.779C26.3079 18.3964 26.4362 18.0757 26.6927 17.817C26.9492 17.5582 27.267 17.4288 27.6462 17.4288H31.6609C32.3969 17.4288 33.027 17.6932 33.5512 18.222C34.0753 18.7508 34.3374 19.3866 34.3374 20.1292V22.8296C34.3374 23.5722 34.0753 24.2079 33.5512 24.7367C33.027 25.2655 32.3969 25.5299 31.6609 25.5299H28.9844V28.2303H32.9992C33.3783 28.2303 33.6962 28.3597 33.9527 28.6185C34.2092 28.8773 34.3374 29.198 34.3374 29.5805C34.3374 29.9631 34.2092 30.2838 33.9527 30.5425C33.6962 30.8013 33.3783 30.9307 32.9992 30.9307Z" fill="#9F6828"/>
<path d="M18.771 28.2792L16.8774 30.5918C16.7872 30.6981 16.6745 30.7812 16.5393 30.841C16.404 30.9008 16.2552 30.9307 16.0929 30.9307C15.7323 30.9307 15.4572 30.8144 15.2679 30.5818C15.0785 30.3493 15.083 30.12 15.2814 29.894L17.6889 26.9435L15.2814 23.9929C15.083 23.7669 15.0785 23.5377 15.2679 23.3051C15.4572 23.0725 15.7323 22.9562 16.0929 22.9562C16.2552 22.9562 16.404 22.9861 16.5393 23.0459C16.6745 23.1057 16.7872 23.1888 16.8774 23.2951L18.771 25.6077L20.6646 23.2951C20.7547 23.1888 20.8674 23.1057 21.0027 23.0459C21.1379 22.9861 21.2867 22.9562 21.449 22.9562C21.8097 22.9562 22.0847 23.0725 22.2741 23.3051C22.4634 23.5377 22.4589 23.7669 22.2606 23.9929L19.853 26.9435L22.2606 29.894C22.4589 30.12 22.4634 30.3493 22.2741 30.5818C22.0847 30.8144 21.8097 30.9307 21.449 30.9307C21.2867 30.9307 21.1379 30.9008 21.0027 30.841C20.8674 30.7812 20.7547 30.6981 20.6646 30.5918L18.771 28.2792Z" fill="#9F6828"/>
</g>
</g>
</svg>
