<svg xmlns="http://www.w3.org/2000/svg" width="43" height="43" viewBox="0 0 43 43" fill="none">
  <path fill-rule="evenodd" clip-rule="evenodd" d="M3.6563 21.7193L21.5 39.563L39.3436 21.7193L21.5 3.87561L3.6563 21.7193ZM1.64771 20.5715C1.01382 21.2054 1.01382 22.2332 1.64771 22.8671L20.3522 41.5715C20.9861 42.2054 22.0138 42.2054 22.6477 41.5715L41.3522 22.8671C41.9861 22.2332 41.9861 21.2054 41.3522 20.5715L22.6477 1.86702C22.0138 1.23313 20.9861 1.23313 20.3522 1.86702L1.64771 20.5715Z" fill="#895A3A" style="mix-blend-mode:lighten"/>
  <path d="M29.3743 27.6264H25.8614C25.2174 27.6264 24.666 27.395 24.2074 26.9323C23.7488 26.4696 23.5194 25.9133 23.5194 25.2635V22.9007C23.5194 22.2509 23.7488 21.6947 24.2074 21.2319C24.666 20.7692 25.2174 20.5379 25.8614 20.5379H28.2033V18.175H24.6904C24.3586 18.175 24.0805 18.0618 23.8561 17.8354C23.6317 17.6089 23.5194 17.3283 23.5194 16.9936C23.5194 16.6589 23.6317 16.3783 23.8561 16.1518C24.0805 15.9254 24.3586 15.8122 24.6904 15.8122H28.2033C28.8473 15.8122 29.3987 16.0435 29.8573 16.5063C30.3159 16.969 30.5452 17.5252 30.5452 18.175V20.5379C30.5452 21.1876 30.3159 21.7439 29.8573 22.2066C29.3987 22.6693 28.8473 22.9007 28.2033 22.9007H25.8614V25.2635H29.3743C29.7061 25.2635 29.9842 25.3768 30.2086 25.6032C30.433 25.8296 30.5452 26.1102 30.5452 26.445C30.5452 26.7797 30.433 27.0603 30.2086 27.2867C29.9842 27.5132 29.7061 27.6264 29.3743 27.6264Z" fill="#9F6828"/>
  <path d="M16.9246 25.3063L15.2678 27.3298C15.1889 27.4229 15.0902 27.4956 14.9719 27.5479C14.8535 27.6002 14.7234 27.6264 14.5813 27.6264C14.2657 27.6264 14.0251 27.5246 13.8594 27.3211C13.6937 27.1176 13.6977 26.917 13.8713 26.7193L15.9778 24.1375L13.8713 21.5558C13.6977 21.3581 13.6937 21.1575 13.8594 20.9539C14.0251 20.7504 14.2657 20.6487 14.5813 20.6487C14.7234 20.6487 14.8535 20.6748 14.9719 20.7272C15.0902 20.7795 15.1889 20.8522 15.2678 20.9452L16.9246 22.9688L18.5815 20.9452C18.6604 20.8522 18.759 20.7795 18.8774 20.7272C18.9957 20.6748 19.1259 20.6487 19.2679 20.6487C19.5835 20.6487 19.8242 20.7504 19.9898 20.9539C20.1555 21.1575 20.1516 21.3581 19.978 21.5558L17.8714 24.1375L19.978 26.7193C20.1516 26.917 20.1555 27.1176 19.9898 27.3211C19.8242 27.5246 19.5835 27.6264 19.2679 27.6264C19.1259 27.6264 18.9957 27.6002 18.8774 27.5479C18.759 27.4956 18.6604 27.4229 18.5815 27.3298L16.9246 25.3063Z" fill="#9F6828"/>
</svg>