<svg xmlns="http://www.w3.org/2000/svg" width="208" height="208" viewBox="0 0 208 208" fill="none">
  <path fill-rule="evenodd" clip-rule="evenodd" d="M74.219 202.265L70.9511 201.506L130.715 5.00932L134.028 5.70533C146.879 9.65289 158.829 16.1049 169.197 24.6923C179.565 33.2797 188.147 43.8338 194.454 55.7514C200.761 67.6688 204.668 80.7162 205.956 94.1484C207.243 107.58 205.884 121.135 201.958 134.038C198.032 146.942 191.614 158.942 183.072 169.355C174.529 179.767 164.028 188.388 152.167 194.725C140.306 201.062 127.317 204.99 113.943 206.284C100.568 207.578 87.0697 206.212 74.219 202.265ZM82.7271 193.197C92.5717 195.58 102.756 196.304 112.862 195.327C124.796 194.172 136.388 190.667 146.977 185.01C157.565 179.353 166.943 171.655 174.573 162.355C182.203 153.055 187.936 142.336 191.443 130.808C194.951 119.281 196.164 107.173 195.014 95.1761C193.864 83.1791 190.374 71.5285 184.744 60.8895C179.114 50.2505 171.454 40.8313 162.203 33.1689C154.369 26.6802 145.523 21.5585 136.035 18.0032L82.7271 193.197Z" fill="#19564F"/>
  <path fill-rule="evenodd" clip-rule="evenodd" d="M173.555 113.569C174.254 114.268 174.647 115.216 174.647 116.204C174.647 117.193 174.254 118.141 173.555 118.84L143.731 148.665C143.032 149.364 142.084 149.756 141.095 149.756C140.107 149.756 139.159 149.364 138.459 148.665L123.547 133.752C122.868 133.049 122.492 132.108 122.501 131.13C122.509 130.153 122.901 129.218 123.593 128.526C124.284 127.835 125.219 127.443 126.196 127.435C127.174 127.426 128.116 127.802 128.819 128.481L141.095 140.757L168.284 113.569C168.983 112.87 169.931 112.477 170.92 112.477C171.908 112.477 172.856 112.87 173.555 113.569Z" fill="#19564F"/>
  <path fill-rule="evenodd" clip-rule="evenodd" d="M38.8275 182.893C49.1956 191.481 57.1456 196.932 69.9952 200.88L130.124 4.62385C117.274 0.676619 107.478 -0.0617704 94.1035 1.23222C80.7287 2.52621 67.7384 6.45445 55.8745 12.7926C44.0106 19.1309 33.5053 27.7549 24.9585 38.1724C16.4117 48.5899 9.99069 60.5968 6.06217 73.5076C2.13365 86.4184 0.774524 99.9803 2.06237 113.419C3.35022 126.857 7.25984 139.91 13.568 151.83C19.8762 163.75 28.4594 174.306 38.8275 182.893ZM46.3441 101.58L62.5096 85.4149L78.6751 101.58C79.28 102.185 80.0497 102.488 80.9845 102.488C81.9192 102.488 82.689 102.185 83.2938 101.58C83.8987 100.976 84.2011 100.206 84.2011 99.2711C84.2011 98.3363 83.8987 97.5666 83.2938 96.9617L67.1283 80.7962L83.2938 64.6307C83.8987 64.0259 84.2011 63.2561 84.2011 62.3214C84.2011 61.3866 83.8987 60.6169 83.2938 60.012C82.689 59.4072 81.9192 59.1048 80.9845 59.1048C80.0497 59.1048 79.28 59.4072 78.6751 60.012L62.5096 76.1775L46.3441 60.012C45.7393 59.4072 44.9695 59.1048 44.0348 59.1048C43.1 59.1048 42.3302 59.4072 41.7254 60.012C41.1206 60.6169 40.8182 61.3866 40.8182 62.3214C40.8182 63.2561 41.1206 64.0259 41.7254 64.6307L57.8909 80.7962L41.7254 96.9617C41.1206 97.5666 40.8182 98.3363 40.8182 99.2711C40.8182 100.206 41.1206 100.976 41.7254 101.58C42.3302 102.185 43.1 102.488 44.0348 102.488C44.9695 102.488 45.7393 102.185 46.3441 101.58Z" fill="#19564F"/>
</svg>