<svg width="48" height="48" viewBox="0 0 48 48" fill="none" xmlns="http://www.w3.org/2000/svg">
<g id="Vector">
<path fill-rule="evenodd" clip-rule="evenodd" d="M17.1084 46.7728L16.2616 45.1802L29.3716 2.09512L30.96 1.25055C33.9361 2.16479 36.7038 3.65903 39.105 5.64784C41.5062 7.63664 43.4937 10.0809 44.9543 12.841C46.4149 15.601 47.3199 18.6227 47.618 21.7336C47.9162 24.8444 47.6015 27.9836 46.6922 30.9719C45.7829 33.9603 44.2967 36.7396 42.3182 39.1511C40.3398 41.5625 37.9077 43.5592 35.1608 45.0267C32.4138 46.4942 29.4057 47.4039 26.3082 47.7036C23.2107 48.0033 20.0846 47.687 17.1084 46.7728ZM19.0788 44.6728C21.3588 45.2247 23.7174 45.3924 26.0579 45.166C28.8218 44.8986 31.5065 44.0868 33.9588 42.7767C36.411 41.4666 38.5828 39.6838 40.3499 37.53C42.117 35.3761 43.4447 32.8935 44.257 30.2239C45.0693 27.5542 45.3503 24.7501 45.084 21.9716C44.8178 19.1931 44.0095 16.4949 42.7056 14.031C41.4017 11.567 39.6277 9.38557 37.4852 7.611C35.6708 6.10823 33.6222 4.92208 31.4248 4.09868L19.0788 44.6728Z" fill="#636363"/>
<path fill-rule="evenodd" clip-rule="evenodd" d="M40.1143 26.2312C40.2761 26.3931 40.3671 26.6127 40.3671 26.8417C40.3671 27.0706 40.2761 27.2902 40.1143 27.4521L33.2071 34.3593C33.0452 34.5212 32.8256 34.6121 32.5966 34.6121C32.3677 34.6121 32.1481 34.5212 31.9862 34.3593L28.5326 30.9057C28.3753 30.7428 28.2883 30.5247 28.2903 30.2984C28.2922 30.072 28.383 29.8554 28.5431 29.6954C28.7032 29.5353 28.9198 29.4445 29.1461 29.4425C29.3725 29.4405 29.5906 29.5276 29.7535 29.6848L32.5966 32.528L38.8934 26.2312C39.0553 26.0694 39.2749 25.9784 39.5039 25.9784C39.7328 25.9784 39.9524 26.0694 40.1143 26.2312Z" fill="#636363"/>
<path fill-rule="evenodd" clip-rule="evenodd" d="M8.91189 42.2865C11.3131 44.2753 14.0807 45.7695 17.0566 46.6836L30.913 1.14534C27.9371 0.231182 24.8111 -0.085089 21.7136 0.214594C18.616 0.514276 15.6075 1.42404 12.8599 2.89194C10.1123 4.35984 7.6793 6.35713 5.69989 8.76978C3.72049 11.1824 2.23342 13.9632 1.32359 16.9533C0.413764 19.9433 0.0989949 23.0842 0.397253 26.1965C0.695515 29.3088 1.60097 32.3317 3.06191 35.0924C4.52285 37.8531 6.51068 40.2977 8.91189 42.2865ZM10.6527 23.4548L14.3966 19.7109L18.1404 23.4548C18.2805 23.5949 18.4588 23.6649 18.6753 23.6649C18.8918 23.6649 19.07 23.5949 19.2101 23.4548C19.3502 23.3147 19.4202 23.1364 19.4202 22.92C19.4202 22.7035 19.3502 22.5252 19.2101 22.3851L15.4662 18.6413L19.2101 14.8974C19.3502 14.7573 19.4202 14.5791 19.4202 14.3626C19.4202 14.1461 19.3502 13.9678 19.2101 13.8277C19.07 13.6877 18.8918 13.6176 18.6753 13.6176C18.4588 13.6176 18.2805 13.6877 18.1404 13.8277L14.3966 17.5716L10.6527 13.8277C10.5126 13.6877 10.3344 13.6176 10.1179 13.6176C9.90139 13.6176 9.72311 13.6877 9.58304 13.8277C9.44296 13.9678 9.37292 14.1461 9.37292 14.3626C9.37292 14.5791 9.44296 14.7573 9.58304 14.8974L13.3269 18.6413L9.58304 22.3851C9.44296 22.5252 9.37292 22.7035 9.37292 22.92C9.37292 23.1364 9.44296 23.3147 9.58304 23.4548C9.72311 23.5949 9.90139 23.6649 10.1179 23.6649C10.3344 23.6649 10.5126 23.5949 10.6527 23.4548Z" fill="#898B8B" style="mix-blend-mode:overlay"/>
</g>
</svg>
