<svg xmlns="http://www.w3.org/2000/svg" width="49" height="48" viewBox="0 0 49 48" fill="none">
  <path fill-rule="evenodd" clip-rule="evenodd" d="M17.787 46.8504L17.0302 46.6747L30.8712 1.16696L31.6386 1.32816C34.6148 2.24239 37.3825 3.73664 39.7837 5.72545C42.1848 7.71425 44.1723 10.1585 45.6329 12.9186C47.0935 15.6786 47.9986 18.7003 48.2967 21.8112C48.5948 24.922 48.2802 28.0612 47.3709 31.0495C46.4616 34.0379 44.9753 36.8172 42.9969 39.2287C41.0184 41.6402 38.5864 43.6368 35.8394 45.1043C33.0925 46.5718 30.0844 47.4816 26.9869 47.7812C23.8893 48.0809 20.7632 47.7647 17.787 46.8504ZM19.7575 44.7504C22.0375 45.3023 24.396 45.47 26.7365 45.2436C29.5004 44.9762 32.1852 44.1644 34.6374 42.8543C37.0897 41.5442 39.2615 39.7614 41.0285 37.6076C42.7956 35.4537 44.1233 32.9711 44.9356 30.3015C45.7479 27.6318 46.0289 24.8277 45.7627 22.0492C45.4964 19.2707 44.6881 16.5725 43.3842 14.1086C42.0803 11.6446 40.3064 9.46319 38.1638 7.68861C36.3495 6.18584 34.3008 4.99968 32.1034 4.17628L19.7575 44.7504Z" fill="url(#paint0_linear_1318_3305)"/>
  <path fill-rule="evenodd" clip-rule="evenodd" d="M40.7929 26.3088C40.9548 26.4707 41.0457 26.6903 41.0457 26.9193C41.0457 27.1482 40.9548 27.3678 40.7929 27.5297L33.8857 34.4369C33.7238 34.5988 33.5042 34.6897 33.2753 34.6897C33.0463 34.6897 32.8268 34.5988 32.6649 34.4369L29.2113 30.9833C29.054 30.8205 28.9669 30.6024 28.9689 30.376C28.9709 30.1496 29.0617 29.933 29.2218 29.773C29.3818 29.6129 29.5984 29.5221 29.8248 29.5201C30.0512 29.5181 30.2693 29.6052 30.4321 29.7624L33.2753 32.6056L39.5721 26.3088C39.734 26.147 39.9535 26.056 40.1825 26.056C40.4114 26.056 40.631 26.147 40.7929 26.3088Z" fill="url(#paint1_linear_1318_3305)"/>
  <path fill-rule="evenodd" clip-rule="evenodd" d="M9.59053 42.3641C11.9917 44.3529 13.8329 45.6155 16.8088 46.5297L30.7343 1.07769C27.7584 0.163528 25.4898 -0.00747932 22.3922 0.292203C19.2947 0.591886 16.2862 1.50165 13.5385 2.96955C10.7909 4.43745 8.35793 6.43474 6.37853 8.84739C4.39913 11.26 2.91206 14.0408 2.00223 17.0309C1.0924 20.021 0.777633 23.1618 1.07589 26.2741C1.37415 29.3865 2.2796 32.4093 3.74055 35.17C5.20149 37.9307 7.18932 40.3753 9.59053 42.3641ZM11.3313 23.5324L15.0752 19.7886L18.8191 23.5324C18.9591 23.6725 19.1374 23.7425 19.3539 23.7425C19.5704 23.7425 19.7487 23.6725 19.8887 23.5324C20.0288 23.3923 20.0989 23.2141 20.0989 22.9976C20.0989 22.7811 20.0288 22.6028 19.8887 22.4627L16.1449 18.7189L19.8887 14.975C20.0288 14.8349 20.0989 14.6567 20.0989 14.4402C20.0989 14.2237 20.0288 14.0454 19.8887 13.9053C19.7487 13.7653 19.5704 13.6952 19.3539 13.6952C19.1374 13.6952 18.9591 13.7653 18.8191 13.9053L15.0752 17.6492L11.3313 13.9053C11.1913 13.7653 11.013 13.6952 10.7965 13.6952C10.58 13.6952 10.4018 13.7653 10.2617 13.9053C10.1216 14.0454 10.0516 14.2237 10.0516 14.4402C10.0516 14.6567 10.1216 14.8349 10.2617 14.975L14.0055 18.7189L10.2617 22.4627C10.1216 22.6028 10.0516 22.7811 10.0516 22.9976C10.0516 23.2141 10.1216 23.3923 10.2617 23.5324C10.4018 23.6725 10.58 23.7425 10.7965 23.7425C11.013 23.7425 11.1913 23.6725 11.3313 23.5324Z" fill="url(#paint2_linear_1318_3305)"/>
  <defs>
    <linearGradient id="paint0_linear_1318_3305" x1="47.3041" y1="31.5795" x2="1.57875" y2="17.8205" gradientUnits="userSpaceOnUse">
      <stop offset="0.515" stop-color="#10665C"/>
      <stop offset="0.5151" stop-color="#287A70"/>
    </linearGradient>
    <linearGradient id="paint1_linear_1318_3305" x1="47.3041" y1="31.5795" x2="1.57875" y2="17.8205" gradientUnits="userSpaceOnUse">
      <stop offset="0.515" stop-color="#10665C"/>
      <stop offset="0.5151" stop-color="#287A70"/>
    </linearGradient>
    <linearGradient id="paint2_linear_1318_3305" x1="47.3041" y1="31.5795" x2="1.57875" y2="17.8205" gradientUnits="userSpaceOnUse">
      <stop offset="0.515" stop-color="#10665C"/>
      <stop offset="0.5151" stop-color="#287A70"/>
    </linearGradient>
  </defs>
</svg>