<svg width="48" height="48" viewBox="0 0 48 48" fill="none" xmlns="http://www.w3.org/2000/svg">
<g id="50/50 v1">
<g id="Vector">
<path fill-rule="evenodd" clip-rule="evenodd" d="M17.1084 46.6826L16.2616 45.09L29.3716 2.00491L30.96 1.16034C33.9361 2.07458 36.7038 3.56882 39.105 5.55763C41.5062 7.54643 43.4937 9.99073 44.9543 12.7508C46.4149 15.5108 47.3199 18.5325 47.618 21.6434C47.9162 24.7542 47.6015 27.8933 46.6922 30.8817C45.7829 33.8701 44.2967 36.6494 42.3182 39.0608C40.3398 41.4723 37.9077 43.4689 35.1608 44.9365C32.4138 46.404 29.4057 47.3137 26.3082 47.6134C23.2107 47.9131 20.0846 47.5968 17.1084 46.6826ZM19.0788 44.5825C21.3588 45.1345 23.7174 45.3022 26.0579 45.0758C28.8218 44.8084 31.5065 43.9966 33.9588 42.6865C36.411 41.3764 38.5828 39.5936 40.3499 37.4398C42.117 35.2859 43.4447 32.8033 44.257 30.1336C45.0693 27.464 45.3503 24.6599 45.084 21.8814C44.8178 19.1029 44.0095 16.4047 42.7056 13.9407C41.4017 11.4768 39.6277 9.29536 37.4852 7.52079C35.6708 6.01802 33.6222 4.83187 31.4248 4.00847L19.0788 44.5825Z" fill="#41C5B5"/>
<path fill-rule="evenodd" clip-rule="evenodd" d="M40.1143 26.141C40.2761 26.3029 40.3671 26.5225 40.3671 26.7514C40.3671 26.9804 40.2761 27.2 40.1143 27.3619L33.2071 34.2691C33.0452 34.4309 32.8256 34.5219 32.5966 34.5219C32.3677 34.5219 32.1481 34.4309 31.9862 34.2691L28.5326 30.8155C28.3753 30.6526 28.2883 30.4345 28.2903 30.2082C28.2922 29.9818 28.383 29.7652 28.5431 29.6051C28.7032 29.4451 28.9198 29.3543 29.1461 29.3523C29.3725 29.3503 29.5906 29.4374 29.7535 29.5946L32.5966 32.4378L38.8934 26.141C39.0553 25.9792 39.2749 25.8882 39.5039 25.8882C39.7328 25.8882 39.9524 25.9792 40.1143 26.141Z" fill="#41C5B5"/>
<path fill-rule="evenodd" clip-rule="evenodd" d="M8.91189 42.1963C11.3131 44.1851 14.0807 45.6793 17.0566 46.5934L30.913 1.05513C27.9371 0.140972 24.8111 -0.175299 21.7136 0.124384C18.616 0.424066 15.6075 1.33383 12.8599 2.80173C10.1123 4.26963 7.6793 6.26692 5.69989 8.67957C3.72049 11.0922 2.23342 13.873 1.32359 16.863C0.413764 19.8531 0.0989949 22.994 0.397253 26.1063C0.695515 29.2186 1.60097 32.2414 3.06191 35.0022C4.52285 37.7629 6.51068 40.2075 8.91189 42.1963ZM10.6527 23.3646L14.3966 19.6207L18.1404 23.3646C18.2805 23.5047 18.4588 23.5747 18.6753 23.5747C18.8918 23.5747 19.07 23.5047 19.2101 23.3646C19.3502 23.2245 19.4202 23.0462 19.4202 22.8298C19.4202 22.6133 19.3502 22.435 19.2101 22.2949L15.4662 18.5511L19.2101 14.8072C19.3502 14.6671 19.4202 14.4888 19.4202 14.2724C19.4202 14.0559 19.3502 13.8776 19.2101 13.7375C19.07 13.5974 18.8918 13.5274 18.6753 13.5274C18.4588 13.5274 18.2805 13.5974 18.1404 13.7375L14.3966 17.4814L10.6527 13.7375C10.5126 13.5974 10.3344 13.5274 10.1179 13.5274C9.90139 13.5274 9.72311 13.5974 9.58304 13.7375C9.44296 13.8776 9.37292 14.0559 9.37292 14.2724C9.37292 14.4888 9.44296 14.6671 9.58304 14.8072L13.3269 18.5511L9.58304 22.2949C9.44296 22.435 9.37292 22.6133 9.37292 22.8298C9.37292 23.0462 9.44296 23.2245 9.58304 23.3646C9.72311 23.5047 9.90139 23.5747 10.1179 23.5747C10.3344 23.5747 10.5126 23.5047 10.6527 23.3646Z" fill="#257F75" style="mix-blend-mode:overlay"/>
</g>
</g>
</svg>
