<svg xmlns="http://www.w3.org/2000/svg" width="49" height="48" viewBox="0 0 49 48" fill="none">
  <path fill-rule="evenodd" clip-rule="evenodd" d="M18.0634 46.6826L17.2165 45.09L30.3265 2.00491L31.9149 1.16034C34.8911 2.07458 37.6588 3.56882 40.06 5.55763C42.4611 7.54643 44.4487 9.99073 45.9092 12.7508C47.3698 15.5108 48.2749 18.5325 48.573 21.6434C48.8711 24.7542 48.5565 27.8933 47.6472 30.8817C46.7379 33.8701 45.2516 36.6494 43.2732 39.0608C41.2947 41.4723 38.8627 43.4689 36.1157 44.9365C33.3688 46.404 30.3607 47.3137 27.2632 47.6134C24.1657 47.9131 21.0395 47.5968 18.0634 46.6826ZM20.0338 44.5825C22.3138 45.1345 24.6723 45.3022 27.0129 45.0758C29.7767 44.8084 32.4615 43.9966 34.9137 42.6865C37.366 41.3764 39.5378 39.5936 41.3049 37.4398C43.0719 35.2859 44.3996 32.8033 45.2119 30.1336C46.0243 27.464 46.3053 24.6599 46.039 21.8814C45.7727 19.1029 44.9644 16.4047 43.6605 13.9407C42.3566 11.4768 40.5827 9.29536 38.4402 7.52079C36.6258 6.01802 34.5771 4.83187 32.3797 4.00847L20.0338 44.5825Z" fill="#1C6B61"/>
  <path fill-rule="evenodd" clip-rule="evenodd" d="M41.0692 26.141C41.2311 26.3029 41.322 26.5225 41.322 26.7514C41.322 26.9804 41.2311 27.2 41.0692 27.3619L34.162 34.2691C34.0001 34.4309 33.7805 34.5219 33.5516 34.5219C33.3227 34.5219 33.1031 34.4309 32.9412 34.2691L29.4876 30.8155C29.3303 30.6526 29.2433 30.4345 29.2452 30.2082C29.2472 29.9818 29.338 29.7652 29.4981 29.6051C29.6582 29.4451 29.8747 29.3543 30.1011 29.3523C30.3275 29.3503 30.5456 29.4374 30.7084 29.5946L33.5516 32.4378L39.8484 26.141C40.0103 25.9792 40.2299 25.8882 40.4588 25.8882C40.6878 25.8882 40.9073 25.9792 41.0692 26.141Z" fill="#1C6B61"/>
  <path fill-rule="evenodd" clip-rule="evenodd" d="M9.86684 42.1963C12.2681 44.1851 15.0356 45.6793 18.0115 46.5934L31.868 1.05513C28.8921 0.140972 25.7661 -0.175299 22.6685 0.124384C19.571 0.424066 16.5625 1.33383 13.8149 2.80173C11.0672 4.26963 8.63425 6.26692 6.65485 8.67957C4.67544 11.0922 3.18838 13.873 2.27855 16.863C1.36872 19.8531 1.05395 22.994 1.35221 26.1063C1.65047 29.2186 2.55592 32.2414 4.01687 35.0022C5.47781 37.7629 7.46563 40.2075 9.86684 42.1963ZM11.6077 23.3646L15.3515 19.6207L19.0954 23.3646C19.2355 23.5047 19.4137 23.5747 19.6302 23.5747C19.8467 23.5747 20.025 23.5047 20.1651 23.3646C20.3051 23.2245 20.3752 23.0462 20.3752 22.8298C20.3752 22.6133 20.3051 22.435 20.1651 22.2949L16.4212 18.5511L20.1651 14.8072C20.3051 14.6671 20.3752 14.4888 20.3752 14.2724C20.3752 14.0559 20.3051 13.8776 20.1651 13.7375C20.025 13.5974 19.8467 13.5274 19.6302 13.5274C19.4137 13.5274 19.2355 13.5974 19.0954 13.7375L15.3515 17.4814L11.6077 13.7375C11.4676 13.5974 11.2893 13.5274 11.0728 13.5274C10.8563 13.5274 10.6781 13.5974 10.538 13.7375C10.3979 13.8776 10.3279 14.0559 10.3279 14.2724C10.3279 14.4888 10.3979 14.6671 10.538 14.8072L14.2819 18.5511L10.538 22.2949C10.3979 22.435 10.3279 22.6133 10.3279 22.8298C10.3279 23.0462 10.3979 23.2245 10.538 23.3646C10.6781 23.5047 10.8563 23.5747 11.0728 23.5747C11.2893 23.5747 11.4676 23.5047 11.6077 23.3646Z" fill="#257F75" style="mix-blend-mode:overlay"/>
</svg>