<svg xmlns="http://www.w3.org/2000/svg" width="208" height="208" viewBox="0 0 208 208" fill="none">
    <path fill-rule="evenodd" clip-rule="evenodd" d="M74.6141 201.571L70.9576 194.694L127.565 8.658L134.423 5.01125C147.274 8.95881 159.225 15.4108 169.593 23.9982C179.961 32.5856 188.542 43.1397 194.849 55.0573C201.156 66.9747 205.063 80.0221 206.351 93.4543C207.638 106.886 206.279 120.441 202.353 133.344C198.427 146.248 192.01 158.248 183.467 168.661C174.924 179.073 164.423 187.694 152.562 194.031C140.701 200.368 127.712 204.296 114.338 205.59C100.963 206.884 87.4648 205.518 74.6141 201.571ZM83.1222 192.503C92.9668 194.886 103.151 195.61 113.257 194.632C125.191 193.478 136.783 189.973 147.372 184.316C157.96 178.659 167.338 170.961 174.968 161.661C182.598 152.361 188.331 141.641 191.838 130.114C195.346 118.587 196.559 106.479 195.409 94.482C194.26 82.485 190.769 70.8344 185.139 60.1954C179.509 49.5564 171.85 40.1372 162.598 32.4748C154.764 25.9861 145.918 20.8644 136.43 17.3091L83.1222 192.503Z" fill="#797979"/>
    <path fill-rule="evenodd" clip-rule="evenodd" d="M173.95 112.875C174.649 113.574 175.042 114.522 175.042 115.51C175.042 116.499 174.649 117.447 173.95 118.146L144.126 147.971C143.427 148.669 142.479 149.062 141.49 149.062C140.502 149.062 139.554 148.669 138.855 147.971L123.942 133.058C123.263 132.355 122.887 131.413 122.896 130.436C122.904 129.459 123.297 128.523 123.988 127.832C124.679 127.141 125.614 126.749 126.591 126.74C127.569 126.732 128.511 127.108 129.214 127.787L141.49 140.063L168.679 112.875C169.378 112.176 170.326 111.783 171.315 111.783C172.303 111.783 173.251 112.176 173.95 112.875Z" fill="#797979"/>
    <path fill-rule="evenodd" clip-rule="evenodd" d="M39.2226 182.199C49.5907 190.787 61.5407 197.238 74.3903 201.185L134.221 4.55699C121.371 0.609752 107.874 -0.755864 94.4986 0.538127C81.1238 1.83212 68.1335 5.76036 56.2696 12.0986C44.4057 18.4368 33.9004 27.0608 25.3536 37.4783C16.8068 47.8958 10.3858 59.9027 6.45729 72.8135C2.52877 85.7243 1.16963 99.2862 2.45748 112.725C3.74533 126.163 7.65496 139.215 13.9631 151.136C20.2713 163.056 28.8545 173.612 39.2226 182.199ZM46.7392 100.886L62.9047 84.7209L79.0702 100.886C79.6751 101.491 80.4449 101.794 81.3796 101.794C82.3143 101.794 83.0841 101.491 83.6889 100.886C84.2938 100.282 84.5962 99.5117 84.5962 98.577C84.5962 97.6423 84.2938 96.8725 83.6889 96.2676L67.5234 80.1021L83.6889 63.9366C84.2938 63.3318 84.5962 62.562 84.5962 61.6273C84.5962 60.6925 84.2938 59.9228 83.6889 59.3179C83.0841 58.7131 82.3143 58.4107 81.3796 58.4107C80.4449 58.4107 79.6751 58.7131 79.0702 59.3179L62.9047 75.4834L46.7392 59.3179C46.1344 58.7131 45.3646 58.4107 44.4299 58.4107C43.4951 58.4107 42.7253 58.7131 42.1205 59.3179C41.5157 59.9228 41.2133 60.6925 41.2133 61.6273C41.2133 62.562 41.5157 63.3318 42.1205 63.9366L58.286 80.1021L42.1205 96.2676C41.5157 96.8725 41.2133 97.6423 41.2133 98.577C41.2133 99.5117 41.5157 100.282 42.1205 100.886C42.7253 101.491 43.4951 101.794 44.4299 101.794C45.3646 101.794 46.1344 101.491 46.7392 100.886Z" fill="#797979"/>
  </svg>