<svg xmlns="http://www.w3.org/2000/svg" width="207" height="208" viewBox="0 0 207 208" fill="none">
  <path fill-rule="evenodd" clip-rule="evenodd" d="M141.102 21.9694C141.115 26.3969 137.529 29.993 133.102 29.993H115.775V31.514C119.708 32.1433 123.543 32.7725 127.28 33.6441C129.566 34.177 131.815 34.8006 134.027 35.5702L125.408 59.3998C124.781 59.1618 124.153 58.9348 123.525 58.7188C116.799 56.4041 110.056 55.3437 103.1 55.3437C67.862 55.3437 39.7228 83.483 39.7228 118.72C39.7228 153.958 67.862 182.097 103.1 182.097C138.337 182.097 166.476 153.958 166.476 118.72C166.476 112.837 165.766 107.379 164.238 101.923C163.366 98.806 164.79 95.4221 167.777 94.1749L179.843 89.1364C182.943 87.8417 186.523 89.3397 187.562 92.5346C187.654 92.8174 187.745 93.1009 187.834 93.3851C190.298 101.208 191.827 109.608 191.827 118.467C191.827 167.394 152.026 207.194 103.1 207.194C54.1727 207.194 14.3721 167.394 14.3721 118.467C14.3721 81.9366 36.4641 50.3345 68.1257 36.7395C75.1349 33.7299 82.6129 31.6028 90.4242 30.5V29.7395H72.7961C68.3778 29.7395 64.7961 26.1578 64.7961 21.7395V12.3888C64.7961 7.97052 68.3778 4.38879 72.7961 4.38879H133.074C137.483 4.38879 141.06 7.95613 141.073 12.3652L141.102 21.9694ZM134.105 22.993L134.071 11.3888H71.7961V22.7395H97.4242V36.5812L91.4027 37.4313C51.7483 43.0295 21.3721 77.3496 21.3721 118.467C21.3721 163.528 58.0387 200.194 103.1 200.194C148.16 200.194 184.827 163.528 184.827 118.467C184.827 110.646 183.515 103.16 181.346 96.0944L171.076 100.383C172.712 106.349 173.476 112.333 173.476 118.72C173.476 157.824 142.203 189.097 103.1 189.097C63.996 189.097 32.7228 157.824 32.7228 118.72C32.7228 79.617 63.996 48.3437 103.1 48.3437C109.198 48.3437 115.179 49.0834 121.122 50.6702L124.881 40.2764C121.703 39.5701 118.335 39.0127 114.669 38.4261L108.775 37.4831V22.993H134.105ZM160.893 58.8554C135.021 78.3678 97.6068 106.721 94.4803 109.848C89.6636 114.918 89.6636 122.27 94.4803 127.34C99.2969 132.41 106.902 132.41 111.972 127.34C115.255 124.057 145.105 88.5745 165.744 63.9642C176.982 50.5638 185.489 40.3868 185.489 40.3868V40.3439C185.489 40.3439 185.48 40.3507 185.462 40.3642C185.454 40.3703 185.444 40.3779 185.432 40.3868C184.579 41.0268 174.282 48.7571 160.893 58.8554ZM140.688 82.9083C131.413 89.9427 122.336 96.8569 115.002 102.503C110.632 105.867 106.899 108.767 104.117 110.968C102.725 112.07 101.593 112.979 100.748 113.675C100.325 114.024 99.9942 114.303 99.7485 114.515C99.6 114.644 99.5095 114.725 99.4629 114.768C97.3058 117.124 97.3365 120.183 99.5553 122.518C101.543 124.611 104.614 124.799 107.022 122.39C108.029 121.383 112.99 115.64 120.264 107.081C126.156 100.148 133.353 91.6229 140.688 82.9083Z" fill="#797979"/>
  <path d="M105.302 64.0559C107.386 64.0559 109.075 65.7394 109.075 67.816V75.8306L114.529 72.2076C116.263 71.0557 118.605 71.5227 119.761 73.2505C120.917 74.9784 120.449 77.3129 118.715 78.4649L109.075 84.8688V110.186L131.078 97.5266L131.824 86.0056C131.958 83.9333 133.753 82.3617 135.832 82.4953C137.912 82.629 139.489 84.4173 139.355 86.4896L138.933 93.0075L145.898 89.0003C147.703 87.9619 150.01 88.5781 151.053 90.3765C152.095 92.175 151.476 94.4746 149.671 95.5129L142.706 99.5202L148.582 102.415C150.45 103.336 151.215 105.591 150.292 107.452C149.368 109.314 147.105 110.077 145.236 109.156L134.852 104.039L112.848 116.699L134.846 129.356L145.232 124.239C147.1 123.318 149.363 124.081 150.287 125.943C151.21 127.804 150.445 130.059 148.577 130.98L142.702 133.874L149.666 137.882C151.471 138.92 152.089 141.22 151.047 143.018C150.006 144.817 147.698 145.433 145.893 144.394L138.928 140.388L139.35 146.905C139.484 148.977 137.907 150.766 135.827 150.899C133.748 151.033 131.953 149.461 131.819 147.389L131.073 135.868L109.075 123.212V148.526L118.715 154.93C120.449 156.082 120.917 158.417 119.761 160.145C118.605 161.872 116.263 162.339 114.529 161.187L109.075 157.565V165.579C109.075 167.655 107.386 169.339 105.302 169.339C103.218 169.339 101.529 167.655 101.529 165.579V157.565L96.0751 161.187C94.3412 162.339 91.9986 161.872 90.8426 160.145C89.6866 158.417 90.1552 156.082 91.8891 154.93L101.529 148.526V123.211L79.53 135.868L78.7843 147.389C78.6502 149.461 76.8557 151.033 74.7761 150.899C72.6965 150.766 71.1194 148.977 71.2535 146.905L71.6753 140.387L64.7103 144.394C62.9055 145.433 60.5978 144.816 59.5558 143.018C58.5139 141.219 59.1323 138.92 60.937 137.882L67.9021 133.874L62.0268 130.979C60.1587 130.059 59.3931 127.804 60.3168 125.942C61.2404 124.081 63.5036 123.318 65.3716 124.238L75.7568 129.355L97.7549 116.699L75.7519 104.04L65.3667 109.157C63.4987 110.077 61.2355 109.314 60.3119 107.453C59.3883 105.591 60.1539 103.336 62.0219 102.415L67.8972 99.5205L60.9321 95.5132C59.1273 94.4749 58.5091 92.1753 59.551 90.3768C60.593 88.5784 62.9006 87.9622 64.7054 89.0005L71.6705 93.0079L71.2486 86.4899C71.1145 84.4176 72.6917 82.6293 74.7713 82.4956C76.8509 82.362 78.6454 83.9336 78.7795 86.0059L79.5251 97.5269L101.529 110.186V84.8688L91.8891 78.4649C90.1552 77.3129 89.6866 74.9784 90.8426 73.2505C91.9986 71.5227 94.3412 71.0557 96.0751 72.2076L101.529 75.8306V67.816C101.529 65.7394 103.218 64.0559 105.302 64.0559Z" fill="#797979"/>
</svg>