<svg xmlns="http://www.w3.org/2000/svg" width="49" height="49" viewBox="0 0 49 49" fill="none">
  <path fill-rule="evenodd" clip-rule="evenodd" d="M33.465 5.229C33.468 6.25566 32.6366 7.08955 31.6099 7.08955H27.5921V7.44226C28.504 7.58817 29.3933 7.73408 30.26 7.93617C30.7899 8.05976 31.3115 8.20435 31.8245 8.3828L29.8259 13.9085C29.6803 13.8533 29.5348 13.8007 29.3893 13.7506C27.8296 13.2139 26.2658 12.968 24.6528 12.968C16.4818 12.968 9.95679 19.493 9.95679 27.664C9.95679 35.835 16.4818 42.3601 24.6528 42.3601C32.8239 42.3601 39.3489 35.835 39.3489 27.664C39.3489 26.2997 39.1842 25.0342 38.83 23.7689C38.6277 23.0462 38.9579 22.2615 39.6505 21.9723L42.4484 20.804C43.1673 20.5038 43.9974 20.8511 44.2384 21.592C44.2597 21.6575 44.2807 21.7233 44.3015 21.7892C44.8728 23.6032 45.2273 25.551 45.2273 27.6052C45.2273 38.9506 35.9982 48.1797 24.6528 48.1797C13.3075 48.1797 4.07837 38.9506 4.07837 27.6052C4.07837 19.1344 9.20115 11.8064 16.543 8.65395C18.1683 7.95608 19.9023 7.46283 21.7136 7.20712V7.03077H17.626C16.6014 7.03077 15.7709 6.20022 15.7709 5.17569V3.00742C15.7709 1.98289 16.6014 1.15234 17.626 1.15234H31.6033C32.6257 1.15234 33.4554 1.97955 33.4584 3.00194L33.465 5.229ZM31.8425 5.46636L31.8345 2.77553H17.3941V5.40758H23.3368V8.61725L21.9405 8.81437C12.7453 10.1125 5.70156 18.0708 5.70156 27.6052C5.70156 38.0541 14.204 46.5565 24.6528 46.5565C35.1017 46.5565 43.6041 38.0541 43.6041 27.6052C43.6041 25.7917 43.3 24.0559 42.797 22.4174L40.4154 23.4119C40.7948 24.7954 40.9721 26.183 40.9721 27.664C40.9721 36.7315 33.7203 43.9833 24.6528 43.9833C15.5854 43.9833 8.3336 36.7315 8.3336 27.664C8.3336 18.5966 15.5854 11.3448 24.6528 11.3448C26.067 11.3448 27.454 11.5163 28.8319 11.8843L29.7037 9.47411C28.9667 9.31032 28.1857 9.18108 27.3356 9.04506L25.9689 8.82638V5.46636H31.8425ZM38.0542 13.7823C32.055 18.3069 23.3792 24.8816 22.6542 25.6066C21.5373 26.7823 21.5373 28.487 22.6542 29.6627C23.7711 30.8384 25.5346 30.8384 26.7103 29.6627C27.4715 28.9015 34.3933 20.6737 39.1791 14.9669C41.7851 11.8596 43.7577 9.4997 43.7577 9.4997V9.48975C43.7577 9.48975 43.7556 9.49133 43.7514 9.49446C43.7495 9.49588 43.7472 9.49764 43.7445 9.4997C43.5467 9.64811 41.1589 11.4407 38.0542 13.7823ZM33.3691 19.3598C31.2183 20.9909 29.1136 22.5942 27.4129 23.9034C26.3995 24.6835 25.5339 25.3559 24.8889 25.8663C24.5659 26.1218 24.3034 26.3327 24.1076 26.4941C24.0096 26.5749 23.9328 26.6396 23.8758 26.6889C23.8414 26.7188 23.8204 26.7377 23.8096 26.7475C23.3094 27.2937 23.3165 28.0032 23.831 28.5447C24.292 29.03 25.004 29.0735 25.5625 28.5149C25.7959 28.2815 26.9463 26.9498 28.6331 24.9651C29.9993 23.3575 31.6681 21.3805 33.3691 19.3598Z" fill="#8C8C8C" style="mix-blend-mode:color-dodge"/>
  <path d="M25.1635 14.9882C25.6468 14.9882 26.0385 15.3786 26.0385 15.8601V17.7186L27.3031 16.8784C27.7052 16.6113 28.2484 16.7196 28.5164 17.1203C28.7845 17.5209 28.6758 18.0623 28.2738 18.3294L26.0385 19.8144V25.685L31.1407 22.7495L31.3136 20.078C31.3448 19.5974 31.7609 19.233 32.243 19.264C32.7253 19.295 33.091 19.7097 33.0598 20.1902L32.962 21.7016L34.5772 20.7724C34.9956 20.5316 35.5307 20.6745 35.7724 21.0915C36.014 21.5086 35.8706 22.0418 35.4522 22.2826L33.837 23.2118L35.1995 23.8831C35.6326 24.0965 35.81 24.6195 35.596 25.0511C35.3818 25.4828 34.857 25.6597 34.4237 25.4463L32.0157 24.2597L26.9134 27.1953L32.0144 30.1301L34.4227 28.9436C34.8558 28.7301 35.3806 28.9071 35.5948 29.3387C35.809 29.7704 35.6315 30.2933 35.1982 30.5068L33.8359 31.178L35.4509 32.1073C35.8695 32.3481 36.0128 32.8813 35.7712 33.2983C35.5297 33.7154 34.9945 33.8582 34.576 33.6174L32.961 32.6883L33.0588 34.1997C33.0898 34.6801 32.7242 35.0948 32.2419 35.1258C31.7597 35.1568 31.3435 34.7924 31.3124 34.3118L31.1395 31.6403L26.0385 28.7055V34.5755L28.2738 36.0605C28.6758 36.3276 28.7845 36.8689 28.5164 37.2697C28.2484 37.6702 27.7052 37.7785 27.3031 37.5113L26.0385 36.6714V38.5297C26.0385 39.0112 25.6468 39.4016 25.1635 39.4016C24.6803 39.4016 24.2886 39.0112 24.2886 38.5297V36.6714L23.024 37.5113C22.6219 37.7785 22.0787 37.6702 21.8107 37.2697C21.5426 36.8689 21.6513 36.3276 22.0533 36.0605L24.2886 34.5755V28.7054L19.1875 31.6403L19.0146 34.3118C18.9835 34.7924 18.5673 35.1568 18.0851 35.1258C17.6029 35.0948 17.2372 34.6801 17.2683 34.1995L17.3661 32.6881L15.751 33.6174C15.3325 33.8582 14.7974 33.7152 14.5558 33.2983C14.3142 32.8812 14.4575 32.3479 14.876 32.1073L16.4911 31.178L15.1287 30.5067C14.6956 30.2933 14.518 29.7703 14.7322 29.3387C14.9464 28.907 15.4712 28.7301 15.9043 28.9435L18.3125 30.1301L23.4135 27.1953L18.3114 24.2598L15.9032 25.4463C15.47 25.6598 14.9453 25.4829 14.7311 25.0512C14.5169 24.6195 14.6944 24.0966 15.1276 23.8832L16.49 23.2119L14.8749 22.2826C14.4564 22.0419 14.313 21.5086 14.5546 21.0916C14.7963 20.6746 15.3314 20.5317 15.7499 20.7725L17.365 21.7017L17.2671 20.1903C17.236 19.7097 17.6018 19.2951 18.084 19.2641C18.5662 19.2331 18.9823 19.5975 19.0134 20.0781L19.1863 22.7496L24.2886 25.6851V19.8144L22.0533 18.3294C21.6513 18.0623 21.5426 17.5209 21.8107 17.1203C22.0787 16.7196 22.6219 16.6113 23.024 16.8784L24.2886 17.7186V15.8601C24.2886 15.3786 24.6803 14.9882 25.1635 14.9882Z" fill="#219FD0"/>
</svg>