<svg xmlns="http://www.w3.org/2000/svg" width="49" height="49" viewBox="0 0 49 49" fill="none">
  <path fill-rule="evenodd" clip-rule="evenodd" d="M33.3175 5.23608C33.3206 6.26274 32.4891 7.09663 31.4625 7.09663H27.4446V7.44934C28.3565 7.59525 29.2458 7.74116 30.1125 7.94325C30.6425 8.06684 31.164 8.21143 31.6771 8.38988L29.6784 13.9156C29.5329 13.8604 29.3874 13.8078 29.2418 13.7577C27.6822 13.2209 26.1184 12.9751 24.5054 12.9751C16.3344 12.9751 9.80933 19.5001 9.80933 27.6711C9.80933 35.8421 16.3344 42.3672 24.5054 42.3672C32.6764 42.3672 39.2014 35.8421 39.2014 27.6711C39.2014 26.3068 39.0367 25.0413 38.6825 23.776C38.4802 23.0533 38.8105 22.2686 39.503 21.9794L42.301 20.811C43.0199 20.5108 43.8499 20.8582 44.0909 21.599C44.1122 21.6646 44.1333 21.7303 44.154 21.7963C44.7254 23.6102 45.0799 25.5581 45.0799 27.6123C45.0799 38.9577 35.8507 48.1868 24.5054 48.1868C13.16 48.1868 3.93091 38.9577 3.93091 27.6123C3.93091 19.1415 9.05369 11.8135 16.3955 8.66104C18.0208 7.96316 19.7549 7.46991 21.5662 7.2142V7.03785H17.4785C16.454 7.03785 15.6234 6.2073 15.6234 5.18278V3.0145C15.6234 1.98997 16.454 1.15942 17.4785 1.15942H31.4559C32.4783 1.15942 33.3079 1.98663 33.3109 3.00902L33.3175 5.23608ZM31.695 5.47344L31.6871 2.78261H17.2466V5.41466H23.1894V8.62433L21.7931 8.82145C12.5979 10.1196 5.5541 18.0779 5.5541 27.6123C5.5541 38.0612 14.0565 46.5636 24.5054 46.5636C34.9543 46.5636 43.4567 38.0612 43.4567 27.6123C43.4567 25.7988 43.1526 24.063 42.6496 22.4245L40.2679 23.419C40.6473 24.8025 40.8246 26.1901 40.8246 27.6711C40.8246 36.7386 33.5729 43.9904 24.5054 43.9904C15.4379 43.9904 8.18614 36.7386 8.18614 27.6711C8.18614 18.6036 15.4379 11.3519 24.5054 11.3519C25.9195 11.3519 27.3065 11.5234 28.6845 11.8913L29.5562 9.48119C28.8192 9.3174 28.0383 9.18816 27.1881 9.05214L25.8214 8.83346V5.47344H31.695ZM37.9067 13.7894C31.9076 18.314 23.2317 24.8887 22.5067 25.6137C21.3898 26.7893 21.3898 28.4941 22.5067 29.6698C23.6236 30.8455 25.3871 30.8455 26.5628 29.6698C27.324 28.9086 34.2458 20.6807 39.0317 14.974C41.6376 11.8667 43.6103 9.50678 43.6103 9.50678V9.49683C43.6103 9.49683 43.6082 9.49841 43.604 9.50154C43.6021 9.50296 43.5998 9.50472 43.597 9.50678C43.3993 9.65519 41.0115 11.4477 37.9067 13.7894ZM33.2216 19.3668C31.0709 20.998 28.9661 22.6013 27.2655 23.9104C26.2521 24.6905 25.3864 25.363 24.7414 25.8733C24.4185 26.1289 24.156 26.3398 23.9601 26.5012C23.8621 26.582 23.7853 26.6467 23.7284 26.696C23.6939 26.7258 23.6729 26.7447 23.6621 26.7546C23.1619 27.3008 23.169 28.0102 23.6835 28.5518C24.1446 29.0371 24.8565 29.0806 25.4151 28.522C25.6485 28.2886 26.7989 26.9569 28.4856 24.9722C29.8519 23.3645 31.5207 21.3876 33.2216 19.3668Z" fill="url(#paint0_radial_1318_3322)"/>
  <path d="M25.0161 14.9953C25.4993 14.9953 25.891 15.3857 25.891 15.8672V17.7256L27.1556 16.8855C27.5577 16.6184 28.1009 16.7267 28.369 17.1274C28.637 17.528 28.5284 18.0694 28.1263 18.3365L25.891 19.8215V25.6921L30.9932 22.7566L31.1661 20.0851C31.1973 19.6045 31.6134 19.2401 32.0955 19.2711C32.5778 19.3021 32.9435 19.7168 32.9124 20.1973L32.8146 21.7087L34.4297 20.7795C34.8481 20.5387 35.3833 20.6816 35.6249 21.0986C35.8666 21.5156 35.7231 22.0489 35.3047 22.2897L33.6895 23.2189L35.052 23.8902C35.4851 24.1036 35.6625 24.6265 35.4485 25.0582C35.2343 25.4899 34.7095 25.6668 34.2763 25.4533L31.8682 24.2668L26.7659 27.2023L31.867 30.1372L34.2752 28.9507C34.7083 28.7372 35.2331 28.9141 35.4473 29.3458C35.6615 29.7774 35.4841 30.3004 35.0508 30.5138L33.6885 31.1851L35.3035 32.1143C35.722 32.3552 35.8654 32.8884 35.6237 33.3054C35.3822 33.7225 34.8471 33.8653 34.4285 33.6245L32.8135 32.6954L32.9113 34.2067C32.9423 34.6872 32.5767 35.1018 32.0945 35.1329C31.6122 35.1639 31.1961 34.7995 31.1649 34.3189L30.992 31.6473L25.891 28.7126V34.5825L28.1263 36.0676C28.5284 36.3347 28.637 36.876 28.369 37.2767C28.1009 37.6773 27.5577 37.7856 27.1556 37.5184L25.891 36.6784V38.5368C25.891 39.0183 25.4993 39.4087 25.0161 39.4087C24.5329 39.4087 24.1411 39.0183 24.1411 38.5368V36.6784L22.8765 37.5184C22.4745 37.7856 21.9313 37.6773 21.6632 37.2767C21.3952 36.876 21.5038 36.3347 21.9059 36.0676L24.1411 34.5825V28.7125L19.04 31.6473L18.8671 34.3189C18.836 34.7995 18.4199 35.1639 17.9376 35.1329C17.4554 35.1018 17.0897 34.6872 17.1208 34.2066L17.2186 32.6952L15.6035 33.6245C15.185 33.8653 14.6499 33.7223 14.4083 33.3054C14.1667 32.8882 14.3101 32.355 14.7286 32.1143L16.3437 31.1851L14.9813 30.5138C14.5481 30.3003 14.3706 29.7774 14.5848 29.3457C14.7989 28.9141 15.3237 28.7372 15.7569 28.9506L18.165 30.1371L23.2661 27.2023L18.1639 24.2669L15.7558 25.4534C15.3226 25.6669 14.7978 25.4899 14.5836 25.0583C14.3695 24.6266 14.547 24.1037 14.9801 23.8902L16.3425 23.2189L14.7274 22.2897C14.3089 22.049 14.1656 21.5157 14.4072 21.0987C14.6488 20.6816 15.1839 20.5388 15.6024 20.7795L17.2175 21.7088L17.1197 20.1974C17.0886 19.7168 17.4543 19.3021 17.9365 19.2712C18.4187 19.2402 18.8349 19.6046 18.866 20.0851L19.0389 22.7567L24.1411 25.6922V19.8215L21.9059 18.3365C21.5038 18.0694 21.3952 17.528 21.6632 17.1274C21.9313 16.7267 22.4745 16.6184 22.8765 16.8855L24.1411 17.7256V15.8672C24.1411 15.3857 24.5329 14.9953 25.0161 14.9953Z" fill="url(#paint1_radial_1318_3322)"/>
  <defs>
    <radialGradient id="paint0_radial_1318_3322" cx="0" cy="0" r="1" gradientUnits="userSpaceOnUse" gradientTransform="translate(24.5054 27.6995) rotate(-66.6734) scale(18.8784 18.8784)">
      <stop offset="0.649" stop-color="#11AAE6"/>
      <stop offset="0.719" stop-color="#616161"/>
    </radialGradient>
    <radialGradient id="paint1_radial_1318_3322" cx="0" cy="0" r="1" gradientUnits="userSpaceOnUse" gradientTransform="translate(24.5054 27.6995) rotate(-66.6734) scale(18.8784 18.8784)">
      <stop offset="0.649" stop-color="#11AAE6"/>
      <stop offset="0.719" stop-color="#616161"/>
    </radialGradient>
  </defs>
</svg>