<svg width="48" height="49" viewBox="0 0 48 49" fill="none" xmlns="http://www.w3.org/2000/svg">
  <path fill-rule="evenodd" clip-rule="evenodd" d="M32.7194 5.31921C32.7224 6.34587 31.891 7.17976 30.8643 7.17976H26.8465V7.53247C27.7584 7.67838 28.6477 7.82429 29.5144 8.02638C30.0443 8.14997 30.5659 8.29456 31.0789 8.47301L29.0803 13.9987C28.9347 13.9435 28.7892 13.8909 28.6436 13.8408C27.084 13.3041 25.5202 13.0582 23.9072 13.0582C15.7362 13.0582 9.21119 19.5832 9.21119 27.7542C9.21119 35.9252 15.7362 42.4503 23.9072 42.4503C32.0782 42.4503 38.6033 35.9252 38.6033 27.7542C38.6033 26.3899 38.4385 25.1244 38.0844 23.8591C37.8821 23.1364 38.2123 22.3517 38.9049 22.0625L41.7028 20.8942C42.4217 20.594 43.2517 20.9413 43.4927 21.6822C43.5141 21.7477 43.5351 21.8135 43.5559 21.8794C44.1272 23.6934 44.4817 25.6412 44.4817 27.6955C44.4817 39.0408 35.2526 48.2699 23.9072 48.2699C12.5619 48.2699 3.33276 39.0408 3.33276 27.6955C3.33276 19.2247 8.45555 11.8966 15.7974 8.74416C17.4227 8.04629 19.1567 7.55304 20.968 7.29733V7.12098H16.8804C15.8558 7.12098 15.0253 6.29043 15.0253 5.2659V3.09763C15.0253 2.0731 15.8558 1.24255 16.8804 1.24255H30.8577C31.8801 1.24255 32.7098 2.06976 32.7128 3.09215L32.7194 5.31921ZM31.0969 5.55657L31.0889 2.86574H16.6485V5.49779H22.5912V8.70746L21.1949 8.90458C11.9997 10.2027 4.95595 18.161 4.95595 27.6955C4.95595 38.1444 13.4584 46.6467 23.9072 46.6467C34.3561 46.6467 42.8585 38.1444 42.8585 27.6955C42.8585 25.8819 42.5544 24.1461 42.0514 22.5076L39.6698 23.5021C40.0492 24.8856 40.2265 26.2732 40.2265 27.7542C40.2265 36.8217 32.9747 44.0735 23.9072 44.0735C14.8398 44.0735 7.588 36.8217 7.588 27.7542C7.588 18.6868 14.8398 11.435 23.9072 11.435C25.3214 11.435 26.7084 11.6065 28.0863 11.9745L28.9581 9.56432C28.2211 9.40053 27.4401 9.27129 26.59 9.13527L25.2233 8.91659V5.55657H31.0969ZM37.3086 13.8725C31.3094 18.3971 22.6336 24.9718 21.9086 25.6968C20.7917 26.8725 20.7917 28.5772 21.9086 29.7529C23.0255 30.9286 24.789 30.9286 25.9647 29.7529C26.7259 28.9917 33.6477 20.7639 38.4335 15.0571C41.0395 11.9498 43.0121 9.58991 43.0121 9.58991V9.57996C43.0121 9.57996 43.01 9.58154 43.0058 9.58467C43.0039 9.58609 43.0016 9.58785 42.9989 9.58991C42.8011 9.73832 40.4133 11.5309 37.3086 13.8725ZM32.6235 19.45C30.4727 21.0811 28.368 22.6844 26.6673 23.9936C25.6539 24.7737 24.7882 25.4461 24.1433 25.9565C23.8203 26.212 23.5578 26.4229 23.362 26.5843C23.264 26.6651 23.1872 26.7298 23.1302 26.7791C23.0958 26.809 23.0748 26.8279 23.064 26.8377C22.5638 27.384 22.5709 28.0934 23.0854 28.6349C23.5464 29.1202 24.2584 29.1637 24.8169 28.6051C25.0503 28.3718 26.2007 27.04 27.8875 25.0553C29.2537 23.4477 30.9225 21.4707 32.6235 19.45Z" fill="url(#paint0_diamond_1318_3322)"/>
  <path d="M24.4179 15.0784C24.9012 15.0784 25.2929 15.4688 25.2929 15.9503V17.8088L26.5575 16.9687C26.9595 16.7016 27.5028 16.8098 27.7708 17.2105C28.0389 17.6111 27.9302 18.1525 27.5281 18.4196L25.2929 19.9046V25.7752L30.3951 22.8397L30.568 20.1682C30.5991 19.6877 31.0153 19.3232 31.4974 19.3542C31.9797 19.3852 32.3454 19.7999 32.3142 20.2804L32.2164 21.7918L33.8316 20.8626C34.25 20.6218 34.7851 20.7647 35.0268 21.1817C35.2684 21.5988 35.125 22.132 34.7065 22.3728L33.0914 23.302L34.4539 23.9733C34.887 24.1867 35.0644 24.7097 34.8504 25.1413C34.6362 25.573 34.1114 25.7499 33.6781 25.5365L31.2701 24.3499L26.1677 27.2855L31.2688 30.2203L33.6771 29.0338C34.1102 28.8204 34.635 28.9973 34.8492 29.4289C35.0634 29.8606 34.8859 30.3835 34.4526 30.597L33.0903 31.2682L34.7053 32.1975C35.1239 32.4383 35.2672 32.9715 35.0256 33.3885C34.7841 33.8056 34.2489 33.9484 33.8304 33.7076L32.2154 32.7785L32.3132 34.2899C32.3442 34.7703 31.9786 35.185 31.4963 35.216C31.014 35.2471 30.5979 34.8826 30.5668 34.402L30.3939 31.7305L25.2929 28.7957V34.6657L27.5281 36.1507C27.9302 36.4179 28.0389 36.9591 27.7708 37.3599C27.5028 37.7604 26.9595 37.8687 26.5575 37.6016L25.2929 36.7616V38.6199C25.2929 39.1014 24.9012 39.4919 24.4179 39.4919C23.9347 39.4919 23.543 39.1014 23.543 38.6199V36.7616L22.2784 37.6016C21.8763 37.8687 21.3331 37.7604 21.0651 37.3599C20.797 36.9591 20.9057 36.4179 21.3077 36.1507L23.543 34.6657V28.7956L18.4419 31.7305L18.2689 34.402C18.2378 34.8826 17.8217 35.2471 17.3395 35.216C16.8573 35.185 16.4916 34.7703 16.5227 34.2897L16.6205 32.7783L15.0054 33.7076C14.5869 33.9484 14.0518 33.8054 13.8102 33.3885C13.5685 32.9714 13.7119 32.4381 14.1304 32.1975L15.7455 31.2682L14.3831 30.5969C13.95 30.3835 13.7724 29.8605 13.9866 29.4289C14.2008 28.9972 14.7256 28.8203 15.1587 29.0337L17.5669 30.2203L22.6679 27.2855L17.5658 24.35L15.1576 25.5365C14.7244 25.75 14.1997 25.5731 13.9855 25.1414C13.7713 24.7097 13.9488 24.1868 14.382 23.9734L15.7444 23.3021L14.1293 22.3729C13.7108 22.1321 13.5674 21.5988 13.809 21.1818C14.0507 20.7648 14.5858 20.6219 15.0043 20.8627L16.6194 21.7919L16.5215 20.2805C16.4904 19.8 16.8562 19.3853 17.3384 19.3543C17.8206 19.3233 18.2367 19.6877 18.2678 20.1683L18.4407 22.8398L23.543 25.7753V19.9046L21.3077 18.4196C20.9057 18.1525 20.797 17.6111 21.0651 17.2105C21.3331 16.8098 21.8763 16.7016 22.2784 16.9687L23.543 17.8088V15.9503C23.543 15.4688 23.9347 15.0784 24.4179 15.0784Z" fill="url(#paint1_diamond_1318_3322)"/>
  <defs>
  <radialGradient id="paint0_diamond_1318_3322" cx="0" cy="0" r="1" gradientUnits="userSpaceOnUse" gradientTransform="translate(23.9072 27.7826) rotate(90) scale(20.4873 17.9264)">
  <stop stop-color="#11AAE6"/>
  <stop offset="1" stop-color="#989898"/>
  </radialGradient>
  <radialGradient id="paint1_diamond_1318_3322" cx="0" cy="0" r="1" gradientUnits="userSpaceOnUse" gradientTransform="translate(23.9072 27.7826) rotate(90) scale(20.4873 17.9264)">
  <stop stop-color="#11AAE6"/>
  <stop offset="1" stop-color="#989898"/>
  </radialGradient>
  </defs>
  </svg>
  