<svg width="42" height="48" viewBox="0 0 42 48" fill="none" xmlns="http://www.w3.org/2000/svg">
<g id="Vector">
<path fill-rule="evenodd" clip-rule="evenodd" d="M29.7194 4.31921C29.7224 5.34587 28.891 6.17976 27.8643 6.17976H23.8465V6.53247C24.7584 6.67838 25.6477 6.82429 26.5144 7.02638C27.0443 7.14997 27.5659 7.29456 28.0789 7.47301L26.0803 12.9987C25.9347 12.9435 25.7892 12.8909 25.6436 12.8408C24.084 12.3041 22.5202 12.0582 20.9072 12.0582C12.7362 12.0582 6.21119 18.5832 6.21119 26.7542C6.21119 34.9252 12.7362 41.4503 20.9072 41.4503C29.0782 41.4503 35.6033 34.9252 35.6033 26.7542C35.6033 25.3899 35.4385 24.1244 35.0844 22.8591C34.8821 22.1364 35.2123 21.3517 35.9049 21.0625L38.7028 19.8942C39.4217 19.594 40.2517 19.9413 40.4927 20.6822C40.5141 20.7477 40.5351 20.8135 40.5559 20.8794C41.1272 22.6934 41.4817 24.6412 41.4817 26.6955C41.4817 38.0408 32.2526 47.2699 20.9072 47.2699C9.56189 47.2699 0.332764 38.0408 0.332764 26.6955C0.332764 18.2247 5.45555 10.8966 12.7974 7.74416C14.4227 7.04629 16.1567 6.55304 17.968 6.29733V6.12098H13.8804C12.8558 6.12098 12.0253 5.29043 12.0253 4.2659V2.09763C12.0253 1.0731 12.8558 0.242554 13.8804 0.242554H27.8577C28.8801 0.242554 29.7098 1.06976 29.7128 2.09215L29.7194 4.31921ZM28.0969 4.55657L28.0889 1.86574H13.6485V4.49779H19.5912V7.70746L18.1949 7.90458C8.99971 9.20273 1.95595 17.161 1.95595 26.6955C1.95595 37.1444 10.4584 45.6467 20.9072 45.6467C31.3561 45.6467 39.8585 37.1444 39.8585 26.6955C39.8585 24.8819 39.5544 23.1461 39.0514 21.5076L36.6698 22.5021C37.0492 23.8856 37.2265 25.2732 37.2265 26.7542C37.2265 35.8217 29.9747 43.0735 20.9072 43.0735C11.8398 43.0735 4.588 35.8217 4.588 26.7542C4.588 17.6868 11.8398 10.435 20.9072 10.435C22.3214 10.435 23.7084 10.6065 25.0863 10.9745L25.9581 8.56432C25.2211 8.40053 24.4401 8.27129 23.59 8.13527L22.2233 7.91659V4.55657H28.0969ZM34.3086 12.8725C28.3094 17.3971 19.6336 23.9718 18.9086 24.6968C17.7917 25.8725 17.7917 27.5772 18.9086 28.7529C20.0255 29.9286 21.789 29.9286 22.9647 28.7529C23.7259 27.9917 30.6477 19.7639 35.4335 14.0571C38.0395 10.9498 40.0121 8.58991 40.0121 8.58991V8.57996C40.0121 8.57996 40.01 8.58154 40.0058 8.58467C40.0039 8.58609 40.0016 8.58785 39.9989 8.58991C39.8011 8.73832 37.4133 10.5309 34.3086 12.8725ZM29.6235 18.45C27.4727 20.0811 25.368 21.6844 23.6673 22.9936C22.6539 23.7737 21.7882 24.4461 21.1433 24.9565C20.8203 25.212 20.5578 25.4229 20.362 25.5843C20.264 25.6651 20.1872 25.7298 20.1302 25.7791C20.0958 25.809 20.0748 25.8279 20.064 25.8377C19.5638 26.384 19.5709 27.0934 20.0854 27.6349C20.5464 28.1202 21.2584 28.1637 21.8169 27.6051C22.0503 27.3718 23.2007 26.04 24.8875 24.0553C26.2537 22.4477 27.9225 20.4707 29.6235 18.45Z" fill="#747171" style="mix-blend-mode:color-dodge"/>
<path d="M21.4179 14.0784C21.9012 14.0784 22.2929 14.4688 22.2929 14.9503V16.8088L23.5575 15.9687C23.9595 15.7016 24.5028 15.8098 24.7708 16.2105C25.0389 16.6111 24.9302 17.1525 24.5281 17.4196L22.2929 18.9046V24.7752L27.3951 21.8397L27.568 19.1682C27.5991 18.6877 28.0153 18.3232 28.4974 18.3542C28.9797 18.3852 29.3454 18.7999 29.3142 19.2804L29.2164 20.7918L30.8316 19.8626C31.25 19.6218 31.7851 19.7647 32.0268 20.1817C32.2684 20.5988 32.125 21.132 31.7065 21.3728L30.0914 22.302L31.4539 22.9733C31.887 23.1867 32.0644 23.7097 31.8504 24.1413C31.6362 24.573 31.1114 24.7499 30.6781 24.5365L28.2701 23.3499L23.1677 26.2855L28.2688 29.2203L30.6771 28.0338C31.1102 27.8204 31.635 27.9973 31.8492 28.4289C32.0634 28.8606 31.8859 29.3835 31.4526 29.597L30.0903 30.2682L31.7053 31.1975C32.1239 31.4383 32.2672 31.9715 32.0256 32.3885C31.7841 32.8056 31.2489 32.9484 30.8304 32.7076L29.2154 31.7785L29.3132 33.2899C29.3442 33.7703 28.9786 34.185 28.4963 34.216C28.014 34.2471 27.5979 33.8826 27.5668 33.402L27.3939 30.7305L22.2929 27.7957V33.6657L24.5281 35.1507C24.9302 35.4179 25.0389 35.9591 24.7708 36.3599C24.5028 36.7604 23.9595 36.8687 23.5575 36.6016L22.2929 35.7616V37.6199C22.2929 38.1014 21.9012 38.4919 21.4179 38.4919C20.9347 38.4919 20.543 38.1014 20.543 37.6199V35.7616L19.2784 36.6016C18.8763 36.8687 18.3331 36.7604 18.0651 36.3599C17.797 35.9591 17.9057 35.4179 18.3077 35.1507L20.543 33.6657V27.7956L15.4419 30.7305L15.2689 33.402C15.2378 33.8826 14.8217 34.2471 14.3395 34.216C13.8573 34.185 13.4916 33.7703 13.5227 33.2897L13.6205 31.7783L12.0054 32.7076C11.5869 32.9484 11.0518 32.8054 10.8102 32.3885C10.5685 31.9714 10.7119 31.4381 11.1304 31.1975L12.7455 30.2682L11.3831 29.5969C10.95 29.3835 10.7724 28.8605 10.9866 28.4289C11.2008 27.9972 11.7256 27.8203 12.1587 28.0337L14.5669 29.2203L19.6679 26.2855L14.5658 23.35L12.1576 24.5365C11.7244 24.75 11.1997 24.5731 10.9855 24.1414C10.7713 23.7097 10.9488 23.1868 11.382 22.9734L12.7444 22.3021L11.1293 21.3729C10.7108 21.1321 10.5674 20.5988 10.809 20.1818C11.0507 19.7648 11.5858 19.6219 12.0043 19.8627L13.6194 20.7919L13.5215 19.2805C13.4904 18.8 13.8562 18.3853 14.3384 18.3543C14.8206 18.3233 15.2367 18.6877 15.2678 19.1683L15.4407 21.8398L20.543 24.7753V18.9046L18.3077 17.4196C17.9057 17.1525 17.797 16.6111 18.0651 16.2105C18.3331 15.8098 18.8763 15.7016 19.2784 15.9687L20.543 16.8088V14.9503C20.543 14.4688 20.9347 14.0784 21.4179 14.0784Z" fill="#AAAAAA"/>
</g>
</svg>
