<svg xmlns="http://www.w3.org/2000/svg" width="41" height="40" viewBox="0 0 41 40" fill="none">
  <path fill-rule="evenodd" clip-rule="evenodd" d="M27.6337 4.20776C27.6363 5.06331 26.9434 5.75822 26.0879 5.75822H22.7396V6.05214C23.4996 6.17373 24.2407 6.29532 24.9629 6.46374C25.4045 6.56672 25.8391 6.68722 26.2667 6.83593L24.6011 11.4407C24.4799 11.3947 24.3586 11.3508 24.2373 11.3091C22.9376 10.8618 21.6344 10.6569 20.2903 10.6569C13.4811 10.6569 8.04358 16.0944 8.04358 22.9036C8.04358 29.7128 13.4811 35.1503 20.2903 35.1503C27.0995 35.1503 32.537 29.7128 32.537 22.9036C32.537 21.7667 32.3997 20.7121 32.1046 19.6577C31.936 19.0554 32.2112 18.4015 32.7883 18.1605L35.1199 17.1869C35.719 16.9367 36.4107 17.2262 36.6115 17.8436C36.6293 17.8982 36.6469 17.953 36.6642 18.0079C37.1403 19.5196 37.4357 21.1428 37.4357 22.8546C37.4357 32.3091 29.7448 40 20.2903 40C10.8358 40 3.1449 32.3091 3.1449 22.8546C3.1449 15.7956 7.41388 9.68894 13.5321 7.06189C14.8865 6.48032 16.3315 6.06929 17.841 5.85619V5.70923H14.4346C13.5808 5.70923 12.8887 5.01711 12.8887 4.16334V2.35644C12.8887 1.50267 13.5808 0.810547 14.4346 0.810547H26.0824C26.9344 0.810547 27.6257 1.49989 27.6283 2.35188L27.6337 4.20776ZM26.2817 4.40556L26.275 2.1632H14.2413V4.35658H19.1936V7.0313L18.03 7.19557C10.3674 8.27736 4.49755 14.9093 4.49755 22.8546C4.49755 31.562 11.5829 38.6474 20.2903 38.6474C28.9977 38.6474 36.083 31.562 36.083 22.8546C36.083 21.3433 35.8296 19.8969 35.4104 18.5314L33.4258 19.3602C33.7419 20.5131 33.8897 21.6694 33.8897 22.9036C33.8897 30.4598 27.8465 36.503 20.2903 36.503C12.7341 36.503 6.69093 30.4598 6.69093 22.9036C6.69093 15.3474 12.7341 9.30425 20.2903 9.30425C21.4687 9.30425 22.6246 9.44718 23.7729 9.75381L24.4993 7.74536C23.8852 7.60886 23.2344 7.50116 22.5259 7.38781L21.387 7.20558V4.40556H26.2817ZM31.4581 11.3355C26.4588 15.106 19.2289 20.5849 18.6247 21.1891C17.694 22.1688 17.694 23.5894 18.6247 24.5692C19.5555 25.5489 21.0251 25.5489 22.0048 24.5692C22.6392 23.9348 28.4073 17.0783 32.3955 12.3227C34.5671 9.73324 36.211 7.76668 36.211 7.76668V7.75839C36.211 7.75839 36.2093 7.7597 36.2058 7.76231C36.2042 7.7635 36.2023 7.76496 36.2 7.76668C36.0352 7.89035 34.0454 9.38414 31.4581 11.3355ZM27.5538 15.9834C25.7615 17.3427 24.0076 18.6788 22.5904 19.7697C21.7459 20.4198 21.0245 20.9802 20.487 21.4055C20.2179 21.6184 19.9991 21.7942 19.8359 21.9287C19.7542 21.996 19.6902 22.0499 19.6428 22.091C19.6141 22.1159 19.5966 22.1316 19.5876 22.1399C19.1707 22.595 19.1767 23.1862 19.6054 23.6375C19.9896 24.042 20.5829 24.0782 21.0484 23.6127C21.2428 23.4182 22.2015 22.3084 23.6072 20.6545C24.7457 19.3148 26.1364 17.6674 27.5538 15.9834Z" fill="#8C8C8C" style="mix-blend-mode:color-dodge"/>
  <path d="M20.7159 12.3404C21.1186 12.3404 21.445 12.6657 21.445 13.067V14.6157L22.4988 13.9156C22.8339 13.693 23.2866 13.7833 23.5099 14.1172C23.7333 14.451 23.6428 14.9022 23.3077 15.1248L21.445 16.3622V21.2544L25.6968 18.8082L25.8409 16.5819C25.8669 16.1815 26.2137 15.8778 26.6154 15.9036C27.0173 15.9294 27.3221 16.275 27.2961 16.6754L27.2146 17.9349L28.5606 17.1606C28.9093 16.9599 29.3552 17.079 29.5566 17.4265C29.758 17.7741 29.6384 18.2184 29.2897 18.4191L27.9437 19.1934L29.0791 19.7528C29.4401 19.9307 29.5879 20.3665 29.4096 20.7262C29.2311 21.0859 28.7938 21.2333 28.4327 21.0555L26.426 20.0667L22.174 22.513L26.425 24.9587L28.4318 23.9699C28.7927 23.792 29.2301 23.9395 29.4086 24.2992C29.5871 24.6589 29.4392 25.0947 29.0781 25.2726L27.9429 25.8319L29.2887 26.6063C29.6375 26.807 29.7569 27.2514 29.5556 27.5988C29.3543 27.9464 28.9084 28.0654 28.5596 27.8648L27.2137 27.0905L27.2952 28.35C27.3211 28.7503 27.0164 29.0959 26.6145 29.1218C26.2126 29.1476 25.8659 28.8439 25.8399 28.4434L25.6958 26.2171L21.445 23.7715V28.6631L23.3077 29.9007C23.6428 30.1233 23.7333 30.5744 23.5099 30.9083C23.2866 31.2421 22.8339 31.3323 22.4988 31.1097L21.445 30.4097V31.9584C21.445 32.3596 21.1186 32.685 20.7159 32.685C20.3132 32.685 19.9867 32.3596 19.9867 31.9584V30.4097L18.9329 31.1097C18.5979 31.3323 18.1452 31.2421 17.9218 30.9083C17.6984 30.5744 17.789 30.1233 18.124 29.9007L19.9867 28.6631V23.7714L15.7358 26.2171L15.5917 28.4434C15.5658 28.8439 15.219 29.1476 14.8172 29.1218C14.4153 29.0959 14.1106 28.7503 14.1365 28.3498L14.218 27.0904L12.8721 27.8648C12.5233 28.0654 12.0774 27.9463 11.8761 27.5988C11.6747 27.2512 11.7942 26.8068 12.143 26.6063L13.4889 25.8319L12.3535 25.2725C11.9926 25.0946 11.8446 24.6589 12.0231 24.2991C12.2016 23.9394 12.6389 23.792 12.9999 23.9699L15.0067 24.9586L19.2575 22.513L15.0057 20.0667L12.9989 21.0555C12.638 21.2334 12.2006 21.086 12.0222 20.7263C11.8437 20.3665 11.9916 19.9308 12.3526 19.7529L13.4879 19.1935L12.142 18.4191C11.7933 18.2185 11.6738 17.7741 11.8751 17.4266C12.0765 17.0791 12.5224 16.96 12.8711 17.1606L14.2171 17.935L14.1355 16.6755C14.1096 16.275 14.4144 15.9295 14.8162 15.9037C15.2181 15.8778 15.5649 16.1815 15.5908 16.582L15.7349 18.8082L19.9867 21.2545V16.3622L18.124 15.1248C17.789 14.9022 17.6984 14.451 17.9218 14.1172C18.1452 13.7833 18.5979 13.693 18.9329 13.9156L19.9867 14.6157V13.067C19.9867 12.6657 20.3132 12.3404 20.7159 12.3404Z" fill="#219FD0"/>
</svg>