<svg xmlns="http://www.w3.org/2000/svg" width="49" height="49" viewBox="0 0 49 49" fill="none">
  <path fill-rule="evenodd" clip-rule="evenodd" d="M42.6266 34.2955C41.6129 36.1517 40.1474 37.7339 38.36 38.9017L24.5981 47.8946L10.8361 38.9017C9.04906 37.7341 7.58368 36.1523 6.56999 34.2965C5.5563 32.4407 5.02566 30.3683 5.02515 28.2633V6.97363C5.02523 6.48874 5.19399 6.01838 5.50357 5.64016C5.81315 5.26194 6.24505 4.99848 6.72799 4.89326L24.5981 1.0011L42.4681 4.89326C42.951 4.99848 43.383 5.26194 43.6925 5.64016C44.0021 6.01838 44.1709 6.48874 44.171 6.97363V28.2612C44.1708 30.3665 43.6403 32.4393 42.6266 34.2955ZM37.2165 37.2125L24.5981 45.4581L11.9797 37.2125C10.4753 36.2296 9.24217 34.8983 8.38943 33.3371C7.53678 31.7761 7.09056 30.0333 7.09004 28.2633V6.97398C7.09005 6.95191 7.09769 6.92988 7.11268 6.91157C7.12771 6.8932 7.1496 6.87949 7.17503 6.87391L24.5981 3.07912L42.0212 6.87395C42.0467 6.87952 42.0684 6.89321 42.0834 6.91157C42.0984 6.92988 42.1061 6.95191 42.1061 6.97398V28.2612C42.1059 30.0316 41.6598 31.7749 40.8071 33.3363C39.9544 34.8978 38.721 36.2294 37.2165 37.2125ZM28.2465 27.6404L24.5979 25.7605L20.9505 27.6404L21.6454 23.6607L18.7002 20.8457L22.7708 20.2652L24.5974 16.6394L26.4228 20.2652L30.4957 20.8459L27.5504 23.661L28.2465 27.6404ZM19.4265 24.3702L18.2086 31.3446L24.5981 28.0514L30.9897 31.3446L29.7697 24.3702L34.9391 19.4294L27.7928 18.4105L24.5981 12.0649L21.4011 18.4105L14.257 19.4294L19.4265 24.3702Z" fill="url(#paint0_linear_1318_3297)"/>
  <path d="M28.2465 27.6404L24.5979 25.7605L20.9505 27.6404L21.6454 23.6607L18.7002 20.8457L22.7708 20.2652L24.5974 16.6394L26.4228 20.2652L30.4957 20.8459L27.5504 23.661L28.2465 27.6404Z" fill="url(#paint1_linear_1318_3297)"/>
  <defs>
    <linearGradient id="paint0_linear_1318_3297" x1="25.4482" y1="1.0011" x2="25.4482" y2="47.8946" gradientUnits="userSpaceOnUse">
      <stop stop-color="#DD950E"/>
      <stop offset="0.399" stop-color="#AD6A05"/>
      <stop offset="0.714" stop-color="#E39012"/>
      <stop offset="0.9999" stop-color="#CD7C03"/>
    </linearGradient>
    <linearGradient id="paint1_linear_1318_3297" x1="25.4482" y1="1.0011" x2="25.4482" y2="47.8946" gradientUnits="userSpaceOnUse">
      <stop stop-color="#DD950E"/>
      <stop offset="0.399" stop-color="#AD6A05"/>
      <stop offset="0.714" stop-color="#E39012"/>
      <stop offset="0.9999" stop-color="#CD7C03"/>
    </linearGradient>
  </defs>
</svg>