<svg xmlns="http://www.w3.org/2000/svg" width="49" height="48" viewBox="0 0 49 48" fill="none">
  <path fill-rule="evenodd" clip-rule="evenodd" d="M42.2225 33.5166C41.2088 35.3728 39.7432 36.955 37.9558 38.1228L24.1939 47.1157L10.432 38.1228C8.64489 36.9552 7.1795 35.3733 6.16581 33.5175C5.15213 31.6617 4.62149 29.5894 4.62097 27.4844V6.1947C4.62106 5.70981 4.78982 5.23944 5.0994 4.86123C5.40898 4.48301 5.84088 4.21955 6.32381 4.11433L24.1939 0.222168L42.0639 4.11433C42.5469 4.21955 42.9788 4.48301 43.2884 4.86123C43.5979 5.23944 43.7667 5.70981 43.7668 6.1947V27.4822C43.7666 29.5876 43.2362 31.6604 42.2225 33.5166ZM36.8123 36.4335L24.1939 44.6792L11.5755 36.4335C10.0712 35.4507 8.838 34.1193 7.98526 32.5582C7.13261 30.9972 6.68638 29.2544 6.68587 27.4844V6.19505C6.68587 6.17298 6.69352 6.15095 6.7085 6.13264C6.72354 6.11427 6.74543 6.10056 6.77086 6.09498L24.1939 2.30019L41.617 6.09502C41.6425 6.10059 41.6642 6.11428 41.6793 6.13264C41.6942 6.15095 41.7019 6.17298 41.7019 6.19505V27.4822C41.7017 29.2527 41.2557 30.996 40.4029 32.5574C39.5502 34.1189 38.3169 35.4505 36.8123 36.4335ZM27.8424 26.8615L24.1937 24.9815L20.5463 26.8615L21.2412 22.8818L18.296 20.0668L22.3666 19.4863L24.1933 15.8605L26.0187 19.4863L30.0916 20.0669L27.1462 22.882L27.8424 26.8615ZM19.0223 23.5913L17.8044 30.5656L24.1939 27.2724L30.5855 30.5656L29.3655 23.5913L34.5349 18.6504L27.3886 17.6316L24.1939 11.286L20.997 17.6316L13.8529 18.6504L19.0223 23.5913Z" fill="url(#paint0_linear_1318_3365)"/>
  <path d="M27.8424 26.8615L24.1937 24.9815L20.5463 26.8615L21.2412 22.8818L18.296 20.0668L22.3666 19.4863L24.1933 15.8605L26.0187 19.4863L30.0916 20.0669L27.1462 22.882L27.8424 26.8615Z" fill="url(#paint1_linear_1318_3365)"/>
  <defs>
    <linearGradient id="paint0_linear_1318_3365" x1="25.0441" y1="0.222168" x2="25.0441" y2="47.1157" gradientUnits="userSpaceOnUse">
      <stop stop-color="#DD950E"/>
      <stop offset="0.484" stop-color="#AD6A05"/>
      <stop offset="0.9999" stop-color="#CD7C03"/>
      <stop offset="1" stop-color="#D78202"/>
    </linearGradient>
    <linearGradient id="paint1_linear_1318_3365" x1="25.0441" y1="0.222168" x2="25.0441" y2="47.1157" gradientUnits="userSpaceOnUse">
      <stop stop-color="#DD950E"/>
      <stop offset="0.484" stop-color="#AD6A05"/>
      <stop offset="0.9999" stop-color="#CD7C03"/>
      <stop offset="1" stop-color="#D78202"/>
    </linearGradient>
  </defs>
</svg>