<svg width="48" height="49" viewBox="0 0 48 49" fill="none" xmlns="http://www.w3.org/2000/svg">
    <path fill-rule="evenodd" clip-rule="evenodd" d="M42.0285 34.3787C41.0148 36.2349 39.5492 37.8171 37.7618 38.9849L23.9999 47.9778L10.238 38.9849C8.45092 37.8173 6.98553 36.2354 5.97184 34.3796C4.95816 32.5238 4.42752 30.4514 4.427 28.3464V7.05676C4.42709 6.57187 4.59585 6.10151 4.90543 5.72329C5.21501 5.34507 5.64691 5.08161 6.12985 4.97639L23.9999 1.08423L41.87 4.97639C42.3529 5.08161 42.7848 5.34507 43.0944 5.72329C43.404 6.10151 43.5727 6.57187 43.5728 7.05676V28.3443C43.5727 30.4497 43.0422 32.5225 42.0285 34.3787ZM36.6183 37.2956L23.9999 45.5413L11.3815 37.2956C9.87718 36.3127 8.64403 34.9814 7.79129 33.4202C6.93864 31.8593 6.49241 30.1165 6.4919 28.3464V7.05711C6.4919 7.03504 6.49955 7.01301 6.51453 6.9947C6.52957 6.97633 6.55146 6.96262 6.57689 6.95704L23.9999 3.16225L41.4231 6.95708C41.4485 6.96265 41.4703 6.97634 41.4853 6.9947C41.5003 7.01301 41.5079 7.03504 41.5079 7.05711V28.3443C41.5078 30.1148 41.0617 31.858 40.209 33.4195C39.3562 34.9809 38.1229 36.3126 36.6183 37.2956ZM27.6484 27.7235L23.9998 25.8436L20.3523 27.7235L21.0473 23.7438L18.1021 20.9288L22.1726 20.3483L23.9993 16.7226L25.8247 20.3483L29.8976 20.929L26.9523 23.7441L27.6484 27.7235ZM18.8283 24.4534L17.6104 31.4277L23.9999 28.1345L30.3916 31.4277L29.1715 24.4534L34.3409 19.5125L27.1946 18.4936L23.9999 12.1481L20.803 18.4936L13.6589 19.5125L18.8283 24.4534Z" fill="url(#paint0_linear_3471_4505)"/>
    <path d="M27.6484 27.7235L23.9998 25.8436L20.3523 27.7235L21.0473 23.7438L18.1021 20.9288L22.1726 20.3483L23.9993 16.7226L25.8247 20.3483L29.8976 20.929L26.9523 23.7441L27.6484 27.7235Z" fill="url(#paint1_linear_3471_4505)"/>
    <defs>
    <linearGradient id="paint0_linear_3471_4505" x1="24.8501" y1="1.08423" x2="24.8501" y2="47.9778" gradientUnits="userSpaceOnUse">
    <stop stop-color="#909090"/>
    <stop offset="0.484" stop-color="#868686"/>
    <stop offset="0.9999" stop-color="#5F5F5F"/>
    <stop offset="1" stop-color="#3C3C3C"/>
    </linearGradient>
    <linearGradient id="paint1_linear_3471_4505" x1="24.8501" y1="1.08423" x2="24.8501" y2="47.9778" gradientUnits="userSpaceOnUse">
    <stop stop-color="#909090"/>
    <stop offset="0.484" stop-color="#868686"/>
    <stop offset="0.9999" stop-color="#5F5F5F"/>
    <stop offset="1" stop-color="#3C3C3C"/>
    </linearGradient>
    </defs>
    </svg>
    