<svg width="48" height="49" viewBox="0 0 48 49" fill="none" xmlns="http://www.w3.org/2000/svg">
    <g style="mix-blend-mode:luminosity">
    <path fill-rule="evenodd" clip-rule="evenodd" d="M42.1398 13.8343L24.1378 3.44085C23.9943 3.358 23.8176 3.35801 23.6741 3.44085L5.67206 13.8343C5.52857 13.9172 5.44018 14.0703 5.44018 14.2359V35.0229C5.44018 35.1885 5.52857 35.3416 5.67206 35.4245L23.6741 45.818C23.8176 45.9008 23.9943 45.9008 24.1378 45.818L42.1398 35.4245C42.2833 35.3416 42.3717 35.1885 42.3717 35.0229V14.2359C42.3717 14.0703 42.2833 13.9172 42.1398 13.8343ZM25.2972 1.43267C24.4363 0.93561 23.3756 0.935609 22.5146 1.43267L4.51264 11.8261C3.6517 12.3232 3.12134 13.2418 3.12134 14.2359V35.0229C3.12134 36.017 3.6517 36.9356 4.51264 37.4327L22.5146 47.8261C23.3756 48.3232 24.4363 48.3232 25.2972 47.8261L43.2993 37.4327C44.1602 36.9356 44.6906 36.017 44.6906 35.0229V14.2359C44.6906 13.2418 44.1602 12.3232 43.2993 11.8261L25.2972 1.43267Z" fill="#797979"/>
    <path fill-rule="evenodd" clip-rule="evenodd" d="M23.905 11.8036C24.6094 11.8036 25.1804 12.3746 25.1804 13.079V14.3157C25.1804 15.0201 24.6094 15.5911 23.905 15.5911C23.2006 15.5911 22.6296 15.0201 22.6296 14.3157V13.079C22.6296 12.3746 23.2006 11.8036 23.905 11.8036ZM15.1327 15.4372C15.6308 14.9391 16.4383 14.9391 16.9364 15.4372L17.8107 16.3115C18.3088 16.8096 18.3088 17.6171 17.8107 18.1152C17.3127 18.6132 16.5052 18.6132 16.0071 18.1152L15.1327 17.2408C14.6347 16.7428 14.6347 15.9352 15.1327 15.4372ZM32.6773 15.4372C33.1753 15.9352 33.1753 16.7428 32.6773 17.2408L31.8029 18.1152C31.3049 18.6132 30.4973 18.6132 29.9993 18.1152C29.5012 17.6171 29.5012 16.8096 29.9993 16.3115L30.8736 15.4372C31.3717 14.9391 32.1792 14.9391 32.6773 15.4372ZM23.905 19.3024C22.9343 19.3024 21.9854 19.5902 21.1783 20.1295C20.3712 20.6687 19.7421 21.4352 19.3705 22.332C18.999 23.2288 18.9017 24.2156 19.091 25.1677C19.2803 26.1196 19.7474 26.994 20.4335 27.6804L20.4339 27.6808L21.1115 28.3571C21.3468 28.5925 21.5584 28.8472 21.7448 29.1177H26.0652C26.2523 28.8461 26.4641 28.5915 26.6984 28.3572L27.3765 27.6804C28.0626 26.994 28.5298 26.1196 28.719 25.1677C28.9083 24.2156 28.811 23.2288 28.4395 22.332C28.068 21.4352 27.4389 20.6687 26.6317 20.1295C25.8246 19.5902 24.8757 19.3024 23.905 19.3024ZM25.13 31.6684H22.68C22.6979 31.8475 22.7069 32.0282 22.7069 32.2098V32.8665C22.7069 33.1842 22.8332 33.4889 23.0578 33.7136C23.2825 33.9383 23.5873 34.0645 23.905 34.0645C24.2228 34.0645 24.5275 33.9383 24.7522 33.7136C24.9769 33.4889 25.1031 33.1842 25.1031 32.8665V32.2099C25.1031 32.0288 25.1121 31.848 25.13 31.6684ZM19.8499 30.9129C19.8603 30.9363 19.8714 30.9593 19.8832 30.9819C20.0612 31.3626 20.1562 31.7814 20.1562 32.2098V32.8665C20.1562 33.8607 20.5512 34.8142 21.2542 35.5173C21.9572 36.2203 22.9108 36.6152 23.905 36.6152C24.8992 36.6152 25.8528 36.2203 26.5558 35.5173C27.2588 34.8142 27.6538 33.8607 27.6538 32.8665V32.2098C27.6538 31.8293 27.7286 31.4523 27.8742 31.1008C28.0197 30.7495 28.2328 30.4303 28.5015 30.1614L29.18 29.4842C30.2229 28.4409 30.9331 27.1119 31.2208 25.665C31.5084 24.2182 31.3606 22.7186 30.796 21.3557C30.2314 19.9929 29.2753 18.8281 28.0488 18.0086C26.8222 17.1891 25.3802 16.7517 23.905 16.7517C22.4299 16.7517 20.9878 17.1891 19.7612 18.0086C18.5347 18.8281 17.5786 19.9929 17.014 21.3557C16.4494 22.7186 16.3016 24.2182 16.5892 25.665C16.8769 27.1119 17.5871 28.4409 18.63 29.4842L18.631 29.4851L19.3079 30.1608L19.3087 30.1616M11.4992 24.2094C11.4992 23.5051 12.0702 22.9341 12.7746 22.9341H14.0113C14.7157 22.9341 15.2866 23.5051 15.2866 24.2094C15.2866 24.9138 14.7157 25.4848 14.0113 25.4848H12.7746C12.0702 25.4848 11.4992 24.9138 11.4992 24.2094ZM32.5234 24.2094C32.5234 23.5051 33.0944 22.9341 33.7987 22.9341H35.0354C35.7398 22.9341 36.3108 23.5051 36.3108 24.2094C36.3108 24.9138 35.7398 25.4848 35.0354 25.4848H33.7987C33.0944 25.4848 32.5234 24.9138 32.5234 24.2094Z" fill="#797979"/>
    <path d="M22.9235 21.0031C22.9235 20.8758 23.0164 20.735 23.2023 20.5809C23.397 20.42 23.574 20.3395 23.7333 20.3395C23.9015 20.3395 24.0829 20.4166 24.2776 20.5708C24.4723 20.725 24.5697 20.8691 24.5697 21.0031C24.5697 21.1305 24.4723 21.2713 24.2776 21.4254C24.0829 21.5796 23.9015 21.6567 23.7333 21.6567C23.5829 21.6567 23.4103 21.5796 23.2156 21.4254C23.0209 21.2713 22.9235 21.1305 22.9235 21.0031ZM24.3307 26.7343C24.3307 26.9622 24.4635 27.0761 24.729 27.0761C24.9503 27.0761 25.1715 27.0057 25.3928 26.865L25.645 27.1264C25.4149 27.3208 25.1671 27.475 24.9016 27.5889C24.6361 27.7029 24.3883 27.7598 24.1582 27.7598C23.7953 27.7598 23.5342 27.676 23.3749 27.5085C23.2156 27.3409 23.1359 27.0694 23.1359 26.694V23.5771C23.1359 23.4967 23.1138 23.4397 23.0695 23.4062C23.0341 23.3727 22.9678 23.3559 22.8704 23.3559H22.2863L22.1668 23.0945C22.4234 22.9202 22.7155 22.7761 23.043 22.6622C23.3705 22.5482 23.6625 22.4912 23.9192 22.4912C24.0431 22.4912 24.1449 22.5214 24.2245 22.5817C24.3042 22.642 24.344 22.7191 24.344 22.813L24.3307 26.7343Z" fill="#797979"/>
    </g>
    </svg>
    