<svg xmlns="http://www.w3.org/2000/svg" width="49" height="49" viewBox="0 0 49 49" fill="none">
    <path fill-rule="evenodd" clip-rule="evenodd" d="M42.2756 13.7512L24.2736 3.35772C24.1301 3.27487 23.9533 3.27488 23.8098 3.35772L5.8078 13.7512C5.66431 13.834 5.57592 13.9871 5.57592 14.1528V34.9397C5.57592 35.1054 5.66431 35.2585 5.8078 35.3414L23.8098 45.7348C23.9533 45.8177 24.1301 45.8177 24.2736 45.7348L42.2756 35.3414C42.4191 35.2585 42.5075 35.1054 42.5075 34.9397V14.1528C42.5075 13.9871 42.4191 13.834 42.2756 13.7512ZM25.433 1.34954C24.572 0.85248 23.5113 0.852479 22.6504 1.34954L4.64838 11.743C3.78744 12.2401 3.25708 13.1587 3.25708 14.1528V34.9397C3.25708 35.9339 3.78744 36.8525 4.64838 37.3495L22.6504 47.743C23.5113 48.2401 24.572 48.2401 25.433 47.743L43.435 37.3495C44.2959 36.8525 44.8263 35.9339 44.8263 34.9397V14.1528C44.8263 13.1587 44.2959 12.2401 43.435 11.743L25.433 1.34954Z" fill="url(#paint0_radial_1318_3339)"/>
    <path fill-rule="evenodd" clip-rule="evenodd" d="M24.0407 11.7205C24.7451 11.7205 25.3161 12.2915 25.3161 12.9959V14.2326C25.3161 14.937 24.7451 15.508 24.0407 15.508C23.3364 15.508 22.7654 14.937 22.7654 14.2326V12.9959C22.7654 12.2915 23.3364 11.7205 24.0407 11.7205ZM15.2685 15.354C15.7665 14.856 16.5741 14.856 17.0721 15.354L17.9465 16.2284C18.4445 16.7265 18.4445 17.534 17.9465 18.032C17.4484 18.5301 16.6409 18.5301 16.1428 18.032L15.2685 17.1577C14.7704 16.6596 14.7704 15.8521 15.2685 15.354ZM32.813 15.354C33.3111 15.8521 33.3111 16.6596 32.813 17.1577L31.9387 18.032C31.4406 18.5301 30.6331 18.5301 30.135 18.032C29.637 17.534 29.637 16.7265 30.135 16.2284L31.0094 15.354C31.5074 14.856 32.315 14.856 32.813 15.354ZM24.0407 19.2193C23.0701 19.2193 22.1212 19.5071 21.314 20.0464C20.5069 20.5856 19.8778 21.3521 19.5063 22.2489C19.1347 23.1457 19.0375 24.1325 19.2268 25.0845C19.416 26.0364 19.8832 26.9108 20.5693 27.5973L20.5697 27.5976L21.2473 28.274C21.4826 28.5093 21.6942 28.7641 21.8805 29.0345H26.2009C26.3881 28.763 26.5999 28.5084 26.8342 28.2741L27.5122 27.5973C28.1983 26.9108 28.6655 26.0364 28.8547 25.0845C29.044 24.1325 28.9468 23.1457 28.5752 22.2489C28.2037 21.3521 27.5746 20.5856 26.7675 20.0464C25.9603 19.5071 25.0114 19.2193 24.0407 19.2193ZM25.2657 31.5853H22.8157C22.8336 31.7644 22.8427 31.945 22.8427 32.1266V32.7833C22.8427 33.1011 22.9689 33.4058 23.1936 33.6305C23.4183 33.8552 23.723 33.9814 24.0407 33.9814C24.3585 33.9814 24.6632 33.8552 24.8879 33.6305C25.1126 33.4058 25.2388 33.1011 25.2388 32.7833V32.1268C25.2388 31.9457 25.2478 31.7648 25.2657 31.5853ZM19.9856 30.8298C19.9961 30.8531 20.0072 30.8761 20.019 30.8987C20.1969 31.2795 20.292 31.6983 20.292 32.1266V32.7833C20.292 33.7776 20.6869 34.7311 21.39 35.4341C22.093 36.1372 23.0465 36.5321 24.0407 36.5321C25.035 36.5321 25.9885 36.1372 26.6915 35.4341C27.3946 34.7311 27.7895 33.7776 27.7895 32.7833V32.1266C27.7895 31.7461 27.8644 31.3692 28.01 31.0176C28.1554 30.6664 28.3686 30.3472 28.6373 30.0783L29.3157 29.401C30.3587 28.3578 31.0689 27.0287 31.3565 25.5819C31.6442 24.1351 31.4963 22.6354 30.9317 21.2726C30.3671 19.9098 29.4111 18.745 28.1845 17.9255C26.9579 17.1059 25.5159 16.6685 24.0407 16.6685C22.5656 16.6685 21.1236 17.1059 19.897 17.9255C18.6704 18.745 17.7144 19.9098 17.1498 21.2726C16.5852 22.6354 16.4373 24.1351 16.725 25.5819C17.0126 27.0287 17.7228 28.3578 18.7658 29.401L18.7667 29.402L19.4436 30.0776L19.4445 30.0785M11.635 24.1263C11.635 23.422 12.206 22.851 12.9103 22.851H14.147C14.8514 22.851 15.4224 23.422 15.4224 24.1263C15.4224 24.8307 14.8514 25.4017 14.147 25.4017H12.9103C12.206 25.4017 11.635 24.8307 11.635 24.1263ZM32.6591 24.1263C32.6591 23.422 33.2301 22.851 33.9345 22.851H35.1712C35.8755 22.851 36.4465 23.422 36.4465 24.1263C36.4465 24.8307 35.8755 25.4017 35.1712 25.4017H33.9345C33.2301 25.4017 32.6591 24.8307 32.6591 24.1263Z" fill="url(#paint1_radial_1318_3339)"/>
    <path d="M23.0592 20.92C23.0592 20.7927 23.1522 20.6519 23.338 20.4977C23.5327 20.3368 23.7098 20.2564 23.8691 20.2564C24.0372 20.2564 24.2187 20.3335 24.4134 20.4877C24.6081 20.6418 24.7054 20.786 24.7054 20.92C24.7054 21.0474 24.6081 21.1881 24.4134 21.3423C24.2187 21.4965 24.0372 21.5736 23.8691 21.5736C23.7186 21.5736 23.546 21.4965 23.3513 21.3423C23.1566 21.1881 23.0592 21.0474 23.0592 20.92ZM24.4665 26.6511C24.4665 26.879 24.5992 26.993 24.8648 26.993C25.086 26.993 25.3073 26.9226 25.5285 26.7818L25.7808 27.0433C25.5507 27.2377 25.3029 27.3918 25.0373 27.5058C24.7718 27.6197 24.524 27.6767 24.2939 27.6767C23.931 27.6767 23.6699 27.5929 23.5106 27.4253C23.3513 27.2578 23.2717 26.9863 23.2717 26.6109V23.494C23.2717 23.4136 23.2495 23.3566 23.2053 23.3231C23.1699 23.2895 23.1035 23.2728 23.0061 23.2728H22.422L22.3025 23.0114C22.5592 22.8371 22.8513 22.693 23.1787 22.579C23.5062 22.4651 23.7983 22.4081 24.0549 22.4081C24.1788 22.4081 24.2806 22.4383 24.3603 22.4986C24.4399 22.5589 24.4798 22.636 24.4798 22.7298L24.4665 26.6511Z" fill="url(#paint2_radial_1318_3339)"/>
    <defs>
      <radialGradient id="paint0_radial_1318_3339" cx="0" cy="0" r="1" gradientUnits="userSpaceOnUse" gradientTransform="translate(24.0417 24.5463) rotate(90) scale(23.5695 20.7846)">
        <stop offset="0.555" stop-color="#5D5DB7"/>
        <stop offset="0.605" stop-color="#253BAE"/>
      </radialGradient>
      <radialGradient id="paint1_radial_1318_3339" cx="0" cy="0" r="1" gradientUnits="userSpaceOnUse" gradientTransform="translate(24.0417 24.5463) rotate(90) scale(23.5695 20.7846)">
        <stop offset="0.555" stop-color="#5D5DB7"/>
        <stop offset="0.605" stop-color="#253BAE"/>
      </radialGradient>
      <radialGradient id="paint2_radial_1318_3339" cx="0" cy="0" r="1" gradientUnits="userSpaceOnUse" gradientTransform="translate(24.0417 24.5463) rotate(90) scale(23.5695 20.7846)">
        <stop offset="0.555" stop-color="#5D5DB7"/>
        <stop offset="0.605" stop-color="#253BAE"/>
      </radialGradient>
    </defs>
  </svg>