<svg width="42" height="48" viewBox="0 0 42 48" fill="none" xmlns="http://www.w3.org/2000/svg">
<g id="Vector">
<path fill-rule="evenodd" clip-rule="evenodd" d="M39.1398 12.8343L21.1378 2.44085C20.9943 2.358 20.8176 2.35801 20.6741 2.44085L2.67206 12.8343C2.52857 12.9172 2.44018 13.0703 2.44018 13.2359V34.0229C2.44018 34.1885 2.52857 34.3416 2.67206 34.4245L20.6741 44.818C20.8176 44.9008 20.9943 44.9008 21.1378 44.818L39.1398 34.4245C39.2833 34.3416 39.3717 34.1885 39.3717 34.0229V13.2359C39.3717 13.0703 39.2833 12.9172 39.1398 12.8343ZM22.2972 0.432675C21.4363 -0.0643905 20.3756 -0.0643911 19.5146 0.432674L1.51264 10.8261C0.6517 11.3232 0.121338 12.2418 0.121338 13.2359V34.0229C0.121338 35.017 0.651699 35.9356 1.51264 36.4327L19.5146 46.8261C20.3756 47.3232 21.4363 47.3232 22.2972 46.8261L40.2993 36.4327C41.1602 35.9356 41.6906 35.017 41.6906 34.0229V13.2359C41.6906 12.2418 41.1602 11.3232 40.2993 10.8261L22.2972 0.432675Z" fill="#A3A3A3"/>
<path fill-rule="evenodd" clip-rule="evenodd" d="M20.905 10.8036C21.6094 10.8036 22.1804 11.3746 22.1804 12.079V13.3157C22.1804 14.0201 21.6094 14.5911 20.905 14.5911C20.2006 14.5911 19.6296 14.0201 19.6296 13.3157V12.079C19.6296 11.3746 20.2006 10.8036 20.905 10.8036ZM12.1327 14.4372C12.6308 13.9391 13.4383 13.9391 13.9364 14.4372L14.8107 15.3115C15.3088 15.8096 15.3088 16.6171 14.8107 17.1152C14.3127 17.6132 13.5052 17.6132 13.0071 17.1152L12.1327 16.2408C11.6347 15.7428 11.6347 14.9352 12.1327 14.4372ZM29.6773 14.4372C30.1753 14.9352 30.1753 15.7428 29.6773 16.2408L28.8029 17.1152C28.3049 17.6132 27.4973 17.6132 26.9993 17.1152C26.5012 16.6171 26.5012 15.8096 26.9993 15.3115L27.8736 14.4372C28.3717 13.9391 29.1792 13.9391 29.6773 14.4372ZM20.905 18.3024C19.9343 18.3024 18.9854 18.5902 18.1783 19.1295C17.3712 19.6687 16.7421 20.4352 16.3705 21.332C15.999 22.2288 15.9017 23.2156 16.091 24.1677C16.2803 25.1196 16.7474 25.994 17.4335 26.6804L17.4339 26.6808L18.1115 27.3571C18.3468 27.5925 18.5584 27.8472 18.7448 28.1177H23.0652C23.2523 27.8461 23.4641 27.5915 23.6984 27.3572L24.3765 26.6804C25.0626 25.994 25.5298 25.1196 25.719 24.1677C25.9083 23.2156 25.811 22.2288 25.4395 21.332C25.068 20.4352 24.4389 19.6687 23.6317 19.1295C22.8246 18.5902 21.8757 18.3024 20.905 18.3024ZM22.13 30.6684H19.68C19.6979 30.8475 19.7069 31.0282 19.7069 31.2098V31.8665C19.7069 32.1842 19.8332 32.4889 20.0578 32.7136C20.2825 32.9383 20.5873 33.0645 20.905 33.0645C21.2228 33.0645 21.5275 32.9383 21.7522 32.7136C21.9769 32.4889 22.1031 32.1842 22.1031 31.8665V31.2099C22.1031 31.0288 22.1121 30.848 22.13 30.6684ZM16.8499 29.9129C16.8603 29.9363 16.8714 29.9593 16.8832 29.9819C17.0612 30.3626 17.1562 30.7814 17.1562 31.2098V31.8665C17.1562 32.8607 17.5512 33.8142 18.2542 34.5173C18.9572 35.2203 19.9108 35.6152 20.905 35.6152C21.8992 35.6152 22.8528 35.2203 23.5558 34.5173C24.2588 33.8142 24.6538 32.8607 24.6538 31.8665V31.2098C24.6538 30.8293 24.7286 30.4523 24.8742 30.1008C25.0197 29.7495 25.2328 29.4303 25.5015 29.1614L26.18 28.4842C27.2229 27.4409 27.9331 26.1119 28.2208 24.665C28.5084 23.2182 28.3606 21.7186 27.796 20.3557C27.2314 18.9929 26.2753 17.8281 25.0488 17.0086C23.8222 16.1891 22.3802 15.7517 20.905 15.7517C19.4299 15.7517 17.9878 16.1891 16.7612 17.0086C15.5347 17.8281 14.5786 18.9929 14.014 20.3557C13.4494 21.7186 13.3016 23.2182 13.5892 24.665C13.8769 26.1119 14.5871 27.4409 15.63 28.4842L15.631 28.4851L16.3079 29.1608L16.3087 29.1616M8.49921 23.2094C8.49921 22.5051 9.07021 21.9341 9.77457 21.9341H11.0113C11.7157 21.9341 12.2866 22.5051 12.2866 23.2094C12.2866 23.9138 11.7157 24.4848 11.0113 24.4848H9.77457C9.07021 24.4848 8.49921 23.9138 8.49921 23.2094ZM29.5234 23.2094C29.5234 22.5051 30.0944 21.9341 30.7987 21.9341H32.0354C32.7398 21.9341 33.3108 22.5051 33.3108 23.2094C33.3108 23.9138 32.7398 24.4848 32.0354 24.4848H30.7987C30.0944 24.4848 29.5234 23.9138 29.5234 23.2094Z" fill="#6C6C6C"/>
<path d="M19.9235 20.0031C19.9235 19.8758 20.0164 19.735 20.2023 19.5809C20.397 19.42 20.574 19.3395 20.7333 19.3395C20.9015 19.3395 21.0829 19.4166 21.2776 19.5708C21.4723 19.725 21.5697 19.8691 21.5697 20.0031C21.5697 20.1305 21.4723 20.2713 21.2776 20.4254C21.0829 20.5796 20.9015 20.6567 20.7333 20.6567C20.5829 20.6567 20.4103 20.5796 20.2156 20.4254C20.0209 20.2713 19.9235 20.1305 19.9235 20.0031ZM21.3307 25.7343C21.3307 25.9622 21.4635 26.0761 21.729 26.0761C21.9503 26.0761 22.1715 26.0057 22.3928 25.865L22.645 26.1264C22.4149 26.3208 22.1671 26.475 21.9016 26.5889C21.6361 26.7029 21.3883 26.7598 21.1582 26.7598C20.7953 26.7598 20.5342 26.676 20.3749 26.5085C20.2156 26.3409 20.1359 26.0694 20.1359 25.694V22.5771C20.1359 22.4967 20.1138 22.4397 20.0695 22.4062C20.0341 22.3727 19.9678 22.3559 19.8704 22.3559H19.2863L19.1668 22.0945C19.4234 21.9202 19.7155 21.7761 20.043 21.6622C20.3705 21.5482 20.6625 21.4912 20.9192 21.4912C21.0431 21.4912 21.1449 21.5214 21.2245 21.5817C21.3042 21.642 21.344 21.7191 21.344 21.813L21.3307 25.7343Z" fill="#6C6C6C"/>
</g>
</svg>
