<svg width="49" height="49" viewBox="0 0 49 49" fill="none" xmlns="http://www.w3.org/2000/svg">
<g id="hint v1">
<g id="Vector">
<path fill-rule="evenodd" clip-rule="evenodd" d="M42.95 13.744L24.948 3.35058C24.8045 3.26773 24.6277 3.26773 24.4842 3.35058L6.48224 13.744C6.33875 13.8269 6.25036 13.98 6.25036 14.1457V34.9326C6.25036 35.0983 6.33875 35.2514 6.48224 35.3342L24.4842 45.7277C24.6277 45.8105 24.8045 45.8105 24.948 45.7277L42.95 35.3342C43.0935 35.2514 43.1819 35.0983 43.1819 34.9326V14.1457C43.1819 13.98 43.0935 13.8269 42.95 13.744ZM26.1074 1.3424C25.2465 0.845339 24.1858 0.845338 23.3248 1.3424L5.32282 11.7359C4.46188 12.2329 3.93152 13.1515 3.93152 14.1457V34.9326C3.93152 35.9267 4.46188 36.8453 5.32282 37.3424L23.3248 47.7359C24.1858 48.2329 25.2465 48.2329 26.1074 47.7359L44.1094 37.3424C44.9704 36.8453 45.5007 35.9267 45.5007 34.9326V14.1457C45.5007 13.1515 44.9704 12.2329 44.1094 11.7359L26.1074 1.3424Z" fill="#503FB6"/>
<path fill-rule="evenodd" clip-rule="evenodd" d="M24.7152 12.0612C25.2275 12.0612 25.6427 12.4765 25.6427 12.9887V14.2255C25.6427 14.7377 25.2275 15.153 24.7152 15.153C24.2029 15.153 23.7876 14.7377 23.7876 14.2255V12.9887C23.7876 12.4765 24.2029 12.0612 24.7152 12.0612ZM16.1889 15.5929C16.5511 15.2306 17.1384 15.2306 17.5006 15.5929L18.375 16.4672C18.7372 16.8294 18.7372 17.4167 18.375 17.7789C18.0127 18.1412 17.4254 18.1412 17.0632 17.7789L16.1889 16.9046C15.8266 16.5424 15.8266 15.9551 16.1889 15.5929ZM33.2415 15.5929C33.6037 15.9551 33.6037 16.5424 33.2415 16.9046L32.3672 17.7789C32.0049 18.1412 31.4176 18.1412 31.0554 17.7789C30.6932 17.4167 30.6932 16.8294 31.0554 16.4672L31.9298 15.5929C32.292 15.2306 32.8793 15.2306 33.2415 15.5929ZM24.7152 18.8643C23.6757 18.8643 22.6596 19.1725 21.7952 19.75C20.9309 20.3275 20.2572 21.1483 19.8594 22.1086C19.4615 23.0689 19.3573 24.1257 19.56 25.1452C19.7627 26.1646 20.263 27.101 20.9977 27.836L21.6758 28.5128C21.9392 28.7762 22.1709 29.0657 22.3683 29.3752H27.062C27.2604 29.0643 27.4925 28.775 27.7546 28.5129L28.4328 27.8359C29.1674 27.1008 29.6677 26.1644 29.8703 25.1452C30.073 24.1257 29.9689 23.0689 29.571 22.1086C29.1731 21.1483 28.4995 20.3275 27.6351 19.75C26.7708 19.1725 25.7547 18.8643 24.7152 18.8643ZM26.3391 31.2303H23.0912C23.1428 31.5219 23.1693 31.8194 23.1693 32.1195V32.7762C23.1693 33.1862 23.3322 33.5794 23.6221 33.8693C23.912 34.1592 24.3052 34.3221 24.7152 34.3221C25.1252 34.3221 25.5184 34.1592 25.8083 33.8693C26.0982 33.5794 26.2611 33.1862 26.2611 32.7762V32.1196C26.261 31.8208 26.2873 31.5231 26.3391 31.2303ZM20.9757 30.6762C20.9846 30.6963 20.9941 30.7161 21.0043 30.7354C21.2063 31.1642 21.3142 31.6364 21.3142 32.1195V32.7762C21.3142 33.6782 21.6725 34.5432 22.3103 35.181C22.9481 35.8188 23.8132 36.1771 24.7152 36.1771C25.6172 36.1771 26.4822 35.8188 27.12 35.181C27.7578 34.5432 28.1162 33.6782 28.1162 32.7762V32.1195C28.1161 31.6933 28.2 31.2712 28.363 30.8774C28.526 30.4839 28.7648 30.1263 29.0659 29.825L29.7442 29.148C30.7385 28.1534 31.4156 26.8863 31.6898 25.5069C31.964 24.1276 31.8231 22.6979 31.2848 21.3986C30.7465 20.0993 29.8351 18.9888 28.6657 18.2075C27.4963 17.4262 26.1216 17.0092 24.7152 17.0092C23.3088 17.0092 21.934 17.4262 20.7647 18.2075C19.5953 18.9888 18.6838 20.0993 18.1456 21.3986C17.6073 22.6979 17.4663 24.1276 17.7406 25.5069C18.0148 26.8863 18.6919 28.1534 19.6862 29.148L20.3643 29.8249C20.6151 30.0757 20.8207 30.3638 20.9757 30.6762ZM12.6572 24.1192C12.6572 23.6069 13.0725 23.1916 13.5848 23.1916H14.8215C15.3337 23.1916 15.749 23.6069 15.749 24.1192C15.749 24.6314 15.3337 25.0467 14.8215 25.0467H13.5848C13.0725 25.0467 12.6572 24.6314 12.6572 24.1192ZM33.6814 24.1192C33.6814 23.6069 34.0966 23.1916 34.6089 23.1916H35.8456C36.3579 23.1916 36.7732 23.6069 36.7732 24.1192C36.7732 24.6314 36.3579 25.0467 35.8456 25.0467H34.6089C34.0966 25.0467 33.6814 24.6314 33.6814 24.1192Z" fill="#6B6BBE"/>
<path d="M23.9942 20.611C23.9942 20.4853 24.0637 20.3463 24.2027 20.1941C24.3482 20.0353 24.4806 19.9559 24.5997 19.9559C24.7254 19.9559 24.8611 20.032 25.0067 20.1842C25.1523 20.3364 25.2251 20.4787 25.2251 20.611C25.2251 20.7368 25.1523 20.8757 25.0067 21.0279C24.8611 21.1801 24.7254 21.2562 24.5997 21.2562C24.4872 21.2562 24.3582 21.1801 24.2126 21.0279C24.067 20.8757 23.9942 20.7368 23.9942 20.611ZM25.0464 26.2691C25.0464 26.4941 25.1457 26.6066 25.3442 26.6066C25.5096 26.6066 25.6751 26.5371 25.8405 26.3981L26.0291 26.6562C25.8571 26.8481 25.6718 27.0003 25.4732 27.1128C25.2747 27.2253 25.0894 27.2816 24.9174 27.2816C24.646 27.2816 24.4508 27.1989 24.3317 27.0334C24.2126 26.868 24.153 26.6 24.153 26.2294V23.1522C24.153 23.0728 24.1365 23.0165 24.1034 22.9834C24.0769 22.9503 24.0273 22.9338 23.9545 22.9338H23.5177L23.4284 22.6757C23.6203 22.5037 23.8387 22.3614 24.0835 22.2489C24.3284 22.1364 24.5468 22.0801 24.7387 22.0801C24.8313 22.0801 24.9074 22.1099 24.967 22.1695C25.0265 22.229 25.0563 22.3051 25.0563 22.3978L25.0464 26.2691Z" fill="#6B6BBE"/>
</g>
</g>
</svg>
