<svg width="49" height="49" viewBox="0 0 49 49" fill="none" xmlns="http://www.w3.org/2000/svg">
    <path fill-rule="evenodd" clip-rule="evenodd" d="M42.6774 13.8343L24.6754 3.44085C24.5319 3.358 24.3551 3.35801 24.2117 3.44085L6.20966 13.8343C6.06617 13.9172 5.97778 14.0703 5.97778 14.2359V35.0229C5.97778 35.1885 6.06617 35.3416 6.20966 35.4245L24.2117 45.818C24.3551 45.9008 24.5319 45.9008 24.6754 45.818L42.6774 35.4245C42.8209 35.3416 42.9093 35.1885 42.9093 35.0229V14.2359C42.9093 14.0703 42.8209 13.9172 42.6774 13.8343ZM25.8348 1.43267C24.9739 0.93561 23.9132 0.935609 23.0522 1.43267L5.05024 11.8261C4.1893 12.3232 3.65894 13.2418 3.65894 14.2359V35.0229C3.65894 36.017 4.1893 36.9356 5.05024 37.4327L23.0522 47.8261C23.9132 48.3232 24.9739 48.3232 25.8348 47.8261L43.8368 37.4327C44.6978 36.9356 45.2282 36.017 45.2282 35.0229V14.2359C45.2282 13.2418 44.6978 12.3232 43.8368 11.8261L25.8348 1.43267Z" fill="#46469B"/>
    <path fill-rule="evenodd" clip-rule="evenodd" d="M24.4426 11.8036C25.147 11.8036 25.718 12.3746 25.718 13.079V14.3157C25.718 15.0201 25.147 15.5911 24.4426 15.5911C23.7382 15.5911 23.1672 15.0201 23.1672 14.3157V13.079C23.1672 12.3746 23.7382 11.8036 24.4426 11.8036ZM15.6703 15.4372C16.1684 14.9391 16.9759 14.9391 17.474 15.4372L18.3483 16.3115C18.8464 16.8096 18.8464 17.6171 18.3483 18.1152C17.8503 18.6132 17.0428 18.6132 16.5447 18.1152L15.6703 17.2408C15.1723 16.7428 15.1723 15.9352 15.6703 15.4372ZM33.2149 15.4372C33.7129 15.9352 33.7129 16.7428 33.2149 17.2408L32.3405 18.1152C31.8425 18.6132 31.0349 18.6132 30.5369 18.1152C30.0388 17.6171 30.0388 16.8096 30.5369 16.3115L31.4112 15.4372C31.9093 14.9391 32.7168 14.9391 33.2149 15.4372ZM24.4426 19.3024C23.4719 19.3024 22.523 19.5902 21.7159 20.1295C20.9088 20.6687 20.2797 21.4352 19.9081 22.332C19.5366 23.2288 19.4393 24.2156 19.6286 25.1677C19.8179 26.1196 20.285 26.994 20.9711 27.6804L20.9715 27.6808L21.6491 28.3571C21.8844 28.5925 22.096 28.8472 22.2824 29.1177H26.6028C26.7899 28.8461 27.0017 28.5915 27.236 28.3572L27.9141 27.6804C28.6002 26.994 29.0674 26.1196 29.2566 25.1677C29.4459 24.2156 29.3486 23.2288 28.9771 22.332C28.6056 21.4352 27.9764 20.6687 27.1693 20.1295C26.3622 19.5902 25.4133 19.3024 24.4426 19.3024ZM25.6676 31.6684H23.2176C23.2355 31.8475 23.2445 32.0282 23.2445 32.2098V32.8665C23.2445 33.1842 23.3708 33.4889 23.5954 33.7136C23.8201 33.9383 24.1249 34.0645 24.4426 34.0645C24.7604 34.0645 25.0651 33.9383 25.2898 33.7136C25.5144 33.4889 25.6407 33.1842 25.6407 32.8665V32.2099C25.6407 32.0288 25.6497 31.848 25.6676 31.6684ZM20.3875 30.9129C20.3979 30.9363 20.409 30.9593 20.4208 30.9819C20.5988 31.3626 20.6938 31.7814 20.6938 32.2098V32.8665C20.6938 33.8607 21.0888 34.8142 21.7918 35.5173C22.4948 36.2203 23.4484 36.6152 24.4426 36.6152C25.4368 36.6152 26.3904 36.2203 27.0934 35.5173C27.7964 34.8142 28.1914 33.8607 28.1914 32.8665V32.2098C28.1913 31.8293 28.2662 31.4523 28.4118 31.1008C28.5573 30.7495 28.7704 30.4303 29.0391 30.1614L29.7176 29.4842C30.7605 28.4409 31.4707 27.1119 31.7584 25.665C32.046 24.2182 31.8982 22.7186 31.3336 21.3557C30.769 19.9929 29.8129 18.8281 28.5864 18.0086C27.3598 17.1891 25.9178 16.7517 24.4426 16.7517C22.9674 16.7517 21.5254 17.1891 20.2988 18.0086C19.0723 18.8281 18.1162 19.9929 17.5516 21.3557C16.987 22.7186 16.8392 24.2182 17.1268 25.665C17.4145 27.1119 18.1247 28.4409 19.1676 29.4842L19.1686 29.4851L19.8455 30.1608L19.8463 30.1616M12.0368 24.2094C12.0368 23.5051 12.6078 22.9341 13.3122 22.9341H14.5489C15.2532 22.9341 15.8242 23.5051 15.8242 24.2094C15.8242 24.9138 15.2532 25.4848 14.5489 25.4848H13.3122C12.6078 25.4848 12.0368 24.9138 12.0368 24.2094ZM33.061 24.2094C33.061 23.5051 33.632 22.9341 34.3363 22.9341H35.573C36.2774 22.9341 36.8484 23.5051 36.8484 24.2094C36.8484 24.9138 36.2774 25.4848 35.573 25.4848H34.3363C33.632 25.4848 33.061 24.9138 33.061 24.2094Z" fill="#46469B"/>
    <path d="M23.4611 21.0031C23.4611 20.8758 23.554 20.735 23.7399 20.5809C23.9346 20.42 24.1116 20.3395 24.2709 20.3395C24.4391 20.3395 24.6205 20.4166 24.8152 20.5708C25.0099 20.725 25.1073 20.8691 25.1073 21.0031C25.1073 21.1305 25.0099 21.2713 24.8152 21.4254C24.6205 21.5796 24.4391 21.6567 24.2709 21.6567C24.1205 21.6567 23.9479 21.5796 23.7532 21.4254C23.5585 21.2713 23.4611 21.1305 23.4611 21.0031ZM24.8683 26.7343C24.8683 26.9622 25.0011 27.0761 25.2666 27.0761C25.4879 27.0761 25.7091 27.0057 25.9304 26.865L26.1826 27.1264C25.9525 27.3208 25.7047 27.475 25.4392 27.5889C25.1737 27.7029 24.9259 27.7598 24.6957 27.7598C24.3329 27.7598 24.0718 27.676 23.9125 27.5085C23.7532 27.3409 23.6735 27.0694 23.6735 26.694V23.5771C23.6735 23.4967 23.6514 23.4397 23.6071 23.4062C23.5717 23.3727 23.5054 23.3559 23.408 23.3559H22.8239L22.7044 23.0945C22.961 22.9202 23.2531 22.7761 23.5806 22.6622C23.9081 22.5482 24.2001 22.4912 24.4568 22.4912C24.5807 22.4912 24.6825 22.5214 24.7621 22.5817C24.8418 22.642 24.8816 22.7191 24.8816 22.813L24.8683 26.7343Z" fill="#46469B"/>
    </svg>
    