<svg xmlns="http://www.w3.org/2000/svg" width="58" height="59" viewBox="0 0 58 59" fill="none">
  <path d="M23.731 29.8205L24.9789 32.5716L27.7241 33.8221L24.9789 35.0726L23.731 37.8237L22.4832 35.0726L19.7379 33.8221L22.4832 32.5716L23.731 29.8205ZM19.7379 28.8201L20.3619 30.1957L21.7345 30.8209L20.3619 31.4462L19.7379 32.8217L19.114 31.4462L17.7414 30.8209L19.114 30.1957L19.7379 28.8201Z" fill="#D59B04"/>
  <path d="M39.1155 36.8233L40.3633 34.0722L43.1086 32.8217L40.3633 31.5712L39.1155 28.8201L37.8676 31.5712L35.1223 32.8217L37.8676 34.0722L39.1155 36.8233ZM35.1223 37.8237L35.7463 36.4481L37.1189 35.8229L35.7463 35.1976L35.1223 33.8221L34.4984 35.1976L33.1258 35.8229L34.4984 36.4481L35.1223 37.8237Z" fill="#D59B04"/>
  <path fill-rule="evenodd" clip-rule="evenodd" d="M56.9627 27.0839C57.1819 26.9471 57.1426 26.6169 56.8975 26.5353L38.5795 20.4387C38.0618 20.2664 37.4943 20.3339 37.0314 20.6228L28.9713 25.6532L21.0329 20.6988C20.4929 20.3618 19.8307 20.283 19.2267 20.4841L1.04498 26.5353C0.799846 26.6169 0.760584 26.9471 0.979761 27.0839L8.01444 31.4742C8.02298 31.4796 8.01678 31.4927 8.00724 31.4895C8.00656 31.4892 8.00588 31.4891 8.0052 31.4891C8.00042 31.4887 7.99605 31.4924 7.99605 31.4975V50.7441C7.99605 51.3992 8.4141 51.9812 9.03489 52.1905L25.4866 57.7352C26.4759 58.0686 27.5004 57.3328 27.5004 56.2888V39.1555C27.5004 38.5004 27.0824 37.9184 26.4616 37.7092L10.5742 32.3546C10.5171 32.3354 10.4717 32.3034 10.4382 32.264C10.4063 32.2266 10.385 32.1824 10.3744 32.136C10.3707 32.1199 10.3683 32.1035 10.3672 32.0871C10.3633 32.0296 10.3749 31.9711 10.4022 31.9196C10.4119 31.9013 10.4236 31.8839 10.4373 31.8677L10.4382 31.8667C10.4719 31.827 10.5177 31.7949 10.5753 31.7757L28.9713 25.6532L47.3657 31.7752C47.4224 31.7941 47.4676 31.8255 47.5013 31.8644C47.5022 31.8654 47.503 31.8664 47.5039 31.8674C47.5165 31.8824 47.5274 31.8984 47.5366 31.9151C47.5661 31.9689 47.5784 32.0306 47.5734 32.0911C47.5722 32.106 47.5699 32.1208 47.5666 32.1354C47.5558 32.1826 47.5341 32.2274 47.5013 32.2653C47.4679 32.3039 47.423 32.3351 47.3668 32.3541L31.4779 37.7092C30.8571 37.9184 30.439 38.5004 30.439 39.1555V56.2888C30.439 57.3328 31.4636 58.0686 32.4528 57.7352L48.9045 52.1905C49.5253 51.9812 49.9434 51.3992 49.9434 50.7441V31.4965C49.9434 31.4919 49.9394 31.4884 49.935 31.4888C49.9344 31.4888 49.9337 31.489 49.9331 31.4892C49.9244 31.4921 49.9187 31.4801 49.9265 31.4752L56.9627 27.0839ZM49.1532 29.1749C50.1986 28.8226 51.1043 29.1542 51.688 29.7838C51.0614 29.1453 50.0971 28.8568 49.1532 29.1749ZM48.4049 29.5616C48.4767 29.5066 48.5528 29.4538 48.6335 29.4034L51.8154 27.4177L38.0808 22.8465L34.6692 24.9757L48.1369 29.458C48.2297 29.4889 48.319 29.5235 48.4049 29.5616ZM47.5013 34.8858L32.8811 39.8133V55.0138L47.5013 50.0863V34.8858ZM23.2734 24.9757L19.8617 22.8465L6.1271 27.4177L9.30741 29.4025C9.38859 29.4532 9.46516 29.5063 9.53724 29.5616C9.6228 29.5237 9.71175 29.4893 9.80412 29.4586L23.2734 24.9757ZM10.4382 34.8858L25.0583 39.8133V55.0138L10.4382 50.0863V34.8858ZM8.78722 29.1753C7.85225 28.8602 6.89765 29.1399 6.27051 29.7653C6.85454 29.148 7.75239 28.8265 8.78722 29.1753Z" fill="#2F6D5C"/>
  <path d="M29.635 26.169L28.3871 28.9201L25.6419 30.1706L28.3871 31.4211L29.635 34.1722L30.8828 31.4211L33.6281 30.1706L30.8828 28.9201L29.635 26.169ZM33.6281 25.1686L33.0042 26.5442L31.6315 27.1694L33.0042 27.7947L33.6281 29.1702L34.252 27.7947L35.6247 27.1694L34.252 26.5442L33.6281 25.1686Z" fill="#D59B04"/>
  <path d="M25.2254 13.3029L24.7048 14.4506L23.5596 14.9722L24.7048 15.4939L25.2254 16.6416L25.746 15.4939L26.8912 14.9722L25.746 14.4506L25.2254 13.3029ZM26.8912 12.8856L26.6309 13.4594L26.0583 13.7202L26.6309 13.9811L26.8912 14.5549L27.1514 13.9811L27.7241 13.7202L27.1514 13.4594L26.8912 12.8856Z" fill="#D59B04"/>
  <path d="M29.3899 18.706L28.8694 19.8537L27.7241 20.3754L28.8694 20.897L29.3899 22.0447L29.9105 20.897L31.0557 20.3754L29.9105 19.8537L29.3899 18.706ZM31.0557 18.2887L30.7954 18.8625L30.2228 19.1234L30.7954 19.3842L31.0557 19.958L31.316 19.3842L31.8886 19.1234L31.316 18.8625L31.0557 18.2887Z" fill="#D59B04"/>
  <path d="M27.8195 18.5816C28.0798 19.0325 28.6487 19.1987 29.1108 18.9589L53.4067 6.35084C54.5066 5.78005 54.9078 4.40683 54.2882 3.33365C53.6695 2.26205 52.2826 1.92204 51.2384 2.58599L28.1401 17.2735C27.7001 17.5533 27.5587 18.1301 27.8195 18.5816Z" fill="#2F6D5C"/>
</svg>