<svg width="48" height="49" viewBox="0 0 48 49" fill="none" xmlns="http://www.w3.org/2000/svg">
<g id="Mystery Box v1" style="mix-blend-mode:luminosity" opacity="0.5">
<g id="Vector">
<path d="M19.822 25.0556L20.8547 27.3323L23.1266 28.3672L20.8547 29.4021L19.822 31.6789L18.7893 29.4021L16.5173 28.3672L18.7893 27.3323L19.822 25.0556ZM16.5173 24.2276L17.0337 25.366L18.1696 25.8835L17.0337 26.4009L16.5173 27.5393L16.001 26.4009L14.865 25.8835L16.001 25.366L16.5173 24.2276Z" fill="#D59B04"/>
<path d="M32.5539 30.851L33.5866 28.5742L35.8585 27.5393L33.5866 26.5044L32.5539 24.2276L31.5212 26.5044L29.2492 27.5393L31.5212 28.5742L32.5539 30.851ZM29.2492 31.6789L29.7656 30.5405L30.9016 30.023L29.7656 29.5056L29.2492 28.3672L28.7329 29.5056L27.5969 30.023L28.7329 30.5405L29.2492 31.6789Z" fill="#D59B04"/>
<path fill-rule="evenodd" clip-rule="evenodd" d="M47.324 22.7908C47.5054 22.6776 47.4729 22.4043 47.2701 22.3368L32.1104 17.2913C31.6819 17.1487 31.2122 17.2046 30.8291 17.4436L24.1587 21.6067L17.589 17.5065C17.1421 17.2276 16.5941 17.1625 16.0943 17.3288L1.04729 22.3368C0.84442 22.4043 0.811927 22.6776 0.993315 22.7908L6.81512 26.4242C6.82218 26.4286 6.81705 26.4394 6.80916 26.4368C6.8086 26.4366 6.80803 26.4365 6.80747 26.4364C6.80352 26.4361 6.7999 26.4392 6.7999 26.4434V42.3716C6.7999 42.9138 7.14587 43.3955 7.65963 43.5686L21.2748 48.1574C22.0935 48.4333 22.9414 47.8243 22.9414 46.9604V32.7811C22.9414 32.2389 22.5955 31.7572 22.0817 31.5841L8.93355 27.1528C8.88626 27.1368 8.84873 27.1104 8.82095 27.0778C8.79456 27.0468 8.77697 27.0102 8.76818 26.9718C8.76513 26.9585 8.76314 26.945 8.76221 26.9313C8.75897 26.8838 8.76864 26.8354 8.79123 26.7928C8.79926 26.7776 8.80891 26.7632 8.82021 26.7498C8.82045 26.7495 8.8207 26.7492 8.82095 26.7489C8.84891 26.7161 8.88675 26.6895 8.93445 26.6737L24.1587 21.6067L39.3816 26.6732C39.4286 26.6889 39.466 26.7149 39.4939 26.747C39.4946 26.7479 39.4953 26.7487 39.496 26.7496C39.5064 26.7619 39.5155 26.7752 39.5231 26.789C39.5476 26.8335 39.5577 26.8846 39.5536 26.9346C39.5526 26.947 39.5507 26.9592 39.5479 26.9713C39.539 27.0104 39.521 27.0475 39.4939 27.0788C39.4662 27.1108 39.4291 27.1366 39.3825 27.1523L26.2331 31.5841C25.7194 31.7572 25.3734 32.2389 25.3734 32.7811V46.9604C25.3734 47.8243 26.2213 48.4333 27.04 48.1574L40.6552 43.5686C41.169 43.3955 41.5149 42.9138 41.5149 42.3716V26.4426C41.5149 26.4388 41.5116 26.4359 41.508 26.4362C41.5075 26.4362 41.507 26.4363 41.5064 26.4365C41.4992 26.439 41.4945 26.429 41.501 26.4249L47.324 22.7908ZM40.861 24.5213C41.7262 24.2297 42.4757 24.5041 42.9588 25.0252C42.4402 24.4968 41.6422 24.258 40.861 24.5213ZM40.2417 24.8413C40.3011 24.7958 40.3641 24.7521 40.4309 24.7104L43.0642 23.067L31.6976 19.284L28.8742 21.0461L40.0199 24.7556C40.0967 24.7811 40.1706 24.8098 40.2417 24.8413ZM39.4939 29.2476L27.3945 33.3254V45.9052L39.4939 41.8273V29.2476ZM19.4432 21.0461L16.6197 19.284L5.25318 23.067L7.88516 24.7096C7.95235 24.7516 8.01572 24.7955 8.07536 24.8413C8.14617 24.8099 8.21979 24.7815 8.29623 24.756L19.4432 21.0461ZM8.82095 29.2476L20.9204 33.3254V45.9052L8.82095 41.8273V29.2476ZM7.45466 24.5216C6.68089 24.2608 5.89087 24.4923 5.37187 25.0099C5.8552 24.499 6.59825 24.2329 7.45466 24.5216Z" fill="#2F6D5C"/>
<path d="M24.708 22.0336L23.6753 24.3104L21.4033 25.3453L23.6753 26.3802L24.708 28.657L25.7407 26.3802L28.0126 25.3453L25.7407 24.3104L24.708 22.0336ZM28.0126 21.2057L27.4963 22.3441L26.3603 22.8615L27.4963 23.379L28.0126 24.5174L28.529 23.379L29.6649 22.8615L28.529 22.3441L28.0126 21.2057Z" fill="#D59B04"/>
<path d="M21.0587 11.3858L20.6279 12.3356L19.6801 12.7673L20.6279 13.1991L21.0587 14.1488L21.4895 13.1991L22.4372 12.7673L21.4895 12.3356L21.0587 11.3858ZM22.4372 11.0405L22.2218 11.5153L21.748 11.7312L22.2218 11.9471L22.4372 12.422L22.6526 11.9471L23.1265 11.7312L22.6526 11.5153L22.4372 11.0405Z" fill="#D59B04"/>
<path d="M24.5052 15.8574L24.0744 16.8072L23.1266 17.2389L24.0744 17.6706L24.5052 18.6204L24.936 17.6706L25.8837 17.2389L24.936 16.8072L24.5052 15.8574ZM25.8837 15.512L25.6683 15.9869L25.1945 16.2027L25.6683 16.4186L25.8837 16.8935L26.0991 16.4186L26.573 16.2027L26.0991 15.9869L25.8837 15.512Z" fill="#D59B04"/>
<path d="M23.2055 15.7544C23.4209 16.1275 23.8918 16.2651 24.2742 16.0666L44.3811 5.63238C45.2914 5.16001 45.6234 4.02355 45.1107 3.1354C44.5986 2.24856 43.4508 1.96717 42.5867 2.51664L23.4709 14.6718C23.1067 14.9034 22.9897 15.3807 23.2055 15.7544Z" fill="#2F6D5C"/>
</g>
</g>
</svg>
