<svg width="49" height="49" viewBox="0 0 49 49" fill="none" xmlns="http://www.w3.org/2000/svg">
<g id="Mystery Box v1" style="mix-blend-mode:luminosity">
<g id="Vector">
<path d="M20.1771 24.8932L21.2098 27.17L23.4817 28.2049L21.2098 29.2398L20.1771 31.5165L19.1444 29.2398L16.8724 28.2049L19.1444 27.17L20.1771 24.8932ZM16.8724 24.0653L17.3888 25.2037L18.5247 25.7211L17.3888 26.2386L16.8724 27.377L16.3561 26.2386L15.2201 25.7211L16.3561 25.2037L16.8724 24.0653Z" fill="#9E9E9E"/>
<path d="M32.909 30.6886L33.9417 28.4118L36.2136 27.3769L33.9417 26.342L32.909 24.0653L31.8763 26.342L29.6044 27.3769L31.8763 28.4118L32.909 30.6886ZM29.6044 31.5165L30.1207 30.3781L31.2567 29.8607L30.1207 29.3432L29.6044 28.2048L29.088 29.3432L27.952 29.8607L29.088 30.3781L29.6044 31.5165Z" fill="#9E9E9E"/>
<path fill-rule="evenodd" clip-rule="evenodd" d="M47.6791 22.6284C47.8605 22.5152 47.828 22.2419 47.6252 22.1744L32.4655 17.129C32.037 16.9864 31.5673 17.0422 31.1843 17.2813L24.5138 21.4444L17.9441 17.3442C17.4972 17.0653 16.9492 17.0001 16.4494 17.1665L1.4024 22.1744C1.19952 22.2419 1.16703 22.5152 1.34842 22.6284L7.17022 26.2618C7.17729 26.2662 7.17216 26.2771 7.16426 26.2744C7.1637 26.2742 7.16313 26.2741 7.16257 26.2741C7.15862 26.2737 7.155 26.2769 7.155 26.2811V42.2093C7.155 42.7514 7.50097 43.2331 8.01474 43.4063L21.6299 47.995C22.4486 48.2709 23.2965 47.662 23.2965 46.798V32.6187C23.2965 32.0766 22.9506 31.5949 22.4368 31.4217L9.28865 26.9904C9.24136 26.9745 9.20383 26.948 9.17606 26.9154C9.14966 26.8844 9.13208 26.8479 9.12329 26.8095C9.12024 26.7962 9.11825 26.7826 9.11732 26.769C9.11407 26.7214 9.12375 26.673 9.14633 26.6304C9.15436 26.6153 9.16402 26.6009 9.17531 26.5875L9.17606 26.5866C9.20402 26.5537 9.24185 26.5272 9.28956 26.5113L24.5138 21.4444L39.7368 26.5109C39.7837 26.5265 39.8212 26.5525 39.849 26.5847C39.8497 26.5855 39.8504 26.5864 39.8512 26.5872C39.8616 26.5996 39.8706 26.6128 39.8782 26.6267C39.9027 26.6712 39.9128 26.7223 39.9087 26.7723C39.9077 26.7846 39.9058 26.7969 39.9031 26.8089C39.8941 26.848 39.8761 26.8851 39.849 26.9165C39.8213 26.9484 39.7842 26.9743 39.7377 26.99L26.5882 31.4217C26.0745 31.5949 25.7285 32.0766 25.7285 32.6187V46.798C25.7285 47.662 26.5764 48.2709 27.3951 47.995L41.0103 43.4063C41.5241 43.2331 41.87 42.7514 41.87 42.2093V26.2803C41.87 26.2764 41.8667 26.2735 41.8631 26.2738C41.8626 26.2739 41.8621 26.274 41.8615 26.2742C41.8543 26.2766 41.8496 26.2666 41.8561 26.2626L47.6791 22.6284ZM41.2161 24.3589C42.0813 24.0674 42.8308 24.3418 43.3139 24.8629C42.7953 24.3344 41.9973 24.0957 41.2161 24.3589ZM40.5968 24.6789C40.6562 24.6334 40.7192 24.5897 40.786 24.5481L43.4193 22.9046L32.0527 19.1216L29.2294 20.8837L40.375 24.5932C40.4518 24.6188 40.5257 24.6474 40.5968 24.6789ZM39.849 29.0852L27.7496 33.1631V45.7428L39.849 41.6649V29.0852ZM19.7983 20.8837L16.9749 19.1216L5.60829 22.9047L8.24027 24.5473C8.30745 24.5892 8.37082 24.6331 8.43047 24.6789C8.50127 24.6476 8.5749 24.6191 8.65133 24.5937L19.7983 20.8837ZM9.17606 29.0852L21.2755 33.1631V45.7428L9.17606 41.6649V29.0852ZM7.80976 24.3592C7.03599 24.0984 6.24598 24.33 5.72697 24.8475C6.2103 24.3366 6.95336 24.0706 7.80976 24.3592Z" fill="#555555"/>
<path d="M25.0631 21.8713L24.0304 24.148L21.7585 25.1829L24.0304 26.2178L25.0631 28.4946L26.0958 26.2178L28.3677 25.1829L26.0958 24.148L25.0631 21.8713ZM28.3677 21.0434L27.8514 22.1817L26.7154 22.6992L27.8514 23.2166L28.3677 24.355L28.8841 23.2166L30.0201 22.6992L28.8841 22.1817L28.3677 21.0434Z" fill="#9E9E9E"/>
<path d="M21.4138 11.2235L20.983 12.1733L20.0352 12.605L20.983 13.0367L21.4138 13.9865L21.8446 13.0367L22.7923 12.605L21.8446 12.1733L21.4138 11.2235ZM22.7923 10.8781L22.5769 11.353L22.1031 11.5689L22.5769 11.7847L22.7923 12.2596L23.0077 11.7847L23.4816 11.5689L23.0077 11.353L22.7923 10.8781Z" fill="#9E9E9E"/>
<path d="M24.8603 15.695L24.4295 16.6448L23.4817 17.0765L24.4295 17.5082L24.8603 18.458L25.2911 17.5082L26.2388 17.0765L25.2911 16.6448L24.8603 15.695ZM26.2388 15.3496L26.0234 15.8245L25.5496 16.0404L26.0234 16.2563L26.2388 16.7311L26.4543 16.2563L26.9281 16.0404L26.4543 15.8245L26.2388 15.3496Z" fill="#9E9E9E"/>
<path d="M23.5606 15.592C23.776 15.9652 24.2469 16.1027 24.6293 15.9043L44.7362 5.47003C45.6465 4.99765 45.9785 3.8612 45.4658 2.97304C44.9538 2.08621 43.8059 1.80481 42.9418 2.35429L23.826 14.5095C23.4618 14.741 23.3448 15.2183 23.5606 15.592Z" fill="#555555"/>
</g>
</g>
</svg>
