<svg xmlns="http://www.w3.org/2000/svg" width="190" height="190" viewBox="0 0 190 190" fill="none">
    <path d="M77.7396 95.3339L81.8273 104.346L90.8204 108.443L81.8273 112.539L77.7396 121.551L73.6518 112.539L64.6587 108.443L73.6518 104.346L77.7396 95.3339ZM64.6587 92.0567L66.7026 96.5628L71.1992 98.6111L66.7026 100.659L64.6587 105.165L62.6148 100.659L58.1183 98.6111L62.6148 96.5628L64.6587 92.0567Z" fill="#9E9E9E"/>
    <path d="M128.137 118.274L132.225 109.262L141.218 105.165L132.225 101.069L128.137 92.0566L124.049 101.069L115.056 105.165L124.049 109.262L128.137 118.274ZM115.056 121.551L117.1 117.045L121.596 114.997L117.1 112.949L115.056 108.442L113.012 112.949L108.515 114.997L113.012 117.045L115.056 121.551Z" fill="#9E9E9E"/>
    <path fill-rule="evenodd" clip-rule="evenodd" d="M186.602 86.3691C187.32 85.921 187.191 84.8392 186.388 84.5719L126.381 64.6004C124.685 64.036 122.826 64.257 121.31 65.2034L94.906 81.6822L68.9008 65.4524C67.1318 64.3483 64.9626 64.0905 62.9841 64.749L3.42318 84.572C2.62014 84.8392 2.49152 85.9211 3.20952 86.3692L26.2542 100.751C26.2821 100.769 26.2618 100.812 26.2306 100.801C26.2283 100.8 26.2261 100.8 26.2239 100.8C26.2082 100.799 26.1939 100.811 26.1939 100.828V163.877C26.1939 166.023 27.5634 167.929 29.597 168.615L83.4906 186.779C86.7312 187.871 90.0875 185.46 90.0875 182.04V125.914C90.0875 123.768 88.718 121.861 86.6844 121.176L34.6396 103.635C34.4524 103.572 34.3039 103.468 34.1939 103.339C34.0894 103.216 34.0198 103.071 33.985 102.919C33.973 102.866 33.9651 102.813 33.9614 102.759C33.9486 102.571 33.9869 102.379 34.0763 102.21C34.108 102.15 34.1463 102.093 34.191 102.04L34.1939 102.037C34.3046 101.907 34.4544 101.802 34.6432 101.739L94.906 81.6822L155.163 101.737C155.349 101.799 155.497 101.902 155.608 102.029C155.61 102.033 155.613 102.036 155.616 102.039C155.657 102.088 155.693 102.141 155.723 102.196C155.82 102.372 155.86 102.574 155.844 102.772C155.84 102.821 155.833 102.869 155.822 102.917C155.786 103.072 155.715 103.219 155.608 103.343C155.498 103.469 155.351 103.571 155.167 103.634L103.117 121.176C101.083 121.861 99.714 123.768 99.714 125.914V182.04C99.714 185.46 103.07 187.871 106.311 186.779L160.204 168.615C162.238 167.929 163.608 166.023 163.608 163.877V100.824C163.608 100.809 163.594 100.798 163.58 100.799C163.578 100.799 163.576 100.799 163.574 100.8C163.545 100.81 163.527 100.77 163.552 100.754L186.602 86.3691ZM161.019 93.2191C164.444 92.065 167.411 93.1511 169.323 95.2137C167.27 93.122 164.111 92.1771 161.019 93.2191ZM158.568 94.4857C158.803 94.3056 159.052 94.1327 159.317 93.9677L169.74 87.4625L124.747 72.4881L113.572 79.4631L157.69 94.1465C157.994 94.2477 158.286 94.361 158.568 94.4857ZM155.608 111.927L107.714 128.069V177.864L155.608 161.722V111.927ZM76.2402 79.4631L65.0641 72.4881L20.0715 87.4625L30.4898 93.9646C30.7557 94.1305 31.0065 94.3045 31.2426 94.4856C31.5229 94.3617 31.8143 94.2489 32.1169 94.1482L76.2402 79.4631ZM34.1939 111.927L82.0875 128.069V177.864L34.1939 161.722V111.927ZM28.7857 93.2202C25.7228 92.1879 22.5957 93.1044 20.5413 95.153C22.4545 93.1307 25.3957 92.0777 28.7857 93.2202Z" fill="#555555"/>
    <path d="M97.0801 83.3721L92.9923 92.3843L83.9992 96.4808L92.9923 100.577L97.0801 109.589L101.168 100.577L110.161 96.4808L101.168 92.3843L97.0801 83.3721ZM110.161 80.0949L108.117 84.601L103.621 86.6493L108.117 88.6975L110.161 93.2036L112.205 88.6975L116.701 86.6493L112.205 84.601L110.161 80.0949Z" fill="#9E9E9E"/>
    <path d="M82.6349 41.2245L80.9296 44.9841L77.178 46.693L80.9296 48.4019L82.6349 52.1614L84.3401 48.4019L88.0917 46.693L84.3401 44.9841L82.6349 41.2245ZM88.0917 39.8574L87.2391 41.7372L85.3633 42.5917L87.2391 43.4461L88.0917 45.3259L88.9444 43.4461L90.8201 42.5917L88.9444 41.7372L88.0917 39.8574Z" fill="#9E9E9E"/>
    <path d="M96.2773 58.9244L94.572 62.684L90.8204 64.3929L94.572 66.1017L96.2773 69.8613L97.9826 66.1017L101.734 64.3929L97.9826 62.684L96.2773 58.9244ZM101.734 57.5573L100.882 59.4371L99.0057 60.2915L100.882 61.146L101.734 63.0257L102.587 61.146L104.463 60.2915L102.587 59.4371L101.734 57.5573Z" fill="#9E9E9E"/>
    <path d="M91.1326 58.5168C91.9853 59.9937 93.8492 60.5383 95.3629 59.7528L174.953 18.4505C178.556 16.5807 179.87 12.0822 177.841 8.56659C175.814 5.05619 171.27 3.94234 167.85 6.11735L92.1832 54.2316C90.7418 55.1481 90.2786 57.0376 91.1326 58.5168Z" fill="#555555"/>
  </svg>