<svg xmlns="http://www.w3.org/2000/svg" width="41" height="40" viewBox="0 0 41 40" fill="none">
  <path fill-rule="evenodd" clip-rule="evenodd" d="M20.3677 4.29821L3.61819 16.4674L10.0159 36.1576H30.7194L37.1172 16.4674L20.3677 4.29821ZM39.3888 15.7293L20.3677 1.90967L1.34656 15.7293L8.61198 38.09H32.1234L39.3888 15.7293Z" fill="#CA4C63" style="mix-blend-mode:overlay"/>
  <path d="M20.3659 14.141C19.3451 14.1351 18.3333 14.332 17.3892 14.7202C16.445 15.1084 15.5874 15.6803 14.866 16.4026L12.6558 14.141V20.5661H19.0809L16.7036 18.2402C17.1787 17.7506 17.7483 17.3626 18.3778 17.0997C19.0074 16.8369 19.6838 16.7046 20.3659 16.711C21.3131 16.7111 22.2418 16.9729 23.0495 17.4674C23.8572 17.962 24.5127 18.6701 24.9433 19.5136C25.3741 20.3572 25.5634 21.3033 25.4904 22.2476C25.4172 23.1919 25.0847 24.0977 24.5293 24.8649C23.974 25.6322 23.2175 26.231 22.3433 26.5955C21.4691 26.9599 20.5111 27.0757 19.5753 26.9301C18.6394 26.7845 17.762 26.3832 17.0398 25.7703C16.3176 25.1575 15.7788 24.3571 15.4828 23.4574L13.0413 24.2541C13.4842 25.6044 14.2917 26.8061 15.3745 27.7263C16.4574 28.6465 17.7735 29.2495 19.1776 29.4689C20.5816 29.6882 22.019 29.5152 23.3309 28.969C24.6428 28.4228 25.7782 27.5247 26.6118 26.3738C27.4454 25.2228 27.9446 23.8639 28.0545 22.4471C28.1644 21.0303 27.8805 19.6106 27.2343 18.345C26.588 17.0794 25.6046 16.0169 24.3926 15.2751C23.1805 14.5332 21.787 14.1407 20.3659 14.141Z" fill="#E84E82"/>
</svg>