<svg xmlns="http://www.w3.org/2000/svg" width="49" height="49" viewBox="0 0 49 49" fill="none">
  <path fill-rule="evenodd" clip-rule="evenodd" d="M24.5375 5.87735L4.43812 20.4804L12.1154 44.1087H36.9596L44.6369 20.4804L24.5375 5.87735ZM47.3629 19.5947L24.5375 3.01111L1.71216 19.5947L10.4307 46.4275H38.6444L47.3629 19.5947Z" fill="#BE3160"/>
  <path d="M24.5354 17.6887C23.3104 17.6816 22.0962 17.9179 20.9633 18.3838C19.8303 18.8496 18.8012 19.5359 17.9355 20.4026L15.2832 17.6887V25.3988H22.9934L20.1406 22.6077C20.7107 22.0202 21.3942 21.5546 22.1497 21.2392C22.9051 20.9237 23.7168 20.765 24.5354 20.7727C25.672 20.7728 26.7864 21.0869 27.7556 21.6804C28.725 22.2739 29.5115 23.1236 30.0283 24.1359C30.5452 25.1481 30.7723 26.2835 30.6847 27.4167C30.597 28.5498 30.1979 29.6367 29.5314 30.5574C28.8651 31.4781 27.9573 32.1967 26.9082 32.6341C25.8592 33.0714 24.7097 33.2103 23.5866 33.0356C22.4636 32.8609 21.4107 32.3793 20.544 31.6439C19.6775 30.9085 19.0309 29.948 18.6757 28.8684L15.7458 29.8244C16.2773 31.4448 17.2463 32.8868 18.5457 33.991C19.8452 35.0953 21.4245 35.819 23.1094 36.0822C24.7942 36.3454 26.5191 36.1377 28.0933 35.4823C29.6676 34.8268 31.0301 33.7491 32.0305 32.368C33.0308 30.9869 33.6298 29.3562 33.7617 27.656C33.8935 25.9558 33.5529 24.2523 32.7774 22.7335C32.0019 21.2148 30.8218 19.9398 29.3674 19.0496C27.9129 18.1593 26.2407 17.6883 24.5354 17.6887Z" fill="#BE3160"/>
</svg>