<svg width="48" height="49" viewBox="0 0 48 49" fill="none" xmlns="http://www.w3.org/2000/svg">
    <path fill-rule="evenodd" clip-rule="evenodd" d="M23.9999 5.87735L3.90052 20.4804L11.5778 44.1087H36.422L44.0993 20.4804L23.9999 5.87735ZM46.8253 19.5947L23.9999 3.01111L1.17456 19.5947L9.89307 46.4275H38.1068L46.8253 19.5947Z" fill="#706E6E" style="mix-blend-mode:overlay"/>
    <path d="M23.9978 17.6887C22.7728 17.6816 21.5586 17.9179 20.4257 18.3838C19.2927 18.8496 18.2636 19.5359 17.3979 20.4026L14.7456 17.6887V25.3988H22.4558L19.603 22.6077C20.1731 22.0202 20.8566 21.5546 21.6121 21.2392C22.3675 20.9237 23.1792 20.765 23.9978 20.7727C25.1344 20.7728 26.2488 21.0869 27.218 21.6804C28.1874 22.2739 28.9739 23.1236 29.4907 24.1359C30.0076 25.1481 30.2347 26.2835 30.1471 27.4167C30.0594 28.5498 29.6603 29.6367 28.9938 30.5574C28.3275 31.4781 27.4197 32.1967 26.3706 32.6341C25.3216 33.0714 24.1721 33.2103 23.049 33.0356C21.926 32.8609 20.8731 32.3793 20.0064 31.6439C19.1399 30.9085 18.4933 29.948 18.1381 28.8684L15.2083 29.8244C15.7397 31.4448 16.7087 32.8868 18.0081 33.991C19.3076 35.0953 20.8869 35.819 22.5718 36.0822C24.2566 36.3454 25.9815 36.1377 27.5557 35.4823C29.13 34.8268 30.4925 33.7491 31.4929 32.368C32.4932 30.9869 33.0922 29.3562 33.2241 27.656C33.3559 25.9558 33.0153 24.2523 32.2398 22.7335C31.4643 21.2148 30.2842 19.9398 28.8298 19.0496C27.3753 18.1593 25.7031 17.6883 23.9978 17.6887Z" fill="#727272"/>
    </svg>
    