<svg xmlns="http://www.w3.org/2000/svg" width="49" height="49" viewBox="0 0 49 49" fill="none">
  <path fill-rule="evenodd" clip-rule="evenodd" d="M24.1357 5.79422L4.03626 20.3973L11.7135 44.0255H36.5578L44.2351 20.3973L24.1357 5.79422ZM46.961 19.5116L24.1357 2.92798L1.3103 19.5116L10.0288 46.3444H38.2425L46.961 19.5116Z" fill="url(#paint0_radial_1318_3347)"/>
  <path d="M24.1336 17.6055C22.9086 17.5985 21.6944 17.8347 20.5614 18.3006C19.4285 18.7665 18.3993 19.4527 17.5337 20.3195L14.8814 17.6055V25.3157H22.5915L19.7388 22.5246C20.3089 21.9371 20.9924 21.4715 21.7478 21.156C22.5033 20.8406 23.3149 20.6819 24.1336 20.6896C25.2701 20.6897 26.3846 21.0038 27.3538 21.5973C28.3231 22.1908 29.1097 23.0405 29.6264 24.0527C30.1433 25.065 30.3705 26.2003 30.2829 27.3335C30.1951 28.4667 29.796 29.5536 29.1296 30.4743C28.4633 31.395 27.5555 32.1136 26.5064 32.5509C25.4573 32.9882 24.3078 33.1272 23.1848 32.9525C22.0617 32.7778 21.0088 32.2962 20.1422 31.5608C19.2756 30.8254 18.629 29.8649 18.2738 28.7853L15.344 29.7413C15.8755 31.3617 16.8444 32.8037 18.1439 33.9079C19.4433 35.0122 21.0227 35.7358 22.7075 35.9991C24.3924 36.2623 26.1172 36.0546 27.6915 35.3992C29.2657 34.7437 30.6283 33.666 31.6286 32.2849C32.6289 30.9037 33.228 29.2731 33.3598 27.5729C33.4917 25.8727 33.151 24.1692 32.3756 22.6504C31.6001 21.1316 30.42 19.8567 28.9655 18.9664C27.5111 18.0762 25.8388 17.6052 24.1336 17.6055Z" fill="url(#paint1_radial_1318_3347)"/>
  <defs>
    <radialGradient id="paint0_radial_1318_3347" cx="0" cy="0" r="1" gradientUnits="userSpaceOnUse" gradientTransform="translate(24.1357 24.6362) rotate(90) scale(21.7082 22.8254)">
      <stop offset="0.555" stop-color="#BD3060"/>
      <stop offset="0.585" stop-color="#B7144B"/>
    </radialGradient>
    <radialGradient id="paint1_radial_1318_3347" cx="0" cy="0" r="1" gradientUnits="userSpaceOnUse" gradientTransform="translate(24.1357 24.6362) rotate(90) scale(21.7082 22.8254)">
      <stop offset="0.555" stop-color="#BD3060"/>
      <stop offset="0.585" stop-color="#B7144B"/>
    </radialGradient>
  </defs>
</svg>