<svg width="46" height="44" viewBox="0 0 46 44" fill="none" xmlns="http://www.w3.org/2000/svg">
<g id="Vector">
<path fill-rule="evenodd" clip-rule="evenodd" d="M22.9999 2.87735L2.90052 17.4804L10.5778 41.1087H35.422L43.0993 17.4804L22.9999 2.87735ZM45.8253 16.5947L22.9999 0.0111084L0.174561 16.5947L8.89307 43.4275H37.1068L45.8253 16.5947Z" fill="#706E6E" style="mix-blend-mode:overlay"/>
<path d="M22.9978 14.6887C21.7728 14.6816 20.5586 14.9179 19.4257 15.3838C18.2927 15.8496 17.2636 16.5359 16.3979 17.4026L13.7456 14.6887V22.3988H21.4558L18.603 19.6077C19.1731 19.0202 19.8566 18.5546 20.6121 18.2392C21.3675 17.9237 22.1792 17.765 22.9978 17.7727C24.1344 17.7728 25.2488 18.0869 26.218 18.6804C27.1874 19.2739 27.9739 20.1236 28.4907 21.1359C29.0076 22.1481 29.2347 23.2835 29.1471 24.4167C29.0594 25.5498 28.6603 26.6367 27.9938 27.5574C27.3275 28.4781 26.4197 29.1967 25.3706 29.6341C24.3216 30.0714 23.1721 30.2103 22.049 30.0356C20.926 29.8609 19.8731 29.3793 19.0064 28.6439C18.1399 27.9085 17.4933 26.948 17.1381 25.8684L14.2083 26.8244C14.7397 28.4448 15.7087 29.8868 17.0081 30.991C18.3076 32.0953 19.8869 32.819 21.5718 33.0822C23.2566 33.3454 24.9815 33.1377 26.5557 32.4823C28.13 31.8268 29.4925 30.7491 30.4929 29.368C31.4932 27.9869 32.0922 26.3562 32.2241 24.656C32.3559 22.9558 32.0153 21.2523 31.2398 19.7335C30.4643 18.2148 29.2842 16.9398 27.8298 16.0496C26.3753 15.1593 24.7031 14.6883 22.9978 14.6887Z" fill="#727272"/>
</g>
</svg>
