<svg xmlns="http://www.w3.org/2000/svg" width="49" height="49" viewBox="0 0 49 49" fill="none">
  <path fill-rule="evenodd" clip-rule="evenodd" d="M24.5376 5.78714L4.43824 20.3902L12.1155 44.0185H36.9597L44.637 20.3902L24.5376 5.78714ZM47.363 19.5045L24.5376 2.9209L1.71228 19.5045L10.4308 46.3373H38.6445L47.363 19.5045Z" fill="#CA4C63" style="mix-blend-mode:overlay"/>
  <path d="M24.5355 17.5985C23.3106 17.5914 22.0964 17.8277 20.9634 18.2935C19.8305 18.7594 18.8013 19.4457 17.9357 20.3124L15.2834 17.5985V25.3086H22.9935L20.1408 22.5175C20.7109 21.93 21.3944 21.4644 22.1498 21.149C22.9053 20.8335 23.7169 20.6748 24.5355 20.6825C25.6721 20.6826 26.7865 20.9967 27.7558 21.5902C28.7251 22.1837 29.5117 23.0334 30.0284 24.0457C30.5453 25.0579 30.7724 26.1933 30.6848 27.3264C30.5971 28.4596 30.198 29.5465 29.5316 30.4672C28.8652 31.3879 27.9575 32.1065 26.9083 32.5438C25.8593 32.9812 24.7098 33.1201 23.5867 32.9454C22.4637 32.7707 21.4108 32.2891 20.5442 31.5537C19.6776 30.8183 19.031 29.8578 18.6758 28.7782L15.746 29.7342C16.2774 31.3546 17.2464 32.7966 18.5458 33.9008C19.8453 35.0051 21.4246 35.7287 23.1095 35.992C24.7944 36.2552 26.5192 36.0475 28.0935 35.3921C29.6677 34.7366 31.0303 33.6589 32.0306 32.2778C33.0309 30.8966 33.63 29.266 33.7618 27.5658C33.8937 25.8656 33.553 24.1621 32.7775 22.6433C32.002 21.1245 30.8219 19.8496 29.3675 18.9594C27.913 18.0691 26.2408 17.5981 24.5355 17.5985Z" fill="#CA4C63"/>
</svg>