<svg width="48" height="49" viewBox="0 0 48 49" fill="none" xmlns="http://www.w3.org/2000/svg">
<g id="Swap Questions v1" style="mix-blend-mode:luminosity">
<g id="Vector">
<path fill-rule="evenodd" clip-rule="evenodd" d="M23.9438 45.3595C35.6059 45.3595 45.0598 35.9055 45.0598 24.2435C45.0598 12.5814 35.6059 3.12746 23.9438 3.12746C12.2817 3.12746 2.82777 12.5814 2.82777 24.2435C2.82777 35.9055 12.2817 45.3595 23.9438 45.3595ZM23.9438 48.1421C37.1426 48.1421 47.8424 37.4423 47.8424 24.2435C47.8424 11.0446 37.1426 0.344849 23.9438 0.344849C10.7449 0.344849 0.045166 11.0446 0.045166 24.2435C0.045166 37.4423 10.7449 48.1421 23.9438 48.1421Z" fill="#959595" style="mix-blend-mode:color-dodge"/>
<path fill-rule="evenodd" clip-rule="evenodd" d="M29.8507 16.4741L22.3886 9.40995V14.3847C14.7673 14.3847 11.5244 17.3766 10.4241 22.0748C10.0879 23.5101 9.95173 25.1045 9.95173 26.8215C10.3718 25.2221 11.0437 23.8745 11.9299 22.7839C13.7726 20.5162 16.542 19.3594 19.9012 19.3594H22.3886V24.3342L29.8507 16.4741ZM18.1493 31.8859L25.6114 38.95V33.9753C33.2327 33.9753 36.4755 30.9834 37.5759 26.2852C37.912 24.8499 38.0482 23.2555 38.0482 21.5385C37.6282 23.1379 36.9563 24.4855 36.07 25.5761C34.2273 27.8438 31.4579 29.0006 28.0988 29.0006H25.6114V24.0258L18.1493 31.8859ZM23.9882 28.0931L20.4456 31.8246L23.9882 35.1783V32.3521H25.6114C30.33 32.3521 32.8862 31.1469 34.3247 29.4565C34.4862 29.2668 34.6373 29.0668 34.7785 28.8563C32.8658 30.0533 30.5812 30.6238 28.0988 30.6238H23.9882V28.0931ZM24.0117 20.2669L27.5543 16.5354L24.0117 13.1817V16.0079H22.3886C17.6699 16.0079 15.1138 17.2131 13.6752 18.9035C13.5138 19.0932 13.3626 19.2932 13.2214 19.5037C15.1342 18.3067 17.4188 17.7362 19.9012 17.7362H24.0117V20.2669Z" fill="#797979"/>
</g>
</g>
</svg>
