<svg xmlns="http://www.w3.org/2000/svg" width="48" height="49" viewBox="0 0 48 49" fill="none">
  <g style="mix-blend-mode:luminosity" opacity="0.5">
    <path fill-rule="evenodd" clip-rule="evenodd" d="M23.9438 45.2693C35.6059 45.2693 45.0598 35.8153 45.0598 24.1533C45.0598 12.4912 35.6059 3.03725 23.9438 3.03725C12.2817 3.03725 2.82777 12.4912 2.82777 24.1533C2.82777 35.8153 12.2817 45.2693 23.9438 45.2693ZM23.9438 48.0519C37.1426 48.0519 47.8424 37.3521 47.8424 24.1533C47.8424 10.9544 37.1426 0.254639 23.9438 0.254639C10.7449 0.254639 0.045166 10.9544 0.045166 24.1533C0.045166 37.3521 10.7449 48.0519 23.9438 48.0519Z" fill="#1A7794" style="mix-blend-mode:overlay"/>
    <path fill-rule="evenodd" clip-rule="evenodd" d="M29.8507 16.3839L22.3886 9.31974V14.2945C14.7673 14.2945 11.5244 17.2864 10.4241 21.9846C10.0879 23.4198 9.95173 25.0143 9.95173 26.7313C10.3718 25.1319 11.0437 23.7843 11.9299 22.6937C13.7726 20.426 16.542 19.2692 19.9012 19.2692H22.3886V24.2439L29.8507 16.3839ZM18.1493 31.7957L25.6114 38.8598V33.8851C33.2327 33.8851 36.4755 30.8932 37.5759 26.195C37.912 24.7597 38.0482 23.1653 38.0482 21.4483C37.6282 23.0477 36.9563 24.3953 36.07 25.4859C34.2273 27.7536 31.4579 28.9104 28.0988 28.9104H25.6114V23.9356L18.1493 31.7957ZM23.9882 28.0029L20.4456 31.7344L23.9882 35.0881V32.2619H25.6114C30.33 32.2619 32.8862 31.0566 34.3247 29.3663C34.4862 29.1766 34.6373 28.9765 34.7785 28.766C32.8658 29.9631 30.5812 30.5336 28.0988 30.5336H23.9882V28.0029ZM24.0117 20.1766L27.5543 16.4451L24.0117 13.0915V15.9177H22.3886C17.6699 15.9177 15.1138 17.1229 13.6752 18.8133C13.5138 19.003 13.3626 19.203 13.2214 19.4135C15.1342 18.2165 17.4188 17.646 19.9012 17.646H24.0117V20.1766Z" fill="#0E6681"/>
  </g>
</svg>