<svg xmlns="http://www.w3.org/2000/svg" width="207" height="208" viewBox="0 0 207 208" fill="none">
    <path fill-rule="evenodd" clip-rule="evenodd" d="M103.257 195.548C153.55 195.548 194.32 154.777 194.32 104.485C194.32 54.1921 153.55 13.4219 103.257 13.4219C52.9646 13.4219 12.1943 54.1921 12.1943 104.485C12.1943 154.777 52.9646 195.548 103.257 195.548ZM103.257 207.548C160.177 207.548 206.32 161.405 206.32 104.485C206.32 47.5647 160.177 1.42188 103.257 1.42188C46.3371 1.42188 0.194336 47.5647 0.194336 104.485C0.194336 161.405 46.3371 207.548 103.257 207.548Z" fill="#797979"/>
    <path fill-rule="evenodd" clip-rule="evenodd" d="M128.731 70.9792L96.5502 40.5151V61.9687C63.6834 61.9687 49.6985 74.8714 44.9533 95.1324C43.5037 101.322 42.9164 108.198 42.9164 115.603C44.7278 108.705 47.6254 102.894 51.4473 98.1902C59.394 88.4109 71.3371 83.4222 85.8235 83.4222H96.5502V104.876L128.731 70.9792ZM78.2683 137.443L110.449 167.907V146.453C143.316 146.453 157.3 133.551 162.046 113.289C163.495 107.1 164.083 100.224 164.083 92.8194C162.271 99.7169 159.374 105.528 155.552 110.232C147.605 120.011 135.662 125 121.175 125H110.449V103.546L78.2683 137.443ZM103.449 121.086L88.1714 137.178L103.449 151.641V139.453H110.449C130.798 139.453 141.821 134.256 148.025 126.966C148.721 126.148 149.373 125.285 149.982 124.377C141.733 129.54 131.881 132 121.175 132H103.449V121.086ZM103.55 87.3355L118.828 71.2434L103.55 56.7809V68.9687H96.5502C76.201 68.9687 65.1778 74.1664 58.9739 81.4559C58.2777 82.274 57.6258 83.1368 57.0169 84.0446C65.2658 78.8824 75.1179 76.4222 85.8235 76.4222H103.55V87.3355Z" fill="#797979"/>
  </svg>