<svg xmlns="http://www.w3.org/2000/svg" width="41" height="40" viewBox="0 0 41 40" fill="none">
  <path fill-rule="evenodd" clip-rule="evenodd" d="M20.3208 37.6494C30.0392 37.6494 37.9175 29.7711 37.9175 20.0527C37.9175 10.3344 30.0392 2.45605 20.3208 2.45605C10.6024 2.45605 2.72411 10.3344 2.72411 20.0527C2.72411 29.7711 10.6024 37.6494 20.3208 37.6494ZM20.3208 39.9683C31.3198 39.9683 40.2363 31.0518 40.2363 20.0527C40.2363 9.05369 31.3198 0.137207 20.3208 0.137207C9.32176 0.137207 0.405273 9.05369 0.405273 20.0527C0.405273 31.0518 9.32176 39.9683 20.3208 39.9683Z" fill="url(#paint0_radial_3714_2800)"/>
  <path fill-rule="evenodd" clip-rule="evenodd" d="M25.2432 13.5782L19.0248 7.69146V11.8371C12.6737 11.8371 9.9713 14.3304 9.05435 18.2455C8.77424 19.4415 8.66074 20.7702 8.66074 22.2011C9.01078 20.8682 9.57069 19.7453 10.3092 18.8364C11.8448 16.9467 14.1527 15.9827 16.952 15.9827H19.0248V20.1283L25.2432 13.5782ZM15.492 26.4214L21.7105 32.3082V28.1626C28.0615 28.1626 30.7639 25.6693 31.6809 21.7541C31.961 20.5581 32.0745 19.2294 32.0745 17.7986C31.7244 19.1314 31.1645 20.2544 30.426 21.1633C28.8904 23.053 26.5826 24.017 23.7833 24.017H21.7105V19.8714L15.492 26.4214ZM20.3578 23.2608L17.4057 26.3704L20.3578 29.1651V26.8099H21.7105C25.6427 26.8099 27.7728 25.8055 28.9716 24.3969C29.1061 24.2389 29.2321 24.0721 29.3497 23.8967C27.7558 24.8942 25.852 25.3696 23.7833 25.3696H20.3578V23.2608ZM20.3774 16.7389L23.3296 13.6293L20.3774 10.8346V13.1897H19.0248C15.0926 13.1897 12.9625 14.1941 11.7636 15.6027C11.6291 15.7608 11.5031 15.9275 11.3855 16.103C12.9795 15.1054 14.8833 14.63 16.952 14.63H20.3774V16.7389Z" fill="url(#paint1_radial_3714_2800)"/>
  <defs>
    <radialGradient id="paint0_radial_3714_2800" cx="0" cy="0" r="1" gradientUnits="userSpaceOnUse" gradientTransform="translate(20.3208 20.0527) rotate(90) scale(19.9155)">
      <stop offset="0.613993" stop-color="#15A2CE"/>
      <stop offset="0.623424" stop-color="#02799F"/>
    </radialGradient>
    <radialGradient id="paint1_radial_3714_2800" cx="0" cy="0" r="1" gradientUnits="userSpaceOnUse" gradientTransform="translate(20.3208 20.0527) rotate(90) scale(19.9155)">
      <stop offset="0.613993" stop-color="#15A2CE"/>
      <stop offset="0.623424" stop-color="#02799F"/>
    </radialGradient>
  </defs>
</svg>