<svg xmlns="http://www.w3.org/2000/svg" width="207" height="207" viewBox="0 0 207 207" fill="none">
  <path fill-rule="evenodd" clip-rule="evenodd" d="M103.257 194.837C153.55 194.837 194.32 154.066 194.32 103.774C194.32 53.4812 153.55 12.7109 103.257 12.7109C52.9646 12.7109 12.1943 53.4812 12.1943 103.774C12.1943 154.066 52.9646 194.837 103.257 194.837ZM103.257 206.837C160.177 206.837 206.32 160.694 206.32 103.774C206.32 46.8537 160.177 0.710938 103.257 0.710938C46.3371 0.710938 0.194336 46.8537 0.194336 103.774C0.194336 160.694 46.3371 206.837 103.257 206.837Z" fill="#027FA7"/>
  <path fill-rule="evenodd" clip-rule="evenodd" d="M128.731 70.2682L96.5502 39.8042V61.2577C63.6834 61.2577 49.6985 74.1605 44.9533 94.4215C43.5037 100.611 42.9164 107.487 42.9164 114.892C44.7278 107.994 47.6254 102.183 51.4473 97.4793C59.394 87.7 71.3371 82.7113 85.8235 82.7113H96.5502V104.165L128.731 70.2682ZM78.2683 136.732L110.449 167.196V145.742C143.316 145.742 157.3 132.84 162.046 112.579C163.495 106.389 164.083 99.5131 164.083 92.1085C162.271 99.006 159.374 104.817 155.552 109.521C147.605 119.3 135.662 124.289 121.175 124.289H110.449V102.835L78.2683 136.732ZM103.449 120.375L88.1714 136.468L103.449 150.93V138.742H110.449C130.798 138.742 141.821 133.545 148.025 126.255C148.721 125.437 149.373 124.574 149.982 123.666C141.733 128.829 131.881 131.289 121.175 131.289H103.449V120.375ZM103.55 86.6246L118.828 70.5325L103.55 56.07V68.2577H96.5502C76.201 68.2577 65.1778 73.4555 58.9739 80.745C58.2777 81.5631 57.6258 82.4259 57.0169 83.3337C65.2658 78.1715 75.1179 75.7113 85.8235 75.7113H103.55V86.6246Z" fill="#027FA7"/>
</svg>