<svg width="48" height="49" viewBox="0 0 48 49" fill="none" xmlns="http://www.w3.org/2000/svg">
<g id="double P v1" style="mix-blend-mode:luminosity">
<g id="Vector">
<path fill-rule="evenodd" clip-rule="evenodd" d="M3.60718 24.27L23.9999 44.6628L44.3927 24.27L23.9999 3.87726L3.60718 24.27ZM1.31165 22.9583C0.587197 23.6827 0.587199 24.8573 1.31165 25.5818L22.6882 46.9583C23.4127 47.6828 24.5872 47.6828 25.3117 46.9583L46.6883 25.5818C47.4127 24.8573 47.4127 23.6827 46.6882 22.9583L25.3117 1.58173C24.5872 0.857277 23.4127 0.85728 22.6882 1.58173L1.31165 22.9583Z" fill="#7A7A7A" style="mix-blend-mode:lighten"/>
<path d="M32.9992 31.021H28.9844C28.2484 31.021 27.6183 30.7566 27.0941 30.2278C26.57 29.6989 26.3079 29.0632 26.3079 28.3206V25.6202C26.3079 24.8776 26.57 24.2419 27.0941 23.7131C27.6183 23.1842 28.2484 22.9198 28.9844 22.9198H31.6609V20.2194H27.6462C27.267 20.2194 26.9492 20.09 26.6927 19.8313C26.4362 19.5725 26.3079 19.2518 26.3079 18.8692C26.3079 18.4867 26.4362 18.166 26.6927 17.9072C26.9492 17.6484 27.267 17.519 27.6462 17.519H31.6609C32.3969 17.519 33.027 17.7835 33.5512 18.3123C34.0753 18.8411 34.3374 19.4768 34.3374 20.2194V22.9198C34.3374 23.6624 34.0753 24.2982 33.5512 24.827C33.027 25.3558 32.3969 25.6202 31.6609 25.6202H28.9844V28.3206H32.9992C33.3783 28.3206 33.6962 28.45 33.9527 28.7088C34.2092 28.9676 34.3374 29.2882 34.3374 29.6708C34.3374 30.0534 34.2092 30.374 33.9527 30.6328C33.6962 30.8916 33.3783 31.021 32.9992 31.021Z" fill="#909090"/>
<path d="M18.771 28.3695L16.8774 30.6821C16.7872 30.7884 16.6745 30.8715 16.5393 30.9313C16.404 30.9911 16.2552 31.021 16.0929 31.021C15.7323 31.021 15.4572 30.9047 15.2679 30.6721C15.0785 30.4395 15.083 30.2103 15.2814 29.9843L17.6889 27.0337L15.2814 24.0832C15.083 23.8572 15.0785 23.6279 15.2679 23.3953C15.4572 23.1628 15.7323 23.0465 16.0929 23.0465C16.2552 23.0465 16.404 23.0764 16.5393 23.1362C16.6745 23.196 16.7872 23.2791 16.8774 23.3854L18.771 25.698L20.6646 23.3854C20.7547 23.2791 20.8674 23.196 21.0027 23.1362C21.1379 23.0764 21.2867 23.0465 21.449 23.0465C21.8097 23.0465 22.0847 23.1628 22.2741 23.3953C22.4634 23.6279 22.4589 23.8572 22.2606 24.0832L19.853 27.0337L22.2606 29.9843C22.4589 30.2103 22.4634 30.4395 22.2741 30.6721C22.0847 30.9047 21.8097 31.021 21.449 31.021C21.2867 31.021 21.1379 30.9911 21.0027 30.9313C20.8674 30.8715 20.7547 30.7884 20.6646 30.6821L18.771 28.3695Z" fill="#909090"/>
</g>
</g>
</svg>
