<svg width="264" height="280" viewBox="0 0 264 280" fill="none" xmlns="http://www.w3.org/2000/svg">
<g clip-path="url(#clip0_1757_3116)">
<path d="M173.318 50.7008C163.87 41.2594 151.432 35.3824 138.139 34.0782C124.846 32.7739 111.504 36.1214 100.401 43.5465C89.2979 50.9715 81.1079 62.0237 77.2358 74.8071C73.3637 87.5904 74.0444 101.33 79.1611 113.668C84.2778 126.006 93.5202 136.194 105.303 142.485C117.085 148.776 130.693 150.789 143.792 148.177C156.891 145.565 168.687 138.487 177.156 128.158C185.624 117.829 190.252 104.875 190.245 91.5181C190.253 83.9348 188.762 76.4243 185.857 69.4195C182.952 62.4146 178.69 56.0529 173.318 50.7008ZM159.723 118.724C154.342 124.108 147.482 127.776 140.017 129.262C132.551 130.749 124.81 129.988 117.777 127.076C110.744 124.164 104.73 119.23 100.5 112.902C96.2702 106.573 94.011 99.1301 94.0098 91.5181C94.0659 90.0364 94.2147 88.5596 94.4553 87.0965C105.537 88.2485 116.658 85.2165 125.621 78.5998C129.542 75.9998 132.866 72.5957 135.372 68.6136C137.878 64.6316 139.509 60.162 140.156 55.5019C143.101 60.0296 147.105 63.773 151.82 66.4074C156.111 69.0415 160.779 71.0054 165.663 72.2314C170.005 79.5186 171.78 88.0555 170.704 96.4696C169.627 104.884 165.76 112.699 159.723 118.658V118.724Z" fill="#9AA7B0"/>
<path d="M249.834 262.545C249.834 262.545 220.501 280 132.501 280C44.5013 280 15.168 262.545 15.168 262.545C16.0402 230.11 27.1762 199.343 46.1866 176.846C55.2555 166.933 67.0394 161.588 79.1679 161.885C89.5358 161.885 96.7892 173.932 104.32 186.216C112.149 199.025 120.298 212.071 132.586 212.071C145.6 212.071 153.92 197.424 162.218 183.985C169.258 172.515 176.256 161.885 186.005 161.885C198.104 161.614 209.854 166.958 218.901 176.846C237.88 199.36 248.984 230.125 249.834 262.545Z" fill="#9AA7B0"/>
</g>
<defs>
<clipPath id="clip0_1757_3116">
<rect width="264" height="280" fill="white"/>
</clipPath>
</defs>
</svg>
