<svg width="264" height="280" viewBox="0 0 264 280" fill="none" xmlns="http://www.w3.org/2000/svg">
<g clip-path="url(#clip0_1631_3311)">
<path d="M156 180.611V199H160C199.764 199 232 231.236 232 271V280H32V271C32 231.236 64.2355 199 104 199H108V180.611C90.7626 172.422 78.3722 155.687 76.3051 135.881C70.4803 135.058 66 130.052 66 124V110C66 104.054 70.3246 99.1181 76 98.1659V92C76 61.0721 101.072 36 132 36C162.928 36 188 61.0721 188 92V98.1659C193.675 99.1181 198 104.054 198 110V124C198 130.052 193.52 135.058 187.695 135.881C185.628 155.687 173.237 172.422 156 180.611Z" fill="#D0C6AC"/>
<mask id="mask0_1631_3311" style="mask-type:luminance" maskUnits="userSpaceOnUse" x="32" y="36" width="200" height="244">
<path d="M156 180.611V199H160C199.764 199 232 231.236 232 271V280H32V271C32 231.236 64.2355 199 104 199H108V180.611C90.7626 172.422 78.3722 155.687 76.3051 135.881C70.4803 135.058 66 130.052 66 124V110C66 104.054 70.3246 99.1181 76 98.1659V92C76 61.0721 101.072 36 132 36C162.928 36 188 61.0721 188 92V98.1659C193.675 99.1181 198 104.054 198 110V124C198 130.052 193.52 135.058 187.695 135.881C185.628 155.687 173.237 172.422 156 180.611Z" fill="white"/>
</mask>
<g mask="url(#mask0_1631_3311)">
<path d="M296 36H32V316H296V36Z" fill="#D08B5B"/>
</g>
<mask id="mask1_1631_3311" style="mask-type:luminance" maskUnits="userSpaceOnUse" x="32" y="36" width="200" height="244">
<path d="M156 180.611V199H160C199.764 199 232 231.236 232 271V280H32V271C32 231.236 64.2355 199 104 199H108V180.611C90.7626 172.422 78.3722 155.687 76.3051 135.881C70.4803 135.058 66 130.052 66 124V110C66 104.054 70.3246 99.1181 76 98.1659V92C76 61.0721 101.072 36 132 36C162.928 36 188 61.0721 188 92V98.1659C193.675 99.1181 198 104.054 198 110V124C198 130.052 193.52 135.058 187.695 135.881C185.628 155.687 173.237 172.422 156 180.611Z" fill="white"/>
</mask>
<g mask="url(#mask1_1631_3311)">
<path fill-rule="evenodd" clip-rule="evenodd" d="M188 115V138C188 168.928 162.928 194 132 194C101.072 194 76 168.928 76 138V115V130C76 160.928 101.072 186 132 186C162.928 186 188 160.928 188 130V115Z" fill="black" fill-opacity="0.1"/>
</g>
<path fill-rule="evenodd" clip-rule="evenodd" d="M165.96 199.295C202.936 202.325 232 233.294 232 271.052V280H32V271.052C32 232.953 61.592 201.765 99.0454 199.22C99.0153 199.593 99 199.969 99 200.348C99 212.211 113.998 221.828 132.5 221.828C151.002 221.828 166 212.211 166 200.348C166 199.995 165.987 199.644 165.96 199.295Z" fill="#E6E6E6"/>
<mask id="mask2_1631_3311" style="mask-type:luminance" maskUnits="userSpaceOnUse" x="32" y="199" width="200" height="81">
<path fill-rule="evenodd" clip-rule="evenodd" d="M165.96 199.295C202.936 202.325 232 233.294 232 271.052V280H32V271.052C32 232.953 61.592 201.765 99.0454 199.22C99.0153 199.593 99 199.969 99 200.348C99 212.211 113.998 221.828 132.5 221.828C151.002 221.828 166 212.211 166 200.348C166 199.995 165.987 199.644 165.96 199.295Z" fill="white"/>
</mask>
<g mask="url(#mask2_1631_3311)">
<path d="M264 170H0V280H264V170Z" fill="#262E33"/>
</g>
<mask id="mask3_1631_3311" style="mask-type:luminance" maskUnits="userSpaceOnUse" x="32" y="199" width="200" height="81">
<path fill-rule="evenodd" clip-rule="evenodd" d="M165.96 199.295C202.936 202.325 232 233.294 232 271.052V280H32V271.052C32 232.953 61.592 201.765 99.0454 199.22C99.0153 199.593 99 199.969 99 200.348C99 212.211 113.998 221.828 132.5 221.828C151.002 221.828 166 212.211 166 200.348C166 199.995 165.987 199.644 165.96 199.295Z" fill="white"/>
</mask>
<g mask="url(#mask3_1631_3311)">
<g opacity="0.6">
<path d="M132.5 228.761C154.39 228.761 172.135 216.712 172.135 201.848C172.135 186.984 154.39 174.934 132.5 174.934C110.61 174.934 92.8652 186.984 92.8652 201.848C92.8652 216.712 110.61 228.761 132.5 228.761Z" fill="black" fill-opacity="0.16"/>
</g>
</g>
<path fill-rule="evenodd" clip-rule="evenodd" d="M100.785 199.122C62.5123 200.804 32 232.365 32 271.052L32 280H101.362C97.9607 267.92 96 253.709 96 238.5C96 224.173 97.74 210.731 100.785 199.122ZM163.638 280H232V271.052C232 232.707 202.025 201.363 164.229 199.174C167.265 210.771 169 224.194 169 238.5C169 253.709 167.039 267.92 163.638 280Z" fill="#3A4C5A"/>
<path fill-rule="evenodd" clip-rule="evenodd" d="M181 256L190.556 248.833C191.999 247.751 193.988 247.768 195.412 248.876L202 254L181 256Z" fill="#E6E6E6"/>
<path fill-rule="evenodd" clip-rule="evenodd" d="M101 198C97 217.333 98.6667 244.667 106 280H90L76 244L82 235L76 229L95 199C97.0277 198.369 99.0277 198.036 101 198Z" fill="#2F4351"/>
<path fill-rule="evenodd" clip-rule="evenodd" d="M163 198C167 217.333 165.333 244.667 158 280H174L188 244L182 235L188 229L169 199C166.972 198.369 164.972 198.036 163 198Z" fill="#2F4351"/>
<path fill-rule="evenodd" clip-rule="evenodd" d="M113.118 149.128C114.176 158.62 122.226 166 132 166C141.804 166 149.874 158.574 150.892 149.04C150.974 148.273 150.117 147 149.043 147C134.149 147 122.738 147 115.087 147C114.007 147 113.012 148.178 113.118 149.128Z" fill="black" fill-opacity="0.7"/>
<mask id="mask4_1631_3311" style="mask-type:luminance" maskUnits="userSpaceOnUse" x="113" y="147" width="38" height="19">
<path fill-rule="evenodd" clip-rule="evenodd" d="M113.118 149.128C114.176 158.62 122.226 166 132 166C141.804 166 149.874 158.574 150.892 149.04C150.974 148.273 150.117 147 149.043 147C134.149 147 122.738 147 115.087 147C114.007 147 113.012 148.178 113.118 149.128Z" fill="white"/>
</mask>
<g mask="url(#mask4_1631_3311)">
<path d="M143 136H122C119.239 136 117 138.239 117 141V147C117 149.761 119.239 152 122 152H143C145.761 152 148 149.761 148 147V141C148 138.239 145.761 136 143 136Z" fill="white"/>
</g>
<mask id="mask5_1631_3311" style="mask-type:luminance" maskUnits="userSpaceOnUse" x="113" y="147" width="38" height="19">
<path fill-rule="evenodd" clip-rule="evenodd" d="M113.118 149.128C114.176 158.62 122.226 166 132 166C141.804 166 149.874 158.574 150.892 149.04C150.974 148.273 150.117 147 149.043 147C134.149 147 122.738 147 115.087 147C114.007 147 113.012 148.178 113.118 149.128Z" fill="white"/>
</mask>
<g mask="url(#mask5_1631_3311)">
<path d="M127 180C133.075 180 138 175.075 138 169C138 162.925 133.075 158 127 158C120.925 158 116 162.925 116 169C116 175.075 120.925 180 127 180Z" fill="#FF4F6D"/>
<path d="M137 180C143.075 180 148 175.075 148 169C148 162.925 143.075 158 137 158C130.925 158 126 162.925 126 169C126 175.075 130.925 180 137 180Z" fill="#FF4F6D"/>
</g>
<path fill-rule="evenodd" clip-rule="evenodd" d="M120 130C120 134.418 125.373 138 132 138C138.627 138 144 134.418 144 130" fill="black" fill-opacity="0.16"/>
<path fill-rule="evenodd" clip-rule="evenodd" d="M92.1602 112.447C94.0067 108.649 98.1644 106 102.998 106C107.814 106 111.959 108.63 113.815 112.407C114.367 113.529 113.582 114.447 112.791 113.767C110.34 111.66 106.859 110.344 102.998 110.344C99.2572 110.344 95.8738 111.579 93.4375 113.572C92.5468 114.3 91.6201 113.558 92.1602 112.447Z" fill="black" fill-opacity="0.6"/>
<path fill-rule="evenodd" clip-rule="evenodd" d="M150.16 112.447C152.007 108.649 156.164 106 160.998 106C165.814 106 169.959 108.63 171.815 112.407C172.367 113.529 171.582 114.447 170.791 113.767C168.34 111.66 164.859 110.344 160.998 110.344C157.257 110.344 153.874 111.579 151.438 113.572C150.547 114.3 149.62 113.558 150.16 112.447Z" fill="black" fill-opacity="0.6"/>
<path fill-rule="evenodd" clip-rule="evenodd" d="M98.7664 83.5784L99.6773 83.1758C104.919 81.0947 112.865 81.9671 117.723 84.2991C118.29 84.5715 117.902 85.4519 117.321 85.4071C102.402 84.256 92.3583 93.5526 88.9461 99.8471C88.8449 100.034 88.5392 100.055 88.4635 99.8808C86.1563 94.5621 92.9134 85.8961 98.7664 83.5784Z" fill="black" fill-opacity="0.6"/>
<path fill-rule="evenodd" clip-rule="evenodd" d="M165.234 83.5784L164.323 83.1758C159.081 81.0947 151.135 81.9671 146.277 84.2991C145.71 84.5715 146.098 85.4519 146.679 85.4071C161.598 84.256 171.642 93.5526 175.054 99.8471C175.155 100.034 175.461 100.055 175.536 99.8808C177.844 94.5621 171.087 85.8961 165.234 83.5784Z" fill="black" fill-opacity="0.6"/>
<mask id="mask6_1631_3311" style="mask-type:luminance" maskUnits="userSpaceOnUse" x="0" y="0" width="264" height="280">
<path d="M264 0H0V280H264V0Z" fill="white"/>
</mask>
<g mask="url(#mask6_1631_3311)">
<path fill-rule="evenodd" clip-rule="evenodd" d="M58 102.34C58 118.921 58 145.474 58 182C58 186.418 61.5817 190 66 190H108V180.611C90.4692 172.283 77.9518 155.115 76.2086 134.867C70.4309 134.002 66 129.019 66 123V110C66 106.509 67.4904 103.367 69.8695 101.174C81.4088 98.5553 93.9707 93.6376 106.342 86.4953C118.473 79.4911 128.844 71.2579 136.821 62.7522C133.394 70.6604 129.245 77.588 124.372 83.535C137.047 78.0121 145.678 69.1324 150.264 56.8961C150.641 57.818 151.035 58.7389 151.444 59.6582C161.7 82.6926 179.318 99.0186 197.206 104.403C197.719 106.513 198 108.484 198 110V123C198 129.019 193.569 134.002 187.791 134.867C186.048 155.115 173.531 172.283 156 180.611V190H174C191.673 190 206 175.673 206 158C206 133.944 206 115.903 206 103.875C206 103.808 205.991 103.721 205.972 103.615C205.828 91.3537 205.624 84.2238 205.36 82.2256C200.577 45.9764 169.556 18 132 18C95.9151 18 65.8627 43.8283 59 78C53.4772 78 49 83.5964 49 90.5C49 95.0508 50.695 99.1432 53.8535 101.273C54.7582 101.883 56.3238 102.198 58 102.34Z" fill="#944F23"/>
<mask id="mask7_1631_3311" style="mask-type:luminance" maskUnits="userSpaceOnUse" x="49" y="18" width="157" height="172">
<path fill-rule="evenodd" clip-rule="evenodd" d="M58 102.34C58 118.921 58 145.474 58 182C58 186.418 61.5817 190 66 190H108V180.611C90.4692 172.283 77.9518 155.115 76.2086 134.867C70.4309 134.002 66 129.019 66 123V110C66 106.509 67.4904 103.367 69.8695 101.174C81.4088 98.5553 93.9707 93.6376 106.342 86.4953C118.473 79.4911 128.844 71.2579 136.821 62.7522C133.394 70.6604 129.245 77.588 124.372 83.535C137.047 78.0121 145.678 69.1324 150.264 56.8961C150.641 57.818 151.035 58.7389 151.444 59.6582C161.7 82.6926 179.318 99.0186 197.206 104.403C197.719 106.513 198 108.484 198 110V123C198 129.019 193.569 134.002 187.791 134.867C186.048 155.115 173.531 172.283 156 180.611V190H174C191.673 190 206 175.673 206 158C206 133.944 206 115.903 206 103.875C206 103.808 205.991 103.721 205.972 103.615C205.828 91.3537 205.624 84.2238 205.36 82.2256C200.577 45.9764 169.556 18 132 18C95.9151 18 65.8627 43.8283 59 78C53.4772 78 49 83.5964 49 90.5C49 95.0508 50.695 99.1432 53.8535 101.273C54.7582 101.883 56.3238 102.198 58 102.34Z" fill="white"/>
</mask>
<g mask="url(#mask7_1631_3311)">
<path d="M263 0H-1V280H263V0Z" fill="#F59797"/>
</g>
<g opacity="0.439991">
<path fill-rule="evenodd" clip-rule="evenodd" d="M60.899 102.775C74.7109 101.015 90.6793 95.5379 106.342 86.4953C118.473 79.4911 128.844 71.2579 136.821 62.7522C133.394 70.6604 129.245 77.588 124.372 83.535C137.047 78.0121 145.678 69.1324 150.264 56.8961C150.641 57.818 151.035 58.7389 151.444 59.6582C163.382 86.4714 185.296 104.194 206 106.151V92C206 51.1309 172.869 18 132 18C95.9151 18 65.8627 43.8283 59.3213 78.0063C59.2146 78.0021 59.1075 78 59 78C53.4772 78 49 83.5964 49 90.5C49 96.9817 52.9467 102.311 58 102.938V103.093C58.3163 103.064 58.6339 103.033 58.9527 103C58.9685 103 58.9842 103 59 103C59.6493 103 60.2841 102.923 60.899 102.775Z" fill="white" fill-opacity="0.16"/>
</g>
</g>
</g>
<defs>
<clipPath id="clip0_1631_3311">
<rect width="264" height="280" fill="white"/>
</clipPath>
</defs>
</svg>
