<svg width="264" height="280" viewBox="0 0 264 280" fill="none" xmlns="http://www.w3.org/2000/svg">
<g clip-path="url(#clip0_1631_3309)">
<path d="M156 180.611V199H160C199.764 199 232 231.236 232 271V280H32V271C32 231.236 64.2355 199 104 199H108V180.611C90.7626 172.422 78.3722 155.687 76.3051 135.881C70.4803 135.058 66 130.052 66 124V110C66 104.054 70.3246 99.1181 76 98.1659V92C76 61.0721 101.072 36 132 36C162.928 36 188 61.0721 188 92V98.1659C193.675 99.1181 198 104.054 198 110V124C198 130.052 193.52 135.058 187.695 135.881C185.628 155.687 173.237 172.422 156 180.611Z" fill="#D0C6AC"/>
<mask id="mask0_1631_3309" style="mask-type:luminance" maskUnits="userSpaceOnUse" x="32" y="36" width="200" height="244">
<path d="M156 180.611V199H160C199.764 199 232 231.236 232 271V280H32V271C32 231.236 64.2355 199 104 199H108V180.611C90.7626 172.422 78.3722 155.687 76.3051 135.881C70.4803 135.058 66 130.052 66 124V110C66 104.054 70.3246 99.1181 76 98.1659V92C76 61.0721 101.072 36 132 36C162.928 36 188 61.0721 188 92V98.1659C193.675 99.1181 198 104.054 198 110V124C198 130.052 193.52 135.058 187.695 135.881C185.628 155.687 173.237 172.422 156 180.611Z" fill="white"/>
</mask>
<g mask="url(#mask0_1631_3309)">
<path d="M296 36H32V316H296V36Z" fill="#EDB98A"/>
</g>
<mask id="mask1_1631_3309" style="mask-type:luminance" maskUnits="userSpaceOnUse" x="32" y="36" width="200" height="244">
<path d="M156 180.611V199H160C199.764 199 232 231.236 232 271V280H32V271C32 231.236 64.2355 199 104 199H108V180.611C90.7626 172.422 78.3722 155.687 76.3051 135.881C70.4803 135.058 66 130.052 66 124V110C66 104.054 70.3246 99.1181 76 98.1659V92C76 61.0721 101.072 36 132 36C162.928 36 188 61.0721 188 92V98.1659C193.675 99.1181 198 104.054 198 110V124C198 130.052 193.52 135.058 187.695 135.881C185.628 155.687 173.237 172.422 156 180.611Z" fill="white"/>
</mask>
<g mask="url(#mask1_1631_3309)">
<path fill-rule="evenodd" clip-rule="evenodd" d="M188 115V138C188 168.928 162.928 194 132 194C101.072 194 76 168.928 76 138V115V130C76 160.928 101.072 186 132 186C162.928 186 188 160.928 188 130V115Z" fill="black" fill-opacity="0.1"/>
</g>
<path fill-rule="evenodd" clip-rule="evenodd" d="M165.96 199.295C202.936 202.325 232 233.294 232 271.052V280H32V271.052C32 232.953 61.592 201.765 99.0454 199.219C99.0153 199.593 99 199.969 99 200.348C99 212.211 113.998 221.828 132.5 221.828C151.002 221.828 166 212.211 166 200.348C166 199.995 165.987 199.644 165.96 199.295Z" fill="#E6E6E6"/>
<mask id="mask2_1631_3309" style="mask-type:luminance" maskUnits="userSpaceOnUse" x="32" y="199" width="200" height="81">
<path fill-rule="evenodd" clip-rule="evenodd" d="M165.96 199.295C202.936 202.325 232 233.294 232 271.052V280H32V271.052C32 232.953 61.592 201.765 99.0454 199.219C99.0153 199.593 99 199.969 99 200.348C99 212.211 113.998 221.828 132.5 221.828C151.002 221.828 166 212.211 166 200.348C166 199.995 165.987 199.644 165.96 199.295Z" fill="white"/>
</mask>
<g mask="url(#mask2_1631_3309)">
<path d="M264 170H0V280H264V170Z" fill="#FFAFB9"/>
</g>
<mask id="mask3_1631_3309" style="mask-type:luminance" maskUnits="userSpaceOnUse" x="32" y="199" width="200" height="81">
<path fill-rule="evenodd" clip-rule="evenodd" d="M165.96 199.295C202.936 202.325 232 233.294 232 271.052V280H32V271.052C32 232.953 61.592 201.765 99.0454 199.219C99.0153 199.593 99 199.969 99 200.348C99 212.211 113.998 221.828 132.5 221.828C151.002 221.828 166 212.211 166 200.348C166 199.995 165.987 199.644 165.96 199.295Z" fill="white"/>
</mask>
<g mask="url(#mask3_1631_3309)">
<g opacity="0.6">
<path d="M132.5 228.761C154.39 228.761 172.135 216.712 172.135 201.848C172.135 186.983 154.39 174.934 132.5 174.934C110.61 174.934 92.8652 186.983 92.8652 201.848C92.8652 216.712 110.61 228.761 132.5 228.761Z" fill="black" fill-opacity="0.16"/>
</g>
</g>
<path d="M118 150C118 155.372 124.158 159 132 159C139.842 159 146 155.372 146 150C146 148.895 145.05 148 144 148C142.707 148 142.13 148.905 142 150C140.758 152.938 137.683 154.716 132 155C126.317 154.716 123.242 152.938 122 150C121.87 148.905 121.293 148 120 148C118.95 148 118 148.895 118 150Z" fill="black" fill-opacity="0.6"/>
<path fill-rule="evenodd" clip-rule="evenodd" d="M120 130C120 134.418 125.373 138 132 138C138.627 138 144 134.418 144 130" fill="black" fill-opacity="0.16"/>
<path d="M106 126C113.732 126 120 119.732 120 112C120 104.268 113.732 98 106 98C98.268 98 92 104.268 92 112C92 119.732 98.268 126 106 126Z" fill="white"/>
<path d="M158 126C165.732 126 172 119.732 172 112C172 104.268 165.732 98 158 98C150.268 98 144 104.268 144 112C144 119.732 150.268 126 158 126Z" fill="white"/>
<path d="M106 118C109.314 118 112 115.314 112 112C112 108.686 109.314 106 106 106C102.686 106 100 108.686 100 112C100 115.314 102.686 118 106 118Z" fill="black" fill-opacity="0.7"/>
<path d="M158 118C161.314 118 164 115.314 164 112C164 108.686 161.314 106 158 106C154.686 106 152 108.686 152 112C152 115.314 154.686 118 158 118Z" fill="black" fill-opacity="0.7"/>
<path fill-rule="evenodd" clip-rule="evenodd" d="M98.7664 83.5784L99.6773 83.1758C104.919 81.0947 112.865 81.9671 117.723 84.2991C118.29 84.5715 117.902 85.4519 117.321 85.4071C102.402 84.256 92.3583 93.5526 88.9461 99.8471C88.8449 100.034 88.5392 100.055 88.4635 99.8808C86.1563 94.5621 92.9134 85.8961 98.7664 83.5784Z" fill="black" fill-opacity="0.6"/>
<path fill-rule="evenodd" clip-rule="evenodd" d="M162.992 94.0698C168.754 94.8431 177.739 99.8649 176.987 105.677C176.963 105.868 176.675 105.927 176.551 105.768C174.064 102.58 154.839 97.8962 147.837 98.8744C147.197 98.9641 146.773 98.3027 147.211 97.8899C150.955 94.3545 157.831 93.3719 162.992 94.0698Z" fill="black" fill-opacity="0.6"/>
<mask id="mask4_1631_3309" style="mask-type:luminance" maskUnits="userSpaceOnUse" x="0" y="0" width="264" height="280">
<path d="M264 0H0V280H264V0Z" fill="white"/>
</mask>
<g mask="url(#mask4_1631_3309)">
<path fill-rule="evenodd" clip-rule="evenodd" d="M99.8995 42.4649C90.1012 48.4722 81.3852 56.3274 75.5868 65.3603C72.8249 69.6629 70.5528 74.1996 68.4358 78.7576C67.3736 81.0448 66.4045 83.3601 65.4756 85.6894C64.8891 87.1595 63.9885 88.745 64.8356 90.2879C65.3523 89.9859 65.5489 90.0945 65.224 90.6354C67.9159 91.3694 71.658 89.3004 73.9902 88.5363C78.7536 86.9754 83.52 85.5026 88.3982 84.2046C92.8549 83.019 102.798 81.0908 106.688 80.1942L109.425 77.2154L110.487 79.1703C112.645 79.0043 124.566 77.2128 124.566 77.2128L125.896 73.9899C127.612 75.7531 128.835 76.6689 128.835 76.6689C131.391 76.4605 142.488 76.2114 145.119 76.2428C145.119 76.2428 152.46 76.5013 154.24 76.5715L155.907 75.933L156.456 77.0099C157.91 77.6012 166.699 80.6009 168.434 81.1381L170.98 80.2324C172.1 82.9257 174.92 82.5861 177.257 84.7133C180.348 87.5272 186.825 89.5286 189.917 91.9757C191.025 92.852 192.059 93.7676 193.1 94.7016C194.256 95.7386 194.085 95.8905 194.46 97.0803C194.573 97.4362 195.715 99.2789 196.202 99.4297C197.936 99.9661 186.048 68.9436 182.785 64.9772C179.417 60.8831 157.575 33.3232 128.612 34.2255" fill="black" fill-opacity="0.16"/>
<path fill-rule="evenodd" clip-rule="evenodd" d="M187.831 87.6181C187.943 89.0641 188 90.5254 188 92V130C188 152.339 174.92 171.623 156 180.611V199H160C161.524 199 162.038 199.047 163.539 199.141C148.626 226.496 144.824 249.574 162.472 263.543C164.17 264.746 165.396 265.329 165.607 265.428C167.98 266.546 170.444 267.768 173.074 268.383C177.697 269.463 183.007 268.01 187.631 267.43C189.743 267.164 191.848 267.001 193.977 266.994C196.542 266.985 199.188 267.078 201.119 268.691C203.003 270.265 202.763 275.889 197.244 278.524C201.343 280.379 206.256 276.071 207.932 273.347C209.398 270.962 210.526 268.379 211.146 265.742C211.918 262.459 211.968 259.017 211.364 255.728C210.106 248.88 207.188 242.296 205.201 235.606C204.469 233.14 203.515 230.441 203.099 227.917C202.986 227.232 202.852 224.701 202.958 224.172C203.036 223.779 203.017 223.375 204.373 222.996C208.289 221.9 212.38 220.063 215.225 217.477C218.59 214.418 220.344 210.445 221.758 206.497C223.999 200.245 225.281 193.55 225.871 187.057C225.993 185.708 226.062 184.362 226.086 183.01C226.101 182.193 226.001 181.263 226.094 180.445C226.247 179.105 226.04 179.458 227.342 178.571C231.599 175.671 234.921 171.449 237.052 167.201C240.398 160.529 240.834 153.493 238.118 146.734C235.865 141.127 232.291 135.499 226.726 131.888C224.589 130.502 222.334 129.245 220.115 127.958C218.907 127.258 216.068 126.343 215.21 125.441C214.609 124.811 215.565 121.649 215.686 120.583C216.214 115.935 215.606 111.426 214.521 106.887C212.127 96.8794 202.488 80.7383 198.618 71.225C195.293 63.0528 190.482 15.925 133.587 16.1989C76.6915 16.4729 66.4186 66.4377 58.716 75.7737C50.3513 85.9121 41.9075 105.176 47.6027 123.036C42.099 129.958 29.5448 140.044 26.3853 150.126C24.4032 156.451 24.4881 163.496 27.0289 169.633C28.4662 173.104 30.5249 176.25 32.9405 179.272C35.0567 181.919 37.4085 184.424 39.4578 187.11C40.6946 188.732 41.0263 189.129 40.56 191.128C39.6406 195.068 37.7412 198.853 36.0939 202.603C33.5419 208.413 31.3975 213.822 31.08 220.016C30.7777 225.912 32.4043 242.689 49.341 252.576C51.3249 253.734 53.2831 254.743 55.3834 255.685C54.2932 252.29 55.5294 240.162 57.7264 235.654C58.2861 237.205 59.237 238.697 60.2618 240.052C61.8611 242.167 65.636 247.461 70.4086 247.707C68.4722 244.723 66.3891 242.709 65.7853 239.109C69.7616 241.069 75.4191 242.856 80.0466 242.691C83.4513 242.571 88.471 240.871 91 238.748C82.6284 240.075 74.679 237.316 71.482 231.419C70.8146 230.188 70.3085 228.899 70.0142 227.559C69.5968 225.659 68.9382 222.615 69.8227 220.862C70.0376 220.436 70.3894 220.001 70.8066 219.573C70.7407 219.494 70.6753 219.416 70.6104 219.337C76.3035 214.55 83.4494 206.933 87.2752 201.368C87.3459 201.245 87.4161 201.123 87.4857 201H87.5253C87.5537 200.958 87.5818 200.916 87.6098 200.874C92.8749 199.648 98.3617 199 104 199H108V180.611C89.0804 171.623 76 152.339 76 130V92C76 89.5374 76.1589 87.112 76.4672 84.7334C80.4088 83.4703 84.3655 82.2777 88.3986 81.2045C92.8553 80.0189 102.798 78.0908 106.689 77.1942L109.425 74.2154L110.488 76.1702C112.646 76.0042 124.566 74.2127 124.566 74.2127L125.896 70.9899C127.613 72.7531 128.835 73.6689 128.835 73.6689C131.391 73.4605 142.488 73.2113 145.12 73.2427C145.12 73.2427 152.46 73.5012 154.241 73.5714L155.908 72.9329L156.456 74.0099C157.91 74.6011 166.699 77.6009 168.434 78.1381L170.981 77.2324C172.1 79.9256 174.92 79.586 177.257 81.7133C179.76 83.9916 184.483 85.7373 187.831 87.6181Z" fill="#361A0A"/>
<mask id="mask5_1631_3309" style="mask-type:luminance" maskUnits="userSpaceOnUse" x="25" y="16" width="215" height="263">
<path fill-rule="evenodd" clip-rule="evenodd" d="M187.831 87.6181C187.943 89.0641 188 90.5254 188 92V130C188 152.339 174.92 171.623 156 180.611V199H160C161.524 199 162.038 199.047 163.539 199.141C148.626 226.496 144.824 249.574 162.472 263.543C164.17 264.746 165.396 265.329 165.607 265.428C167.98 266.546 170.444 267.768 173.074 268.383C177.697 269.463 183.007 268.01 187.631 267.43C189.743 267.164 191.848 267.001 193.977 266.994C196.542 266.985 199.188 267.078 201.119 268.691C203.003 270.265 202.763 275.889 197.244 278.524C201.343 280.379 206.256 276.071 207.932 273.347C209.398 270.962 210.526 268.379 211.146 265.742C211.918 262.459 211.968 259.017 211.364 255.728C210.106 248.88 207.188 242.296 205.201 235.606C204.469 233.14 203.515 230.441 203.099 227.917C202.986 227.232 202.852 224.701 202.958 224.172C203.036 223.779 203.017 223.375 204.373 222.996C208.289 221.9 212.38 220.063 215.225 217.477C218.59 214.418 220.344 210.445 221.758 206.497C223.999 200.245 225.281 193.55 225.871 187.057C225.993 185.708 226.062 184.362 226.086 183.01C226.101 182.193 226.001 181.263 226.094 180.445C226.247 179.105 226.04 179.458 227.342 178.571C231.599 175.671 234.921 171.449 237.052 167.201C240.398 160.529 240.834 153.493 238.118 146.734C235.865 141.127 232.291 135.499 226.726 131.888C224.589 130.502 222.334 129.245 220.115 127.958C218.907 127.258 216.068 126.343 215.21 125.441C214.609 124.811 215.565 121.649 215.686 120.583C216.214 115.935 215.606 111.426 214.521 106.887C212.127 96.8794 202.488 80.7383 198.618 71.225C195.293 63.0528 190.482 15.925 133.587 16.1989C76.6915 16.4729 66.4186 66.4377 58.716 75.7737C50.3513 85.9121 41.9075 105.176 47.6027 123.036C42.099 129.958 29.5448 140.044 26.3853 150.126C24.4032 156.451 24.4881 163.496 27.0289 169.633C28.4662 173.104 30.5249 176.25 32.9405 179.272C35.0567 181.919 37.4085 184.424 39.4578 187.11C40.6946 188.732 41.0263 189.129 40.56 191.128C39.6406 195.068 37.7412 198.853 36.0939 202.603C33.5419 208.413 31.3975 213.822 31.08 220.016C30.7777 225.912 32.4043 242.689 49.341 252.576C51.3249 253.734 53.2831 254.743 55.3834 255.685C54.2932 252.29 55.5294 240.162 57.7264 235.654C58.2861 237.205 59.237 238.697 60.2618 240.052C61.8611 242.167 65.636 247.461 70.4086 247.707C68.4722 244.723 66.3891 242.709 65.7853 239.109C69.7616 241.069 75.4191 242.856 80.0466 242.691C83.4513 242.571 88.471 240.871 91 238.748C82.6284 240.075 74.679 237.316 71.482 231.419C70.8146 230.188 70.3085 228.899 70.0142 227.559C69.5968 225.659 68.9382 222.615 69.8227 220.862C70.0376 220.436 70.3894 220.001 70.8066 219.573C70.7407 219.494 70.6753 219.416 70.6104 219.337C76.3035 214.55 83.4494 206.933 87.2752 201.368C87.3459 201.245 87.4161 201.123 87.4857 201H87.5253C87.5537 200.958 87.5818 200.916 87.6098 200.874C92.8749 199.648 98.3617 199 104 199H108V180.611C89.0804 171.623 76 152.339 76 130V92C76 89.5374 76.1589 87.112 76.4672 84.7334C80.4088 83.4703 84.3655 82.2777 88.3986 81.2045C92.8553 80.0189 102.798 78.0908 106.689 77.1942L109.425 74.2154L110.488 76.1702C112.646 76.0042 124.566 74.2127 124.566 74.2127L125.896 70.9899C127.613 72.7531 128.835 73.6689 128.835 73.6689C131.391 73.4605 142.488 73.2113 145.12 73.2427C145.12 73.2427 152.46 73.5012 154.241 73.5714L155.908 72.9329L156.456 74.0099C157.91 74.6011 166.699 77.6009 168.434 78.1381L170.981 77.2324C172.1 79.9256 174.92 79.586 177.257 81.7133C179.76 83.9916 184.483 85.7373 187.831 87.6181Z" fill="white"/>
</mask>
<g mask="url(#mask5_1631_3309)">
<path d="M289 16H25V296H289V16Z" fill="#B58143"/>
</g>
<mask id="mask6_1631_3309" style="mask-type:luminance" maskUnits="userSpaceOnUse" x="25" y="16" width="215" height="263">
<path fill-rule="evenodd" clip-rule="evenodd" d="M187.831 87.6181C187.943 89.0641 188 90.5254 188 92V130C188 152.339 174.92 171.623 156 180.611V199H160C161.524 199 162.038 199.047 163.539 199.141C148.626 226.496 144.824 249.574 162.472 263.543C164.17 264.746 165.396 265.329 165.607 265.428C167.98 266.546 170.444 267.768 173.074 268.383C177.697 269.463 183.007 268.01 187.631 267.43C189.743 267.164 191.848 267.001 193.977 266.994C196.542 266.985 199.188 267.078 201.119 268.691C203.003 270.265 202.763 275.889 197.244 278.524C201.343 280.379 206.256 276.071 207.932 273.347C209.398 270.962 210.526 268.379 211.146 265.742C211.918 262.459 211.968 259.017 211.364 255.728C210.106 248.88 207.188 242.296 205.201 235.606C204.469 233.14 203.515 230.441 203.099 227.917C202.986 227.232 202.852 224.701 202.958 224.172C203.036 223.779 203.017 223.375 204.373 222.996C208.289 221.9 212.38 220.063 215.225 217.477C218.59 214.418 220.344 210.445 221.758 206.497C223.999 200.245 225.281 193.55 225.871 187.057C225.993 185.708 226.062 184.362 226.086 183.01C226.101 182.193 226.001 181.263 226.094 180.445C226.247 179.105 226.04 179.458 227.342 178.571C231.599 175.671 234.921 171.449 237.052 167.201C240.398 160.529 240.834 153.493 238.118 146.734C235.865 141.127 232.291 135.499 226.726 131.888C224.589 130.502 222.334 129.245 220.115 127.958C218.907 127.258 216.068 126.343 215.21 125.441C214.609 124.811 215.565 121.649 215.686 120.583C216.214 115.935 215.606 111.426 214.521 106.887C212.127 96.8794 202.488 80.7383 198.618 71.225C195.293 63.0528 190.482 15.925 133.587 16.1989C76.6915 16.4729 66.4186 66.4377 58.716 75.7737C50.3513 85.9121 41.9075 105.176 47.6027 123.036C42.099 129.958 29.5448 140.044 26.3853 150.126C24.4032 156.451 24.4881 163.496 27.0289 169.633C28.4662 173.104 30.5249 176.25 32.9405 179.272C35.0567 181.919 37.4085 184.424 39.4578 187.11C40.6946 188.732 41.0263 189.129 40.56 191.128C39.6406 195.068 37.7412 198.853 36.0939 202.603C33.5419 208.413 31.3975 213.822 31.08 220.016C30.7777 225.912 32.4043 242.689 49.341 252.576C51.3249 253.734 53.2831 254.743 55.3834 255.685C54.2932 252.29 55.5294 240.162 57.7264 235.654C58.2861 237.205 59.237 238.697 60.2618 240.052C61.8611 242.167 65.636 247.461 70.4086 247.707C68.4722 244.723 66.3891 242.709 65.7853 239.109C69.7616 241.069 75.4191 242.856 80.0466 242.691C83.4513 242.571 88.471 240.871 91 238.748C82.6284 240.075 74.679 237.316 71.482 231.419C70.8146 230.188 70.3085 228.899 70.0142 227.559C69.5968 225.659 68.9382 222.615 69.8227 220.862C70.0376 220.436 70.3894 220.001 70.8066 219.573C70.7407 219.494 70.6753 219.416 70.6104 219.337C76.3035 214.55 83.4494 206.933 87.2752 201.368C87.3459 201.245 87.4161 201.123 87.4857 201H87.5253C87.5537 200.958 87.5818 200.916 87.6098 200.874C92.8749 199.648 98.3617 199 104 199H108V180.611C89.0804 171.623 76 152.339 76 130V92C76 89.5374 76.1589 87.112 76.4672 84.7334C80.4088 83.4703 84.3655 82.2777 88.3986 81.2045C92.8553 80.0189 102.798 78.0908 106.689 77.1942L109.425 74.2154L110.488 76.1702C112.646 76.0042 124.566 74.2127 124.566 74.2127L125.896 70.9899C127.613 72.7531 128.835 73.6689 128.835 73.6689C131.391 73.4605 142.488 73.2113 145.12 73.2427C145.12 73.2427 152.46 73.5012 154.241 73.5714L155.908 72.9329L156.456 74.0099C157.91 74.6011 166.699 77.6009 168.434 78.1381L170.981 77.2324C172.1 79.9256 174.92 79.586 177.257 81.7133C179.76 83.9916 184.483 85.7373 187.831 87.6181Z" fill="white"/>
</mask>
<g mask="url(#mask6_1631_3309)">
<path fill-rule="evenodd" clip-rule="evenodd" d="M87.6796 200.462C94.7556 190.755 87.1491 163.787 81.1279 153.801C97.9651 146.138 131.214 147.554 180.874 158.048C176.079 166.9 174.124 174.804 175.006 181.757C170.469 187.333 166.72 193.127 163.76 199.142L128.889 207.747C106.853 210.4 93.1165 207.972 87.6796 200.462Z" fill="black" fill-opacity="0.24"/>
</g>
<path fill-rule="evenodd" clip-rule="evenodd" d="M78.0403 170.094C77.9811 169.893 77.8353 169.667 77.6347 169.429C77.7707 169.65 77.9073 169.871 78.0403 170.094ZM55.4095 120.375C56.2661 126.541 57.7355 132.465 59.8661 138.378C61.9276 144.099 64.2858 149.836 67.6784 155.068C70.8401 159.943 74.603 164.492 77.6347 169.429C76.8377 168.481 75.1633 167.33 74.5207 166.651C73.4643 165.535 72.475 164.385 71.5369 163.194C69.6143 160.75 67.9002 158.194 66.2434 155.61C62.9912 150.537 60.5529 145.034 58.4396 139.531C54.2901 128.723 50.1268 115.617 53.7738 104.201C53.492 104.935 54.2326 106.688 54.349 107.497C54.5525 108.911 54.7349 110.334 54.8266 111.757C55.0122 114.64 55.0108 117.506 55.4095 120.375ZM67.8552 165.041C66.4967 163.31 63.9738 161.944 62.4129 160.279C60.9976 158.77 59.9018 157.078 58.9069 155.34C56.6516 151.399 55.1696 147.375 54.6897 142.969C54.7992 143.492 55.6082 144.396 55.863 144.825C56.4766 145.859 57.0838 146.894 57.6507 147.949C58.7481 149.99 59.6638 152.1 60.773 154.136C62.8105 157.875 65.4027 161.495 67.8552 165.041ZM72.5319 183.499C73.6465 185.461 74.5722 187.465 75.1569 189.601C75.4654 190.728 75.7138 191.87 75.9272 193.014C75.9961 193.383 76.0093 194.71 76.1845 195.284C73.97 190.993 72.2797 186.449 69.642 182.342C67.038 178.288 63.6947 174.561 60.1958 171.061C56.5012 167.366 52.7855 163.879 50.8037 159.214C49.0787 155.154 48.4126 150.996 48.8138 146.658C48.816 148.569 50.5705 151.28 51.1766 153.127C52.0062 155.654 52.6654 158.232 53.9142 160.634C56.0395 164.723 59.8729 167.877 63.0791 171.322C66.6314 175.138 70.0244 179.084 72.5319 183.499ZM58.2286 174.179C59.2874 175.197 60.2163 176.283 61.0351 177.454C61.9327 178.739 62.5913 180.09 63.18 181.504C63.6869 182.721 63.9105 184.986 64.7073 186.002C62.1287 182.856 59.4738 179.885 57.6955 176.312C57.0892 175.09 56.1479 173.289 55.4529 171.817C55.6843 172.41 57.7058 173.677 58.2286 174.179ZM47.9033 180.528C50.7404 184.778 54.4506 188.609 56.8769 193.056C59.7067 198.243 60.9517 203.863 61.2027 209.596C61.3216 212.307 61.3152 215.061 60.9497 217.764C60.7539 219.212 60.4398 220.65 60.0809 222.076C59.9449 222.617 59.2405 224.002 59.1036 224.847C58.8139 214.306 60.5583 203.764 55.0766 193.943C52.481 189.292 48.4911 185.327 45.398 180.925C42.6164 176.966 39.8997 173.084 37.6846 168.851C39.0407 170.567 41.485 171.916 43.0008 173.62C44.8995 175.754 46.3487 178.2 47.9033 180.528ZM59.1036 224.847C59.071 225.051 59.0699 225.224 59.1171 225.347C59.1115 225.18 59.1082 225.013 59.1036 224.847ZM49.5603 202.494C49.5609 202.99 50.3764 204.012 50.5992 204.529C51.1207 205.738 51.5455 207.008 51.7573 208.29C52.1751 210.818 51.6268 213.43 50.6899 215.85C48.7908 220.757 45.816 225.103 42.0767 229.15C43.412 227.402 43.9437 224.561 44.8833 222.612C45.8478 220.611 46.8828 218.641 47.7334 216.601C49.6528 211.996 49.4834 207.29 49.5603 202.494ZM40.9173 221.201C41.318 220.653 41.1101 218.018 41.3221 217.329C41.714 216.056 42.392 214.827 43.1706 213.694C42.755 214.393 43.369 216.16 43.1662 217.067C42.8337 218.556 41.9961 219.999 40.9173 221.201ZM98.6076 42.7484C98.5268 42.805 98.447 42.9082 98.368 43.0446C98.448 42.946 98.5266 42.8466 98.6076 42.7484ZM83.8468 64.3317C85.2671 63.0859 86.0236 60.1411 87.0031 58.5522C88.1282 56.727 89.4212 54.9731 90.6475 53.1961C93.0794 49.6719 95.3743 46.2124 98.3679 43.0055C97.7463 43.9398 97.1948 46.7737 96.8535 47.519C95.962 49.4668 94.8987 51.3335 93.6327 53.1235C90.7722 57.168 87.7028 60.9267 83.8468 64.3317ZM83.3116 54.1218C84.0619 52.7952 85.2054 51.674 86.4916 50.7083C85.9188 51.2107 85.6606 53.2832 85.267 53.9832C84.4721 55.3953 83.3142 56.6131 82.0714 57.7546C82.7351 57.1727 82.8424 54.9517 83.3116 54.1218ZM202.505 152.128C202.499 152.18 202.485 152.282 202.465 152.439C202.463 150.913 201.784 149.237 201.704 147.669C201.592 145.479 201.906 143.354 202.787 141.277C204.526 137.176 207.79 134.07 211.951 131.639C210.806 132.313 209.684 134.852 208.949 135.907C207.847 137.493 206.668 139.094 205.736 140.758C203.793 144.226 203.23 148.375 202.505 152.128ZM200.998 130.482C200.761 131.707 200.449 132.922 200.009 134.108C199.535 135.387 198.916 136.631 198.226 137.836C197.796 138.587 196.247 140.163 196.248 140.993C196.165 136.095 197.976 131.658 201.42 127.736C201.042 128.393 201.137 129.766 200.998 130.482ZM200.197 165.72C203.853 165.203 207.302 166.981 209.618 169.271C210.856 170.495 211.955 171.9 212.683 173.404C213.23 174.535 213.229 176.387 213.963 177.324C212.166 174.905 209.887 172.951 207.638 170.86C206.075 169.405 202.951 165.679 200.197 165.72ZM199.419 176.097C199.227 176.032 197.485 175.539 197.082 175.777C197.679 175.51 198.412 175.185 199.069 175.098C203.353 174.529 208.561 178.239 209.136 181.819C208.657 180.593 206.111 179.579 204.96 178.969C203.137 178.003 201.395 176.832 199.419 176.097ZM201.228 183.908C201.97 184.09 203.547 185.084 204.275 185.073C201.346 185.144 198.703 184.818 195.884 184.159C196.036 184.2 197.643 183.703 197.695 183.696C198.91 183.524 200.052 183.621 201.228 183.908ZM189.882 197.765C194.171 197.523 199.219 198.149 203.314 199.182C205.347 199.694 207.253 200.468 209.006 201.477C210.42 202.291 212.936 203.409 213.882 204.614C210.142 198.162 202.032 194.811 193.723 196.473C192.615 196.696 190.914 197.75 189.882 197.765ZM188.923 210.198C191.611 209.233 194.584 208.304 197.506 208.169C200.277 208.042 203.351 208.459 205.915 209.342C205.033 209.102 202.923 209.674 201.996 209.779C200.699 209.926 199.4 210.078 198.1 210.197C196.506 210.342 194.898 210.423 193.299 210.419C192.159 210.417 189.979 209.879 188.923 210.198ZM178.459 227.411C178.712 231.384 181.01 234.845 184.39 237.491C187.973 240.296 192.769 241.573 195.37 245.32C196.637 247.145 197.313 249.271 197.204 251.418C197.148 252.524 196.87 253.636 196.569 254.712C196.372 255.42 195.667 256.58 195.668 257.271C195.699 253.384 195.752 248.859 193.031 245.598C190.301 242.324 185.539 241.171 182.203 238.483C178.925 235.841 176.438 232.389 175.878 228.498C175.425 225.354 175.648 219.872 178.908 217.739C178.246 218.128 178.377 220.112 178.361 220.669C178.298 222.9 178.317 225.185 178.459 227.411ZM176.006 242.673C176.402 243.193 178.575 243.824 179.214 244.183C180.67 245 182.079 245.929 183.235 247.06C185.551 249.326 187.044 252.505 187.152 255.554C187.152 254.833 185.505 253.097 185.043 252.481C184.275 251.459 183.408 250.512 182.524 249.564C180.371 247.254 178.135 245 176.006 242.673ZM228.168 153.791C229.372 154.842 230.179 156.148 230.842 157.5C232.373 160.619 232.658 164.217 231.431 167.5C231.634 166.796 231.03 165.316 230.86 164.602C230.488 163.039 229.906 161.562 229.298 160.06C228.118 157.144 227.164 154.412 225.114 151.858C225.644 152.526 227.442 153.158 228.168 153.791ZM170.509 41.9833C170.51 42.3148 171.426 43.2759 171.633 43.6374C172.15 44.5393 172.557 45.4858 172.697 46.4925C172.855 47.6337 172.661 48.7506 172.315 49.8606C172.11 50.5203 171.132 51.795 171.132 52.3895C170.972 48.8912 170.199 45.5299 170.509 41.9833ZM178.147 48.8049C178.312 50.0478 177.906 51.4492 177.183 52.5468C177.315 52.2365 176.729 50.1643 176.71 49.785C176.651 48.6119 176.779 47.4057 176.856 46.2333C176.857 46.8739 178.039 47.9959 178.147 48.8049ZM117.377 50.3733C116.142 51.8858 114.738 53.3033 113.227 54.6165C112.203 55.5061 110.243 56.5058 109.463 57.5268C112.964 51.8148 117.009 46.8878 121.765 41.8951C121.049 42.8156 120.862 44.8121 120.337 45.8886C119.563 47.4759 118.527 48.9646 117.377 50.3733ZM123.275 52.8516C123.845 52.5156 124.379 50.8592 124.813 50.3014C125.545 49.3624 126.438 48.4555 127.391 47.6728C127.186 47.8928 126.789 49.7159 126.566 50.074C125.843 51.2345 124.566 52.181 123.275 52.8516Z" fill="white" fill-opacity="0.6"/>
<path d="M101 133H98.2421C84.3147 133 76 125.336 76 112.5C76 102.127 77.817 92 99.5299 92H102.47C124.183 92 126 102.127 126 112.5C126 124.569 115.721 133 101 133ZM99.3854 98C80 98 80 104.841 80 113.502C80 120.572 83.1163 129 97.9709 129H101C113.365 129 122 122.627 122 113.502C122 104.841 122 98 102.615 98H99.3854Z" fill="#252C2F"/>
<path d="M163 133H160.242C146.315 133 138 125.336 138 112.5C138 102.127 139.817 92 161.53 92H164.47C186.183 92 188 102.127 188 112.5C188 124.569 177.721 133 163 133ZM161.385 98C142 98 142 104.841 142 113.502C142 120.572 145.119 129 159.971 129H163C175.365 129 184 122.627 184 113.502C184 104.841 184 98 164.615 98H161.385Z" fill="#252C2F"/>
<path d="M69.9545 97.7716C70.6459 97.0963 78.2095 92 99.5 92C117.351 92 121.13 93.8527 126.85 96.6519L127.269 96.8585C127.667 96.999 129.7 97.6898 132.079 97.7658C134.246 97.6728 136.1 97.0854 136.642 96.8972C143.17 93.7221 149.561 92 164.5 92C185.79 92 193.354 97.0963 194.045 97.7716C195.679 97.7716 197 99.0615 197 100.657V103.543C197 105.139 195.679 106.429 194.045 106.429C194.045 106.429 187.144 106.429 187.144 109.315C187.144 112.2 185.182 105.139 185.182 103.543V100.732C181.579 99.3534 175.128 96.7862 164.5 96.7862C152.658 96.7862 146.761 98.886 141.702 100.971L141.759 101.108L141.756 103.094L139.539 108.444L136.8 107.361C136.556 107.264 136.028 107.09 135.296 106.91C133.256 106.407 131.159 106.254 129.304 106.634C128.624 106.774 127.992 106.984 127.413 107.267L124.77 108.558L122.127 103.396L122.244 101.102L122.325 100.907C117.962 98.8739 113.939 96.7862 99.5 96.7862C88.8721 96.7862 82.4221 99.3524 78.8182 100.731V103.543C78.8182 105.139 75.8636 112.2 75.8636 109.315C75.8636 106.429 69.9545 106.429 69.9545 106.429C68.3236 106.429 67 105.139 67 103.543V100.657C67 99.0615 68.3236 97.7716 69.9545 97.7716Z" fill="#252C2F"/>
</g>
</g>
<defs>
<clipPath id="clip0_1631_3309">
<rect width="264" height="280" fill="white"/>
</clipPath>
</defs>
</svg>
