<svg width="264" height="280" viewBox="0 0 264 280" fill="none" xmlns="http://www.w3.org/2000/svg">
<g clip-path="url(#clip0_1631_3310)">
<path d="M156 180.611V199H160C199.764 199 232 231.236 232 271V280H32V271C32 231.236 64.2355 199 104 199H108V180.611C90.7626 172.422 78.3722 155.687 76.3051 135.881C70.4803 135.058 66 130.052 66 124V110C66 104.054 70.3246 99.1181 76 98.1659V92C76 61.0721 101.072 36 132 36C162.928 36 188 61.0721 188 92V98.1659C193.675 99.1181 198 104.054 198 110V124C198 130.052 193.52 135.058 187.695 135.881C185.628 155.687 173.237 172.422 156 180.611Z" fill="#D0C6AC"/>
<mask id="mask0_1631_3310" style="mask-type:luminance" maskUnits="userSpaceOnUse" x="32" y="36" width="200" height="244">
<path d="M156 180.611V199H160C199.764 199 232 231.236 232 271V280H32V271C32 231.236 64.2355 199 104 199H108V180.611C90.7626 172.422 78.3722 155.687 76.3051 135.881C70.4803 135.058 66 130.052 66 124V110C66 104.054 70.3246 99.1181 76 98.1659V92C76 61.0721 101.072 36 132 36C162.928 36 188 61.0721 188 92V98.1659C193.675 99.1181 198 104.054 198 110V124C198 130.052 193.52 135.058 187.695 135.881C185.628 155.687 173.237 172.422 156 180.611Z" fill="white"/>
</mask>
<g mask="url(#mask0_1631_3310)">
<path d="M296 36H32V316H296V36Z" fill="#FFDBB4"/>
</g>
<mask id="mask1_1631_3310" style="mask-type:luminance" maskUnits="userSpaceOnUse" x="32" y="36" width="200" height="244">
<path d="M156 180.611V199H160C199.764 199 232 231.236 232 271V280H32V271C32 231.236 64.2355 199 104 199H108V180.611C90.7626 172.422 78.3722 155.687 76.3051 135.881C70.4803 135.058 66 130.052 66 124V110C66 104.054 70.3246 99.1181 76 98.1659V92C76 61.0721 101.072 36 132 36C162.928 36 188 61.0721 188 92V98.1659C193.675 99.1181 198 104.054 198 110V124C198 130.052 193.52 135.058 187.695 135.881C185.628 155.687 173.237 172.422 156 180.611Z" fill="white"/>
</mask>
<g mask="url(#mask1_1631_3310)">
<path fill-rule="evenodd" clip-rule="evenodd" d="M188 115V138C188 168.928 162.928 194 132 194C101.072 194 76 168.928 76 138V115V130C76 160.928 101.072 186 132 186C162.928 186 188 160.928 188 130V115Z" fill="black" fill-opacity="0.1"/>
</g>
<path fill-rule="evenodd" clip-rule="evenodd" d="M165.624 199.268C202.76 202.137 232 233.18 232 271.052V280H32V271.052C32 232.835 61.7752 201.572 99.3929 199.197C99.1342 200.274 99 201.377 99 202.5C99 214.374 113.998 224 132.5 224C151.002 224 166 214.374 166 202.5C166 201.402 165.872 200.322 165.624 199.268L165.624 199.268Z" fill="#E6E6E6"/>
<mask id="mask2_1631_3310" style="mask-type:luminance" maskUnits="userSpaceOnUse" x="32" y="199" width="200" height="81">
<path fill-rule="evenodd" clip-rule="evenodd" d="M165.624 199.268C202.76 202.137 232 233.18 232 271.052V280H32V271.052C32 232.835 61.7752 201.572 99.3929 199.197C99.1342 200.274 99 201.377 99 202.5C99 214.374 113.998 224 132.5 224C151.002 224 166 214.374 166 202.5C166 201.402 165.872 200.322 165.624 199.268L165.624 199.268Z" fill="white"/>
</mask>
<g mask="url(#mask2_1631_3310)">
<path d="M264 170H0V280H264V170Z" fill="#FF488E"/>
</g>
<mask id="mask3_1631_3310" style="mask-type:luminance" maskUnits="userSpaceOnUse" x="32" y="199" width="200" height="81">
<path fill-rule="evenodd" clip-rule="evenodd" d="M165.624 199.268C202.76 202.137 232 233.18 232 271.052V280H32V271.052C32 232.835 61.7752 201.572 99.3929 199.197C99.1342 200.274 99 201.377 99 202.5C99 214.374 113.998 224 132.5 224C151.002 224 166 214.374 166 202.5C166 201.402 165.872 200.322 165.624 199.268L165.624 199.268Z" fill="white"/>
</mask>
<g mask="url(#mask3_1631_3310)">
<path fill-rule="evenodd" clip-rule="evenodd" d="M140.78 257.737C138.391 260.393 135.923 262.98 133.445 265.557C134.43 262.004 135.185 257.979 136.649 254.599C137.066 253.637 136.749 253.515 137.576 253.106C138.185 252.805 139.654 253.149 140.383 253.168C141.94 253.207 143.534 253.36 145.079 253.119C143.628 254.644 142.187 256.171 140.78 257.737ZM125.516 261.798C122.817 258.516 120.132 255.23 116.858 252.481C118.147 252.618 119.554 252.438 120.816 252.687C122.76 253.071 122.653 253.678 123.636 255.646C125.087 258.552 126.525 261.435 127.686 264.469C126.975 263.569 126.245 262.684 125.516 261.798ZM116.418 249.267C117.381 247.692 117.562 246.295 119.337 245.487C121.399 244.548 124.638 244.745 126.826 244.571C125.455 246.094 123.789 247.674 123.222 249.693C122.348 247.975 121.26 246.519 119.552 245.522C119.337 245.416 120.71 250.073 120.89 250.393C119.174 250.297 117.368 249.985 115.665 250.301C115.916 249.956 116.167 249.611 116.418 249.267ZM132.824 244.259C134.415 244.295 135.994 244.418 137.564 244.678C136.297 246.353 135.915 248.31 135.465 250.309C134.987 248.051 133.256 245.947 131.731 244.261C132.095 244.26 132.46 244.26 132.824 244.259ZM129.326 245.333C129.56 245.175 133.783 250.419 134.392 250.889C131.08 250.881 127.774 250.719 124.466 250.574C126.373 249.087 127.489 246.886 129.326 245.333ZM132.012 262.429C131.611 263.778 131.235 265.137 130.798 266.476C129.243 261.744 126.936 257.288 124.79 252.802C128.13 252.89 131.466 253.011 134.806 253.058C133.986 256.216 132.944 259.303 132.012 262.429ZM139.242 244.966C140.519 246.094 142.339 248.406 142.928 249.183C142.987 249.26 143.046 249.337 143.107 249.412C143.318 249.674 144.073 250.668 144.37 251.057C142.143 250.831 139.825 250.927 137.59 250.907C138.088 248.853 138.694 246.895 138.174 244.779C138.531 244.836 138.887 244.899 139.242 244.966ZM146.89 250.583C144.732 247.907 142.52 243.325 139.026 242.506C135.554 241.692 131.478 242.052 127.952 242.275C124.877 242.47 119.869 242.072 117.157 243.869C115.764 244.792 114.732 246.874 114.249 248.42C113.815 249.813 114.515 250.705 113.003 250.705C112.907 250.705 115.507 254.378 115.813 254.667C118.085 256.806 120.257 258.869 122.27 261.264C125.105 264.638 127.675 269.602 131.415 271C130.729 270.661 134.207 268.033 134.624 267.581C136.736 265.293 138.871 263.027 140.997 260.752C142.935 258.678 145.047 256.721 146.927 254.6C148.362 252.982 148.366 252.426 146.89 250.583Z" fill="white"/>
<path fill-rule="evenodd" clip-rule="evenodd" d="M112.999 242C113.042 242.014 112.09 239.955 112.174 240.081C111.699 239.362 111.128 238.84 110.436 238.354C109.708 237.843 106.127 237.254 106 237C107.494 239.652 110.167 241.128 112.999 242Z" fill="white"/>
<path fill-rule="evenodd" clip-rule="evenodd" d="M128.355 237.196C128.528 237.848 128.793 238.449 129.149 238.999C129.219 239.077 130.008 234.815 130 234.452C129.987 233.832 129.612 230 128.814 230C127.477 230 128.14 236.469 128.355 237.196Z" fill="white"/>
<path fill-rule="evenodd" clip-rule="evenodd" d="M154.969 235C151.978 235 145.29 240.854 146.062 244C146.067 244.01 146.509 243.65 146.413 243.717C146.432 243.703 146.451 243.689 146.469 243.674C147.741 242.649 149.187 241.654 150.461 240.468C151.372 239.619 152.448 238.856 153.277 237.927C153.362 237.833 155.263 235 154.969 235Z" fill="white"/>
</g>
<path fill-rule="evenodd" clip-rule="evenodd" d="M107 149.609C108.41 159.231 119.062 167 132 167C144.968 167 155.646 159.183 157 148.739C157.101 148.34 156.775 147 154.826 147C134.838 147 119.739 147 109.173 147C107.383 147 106.87 148.24 107 149.609Z" fill="black" fill-opacity="0.7"/>
<mask id="mask4_1631_3310" style="mask-type:luminance" maskUnits="userSpaceOnUse" x="106" y="147" width="52" height="20">
<path fill-rule="evenodd" clip-rule="evenodd" d="M107 149.609C108.41 159.231 119.062 167 132 167C144.968 167 155.646 159.183 157 148.739C157.101 148.34 156.775 147 154.826 147C134.838 147 119.739 147 109.173 147C107.383 147 106.87 148.24 107 149.609Z" fill="white"/>
</mask>
<g mask="url(#mask4_1631_3310)">
<path d="M143 136H122C119.239 136 117 138.239 117 141V147C117 149.761 119.239 152 122 152H143C145.761 152 148 149.761 148 147V141C148 138.239 145.761 136 143 136Z" fill="white"/>
</g>
<path fill-rule="evenodd" clip-rule="evenodd" d="M143.984 157.747C143.995 157.83 144 157.914 144 158V167C144 173.075 139.075 178 133 178H132C125.925 178 121 173.075 121 167V158C121 157.914 121.005 157.83 121.016 157.747C121.005 157.665 121 157.583 121 157.5C121 155.567 123.91 154 127.5 154C129.51 154 131.308 154.491 132.5 155.263C133.692 154.491 135.49 154 137.5 154C141.09 154 144 155.567 144 157.5C144 157.583 143.995 157.665 143.984 157.747Z" fill="#FF4F6D"/>
<path fill-rule="evenodd" clip-rule="evenodd" d="M120 130C120 134.418 125.373 138 132 138C138.627 138 144 134.418 144 130" fill="black" fill-opacity="0.16"/>
<path fill-rule="evenodd" clip-rule="evenodd" d="M103.241 110.346C102.463 111.357 102 112.625 102 114C102 117.314 104.686 120 108 120C111.314 120 114 117.314 114 114C114 113.71 113.979 113.424 113.94 113.145C113.947 112.923 113.91 112.671 113.815 112.407C113.77 112.281 113.722 112.157 113.671 112.035C113.337 111.072 112.765 110.22 112.025 109.551C109.899 107.317 106.506 106 102.998 106C98.1644 106 94.0067 108.649 92.1602 112.447C91.6201 113.558 92.5468 114.3 93.4375 113.572C95.8738 111.579 99.2572 110.344 102.998 110.344C103.079 110.344 103.16 110.344 103.241 110.346Z" fill="black" fill-opacity="0.6"/>
<path fill-rule="evenodd" clip-rule="evenodd" d="M161.241 110.346C160.463 111.357 160 112.625 160 114C160 117.314 162.686 120 166 120C169.314 120 172 117.314 172 114C172 113.71 171.979 113.424 171.94 113.145C171.947 112.923 171.91 112.671 171.815 112.407C171.77 112.281 171.722 112.157 171.671 112.035C171.337 111.072 170.765 110.22 170.025 109.551C167.899 107.317 164.506 106 160.998 106C156.164 106 152.007 108.649 150.16 112.447C149.62 113.558 150.547 114.3 151.438 113.572C153.874 111.579 157.257 110.344 160.998 110.344C161.079 110.344 161.16 110.344 161.241 110.346Z" fill="black" fill-opacity="0.6"/>
<path d="M91.5913 96.162C96.0874 89.8356 105.603 86.6535 115.347 89.7958C116.399 90.1348 117.526 89.5574 117.865 88.5061C118.204 87.4548 117.626 86.3278 116.575 85.9888C105.166 82.3099 93.8357 86.0989 88.3309 93.8448C87.691 94.7452 87.9022 95.9938 88.8025 96.6336C89.7029 97.2735 90.9515 97.0623 91.5913 96.162Z" fill="black" fill-opacity="0.6"/>
<path d="M172.377 103.158C168.462 97.6491 157.73 94.5601 148.485 96.8305C147.412 97.0939 146.329 96.4378 146.065 95.3651C145.802 94.2924 146.458 93.2093 147.531 92.9459C158.267 90.3093 170.696 93.8863 175.638 100.841C176.278 101.741 176.067 102.99 175.166 103.63C174.266 104.269 173.017 104.058 172.377 103.158Z" fill="black" fill-opacity="0.6"/>
<mask id="mask5_1631_3310" style="mask-type:luminance" maskUnits="userSpaceOnUse" x="0" y="0" width="264" height="280">
<path d="M264 0H0V280H264V0Z" fill="white"/>
</mask>
<g mask="url(#mask5_1631_3310)">
<path fill-rule="evenodd" clip-rule="evenodd" d="M68.0331 76.2129C80.9709 43.1292 94.6459 26.5874 109.058 26.5874C109.597 26.5874 138.311 26.3494 157.113 26.2268C177.767 35.5854 192 55.3037 192 78.1146V93H109.058L106.253 69.8204L102.374 93H68V78.1146C68 77.4783 68.0111 76.8443 68.0331 76.2129Z" fill="black" fill-opacity="0.16"/>
<path fill-rule="evenodd" clip-rule="evenodd" d="M187.86 88C187.953 89.3212 188 90.655 188 92V130C188 152.339 174.92 171.623 156 180.611V189.317C174.146 190.816 191.721 193.335 202 196C211.953 182.439 224.885 169.8 225 145C225.085 126.015 197.324 49.4276 185 34C176.862 23.8121 156.305 20.4493 132 20C107.695 19.5506 87.9233 25.5087 80.0002 35C69.3191 47.795 38.9152 126.015 39.0002 145C39.1158 169.8 52.0477 182.439 62.0002 196C72.2792 193.335 89.8547 190.816 108 189.317V180.611C89.0806 171.623 76.0002 152.339 76.0002 130V92C76.0002 90.655 76.0476 89.3212 76.1408 88H104.374L108.253 66.5561L111.058 88H187.86Z" fill="#E6E6E6"/>
<mask id="mask6_1631_3310" style="mask-type:luminance" maskUnits="userSpaceOnUse" x="39" y="19" width="187" height="177">
<path fill-rule="evenodd" clip-rule="evenodd" d="M187.86 88C187.953 89.3212 188 90.655 188 92V130C188 152.339 174.92 171.623 156 180.611V189.317C174.146 190.816 191.721 193.335 202 196C211.953 182.439 224.885 169.8 225 145C225.085 126.015 197.324 49.4276 185 34C176.862 23.8121 156.305 20.4493 132 20C107.695 19.5506 87.9233 25.5087 80.0002 35C69.3191 47.795 38.9152 126.015 39.0002 145C39.1158 169.8 52.0477 182.439 62.0002 196C72.2792 193.335 89.8547 190.816 108 189.317V180.611C89.0806 171.623 76.0002 152.339 76.0002 130V92C76.0002 90.655 76.0476 89.3212 76.1408 88H104.374L108.253 66.5561L111.058 88H187.86Z" fill="white"/>
</mask>
<g mask="url(#mask6_1631_3310)">
<path d="M303 19H39V299H303V19Z" fill="#2C1B18"/>
</g>
</g>
</g>
<defs>
<clipPath id="clip0_1631_3310">
<rect width="264" height="280" fill="white"/>
</clipPath>
</defs>
</svg>
