<svg width="264" height="280" viewBox="0 0 264 280" fill="none" xmlns="http://www.w3.org/2000/svg">
<g clip-path="url(#clip0_1631_3308)">
<path d="M156 180.611V199H160C199.764 199 232 231.236 232 271V280H32V271C32 231.236 64.2355 199 104 199H108V180.611C90.7626 172.422 78.3722 155.687 76.3051 135.881C70.4803 135.058 66 130.052 66 124V110C66 104.054 70.3246 99.1181 76 98.1659V92C76 61.0721 101.072 36 132 36C162.928 36 188 61.0721 188 92V98.1659C193.675 99.1181 198 104.054 198 110V124C198 130.052 193.52 135.058 187.695 135.881C185.628 155.687 173.237 172.422 156 180.611Z" fill="#D0C6AC"/>
<mask id="mask0_1631_3308" style="mask-type:luminance" maskUnits="userSpaceOnUse" x="32" y="36" width="200" height="244">
<path d="M156 180.611V199H160C199.764 199 232 231.236 232 271V280H32V271C32 231.236 64.2355 199 104 199H108V180.611C90.7626 172.422 78.3722 155.687 76.3051 135.881C70.4803 135.058 66 130.052 66 124V110C66 104.054 70.3246 99.1181 76 98.1659V92C76 61.0721 101.072 36 132 36C162.928 36 188 61.0721 188 92V98.1659C193.675 99.1181 198 104.054 198 110V124C198 130.052 193.52 135.058 187.695 135.881C185.628 155.687 173.237 172.422 156 180.611Z" fill="white"/>
</mask>
<g mask="url(#mask0_1631_3308)">
<path d="M296 36H32V316H296V36Z" fill="#A36B47"/>
</g>
<mask id="mask1_1631_3308" style="mask-type:luminance" maskUnits="userSpaceOnUse" x="32" y="36" width="200" height="244">
<path d="M156 180.611V199H160C199.764 199 232 231.236 232 271V280H32V271C32 231.236 64.2355 199 104 199H108V180.611C90.7626 172.422 78.3722 155.687 76.3051 135.881C70.4803 135.058 66 130.052 66 124V110C66 104.054 70.3246 99.1181 76 98.1659V92C76 61.0721 101.072 36 132 36C162.928 36 188 61.0721 188 92V98.1659C193.675 99.1181 198 104.054 198 110V124C198 130.052 193.52 135.058 187.695 135.881C185.628 155.687 173.237 172.422 156 180.611Z" fill="white"/>
</mask>
<g mask="url(#mask1_1631_3308)">
<path fill-rule="evenodd" clip-rule="evenodd" d="M188 115V138C188 168.928 162.928 194 132 194C101.072 194 76 168.928 76 138V115V130C76 160.928 101.072 186 132 186C162.928 186 188 160.928 188 130V115Z" fill="black" fill-opacity="0.1"/>
</g>
<path fill-rule="evenodd" clip-rule="evenodd" d="M165.624 199.268C202.76 202.137 232 233.18 232 271.052V280H32V271.052C32 232.835 61.7752 201.572 99.3929 199.197C99.1342 200.274 99 201.377 99 202.5C99 214.374 113.998 224 132.5 224C151.002 224 166 214.374 166 202.5C166 201.402 165.872 200.322 165.624 199.268L165.624 199.268Z" fill="#E6E6E6"/>
<mask id="mask2_1631_3308" style="mask-type:luminance" maskUnits="userSpaceOnUse" x="32" y="199" width="200" height="81">
<path fill-rule="evenodd" clip-rule="evenodd" d="M165.624 199.268C202.76 202.137 232 233.18 232 271.052V280H32V271.052C32 232.835 61.7752 201.572 99.3929 199.197C99.1342 200.274 99 201.377 99 202.5C99 214.374 113.998 224 132.5 224C151.002 224 166 214.374 166 202.5C166 201.402 165.872 200.322 165.624 199.268L165.624 199.268Z" fill="white"/>
</mask>
<g mask="url(#mask2_1631_3308)">
<path d="M264 170H0V280H264V170Z" fill="#262E33"/>
</g>
<mask id="mask3_1631_3308" style="mask-type:luminance" maskUnits="userSpaceOnUse" x="32" y="199" width="200" height="81">
<path fill-rule="evenodd" clip-rule="evenodd" d="M165.624 199.268C202.76 202.137 232 233.18 232 271.052V280H32V271.052C32 232.835 61.7752 201.572 99.3929 199.197C99.1342 200.274 99 201.377 99 202.5C99 214.374 113.998 224 132.5 224C151.002 224 166 214.374 166 202.5C166 201.402 165.872 200.322 165.624 199.268L165.624 199.268Z" fill="white"/>
</mask>
<g mask="url(#mask3_1631_3308)">
<path fill-rule="evenodd" clip-rule="evenodd" d="M142.282 247.929C141.984 250.706 136.589 252.203 134.61 250.377C133.698 249.535 133.683 247.803 133.482 246.675C133.101 244.542 132.826 242.417 132.731 240.252C132.673 238.927 132.325 237.867 133.775 237.67C134.658 237.551 135.568 238.138 136.29 238.603C138.737 240.176 142.62 244.741 142.282 247.929ZM129.881 242.076C130.166 244.901 131.201 249.815 128.946 252.181C126.93 254.296 122.786 252.199 122.163 249.708C121.39 246.619 124.438 242.927 126.308 240.839C126.882 240.197 128.152 238.426 129.144 239.019C129.526 239.246 129.837 241.63 129.881 242.076ZM131.321 253.106C131.968 251.583 138.234 256.125 135.274 258.285C134.792 258.638 131.115 259.751 130.41 259.227C128.925 258.124 130.841 254.263 131.321 253.106ZM150.325 245.527C149.882 230.051 130.065 225.687 119.476 234.504C115.427 237.876 113.113 242.004 113.007 247.283C112.917 251.754 113.626 255.972 117.041 259.047C118.522 260.38 119.5 261.196 120.286 263.017C121.11 264.923 121.485 267.352 123.028 268.85C123.879 269.675 125.118 270.342 126.294 269.809C128.456 268.83 127.764 265.832 128.419 264.161C130.456 269.129 135.63 270.714 136.569 264.41C137.6 266.229 140.295 268.61 142.268 266.62C143.081 265.8 143.203 264.471 143.341 263.393C143.586 261.481 143.16 260.729 144.696 259.418C148.735 255.968 150.469 250.746 150.325 245.527Z" fill="white"/>
</g>
<path d="M141 152H123C121.343 152 120 153.343 120 155C120 156.657 121.343 158 123 158H141C142.657 158 144 156.657 144 155C144 153.343 142.657 152 141 152Z" fill="black" fill-opacity="0.7"/>
<path fill-rule="evenodd" clip-rule="evenodd" d="M120 130C120 134.418 125.373 138 132 138C138.627 138 144 134.418 144 130" fill="black" fill-opacity="0.16"/>
<path fill-rule="evenodd" clip-rule="evenodd" d="M92.1602 117.553C94.0067 121.351 98.1644 124 102.998 124C107.814 124 111.959 121.37 113.815 117.593C114.367 116.471 113.582 115.553 112.791 116.233C110.34 118.34 106.859 119.656 102.998 119.656C99.2572 119.656 95.8738 118.421 93.4375 116.428C92.5468 115.7 91.6201 116.442 92.1602 117.553Z" fill="black" fill-opacity="0.6"/>
<path fill-rule="evenodd" clip-rule="evenodd" d="M150.16 117.553C152.007 121.351 156.164 124 160.998 124C165.814 124 169.959 121.37 171.815 117.593C172.367 116.471 171.582 115.553 170.791 116.233C168.34 118.34 164.859 119.656 160.998 119.656C157.257 119.656 153.874 118.421 151.438 116.428C150.547 115.7 149.62 116.442 150.16 117.553Z" fill="black" fill-opacity="0.6"/>
<path fill-rule="evenodd" clip-rule="evenodd" d="M98.7664 83.5784L99.6773 83.1758C104.919 81.0947 112.865 81.9671 117.723 84.2991C118.29 84.5715 117.902 85.4519 117.321 85.4071C102.402 84.256 92.3583 93.5526 88.9461 99.8471C88.8449 100.034 88.5392 100.055 88.4635 99.8808C86.1563 94.5621 92.9134 85.8961 98.7664 83.5784Z" fill="black" fill-opacity="0.6"/>
<path fill-rule="evenodd" clip-rule="evenodd" d="M162.992 94.0698C168.754 94.8431 177.739 99.8649 176.987 105.677C176.963 105.868 176.675 105.927 176.551 105.768C174.064 102.58 154.839 97.8962 147.837 98.8744C147.197 98.9641 146.773 98.3027 147.211 97.8899C150.955 94.3545 157.831 93.3719 162.992 94.0698Z" fill="black" fill-opacity="0.6"/>
<mask id="mask4_1631_3308" style="mask-type:luminance" maskUnits="userSpaceOnUse" x="0" y="0" width="264" height="280">
<path d="M264 0H0V280H264V0Z" fill="white"/>
</mask>
<g mask="url(#mask4_1631_3308)">
<path fill-rule="evenodd" clip-rule="evenodd" d="M149.428 170.169C146.915 172.463 144.237 173.494 140.853 172.773C140.271 172.649 137.896 168.235 132 168.235C126.103 168.235 123.729 172.649 123.147 172.773C119.762 173.494 117.085 172.463 114.571 170.169C109.846 165.856 105.917 159.908 108.278 153.419C109.508 150.037 111.51 146.324 115.151 145.246C119.038 144.096 124.497 145.244 128.415 144.458C129.684 144.204 131.071 143.751 132 143C132.929 143.751 134.316 144.204 135.585 144.458C139.503 145.244 144.961 144.096 148.849 145.246C152.49 146.324 154.491 150.037 155.722 153.419C158.083 159.908 154.154 165.856 149.428 170.169ZM188.081 98C184.671 106.4 185.988 116.858 185.357 125.676C184.844 132.843 183.337 143.586 176.973 148.215C173.718 150.582 167.794 154.56 163.542 153.45C160.615 152.686 160.302 144.29 156.455 141.147C152.092 137.582 146.643 136.016 141.149 136.258C138.779 136.362 133.984 136.337 132 138.16C130.016 136.337 125.222 136.362 122.851 136.258C117.357 136.016 111.908 137.582 107.545 141.147C103.698 144.29 103.386 152.686 100.458 153.45C96.2058 154.56 90.2818 150.582 87.027 148.215C80.6624 143.586 79.1562 132.843 78.6429 125.676C78.0121 116.858 79.3292 106.4 75.9188 98C74.2598 98 75.354 114.129 75.354 114.129V134.485C75.3857 149.773 84.9351 172.655 106.108 181.393C111.286 183.53 123.015 187 132 187C140.985 187 152.714 183.86 157.892 181.723C179.065 172.986 188.614 149.773 188.646 134.485V114.129C188.646 114.129 189.74 98 188.081 98Z" fill="#331B0C"/>
<mask id="mask5_1631_3308" style="mask-type:luminance" maskUnits="userSpaceOnUse" x="75" y="98" width="114" height="89">
<path fill-rule="evenodd" clip-rule="evenodd" d="M149.428 170.169C146.915 172.463 144.237 173.494 140.853 172.773C140.271 172.649 137.896 168.235 132 168.235C126.103 168.235 123.729 172.649 123.147 172.773C119.762 173.494 117.085 172.463 114.571 170.169C109.846 165.856 105.917 159.908 108.278 153.419C109.508 150.037 111.51 146.324 115.151 145.246C119.038 144.096 124.497 145.244 128.415 144.458C129.684 144.204 131.071 143.751 132 143C132.929 143.751 134.316 144.204 135.585 144.458C139.503 145.244 144.961 144.096 148.849 145.246C152.49 146.324 154.491 150.037 155.722 153.419C158.083 159.908 154.154 165.856 149.428 170.169ZM188.081 98C184.671 106.4 185.988 116.858 185.357 125.676C184.844 132.843 183.337 143.586 176.973 148.215C173.718 150.582 167.794 154.56 163.542 153.45C160.615 152.686 160.302 144.29 156.455 141.147C152.092 137.582 146.643 136.016 141.149 136.258C138.779 136.362 133.984 136.337 132 138.16C130.016 136.337 125.222 136.362 122.851 136.258C117.357 136.016 111.908 137.582 107.545 141.147C103.698 144.29 103.386 152.686 100.458 153.45C96.2058 154.56 90.2818 150.582 87.027 148.215C80.6624 143.586 79.1562 132.843 78.6429 125.676C78.0121 116.858 79.3292 106.4 75.9188 98C74.2598 98 75.354 114.129 75.354 114.129V134.485C75.3857 149.773 84.9351 172.655 106.108 181.393C111.286 183.53 123.015 187 132 187C140.985 187 152.714 183.86 157.892 181.723C179.065 172.986 188.614 149.773 188.646 134.485V114.129C188.646 114.129 189.74 98 188.081 98Z" fill="white"/>
</mask>
<g mask="url(#mask5_1631_3308)">
<path d="M280 72H16V316H280V72Z" fill="#332B29"/>
</g>
<path fill-rule="evenodd" clip-rule="evenodd" d="M100.718 199.073C101.806 199.025 102.9 199 104 199H108V180.611C96.2288 175.019 86.7178 165.441 81.2113 153.622C78.447 145.014 78.6116 135.687 78.0009 126.826C77.1959 115.146 77.8889 103.748 80.5371 92.2476C82.9265 81.8722 86.3612 76.3068 94.1633 67.9925C98.5226 63.3467 105.068 63.0779 111.583 61.4293C118.176 59.7598 124.194 57.2191 128.318 52.4387C137.401 62.8499 161.672 59.103 170.555 70.4494C181.356 84.2471 181.477 93.1499 182.748 109.092C183.7 121.043 182.219 142.656 181.804 155.63C176.186 166.525 167.097 175.339 156 180.611V199H160C166.636 199 173.062 199.898 179.163 201.578C177.113 204.752 174.669 207.757 172.112 210.551C168.281 214.739 164.431 219.07 160.112 222.918C155.171 227.319 150.444 230.515 147.444 236C146.086 238.483 143.707 241.094 146.225 243.817C148.524 246.304 152.149 245.792 154.61 243.992C158.247 241.332 160.948 237.134 164.3 234.077C161.062 239.892 156.558 248.561 158.871 255.082C159.657 257.299 160.456 257.255 161.672 258.733C163.592 258.776 164.35 259.644 163.949 261.338C164.129 261.822 164.308 262.305 164.489 262.789C165.945 265.383 168.731 267.2 172.269 265.977C183.829 261.983 170.494 244.016 183.221 238.675C185.499 241.504 182.135 249.454 182.044 252.931C181.933 257.218 182.166 266.944 188.686 268.11C197.182 269.63 193.905 261.513 194.241 258.06C194.63 254.044 197.101 248.748 199.112 245.191C197.889 248.97 195.603 257.345 201.928 259.061C209.245 261.047 208.409 252.475 209.52 248.91C209.749 254.186 216.565 266.66 222.725 256.807C225.899 251.731 223.734 243.366 223.386 237.953C227.799 242.513 231.326 236.602 231.224 233.323C232.902 238.075 239.207 251.325 244.795 240.808C248.193 234.413 244.569 225.823 242.312 219.648C248.256 220.168 247.062 214.412 246.176 211.553C244.87 207.331 245.567 206.712 245.836 202.347C254.086 207.152 253.833 194.113 253.378 190.915C252.233 182.864 245.969 175.654 241.135 168.863C237.669 163.992 231.2 155.511 233.097 149.637C235.054 152.105 239.604 152.079 241.413 149.495C242.945 147.307 241.322 143.699 240.583 141.513C238.562 135.533 234.523 131.669 230.872 126.532C223.764 116.531 224.787 103.399 224.129 92.2191C223.31 78.2704 220.315 64.5388 207.649 54.3918C200.862 48.9555 192.591 44.4783 186.279 38.7101C184.557 37.1372 183.83 35.1885 182.214 33.6722C180.4 31.9706 179.553 32.3736 178.055 29.9512C175.387 25.6367 172.253 21.597 165.804 21.3943C161.585 21.2624 156.249 24.8231 152.447 24.3027C149.324 23.8761 147.352 19.4243 144.79 17.9303C140.824 15.6176 138.057 16.5156 133.818 17.855C127.509 19.8486 123.488 20.5435 117.063 18.1606C112.691 16.5387 108.565 13.1535 103.402 14.357C99.3526 15.3016 97.5437 18.5699 95.1586 21.0748C92.6974 23.6608 93.8867 22.8059 90.2889 23.3802C86.6085 23.9681 83.7022 24.5017 80.9105 26.9118C76.398 30.8074 79.5239 36.8666 75.9571 40.3007C74.0319 42.1547 70.0221 43.0377 67.7925 44.9547C65.3585 47.0471 63.368 49.5901 61.5444 52.0655C57.9928 56.8881 55.568 62.1436 52.9644 67.346C48.1209 77.0274 43.8029 87.0171 41.9624 97.4184C41.0172 102.764 39.4241 107.995 38.4506 113.33C37.6999 117.445 38.0201 121.951 36.5541 125.947C34.8147 130.686 30.6555 135.043 28.4025 139.704C25.4146 145.887 23.4078 151.819 22.7724 158.475C22.1484 165.019 23.885 170.786 24.6509 177.202C25.0944 180.919 24.3275 181.341 21.7712 184.849C19.8041 187.549 17.8114 190.222 16.5466 193.227C14.1848 198.842 14.3158 204.304 18.4251 209.24C21.245 212.628 30.724 216.173 29.9478 208.622C29.5874 205.114 25.1765 203.527 26.019 199.503C26.6022 196.715 29.4434 194.787 32.8922 193.925C35.3284 193.317 36.528 193.343 37.6271 196.015C38.6234 198.436 37.3026 203.721 36.9966 206.266C36.8737 207.288 36.6922 208.185 36.5688 209.131C35.7007 215.806 35.5409 221.947 31.8872 228.076C29.6429 231.842 25.2515 237.149 30.2587 240.779C34.2179 243.649 41.0493 241.9 44.1361 238.896C47.3925 242.924 46.6685 247.32 45.4504 251.765C44.6943 254.526 42.6266 258.568 45.8814 260.799C50.2891 263.82 57.484 259.061 60.7888 256.66C62.6994 260.927 64.492 276.486 72.0246 267.211C74.2227 264.506 77.8818 261.867 78.5787 258.677C79.7348 253.387 78.9048 247.819 79.3837 242.475C81.7873 249.472 83.4213 252.262 84.8927 259.445C85.7776 263.766 86.1244 278.264 95.0669 276.355C101.948 274.886 97.5471 265.831 96.6682 262.14C94.9848 255.071 94.1726 252.077 92.5457 245C95.0787 249.625 97.292 254.371 99.7255 259.034C102.116 263.614 112.804 273.061 115.931 269.084C119.058 265.106 111.435 259.439 109.701 254.624C106.093 244.6 101.72 234.618 100.684 224.116C100.185 219.067 101.12 214.404 101.53 209.413C101.81 206.004 101.389 202.511 100.718 199.073Z" fill="#8D5A5A"/>
<mask id="mask6_1631_3308" style="mask-type:luminance" maskUnits="userSpaceOnUse" x="15" y="14" width="239" height="263">
<path fill-rule="evenodd" clip-rule="evenodd" d="M100.718 199.073C101.806 199.025 102.9 199 104 199H108V180.611C96.2288 175.019 86.7178 165.441 81.2113 153.622C78.447 145.014 78.6116 135.687 78.0009 126.826C77.1959 115.146 77.8889 103.748 80.5371 92.2476C82.9265 81.8722 86.3612 76.3068 94.1633 67.9925C98.5226 63.3467 105.068 63.0779 111.583 61.4293C118.176 59.7598 124.194 57.2191 128.318 52.4387C137.401 62.8499 161.672 59.103 170.555 70.4494C181.356 84.2471 181.477 93.1499 182.748 109.092C183.7 121.043 182.219 142.656 181.804 155.63C176.186 166.525 167.097 175.339 156 180.611V199H160C166.636 199 173.062 199.898 179.163 201.578C177.113 204.752 174.669 207.757 172.112 210.551C168.281 214.739 164.431 219.07 160.112 222.918C155.171 227.319 150.444 230.515 147.444 236C146.086 238.483 143.707 241.094 146.225 243.817C148.524 246.304 152.149 245.792 154.61 243.992C158.247 241.332 160.948 237.134 164.3 234.077C161.062 239.892 156.558 248.561 158.871 255.082C159.657 257.299 160.456 257.255 161.672 258.733C163.592 258.776 164.35 259.644 163.949 261.338C164.129 261.822 164.308 262.305 164.489 262.789C165.945 265.383 168.731 267.2 172.269 265.977C183.829 261.983 170.494 244.016 183.221 238.675C185.499 241.504 182.135 249.454 182.044 252.931C181.933 257.218 182.166 266.944 188.686 268.11C197.182 269.63 193.905 261.513 194.241 258.06C194.63 254.044 197.101 248.748 199.112 245.191C197.889 248.97 195.603 257.345 201.928 259.061C209.245 261.047 208.409 252.475 209.52 248.91C209.749 254.186 216.565 266.66 222.725 256.807C225.899 251.731 223.734 243.366 223.386 237.953C227.799 242.513 231.326 236.602 231.224 233.323C232.902 238.075 239.207 251.325 244.795 240.808C248.193 234.413 244.569 225.823 242.312 219.648C248.256 220.168 247.062 214.412 246.176 211.553C244.87 207.331 245.567 206.712 245.836 202.347C254.086 207.152 253.833 194.113 253.378 190.915C252.233 182.864 245.969 175.654 241.135 168.863C237.669 163.992 231.2 155.511 233.097 149.637C235.054 152.105 239.604 152.079 241.413 149.495C242.945 147.307 241.322 143.699 240.583 141.513C238.562 135.533 234.523 131.669 230.872 126.532C223.764 116.531 224.787 103.399 224.129 92.2191C223.31 78.2704 220.315 64.5388 207.649 54.3918C200.862 48.9555 192.591 44.4783 186.279 38.7101C184.557 37.1372 183.83 35.1885 182.214 33.6722C180.4 31.9706 179.553 32.3736 178.055 29.9512C175.387 25.6367 172.253 21.597 165.804 21.3943C161.585 21.2624 156.249 24.8231 152.447 24.3027C149.324 23.8761 147.352 19.4243 144.79 17.9303C140.824 15.6176 138.057 16.5156 133.818 17.855C127.509 19.8486 123.488 20.5435 117.063 18.1606C112.691 16.5387 108.565 13.1535 103.402 14.357C99.3526 15.3016 97.5437 18.5699 95.1586 21.0748C92.6974 23.6608 93.8867 22.8059 90.2889 23.3802C86.6085 23.9681 83.7022 24.5017 80.9105 26.9118C76.398 30.8074 79.5239 36.8666 75.9571 40.3007C74.0319 42.1547 70.0221 43.0377 67.7925 44.9547C65.3585 47.0471 63.368 49.5901 61.5444 52.0655C57.9928 56.8881 55.568 62.1436 52.9644 67.346C48.1209 77.0274 43.8029 87.0171 41.9624 97.4184C41.0172 102.764 39.4241 107.995 38.4506 113.33C37.6999 117.445 38.0201 121.951 36.5541 125.947C34.8147 130.686 30.6555 135.043 28.4025 139.704C25.4146 145.887 23.4078 151.819 22.7724 158.475C22.1484 165.019 23.885 170.786 24.6509 177.202C25.0944 180.919 24.3275 181.341 21.7712 184.849C19.8041 187.549 17.8114 190.222 16.5466 193.227C14.1848 198.842 14.3158 204.304 18.4251 209.24C21.245 212.628 30.724 216.173 29.9478 208.622C29.5874 205.114 25.1765 203.527 26.019 199.503C26.6022 196.715 29.4434 194.787 32.8922 193.925C35.3284 193.317 36.528 193.343 37.6271 196.015C38.6234 198.436 37.3026 203.721 36.9966 206.266C36.8737 207.288 36.6922 208.185 36.5688 209.131C35.7007 215.806 35.5409 221.947 31.8872 228.076C29.6429 231.842 25.2515 237.149 30.2587 240.779C34.2179 243.649 41.0493 241.9 44.1361 238.896C47.3925 242.924 46.6685 247.32 45.4504 251.765C44.6943 254.526 42.6266 258.568 45.8814 260.799C50.2891 263.82 57.484 259.061 60.7888 256.66C62.6994 260.927 64.492 276.486 72.0246 267.211C74.2227 264.506 77.8818 261.867 78.5787 258.677C79.7348 253.387 78.9048 247.819 79.3837 242.475C81.7873 249.472 83.4213 252.262 84.8927 259.445C85.7776 263.766 86.1244 278.264 95.0669 276.355C101.948 274.886 97.5471 265.831 96.6682 262.14C94.9848 255.071 94.1726 252.077 92.5457 245C95.0787 249.625 97.292 254.371 99.7255 259.034C102.116 263.614 112.804 273.061 115.931 269.084C119.058 265.106 111.435 259.439 109.701 254.624C106.093 244.6 101.72 234.618 100.684 224.116C100.185 219.067 101.12 214.404 101.53 209.413C101.81 206.004 101.389 202.511 100.718 199.073Z" fill="white"/>
</mask>
<g mask="url(#mask6_1631_3308)">
<path d="M279 14H15V294H279V14Z" fill="#332B29"/>
</g>
<mask id="mask7_1631_3308" style="mask-type:luminance" maskUnits="userSpaceOnUse" x="15" y="14" width="239" height="263">
<path fill-rule="evenodd" clip-rule="evenodd" d="M100.718 199.073C101.806 199.025 102.9 199 104 199H108V180.611C96.2288 175.019 86.7178 165.441 81.2113 153.622C78.447 145.014 78.6116 135.687 78.0009 126.826C77.1959 115.146 77.8889 103.748 80.5371 92.2476C82.9265 81.8722 86.3612 76.3068 94.1633 67.9925C98.5226 63.3467 105.068 63.0779 111.583 61.4293C118.176 59.7598 124.194 57.2191 128.318 52.4387C137.401 62.8499 161.672 59.103 170.555 70.4494C181.356 84.2471 181.477 93.1499 182.748 109.092C183.7 121.043 182.219 142.656 181.804 155.63C176.186 166.525 167.097 175.339 156 180.611V199H160C166.636 199 173.062 199.898 179.163 201.578C177.113 204.752 174.669 207.757 172.112 210.551C168.281 214.739 164.431 219.07 160.112 222.918C155.171 227.319 150.444 230.515 147.444 236C146.086 238.483 143.707 241.094 146.225 243.817C148.524 246.304 152.149 245.792 154.61 243.992C158.247 241.332 160.948 237.134 164.3 234.077C161.062 239.892 156.558 248.561 158.871 255.082C159.657 257.299 160.456 257.255 161.672 258.733C163.592 258.776 164.35 259.644 163.949 261.338C164.129 261.822 164.308 262.305 164.489 262.789C165.945 265.383 168.731 267.2 172.269 265.977C183.829 261.983 170.494 244.016 183.221 238.675C185.499 241.504 182.135 249.454 182.044 252.931C181.933 257.218 182.166 266.944 188.686 268.11C197.182 269.63 193.905 261.513 194.241 258.06C194.63 254.044 197.101 248.748 199.112 245.191C197.889 248.97 195.603 257.345 201.928 259.061C209.245 261.047 208.409 252.475 209.52 248.91C209.749 254.186 216.565 266.66 222.725 256.807C225.899 251.731 223.734 243.366 223.386 237.953C227.799 242.513 231.326 236.602 231.224 233.323C232.902 238.075 239.207 251.325 244.795 240.808C248.193 234.413 244.569 225.823 242.312 219.648C248.256 220.168 247.062 214.412 246.176 211.553C244.87 207.331 245.567 206.712 245.836 202.347C254.086 207.152 253.833 194.113 253.378 190.915C252.233 182.864 245.969 175.654 241.135 168.863C237.669 163.992 231.2 155.511 233.097 149.637C235.054 152.105 239.604 152.079 241.413 149.495C242.945 147.307 241.322 143.699 240.583 141.513C238.562 135.533 234.523 131.669 230.872 126.532C223.764 116.531 224.787 103.399 224.129 92.2191C223.31 78.2704 220.315 64.5388 207.649 54.3918C200.862 48.9555 192.591 44.4783 186.279 38.7101C184.557 37.1372 183.83 35.1885 182.214 33.6722C180.4 31.9706 179.553 32.3736 178.055 29.9512C175.387 25.6367 172.253 21.597 165.804 21.3943C161.585 21.2624 156.249 24.8231 152.447 24.3027C149.324 23.8761 147.352 19.4243 144.79 17.9303C140.824 15.6176 138.057 16.5156 133.818 17.855C127.509 19.8486 123.488 20.5435 117.063 18.1606C112.691 16.5387 108.565 13.1535 103.402 14.357C99.3526 15.3016 97.5437 18.5699 95.1586 21.0748C92.6974 23.6608 93.8867 22.8059 90.2889 23.3802C86.6085 23.9681 83.7022 24.5017 80.9105 26.9118C76.398 30.8074 79.5239 36.8666 75.9571 40.3007C74.0319 42.1547 70.0221 43.0377 67.7925 44.9547C65.3585 47.0471 63.368 49.5901 61.5444 52.0655C57.9928 56.8881 55.568 62.1436 52.9644 67.346C48.1209 77.0274 43.8029 87.0171 41.9624 97.4184C41.0172 102.764 39.4241 107.995 38.4506 113.33C37.6999 117.445 38.0201 121.951 36.5541 125.947C34.8147 130.686 30.6555 135.043 28.4025 139.704C25.4146 145.887 23.4078 151.819 22.7724 158.475C22.1484 165.019 23.885 170.786 24.6509 177.202C25.0944 180.919 24.3275 181.341 21.7712 184.849C19.8041 187.549 17.8114 190.222 16.5466 193.227C14.1848 198.842 14.3158 204.304 18.4251 209.24C21.245 212.628 30.724 216.173 29.9478 208.622C29.5874 205.114 25.1765 203.527 26.019 199.503C26.6022 196.715 29.4434 194.787 32.8922 193.925C35.3284 193.317 36.528 193.343 37.6271 196.015C38.6234 198.436 37.3026 203.721 36.9966 206.266C36.8737 207.288 36.6922 208.185 36.5688 209.131C35.7007 215.806 35.5409 221.947 31.8872 228.076C29.6429 231.842 25.2515 237.149 30.2587 240.779C34.2179 243.649 41.0493 241.9 44.1361 238.896C47.3925 242.924 46.6685 247.32 45.4504 251.765C44.6943 254.526 42.6266 258.568 45.8814 260.799C50.2891 263.82 57.484 259.061 60.7888 256.66C62.6994 260.927 64.492 276.486 72.0246 267.211C74.2227 264.506 77.8818 261.867 78.5787 258.677C79.7348 253.387 78.9048 247.819 79.3837 242.475C81.7873 249.472 83.4213 252.262 84.8927 259.445C85.7776 263.766 86.1244 278.264 95.0669 276.355C101.948 274.886 97.5471 265.831 96.6682 262.14C94.9848 255.071 94.1726 252.077 92.5457 245C95.0787 249.625 97.292 254.371 99.7255 259.034C102.116 263.614 112.804 273.061 115.931 269.084C119.058 265.106 111.435 259.439 109.701 254.624C106.093 244.6 101.72 234.618 100.684 224.116C100.185 219.067 101.12 214.404 101.53 209.413C101.81 206.004 101.389 202.511 100.718 199.073Z" fill="white"/>
</mask>
<g mask="url(#mask7_1631_3308)">
<path fill-rule="evenodd" clip-rule="evenodd" d="M100.718 199.073C101.806 199.025 102.9 199 104 199H108V180.611C96.2285 175.019 86.7175 165.441 81.2109 153.622C81.7436 155.28 82.3849 156.912 83.1616 158.509C88.9167 170.342 96.4182 180.921 99.4876 193.59C99.9232 195.387 100.357 197.222 100.718 199.073ZM179.163 201.578C173.062 199.898 166.636 199 160 199H156V180.611C166.901 175.433 175.863 166.836 181.502 156.207C181.425 159.201 181.492 162.179 181.875 165.056C182.945 173.1 185.876 180.366 184.516 188.636C183.771 193.168 181.79 197.511 179.163 201.578Z" fill="black" fill-opacity="0.24"/>
</g>
<mask id="mask8_1631_3308" style="mask-type:luminance" maskUnits="userSpaceOnUse" x="15" y="14" width="239" height="263">
<path fill-rule="evenodd" clip-rule="evenodd" d="M100.718 199.073C101.806 199.025 102.9 199 104 199H108V180.611C96.2288 175.019 86.7178 165.441 81.2113 153.622C78.447 145.014 78.6116 135.687 78.0009 126.826C77.1959 115.146 77.8889 103.748 80.5371 92.2476C82.9265 81.8722 86.3612 76.3068 94.1633 67.9925C98.5226 63.3467 105.068 63.0779 111.583 61.4293C118.176 59.7598 124.194 57.2191 128.318 52.4387C137.401 62.8499 161.672 59.103 170.555 70.4494C181.356 84.2471 181.477 93.1499 182.748 109.092C183.7 121.043 182.219 142.656 181.804 155.63C176.186 166.525 167.097 175.339 156 180.611V199H160C166.636 199 173.062 199.898 179.163 201.578C177.113 204.752 174.669 207.757 172.112 210.551C168.281 214.739 164.431 219.07 160.112 222.918C155.171 227.319 150.444 230.515 147.444 236C146.086 238.483 143.707 241.094 146.225 243.817C148.524 246.304 152.149 245.792 154.61 243.992C158.247 241.332 160.948 237.134 164.3 234.077C161.062 239.892 156.558 248.561 158.871 255.082C159.657 257.299 160.456 257.255 161.672 258.733C163.592 258.776 164.35 259.644 163.949 261.338C164.129 261.822 164.308 262.305 164.489 262.789C165.945 265.383 168.731 267.2 172.269 265.977C183.829 261.983 170.494 244.016 183.221 238.675C185.499 241.504 182.135 249.454 182.044 252.931C181.933 257.218 182.166 266.944 188.686 268.11C197.182 269.63 193.905 261.513 194.241 258.06C194.63 254.044 197.101 248.748 199.112 245.191C197.889 248.97 195.603 257.345 201.928 259.061C209.245 261.047 208.409 252.475 209.52 248.91C209.749 254.186 216.565 266.66 222.725 256.807C225.899 251.731 223.734 243.366 223.386 237.953C227.799 242.513 231.326 236.602 231.224 233.323C232.902 238.075 239.207 251.325 244.795 240.808C248.193 234.413 244.569 225.823 242.312 219.648C248.256 220.168 247.062 214.412 246.176 211.553C244.87 207.331 245.567 206.712 245.836 202.347C254.086 207.152 253.833 194.113 253.378 190.915C252.233 182.864 245.969 175.654 241.135 168.863C237.669 163.992 231.2 155.511 233.097 149.637C235.054 152.105 239.604 152.079 241.413 149.495C242.945 147.307 241.322 143.699 240.583 141.513C238.562 135.533 234.523 131.669 230.872 126.532C223.764 116.531 224.787 103.399 224.129 92.2191C223.31 78.2704 220.315 64.5388 207.649 54.3918C200.862 48.9555 192.591 44.4783 186.279 38.7101C184.557 37.1372 183.83 35.1885 182.214 33.6722C180.4 31.9706 179.553 32.3736 178.055 29.9512C175.387 25.6367 172.253 21.597 165.804 21.3943C161.585 21.2624 156.249 24.8231 152.447 24.3027C149.324 23.8761 147.352 19.4243 144.79 17.9303C140.824 15.6176 138.057 16.5156 133.818 17.855C127.509 19.8486 123.488 20.5435 117.063 18.1606C112.691 16.5387 108.565 13.1535 103.402 14.357C99.3526 15.3016 97.5437 18.5699 95.1586 21.0748C92.6974 23.6608 93.8867 22.8059 90.2889 23.3802C86.6085 23.9681 83.7022 24.5017 80.9105 26.9118C76.398 30.8074 79.5239 36.8666 75.9571 40.3007C74.0319 42.1547 70.0221 43.0377 67.7925 44.9547C65.3585 47.0471 63.368 49.5901 61.5444 52.0655C57.9928 56.8881 55.568 62.1436 52.9644 67.346C48.1209 77.0274 43.8029 87.0171 41.9624 97.4184C41.0172 102.764 39.4241 107.995 38.4506 113.33C37.6999 117.445 38.0201 121.951 36.5541 125.947C34.8147 130.686 30.6555 135.043 28.4025 139.704C25.4146 145.887 23.4078 151.819 22.7724 158.475C22.1484 165.019 23.885 170.786 24.6509 177.202C25.0944 180.919 24.3275 181.341 21.7712 184.849C19.8041 187.549 17.8114 190.222 16.5466 193.227C14.1848 198.842 14.3158 204.304 18.4251 209.24C21.245 212.628 30.724 216.173 29.9478 208.622C29.5874 205.114 25.1765 203.527 26.019 199.503C26.6022 196.715 29.4434 194.787 32.8922 193.925C35.3284 193.317 36.528 193.343 37.6271 196.015C38.6234 198.436 37.3026 203.721 36.9966 206.266C36.8737 207.288 36.6922 208.185 36.5688 209.131C35.7007 215.806 35.5409 221.947 31.8872 228.076C29.6429 231.842 25.2515 237.149 30.2587 240.779C34.2179 243.649 41.0493 241.9 44.1361 238.896C47.3925 242.924 46.6685 247.32 45.4504 251.765C44.6943 254.526 42.6266 258.568 45.8814 260.799C50.2891 263.82 57.484 259.061 60.7888 256.66C62.6994 260.927 64.492 276.486 72.0246 267.211C74.2227 264.506 77.8818 261.867 78.5787 258.677C79.7348 253.387 78.9048 247.819 79.3837 242.475C81.7873 249.472 83.4213 252.262 84.8927 259.445C85.7776 263.766 86.1244 278.264 95.0669 276.355C101.948 274.886 97.5471 265.831 96.6682 262.14C94.9848 255.071 94.1726 252.077 92.5457 245C95.0787 249.625 97.292 254.371 99.7255 259.034C102.116 263.614 112.804 273.061 115.931 269.084C119.058 265.106 111.435 259.439 109.701 254.624C106.093 244.6 101.72 234.618 100.684 224.116C100.185 219.067 101.12 214.404 101.53 209.413C101.81 206.004 101.389 202.511 100.718 199.073Z" fill="white"/>
</mask>
<g mask="url(#mask8_1631_3308)">
<path fill-rule="evenodd" clip-rule="evenodd" d="M64.3606 122.248C64.2356 119.826 62.3805 111.711 64.6884 110.309C67.2181 108.772 66.6908 118.016 66.7169 118.963C66.7604 120.5 67.928 132.098 65.7896 132.047C63.6578 131.996 64.4427 123.828 64.3606 122.248ZM72.795 179.998C72.7863 181.012 71.7225 180.951 70.9632 180.686C70.0256 180.358 70.5996 178.202 70.5501 177.495C70.4196 175.635 69.5271 170.157 70.8904 168.622C73.6157 165.553 72.8058 178.57 72.795 179.998ZM47.121 193.161C49.05 193.107 47.2645 155.329 44.2994 155.371C42.2171 155.401 45.661 193.198 47.121 193.161ZM49.353 212.516C46.9554 212.516 47.3962 220.978 48.8084 221.655C50.9483 222.68 52.0349 212.516 49.353 212.516ZM64.5897 216.055C64.6109 217.113 63.4113 217.129 62.6106 216.799C61.7018 216.423 62.0823 213.293 62.0464 212.599C61.9334 210.411 60.0298 201.927 61.7611 200.368C63.7352 198.59 63.7782 200.541 64.3092 201.866C65.873 205.769 64.5054 211.898 64.5897 216.055ZM205.242 136.333C205.352 137.796 206.311 147.351 204.718 148.079C201.976 149.333 203.157 143.429 203.168 142.666C203.275 135.229 202.199 127.854 201.381 120.457C201.225 119.052 198.756 108.232 200.564 107.335C203.272 105.994 202.868 109.581 203.023 110.745C204.152 119.214 204.651 127.824 205.242 136.333ZM202.023 169.587C199.49 169.085 198.165 177.681 199.321 178.603C201.238 180.133 204.67 170.113 202.023 169.587ZM201.755 207.385C200.616 207.159 192.322 223.118 193.004 224.02C194.304 225.739 205.834 208.2 201.755 207.385ZM181.332 214.759C179.551 213.956 171.999 225.51 173.927 226.378C175.675 227.164 183.488 215.726 181.332 214.759ZM223.425 171.447C221.274 171.447 221.37 183.269 223.025 184.015C224.736 184.786 225.967 171.447 223.425 171.447ZM193.139 62.8435C192.531 61.9735 185.965 54.2233 190.668 55.3306C192.959 55.8698 196.116 62.6833 197.149 64.7413C197.743 65.9235 201.133 71.2006 197.541 70.827C196.564 70.7259 193.952 64.0063 193.139 62.8435ZM170.048 47.3564C169.201 47.7373 169.215 48.0946 170.09 48.4281C170.937 48.0473 170.922 47.6903 170.048 47.3564ZM85.6188 55.4864C83.6136 57.3296 76.0757 68.0047 73.4927 68.1116C68.7861 68.3066 77.771 59.0867 78.7901 57.9135C79.2451 57.3874 81.2758 54.8222 82.5118 54.1914C83.7729 53.5475 87.9555 53.3322 85.6188 55.4864ZM58.2539 83.9805C56.071 83.5519 52.4189 94.2454 53.693 95.5359C55.6166 97.4857 60.7004 84.466 58.2539 83.9805ZM83.1927 202.992C83.6053 204.333 87.8243 214.072 86.7639 215.353C85.1425 217.311 84.6772 214.536 84.1467 213.386C82.9688 210.831 79.9086 204.54 80.4005 201.85C80.8783 199.242 82.7758 201.649 83.1927 202.992ZM74.9861 225.816C72.6912 225.816 72.956 235.618 74.3224 236.201C76.439 237.103 77.8012 225.816 74.9861 225.816ZM236.791 217.446C236.927 218.05 238.845 223.009 236.128 222.291C234.566 221.878 234.325 217.506 233.926 216.181C232.697 212.095 228.646 207.018 228.295 202.987C227.955 199.09 230.135 200.575 231.81 203.875C234.046 208.283 235.723 212.747 236.791 217.446ZM217.089 216.951C214.957 216.941 214.854 227.724 216.187 228.353C218.051 229.231 219.808 216.951 217.089 216.951ZM223.249 128.654C224.831 128.242 219.84 115.329 218.072 115.471C215.377 115.688 220.848 129.273 223.249 128.654ZM196.434 184.747C195.587 185.128 195.602 185.485 196.476 185.818C197.323 185.438 197.309 185.08 196.434 184.747ZM172.216 239.987C173.01 239.987 173.337 238.764 172.165 238.736C171.39 238.743 170.981 239.987 172.216 239.987ZM73.6843 184.629C73.7137 182.72 71.215 184.12 71.2307 185.73C71.2633 188.944 73.6316 187.476 73.6843 184.629ZM67.5187 136.883C66.7147 136.883 66.3854 138.119 67.5698 138.149C68.3535 138.143 68.7672 136.883 67.5187 136.883ZM48.3864 199.393C48.3087 197.451 46.6862 199.436 46.777 199.439C47.065 199.446 48.4473 200.856 48.3864 199.393ZM52.5995 98.0632C50.2318 98.0632 50.5753 103.817 52.0863 104.186C54.6062 104.802 54.9509 98.0632 52.5995 98.0632ZM65.2128 222.326C62.9272 222.326 62.7728 230.14 64.3502 230.626C66.8011 231.38 67.593 222.326 65.2128 222.326ZM46.4566 227.932C45.5848 228.323 45.5989 228.692 46.499 229.035C47.3714 228.644 47.3568 228.277 46.4566 227.932ZM216.455 231.283C214.136 231.283 214.226 240.836 215.65 241.481C217.641 242.384 219.139 231.283 216.455 231.283ZM192.945 240.161C190.535 239.68 189.272 247.567 190.396 248.452C192.248 249.911 195.421 240.656 192.945 240.161ZM172.465 247.451C170.467 247.451 170.958 251.026 172.111 251.558C174.105 252.478 174.694 247.451 172.465 247.451ZM101.479 33.509C99.808 33.509 89.3191 38.2532 93.2392 39.6588C95.6357 40.5179 105.737 33.509 101.479 33.509Z" fill="white" fill-opacity="0.3"/>
</g>
<path d="M132 98.1111C120.963 98.1111 119.371 89.0266 96.6709 87.7407C73.9858 86.7168 66.8155 93.4495 66.7768 98.1111C66.8136 102.404 65.648 113.561 80.365 126.63C95.1371 142.142 110.271 136.882 115.694 131.815C121.136 129.473 127.341 108.46 132 108.481C136.66 108.503 142.865 129.473 148.306 131.815C153.73 136.882 168.864 142.142 183.636 126.63C198.353 113.561 197.187 102.404 197.224 98.1111C197.185 93.4495 190.015 86.7168 167.33 87.7407C144.63 89.0266 143.038 98.1111 132 98.1111Z" fill="#2B2B2B"/>
<path d="M121.13 108.482C121.511 100.823 108.216 92.6425 93.9537 92.926C79.6981 93.2246 77.8425 102.379 77.6478 105.889C77.2989 114.022 86.0152 132.304 102.107 131.815C118.198 131.306 120.91 113.534 121.13 108.482Z" fill="#2F383B"/>
<path d="M142.871 108.482C142.49 100.823 155.785 92.6425 170.047 92.926C184.303 93.2246 186.158 102.379 186.353 105.889C186.702 114.022 177.986 132.304 161.894 131.815C145.803 131.306 143.091 113.534 142.871 108.482Z" fill="#2F383B"/>
</g>
</g>
<defs>
<clipPath id="clip0_1631_3308">
<rect width="264" height="280" fill="white"/>
</clipPath>
</defs>
</svg>
