<svg width="264" height="280" viewBox="0 0 264 280" fill="none" xmlns="http://www.w3.org/2000/svg">
<g clip-path="url(#clip0_1631_3307)">
<path d="M156 180.611V199H160C199.764 199 232 231.236 232 271V280H32V271C32 231.236 64.2355 199 104 199H108V180.611C90.7626 172.422 78.3722 155.687 76.3051 135.881C70.4803 135.058 66 130.052 66 124V110C66 104.054 70.3246 99.1181 76 98.1659V92C76 61.0721 101.072 36 132 36C162.928 36 188 61.0721 188 92V98.1659C193.675 99.1181 198 104.054 198 110V124C198 130.052 193.52 135.058 187.695 135.881C185.628 155.687 173.237 172.422 156 180.611Z" fill="#D0C6AC"/>
<mask id="mask0_1631_3307" style="mask-type:luminance" maskUnits="userSpaceOnUse" x="32" y="36" width="200" height="244">
<path d="M156 180.611V199H160C199.764 199 232 231.236 232 271V280H32V271C32 231.236 64.2355 199 104 199H108V180.611C90.7626 172.422 78.3722 155.687 76.3051 135.881C70.4803 135.058 66 130.052 66 124V110C66 104.054 70.3246 99.1181 76 98.1659V92C76 61.0721 101.072 36 132 36C162.928 36 188 61.0721 188 92V98.1659C193.675 99.1181 198 104.054 198 110V124C198 130.052 193.52 135.058 187.695 135.881C185.628 155.687 173.237 172.422 156 180.611Z" fill="white"/>
</mask>
<g mask="url(#mask0_1631_3307)">
<path d="M296 36H32V316H296V36Z" fill="#865A3E"/>
</g>
<mask id="mask1_1631_3307" style="mask-type:luminance" maskUnits="userSpaceOnUse" x="32" y="36" width="200" height="244">
<path d="M156 180.611V199H160C199.764 199 232 231.236 232 271V280H32V271C32 231.236 64.2355 199 104 199H108V180.611C90.7626 172.422 78.3722 155.687 76.3051 135.881C70.4803 135.058 66 130.052 66 124V110C66 104.054 70.3246 99.1181 76 98.1659V92C76 61.0721 101.072 36 132 36C162.928 36 188 61.0721 188 92V98.1659C193.675 99.1181 198 104.054 198 110V124C198 130.052 193.52 135.058 187.695 135.881C185.628 155.687 173.237 172.422 156 180.611Z" fill="white"/>
</mask>
<g mask="url(#mask1_1631_3307)">
<path fill-rule="evenodd" clip-rule="evenodd" d="M188 115V138C188 168.928 162.928 194 132 194C101.072 194 76 168.928 76 138V115V130C76 160.928 101.072 186 132 186C162.928 186 188 160.928 188 130V115Z" fill="black" fill-opacity="0.1"/>
</g>
<path fill-rule="evenodd" clip-rule="evenodd" d="M171.32 199.937C205.706 205.367 232 235.139 232 271.052V280H32V271.052C32 235.138 58.2944 205.366 92.6818 199.936C93.5836 205.005 96.1164 209.824 100.236 213.539L129.321 239.768C130.843 241.14 133.157 241.14 134.679 239.768L163.764 213.539C164.189 213.155 164.601 212.756 164.998 212.343C168.414 208.787 170.517 204.452 171.32 199.937Z" fill="#E6E6E6"/>
<mask id="mask2_1631_3307" style="mask-type:luminance" maskUnits="userSpaceOnUse" x="32" y="199" width="200" height="81">
<path fill-rule="evenodd" clip-rule="evenodd" d="M171.32 199.937C205.706 205.367 232 235.139 232 271.052V280H32V271.052C32 235.138 58.2944 205.366 92.6818 199.936C93.5836 205.005 96.1164 209.824 100.236 213.539L129.321 239.768C130.843 241.14 133.157 241.14 134.679 239.768L163.764 213.539C164.189 213.155 164.601 212.756 164.998 212.343C168.414 208.787 170.517 204.452 171.32 199.937Z" fill="white"/>
</mask>
<g mask="url(#mask2_1631_3307)">
<path d="M264 170H0V280H264V170Z" fill="#25557C"/>
</g>
<path fill-rule="evenodd" clip-rule="evenodd" d="M113.118 149.128C114.176 158.62 122.226 166 132 166C141.804 166 149.874 158.574 150.892 149.04C150.974 148.273 150.117 147 149.043 147C134.149 147 122.738 147 115.087 147C114.007 147 113.012 148.178 113.118 149.128Z" fill="black" fill-opacity="0.7"/>
<mask id="mask3_1631_3307" style="mask-type:luminance" maskUnits="userSpaceOnUse" x="113" y="147" width="38" height="19">
<path fill-rule="evenodd" clip-rule="evenodd" d="M113.118 149.128C114.176 158.62 122.226 166 132 166C141.804 166 149.874 158.574 150.892 149.04C150.974 148.273 150.117 147 149.043 147C134.149 147 122.738 147 115.087 147C114.007 147 113.012 148.178 113.118 149.128Z" fill="white"/>
</mask>
<g mask="url(#mask3_1631_3307)">
<path d="M143 136H122C119.239 136 117 138.239 117 141V147C117 149.761 119.239 152 122 152H143C145.761 152 148 149.761 148 147V141C148 138.239 145.761 136 143 136Z" fill="white"/>
</g>
<mask id="mask4_1631_3307" style="mask-type:luminance" maskUnits="userSpaceOnUse" x="113" y="147" width="38" height="19">
<path fill-rule="evenodd" clip-rule="evenodd" d="M113.118 149.128C114.176 158.62 122.226 166 132 166C141.804 166 149.874 158.574 150.892 149.04C150.974 148.273 150.117 147 149.043 147C134.149 147 122.738 147 115.087 147C114.007 147 113.012 148.178 113.118 149.128Z" fill="white"/>
</mask>
<g mask="url(#mask4_1631_3307)">
<path d="M127 180C133.075 180 138 175.075 138 169C138 162.925 133.075 158 127 158C120.925 158 116 162.925 116 169C116 175.075 120.925 180 127 180Z" fill="#FF4F6D"/>
<path d="M137 180C143.075 180 148 175.075 148 169C148 162.925 143.075 158 137 158C130.925 158 126 162.925 126 169C126 175.075 130.925 180 137 180Z" fill="#FF4F6D"/>
</g>
<path fill-rule="evenodd" clip-rule="evenodd" d="M120 130C120 134.418 125.373 138 132 138C138.627 138 144 134.418 144 130" fill="black" fill-opacity="0.16"/>
<path fill-rule="evenodd" clip-rule="evenodd" d="M92.1602 112.447C94.0067 108.649 98.1644 106 102.998 106C107.814 106 111.959 108.63 113.815 112.407C114.367 113.529 113.582 114.447 112.791 113.767C110.34 111.66 106.859 110.344 102.998 110.344C99.2572 110.344 95.8738 111.579 93.4375 113.572C92.5468 114.3 91.6201 113.558 92.1602 112.447Z" fill="black" fill-opacity="0.6"/>
<path fill-rule="evenodd" clip-rule="evenodd" d="M150.16 112.447C152.007 108.649 156.164 106 160.998 106C165.814 106 169.959 108.63 171.815 112.407C172.367 113.529 171.582 114.447 170.791 113.767C168.34 111.66 164.859 110.344 160.998 110.344C157.257 110.344 153.874 111.579 151.438 113.572C150.547 114.3 149.62 113.558 150.16 112.447Z" fill="black" fill-opacity="0.6"/>
<path fill-rule="evenodd" clip-rule="evenodd" d="M102.547 88.1484C96.7404 88.4166 87.3523 92.6362 87.5942 98.4922C87.6022 98.6838 87.8837 98.768 88.0213 98.6205C90.7762 95.6612 110.337 92.6709 117.226 94.2555C117.857 94.4008 118.336 93.7787 117.936 93.3294C114.514 89.4811 107.75 87.903 102.547 88.1484Z" fill="black" fill-opacity="0.6"/>
<path fill-rule="evenodd" clip-rule="evenodd" d="M162.453 88.1484C168.26 88.4166 177.648 92.6362 177.406 98.4922C177.398 98.6838 177.116 98.768 176.979 98.6205C174.224 95.6612 154.663 92.6709 147.774 94.2555C147.143 94.4008 146.664 93.7787 147.064 93.3294C150.486 89.4811 157.25 87.903 162.453 88.1484Z" fill="black" fill-opacity="0.6"/>
<mask id="mask5_1631_3307" style="mask-type:luminance" maskUnits="userSpaceOnUse" x="0" y="0" width="264" height="280">
<path d="M264 0H0V280H264V0Z" fill="white"/>
</mask>
<g mask="url(#mask5_1631_3307)">
<path fill-rule="evenodd" clip-rule="evenodd" d="M185.832 73.9287C187.589 74.9174 188.98 84.8279 189.048 88.6177C189.09 90.9562 189.127 99.874 186.654 99.1031C185.901 98.8684 184.752 94.1472 184.588 91.3841C184.425 88.6209 182.855 79.22 180.447 74.8947C179.896 73.9063 178.321 72.1709 179.002 71.3348C179.846 70.2981 180.666 70.8996 181.697 71.3147C182.812 71.7641 185.634 73.818 185.832 73.9287ZM186.637 70.9566C185.891 71.9188 180.796 69.2177 178.671 68.044C160.826 58.1841 157.362 55.0487 129.246 55.4578C101.13 55.867 81.8675 69.04 80.784 70.3874C80.0302 71.3249 79.0678 73.8279 78.2764 80.8005C77.485 87.7732 78.4952 100.278 75.6305 100.263C73.1915 100.25 72.6609 76.477 73.7137 67.0464C73.8754 65.5985 74.4984 63.0084 74.0474 61.7059C73.6533 60.5682 71.7254 60.5706 72.0331 58.6751C72.3829 56.5173 74.5585 57.5891 75.506 56.5574C77.3006 54.603 74.5322 54.1404 74.073 52.4307C73.3906 49.8892 75.3628 49.2337 77.1397 48.4311C79.106 47.5438 78.8505 48.3231 80.4464 46.5849C78.3148 45.0225 77.5436 42.8939 80.4624 41.752C81.702 41.2669 84.9269 41.9089 85.8981 41.1802C86.1513 40.9901 86.2515 39.9008 86.4075 39.678C87.9584 37.4594 87.5757 35.8532 87.4184 33.3624C87.289 31.3242 87.3064 29.4532 89.7467 29.2496C91.3751 29.1139 92.6993 30.4442 94.1582 30.8359C95.7768 31.2706 95.1688 31.5878 96.4369 30.715C98.6631 29.1817 97.148 26.1943 98.9133 24.412C101.336 21.9662 102.924 25.5513 104.869 25.8218C109.091 26.4102 107.736 22.1219 110.236 20.5505C113.224 18.6739 113.513 22.8013 115.379 22.9483C116.996 23.0751 119.908 19.9545 121.317 19.3731C125.5 17.6472 127.572 22.5039 131.554 21.8845C134.443 21.4348 135.223 21.0677 137.831 22.7115C140.362 24.3071 140.963 23.1665 143.829 23.1436C145.854 23.1284 147.094 24.8203 148.788 24.9967C149.632 25.0851 150.441 24.2051 151.348 24.2604C154.585 24.4567 154.79 28.643 157.362 29.7956C159.712 30.8488 162.474 29.3691 164.807 29.0953C170.497 28.4275 166.6 33.7425 166.761 36.9147C168.994 37.4359 171.262 35.351 173.485 35.7347C176.987 36.3393 175.665 39.968 174.853 42.4145C177.28 42.3708 183.613 39.6777 185.185 43.122C185.995 44.898 184.107 47.2689 184.138 49.0744C184.181 51.6159 186.049 53.7186 186.709 56.124C187.601 59.371 188.872 68.074 186.637 70.9566Z" fill="#2E3257"/>
<mask id="mask6_1631_3307" style="mask-type:luminance" maskUnits="userSpaceOnUse" x="72" y="19" width="118" height="82">
<path fill-rule="evenodd" clip-rule="evenodd" d="M185.832 73.9287C187.589 74.9174 188.98 84.8279 189.048 88.6177C189.09 90.9562 189.127 99.874 186.654 99.1031C185.901 98.8684 184.752 94.1472 184.588 91.3841C184.425 88.6209 182.855 79.22 180.447 74.8947C179.896 73.9063 178.321 72.1709 179.002 71.3348C179.846 70.2981 180.666 70.8996 181.697 71.3147C182.812 71.7641 185.634 73.818 185.832 73.9287ZM186.637 70.9566C185.891 71.9188 180.796 69.2177 178.671 68.044C160.826 58.1841 157.362 55.0487 129.246 55.4578C101.13 55.867 81.8675 69.04 80.784 70.3874C80.0302 71.3249 79.0678 73.8279 78.2764 80.8005C77.485 87.7732 78.4952 100.278 75.6305 100.263C73.1915 100.25 72.6609 76.477 73.7137 67.0464C73.8754 65.5985 74.4984 63.0084 74.0474 61.7059C73.6533 60.5682 71.7254 60.5706 72.0331 58.6751C72.3829 56.5173 74.5585 57.5891 75.506 56.5574C77.3006 54.603 74.5322 54.1404 74.073 52.4307C73.3906 49.8892 75.3628 49.2337 77.1397 48.4311C79.106 47.5438 78.8505 48.3231 80.4464 46.5849C78.3148 45.0225 77.5436 42.8939 80.4624 41.752C81.702 41.2669 84.9269 41.9089 85.8981 41.1802C86.1513 40.9901 86.2515 39.9008 86.4075 39.678C87.9584 37.4594 87.5757 35.8532 87.4184 33.3624C87.289 31.3242 87.3064 29.4532 89.7467 29.2496C91.3751 29.1139 92.6993 30.4442 94.1582 30.8359C95.7768 31.2706 95.1688 31.5878 96.4369 30.715C98.6631 29.1817 97.148 26.1943 98.9133 24.412C101.336 21.9662 102.924 25.5513 104.869 25.8218C109.091 26.4102 107.736 22.1219 110.236 20.5505C113.224 18.6739 113.513 22.8013 115.379 22.9483C116.996 23.0751 119.908 19.9545 121.317 19.3731C125.5 17.6472 127.572 22.5039 131.554 21.8845C134.443 21.4348 135.223 21.0677 137.831 22.7115C140.362 24.3071 140.963 23.1665 143.829 23.1436C145.854 23.1284 147.094 24.8203 148.788 24.9967C149.632 25.0851 150.441 24.2051 151.348 24.2604C154.585 24.4567 154.79 28.643 157.362 29.7956C159.712 30.8488 162.474 29.3691 164.807 29.0953C170.497 28.4275 166.6 33.7425 166.761 36.9147C168.994 37.4359 171.262 35.351 173.485 35.7347C176.987 36.3393 175.665 39.968 174.853 42.4145C177.28 42.3708 183.613 39.6777 185.185 43.122C185.995 44.898 184.107 47.2689 184.138 49.0744C184.181 51.6159 186.049 53.7186 186.709 56.124C187.601 59.371 188.872 68.074 186.637 70.9566Z" fill="white"/>
</mask>
<g mask="url(#mask6_1631_3307)">
<path d="M264 0H0V280H264V0Z" fill="#2C1B18"/>
</g>
<path d="M101 133H98.2421C84.3147 133 76 125.336 76 112.5C76 102.127 77.817 92 99.5299 92H102.47C124.183 92 126 102.127 126 112.5C126 124.569 115.721 133 101 133ZM99.3854 98C80 98 80 104.841 80 113.502C80 120.572 83.1163 129 97.9709 129H101C113.365 129 122 122.627 122 113.502C122 104.841 122 98 102.615 98H99.3854Z" fill="#252C2F"/>
<path d="M163 133H160.242C146.315 133 138 125.336 138 112.5C138 102.127 139.817 92 161.53 92H164.47C186.183 92 188 102.127 188 112.5C188 124.569 177.721 133 163 133ZM161.385 98C142 98 142 104.841 142 113.502C142 120.572 145.119 129 159.971 129H163C175.365 129 184 122.627 184 113.502C184 104.841 184 98 164.615 98H161.385Z" fill="#252C2F"/>
<path d="M69.9545 97.7716C70.6459 97.0963 78.2095 92 99.5 92C117.351 92 121.13 93.8527 126.85 96.6519L127.269 96.8585C127.667 96.999 129.7 97.6898 132.079 97.7658C134.246 97.6728 136.1 97.0854 136.642 96.8972C143.17 93.7221 149.561 92 164.5 92C185.79 92 193.354 97.0963 194.045 97.7716C195.679 97.7716 197 99.0615 197 100.657V103.543C197 105.139 195.679 106.429 194.045 106.429C194.045 106.429 187.144 106.429 187.144 109.315C187.144 112.2 185.182 105.139 185.182 103.543V100.732C181.579 99.3534 175.128 96.7862 164.5 96.7862C152.658 96.7862 146.761 98.886 141.702 100.971L141.759 101.108L141.756 103.094L139.539 108.444L136.8 107.361C136.556 107.264 136.028 107.09 135.296 106.91C133.256 106.407 131.159 106.254 129.304 106.634C128.624 106.774 127.992 106.984 127.413 107.267L124.77 108.558L122.127 103.396L122.244 101.102L122.325 100.907C117.962 98.8739 113.939 96.7862 99.5 96.7862C88.8721 96.7862 82.4221 99.3524 78.8182 100.731V103.543C78.8182 105.139 75.8636 112.2 75.8636 109.315C75.8636 106.429 69.9545 106.429 69.9545 106.429C68.3236 106.429 67 105.139 67 103.543V100.657C67 99.0615 68.3236 97.7716 69.9545 97.7716Z" fill="#252C2F"/>
</g>
</g>
<defs>
<clipPath id="clip0_1631_3307">
<rect width="264" height="280" fill="white"/>
</clipPath>
</defs>
</svg>
