<svg width="52" height="52" viewBox="0 0 52 52" fill="none" xmlns="http://www.w3.org/2000/svg">
<mask id="mask0_426_122" style="mask-type:alpha" maskUnits="userSpaceOnUse" x="6" y="6" width="40" height="40">
<circle cx="26.0392" cy="25.9173" r="19.2968" transform="rotate(-159.07 26.0392 25.9173)" fill="#8E4808" stroke="black" stroke-width="0.650538"/>
</mask>
<g mask="url(#mask0_426_122)">
<g filter="url(#filter0_d_426_122)">
<path d="M17.6279 47.9102L-3.63189 39.7793L13.471 -4.9396L34.7308 3.19129L17.6279 47.9102Z" fill="#99D6DA"/>
<path d="M38.8878 56.0411L17.6279 47.9102L34.7308 3.19129L55.9907 11.3222L38.8878 56.0411Z" fill="#238845"/>
</g>
<g style="mix-blend-mode:color-burn">
<path d="M11.1555 22.0747L11.2359 21.2814C11.2896 20.8368 11.3509 20.3003 11.4199 19.6718L11.5579 18.522C11.5885 18.4224 11.6345 18.3649 11.6958 18.3496C11.7648 18.3342 11.8568 18.3266 11.9718 18.3266C12.0867 18.3266 12.1711 18.3572 12.2247 18.4186C12.2784 18.4722 12.3052 18.5412 12.3052 18.6255C12.3129 18.7098 12.3052 18.8056 12.2822 18.9129C12.2592 19.0203 12.2477 19.1237 12.2477 19.2234C12.7842 19.2234 13.317 19.1659 13.8458 19.0509C14.3824 18.9359 14.9151 18.8095 15.444 18.6715C15.9728 18.5335 16.5017 18.4071 17.0306 18.2921C17.5595 18.1771 18.0922 18.1196 18.6287 18.1196C18.7054 18.1196 18.7743 18.1311 18.8357 18.1541C18.9046 18.1695 18.9583 18.2308 18.9966 18.3381C18.966 18.4301 18.9123 18.5067 18.8357 18.568C18.759 18.6293 18.6287 18.6907 18.4448 18.752C18.2685 18.8133 18.027 18.8785 17.7204 18.9474C17.4138 19.0088 17.0191 19.0931 16.5362 19.2004C16.0533 19.3 15.4631 19.4227 14.7656 19.5683C14.0758 19.7139 13.2595 19.894 12.3167 20.1087L12.3167 21.5803C12.562 21.5573 12.8417 21.519 13.156 21.4653C13.7385 21.3657 14.1831 21.3159 14.4897 21.3159C14.7963 21.3159 15.0492 21.3197 15.2485 21.3274C15.4555 21.335 15.6892 21.3887 15.9498 21.4883C16.5094 21.703 16.8236 22.1437 16.8926 22.8105C16.8926 23.2934 16.7585 23.7035 16.4902 24.0408C16.2296 24.3703 15.9 24.6348 15.5014 24.8341C14.7503 25.2096 13.8765 25.3974 12.8801 25.3974C12.6654 25.3974 12.5121 25.3744 12.4202 25.3284C12.3282 25.2825 12.2822 25.1828 12.2822 25.0295C12.2822 24.8762 12.3435 24.7306 12.4662 24.5926C12.5888 24.4547 12.7268 24.3857 12.8801 24.3857L12.8801 24.5926C13.7845 24.5926 14.436 24.5313 14.8346 24.4087C15.2332 24.2784 15.5474 24.1021 15.7774 23.8798C16.015 23.6498 16.1338 23.3662 16.1338 23.029C16.1338 22.6917 16.0648 22.4465 15.9268 22.2932C15.7889 22.1399 15.6202 22.0249 15.421 21.9482C15.1144 21.8256 14.7656 21.7643 14.3747 21.7643C13.9838 21.7643 13.6887 21.7949 13.4894 21.8563C13.2901 21.9176 13.0947 21.9866 12.903 22.0632C12.3895 22.2548 11.9986 22.3506 11.7303 22.3506L11.5464 22.3506C11.2858 22.3506 11.1555 22.2587 11.1555 22.0747Z" fill="#363636"/>
<path d="M18.9838 24.8916C18.7078 24.7153 18.4894 24.4968 18.3284 24.2362C18.1674 23.9679 18.087 23.6805 18.087 23.3739C18.087 23.0673 18.133 22.7032 18.2249 22.2817C18.3169 21.8601 18.4319 21.4692 18.5698 21.1089C18.7155 20.7487 18.8879 20.3999 19.0872 20.0627C19.2942 19.7254 19.528 19.4265 19.7886 19.1659C20.3634 18.6064 21.0149 18.3266 21.7431 18.3266C22.7242 18.3266 23.4754 18.6868 23.9966 19.4073C24.4795 20.0588 24.7209 20.8675 24.7209 21.8333C24.7209 22.9753 24.3568 23.8645 23.6287 24.5006C22.9158 25.1138 21.9692 25.4204 20.7888 25.4204C20.1067 25.4204 19.505 25.2441 18.9838 24.8916ZM18.7653 23.2934C18.7653 24.3282 19.5011 24.8456 20.9728 24.8456C22.0305 24.8456 22.8239 24.5735 23.3527 24.0293C23.8893 23.485 24.1575 22.7109 24.1575 21.7068C24.1575 21.6761 24.1575 21.6455 24.1575 21.6148C24.1575 20.7334 23.9391 20.0588 23.5022 19.5913C23.0653 19.1237 22.4674 18.89 21.7086 18.89C21.6243 18.89 21.5477 18.89 21.4787 18.89C21.4174 18.89 21.3599 18.89 21.3062 18.89C20.9 18.89 20.4976 19.1659 20.099 19.7178C19.7234 20.2236 19.4015 20.8713 19.1332 21.6608C18.8879 22.3813 18.7653 22.9255 18.7653 23.2934Z" fill="#363636"/>
<path d="M11.1555 22.0747L11.2359 21.2814C11.2896 20.8368 11.3509 20.3003 11.4199 19.6718L11.5579 18.522C11.5885 18.4224 11.6345 18.3649 11.6958 18.3496C11.7648 18.3342 11.8568 18.3266 11.9718 18.3266C12.0867 18.3266 12.1711 18.3572 12.2247 18.4186C12.2784 18.4722 12.3052 18.5412 12.3052 18.6255C12.3129 18.7098 12.3052 18.8056 12.2822 18.9129C12.2592 19.0203 12.2477 19.1237 12.2477 19.2234C12.7842 19.2234 13.317 19.1659 13.8458 19.0509C14.3824 18.9359 14.9151 18.8095 15.444 18.6715C15.9728 18.5335 16.5017 18.4071 17.0306 18.2921C17.5595 18.1771 18.0922 18.1196 18.6287 18.1196C18.7054 18.1196 18.7743 18.1311 18.8357 18.1541C18.9046 18.1695 18.9583 18.2308 18.9966 18.3381C18.966 18.4301 18.9123 18.5067 18.8357 18.568C18.759 18.6293 18.6287 18.6907 18.4448 18.752C18.2685 18.8133 18.027 18.8785 17.7204 18.9474C17.4138 19.0088 17.0191 19.0931 16.5362 19.2004C16.0533 19.3 15.4631 19.4227 14.7656 19.5683C14.0758 19.7139 13.2595 19.894 12.3167 20.1087L12.3167 21.5803C12.562 21.5573 12.8417 21.519 13.156 21.4653C13.7385 21.3657 14.1831 21.3159 14.4897 21.3159C14.7963 21.3159 15.0492 21.3197 15.2485 21.3274C15.4555 21.335 15.6892 21.3887 15.9498 21.4883C16.5094 21.703 16.8236 22.1437 16.8926 22.8105C16.8926 23.2934 16.7585 23.7035 16.4902 24.0408C16.2296 24.3703 15.9 24.6348 15.5014 24.8341C14.7503 25.2096 13.8765 25.3974 12.8801 25.3974C12.6654 25.3974 12.5121 25.3744 12.4202 25.3284C12.3282 25.2825 12.2822 25.1828 12.2822 25.0295C12.2822 24.8762 12.3435 24.7306 12.4662 24.5926C12.5888 24.4547 12.7268 24.3857 12.8801 24.3857L12.8801 24.5926C13.7845 24.5926 14.436 24.5313 14.8346 24.4087C15.2332 24.2784 15.5474 24.1021 15.7774 23.8798C16.015 23.6498 16.1338 23.3662 16.1338 23.029C16.1338 22.6917 16.0648 22.4465 15.9268 22.2932C15.7889 22.1399 15.6202 22.0249 15.421 21.9482C15.1144 21.8256 14.7656 21.7643 14.3747 21.7643C13.9838 21.7643 13.6887 21.7949 13.4894 21.8563C13.2901 21.9176 13.0947 21.9866 12.903 22.0632C12.3895 22.2548 11.9986 22.3506 11.7303 22.3506L11.5464 22.3506C11.2858 22.3506 11.1555 22.2587 11.1555 22.0747Z" stroke="#363636" stroke-width="0.650538"/>
<path d="M18.9838 24.8916C18.7078 24.7153 18.4894 24.4968 18.3284 24.2362C18.1674 23.9679 18.087 23.6805 18.087 23.3739C18.087 23.0673 18.133 22.7032 18.2249 22.2817C18.3169 21.8601 18.4319 21.4692 18.5698 21.1089C18.7155 20.7487 18.8879 20.3999 19.0872 20.0627C19.2942 19.7254 19.528 19.4265 19.7886 19.1659C20.3634 18.6064 21.0149 18.3266 21.7431 18.3266C22.7242 18.3266 23.4754 18.6868 23.9966 19.4073C24.4795 20.0588 24.7209 20.8675 24.7209 21.8333C24.7209 22.9753 24.3568 23.8645 23.6287 24.5006C22.9158 25.1138 21.9692 25.4204 20.7888 25.4204C20.1067 25.4204 19.505 25.2441 18.9838 24.8916ZM18.7653 23.2934C18.7653 24.3282 19.5011 24.8456 20.9728 24.8456C22.0305 24.8456 22.8239 24.5735 23.3527 24.0293C23.8893 23.485 24.1575 22.7109 24.1575 21.7068C24.1575 21.6761 24.1575 21.6455 24.1575 21.6148C24.1575 20.7334 23.9391 20.0588 23.5022 19.5913C23.0653 19.1237 22.4674 18.89 21.7086 18.89C21.6243 18.89 21.5477 18.89 21.4787 18.89C21.4174 18.89 21.3599 18.89 21.3062 18.89C20.9 18.89 20.4976 19.1659 20.099 19.7178C19.7234 20.2236 19.4015 20.8713 19.1332 21.6608C18.8879 22.3813 18.7653 22.9255 18.7653 23.2934Z" stroke="#363636" stroke-width="0.650538"/>
</g>
<g style="mix-blend-mode:screen">
<path d="M28.1228 32.5721L28.2033 31.7788C28.2569 31.3343 28.3183 30.7977 28.3872 30.1692L28.5252 29.0195C28.5559 28.9198 28.6019 28.8623 28.6632 28.847C28.7322 28.8317 28.8241 28.824 28.9391 28.824C29.0541 28.824 29.1384 28.8547 29.1921 28.916C29.2457 28.9697 29.2725 29.0386 29.2725 29.1229C29.2802 29.2073 29.2725 29.3031 29.2495 29.4104C29.2265 29.5177 29.215 29.6212 29.215 29.7208C29.7516 29.7208 30.2843 29.6633 30.8132 29.5483C31.3497 29.4334 31.8824 29.3069 32.4113 29.1689C32.9402 29.031 33.4691 28.9045 33.9979 28.7895C34.5268 28.6746 35.0595 28.6171 35.5961 28.6171C35.6727 28.6171 35.7417 28.6286 35.803 28.6516C35.872 28.6669 35.9256 28.7282 35.964 28.8355C35.9333 28.9275 35.8797 29.0041 35.803 29.0655C35.7264 29.1268 35.5961 29.1881 35.4121 29.2494C35.2358 29.3107 34.9944 29.3759 34.6878 29.4449C34.3812 29.5062 33.9864 29.5905 33.5035 29.6978C33.0207 29.7975 32.4305 29.9201 31.733 30.0657C31.0431 30.2114 30.2268 30.3915 29.284 30.6061L29.284 32.0778C29.5293 32.0548 29.8091 32.0164 30.1233 31.9628C30.7059 31.8631 31.1504 31.8133 31.457 31.8133C31.7636 31.8133 32.0166 31.8172 32.2158 31.8248C32.4228 31.8325 32.6566 31.8861 32.9172 31.9858C33.4767 32.2004 33.791 32.6411 33.86 33.308C33.86 33.7909 33.7258 34.2009 33.4576 34.5382C33.197 34.8678 32.8674 35.1322 32.4688 35.3315C31.7176 35.7071 30.8438 35.8949 29.8474 35.8949C29.6328 35.8949 29.4795 35.8719 29.3875 35.8259C29.2955 35.7799 29.2495 35.6803 29.2495 35.527C29.2495 35.3737 29.3109 35.228 29.4335 35.0901C29.5561 34.9521 29.6941 34.8831 29.8474 34.8831L29.8474 35.0901C30.7519 35.0901 31.4034 35.0287 31.8019 34.9061C32.2005 34.7758 32.5148 34.5995 32.7447 34.3772C32.9823 34.1473 33.1011 33.8637 33.1011 33.5264C33.1011 33.1892 33.0322 32.9439 32.8942 32.7906C32.7562 32.6373 32.5876 32.5223 32.3883 32.4457C32.0817 32.323 31.733 32.2617 31.3421 32.2617C30.9511 32.2617 30.656 32.2924 30.4568 32.3537C30.2575 32.415 30.062 32.484 29.8704 32.5606C29.3568 32.7523 28.9659 32.8481 28.6977 32.8481L28.5137 32.8481C28.2531 32.8481 28.1228 32.7561 28.1228 32.5721Z" fill="white"/>
<path d="M35.9511 35.389C35.6752 35.2127 35.4567 34.9942 35.2958 34.7336C35.1348 34.4654 35.0543 34.1779 35.0543 33.8713C35.0543 33.5647 35.1003 33.2007 35.1923 32.7791C35.2843 32.3575 35.3992 31.9666 35.5372 31.6064C35.6828 31.2461 35.8553 30.8974 36.0546 30.5601C36.2615 30.2229 36.4953 29.9239 36.7559 29.6633C37.3308 29.1038 37.9823 28.824 38.7105 28.824C39.6916 28.824 40.4427 29.1843 40.9639 29.9048C41.4468 30.5563 41.6883 31.3649 41.6883 32.3307C41.6883 33.4728 41.3242 34.3619 40.596 34.9981C39.8832 35.6113 38.9366 35.9179 37.7562 35.9179C37.074 35.9179 36.4723 35.7416 35.9511 35.389ZM35.7326 33.7909C35.7326 34.8256 36.4685 35.343 37.9401 35.343C38.9979 35.343 39.7912 35.0709 40.3201 34.5267C40.8566 33.9825 41.1249 33.2083 41.1249 32.2042C41.1249 32.1736 41.1249 32.1429 41.1249 32.1123C41.1249 31.2308 40.9064 30.5563 40.4695 30.0887C40.0326 29.6212 39.4348 29.3874 38.676 29.3874C38.5916 29.3874 38.515 29.3874 38.446 29.3874C38.3847 29.3874 38.3272 29.3874 38.2736 29.3874C37.8673 29.3874 37.4649 29.6633 37.0663 30.2152C36.6908 30.7211 36.3688 31.3688 36.1006 32.1582C35.8553 32.8787 35.7326 33.4229 35.7326 33.7909Z" fill="white"/>
<path d="M28.1228 32.5721L28.2033 31.7788C28.2569 31.3343 28.3183 30.7977 28.3872 30.1692L28.5252 29.0195C28.5559 28.9198 28.6019 28.8623 28.6632 28.847C28.7322 28.8317 28.8241 28.824 28.9391 28.824C29.0541 28.824 29.1384 28.8547 29.1921 28.916C29.2457 28.9697 29.2725 29.0386 29.2725 29.1229C29.2802 29.2073 29.2725 29.3031 29.2495 29.4104C29.2265 29.5177 29.215 29.6212 29.215 29.7208C29.7516 29.7208 30.2843 29.6633 30.8132 29.5483C31.3497 29.4334 31.8824 29.3069 32.4113 29.1689C32.9402 29.031 33.4691 28.9045 33.9979 28.7895C34.5268 28.6746 35.0595 28.6171 35.5961 28.6171C35.6727 28.6171 35.7417 28.6286 35.803 28.6516C35.872 28.6669 35.9256 28.7282 35.964 28.8355C35.9333 28.9275 35.8797 29.0041 35.803 29.0655C35.7264 29.1268 35.5961 29.1881 35.4121 29.2494C35.2358 29.3107 34.9944 29.3759 34.6878 29.4449C34.3812 29.5062 33.9864 29.5905 33.5035 29.6978C33.0207 29.7975 32.4305 29.9201 31.733 30.0657C31.0431 30.2114 30.2268 30.3915 29.284 30.6061L29.284 32.0778C29.5293 32.0548 29.8091 32.0164 30.1233 31.9628C30.7059 31.8631 31.1504 31.8133 31.457 31.8133C31.7636 31.8133 32.0166 31.8172 32.2158 31.8248C32.4228 31.8325 32.6566 31.8861 32.9172 31.9858C33.4767 32.2004 33.791 32.6411 33.86 33.308C33.86 33.7909 33.7258 34.2009 33.4576 34.5382C33.197 34.8678 32.8674 35.1322 32.4688 35.3315C31.7176 35.7071 30.8438 35.8949 29.8474 35.8949C29.6328 35.8949 29.4795 35.8719 29.3875 35.8259C29.2955 35.7799 29.2495 35.6803 29.2495 35.527C29.2495 35.3737 29.3109 35.228 29.4335 35.0901C29.5561 34.9521 29.6941 34.8831 29.8474 34.8831L29.8474 35.0901C30.7519 35.0901 31.4034 35.0287 31.8019 34.9061C32.2005 34.7758 32.5148 34.5995 32.7447 34.3772C32.9823 34.1473 33.1011 33.8637 33.1011 33.5264C33.1011 33.1892 33.0322 32.9439 32.8942 32.7906C32.7562 32.6373 32.5876 32.5223 32.3883 32.4457C32.0817 32.323 31.733 32.2617 31.3421 32.2617C30.9511 32.2617 30.656 32.2924 30.4568 32.3537C30.2575 32.415 30.062 32.484 29.8704 32.5606C29.3568 32.7523 28.9659 32.8481 28.6977 32.8481L28.5137 32.8481C28.2531 32.8481 28.1228 32.7561 28.1228 32.5721Z" stroke="#F1F1F1" stroke-width="0.650538"/>
<path d="M35.9511 35.389C35.6752 35.2127 35.4567 34.9942 35.2958 34.7336C35.1348 34.4654 35.0543 34.1779 35.0543 33.8713C35.0543 33.5647 35.1003 33.2007 35.1923 32.7791C35.2843 32.3575 35.3992 31.9666 35.5372 31.6064C35.6828 31.2461 35.8553 30.8974 36.0546 30.5601C36.2615 30.2229 36.4953 29.9239 36.7559 29.6633C37.3308 29.1038 37.9823 28.824 38.7105 28.824C39.6916 28.824 40.4427 29.1843 40.9639 29.9048C41.4468 30.5563 41.6883 31.3649 41.6883 32.3307C41.6883 33.4728 41.3242 34.3619 40.596 34.9981C39.8832 35.6113 38.9366 35.9179 37.7562 35.9179C37.074 35.9179 36.4723 35.7416 35.9511 35.389ZM35.7326 33.7909C35.7326 34.8256 36.4685 35.343 37.9401 35.343C38.9979 35.343 39.7912 35.0709 40.3201 34.5267C40.8566 33.9825 41.1249 33.2083 41.1249 32.2042C41.1249 32.1736 41.1249 32.1429 41.1249 32.1123C41.1249 31.2308 40.9064 30.5563 40.4695 30.0887C40.0326 29.6212 39.4348 29.3874 38.676 29.3874C38.5916 29.3874 38.515 29.3874 38.446 29.3874C38.3847 29.3874 38.3272 29.3874 38.2736 29.3874C37.8673 29.3874 37.4649 29.6633 37.0663 30.2152C36.6908 30.7211 36.3688 31.3688 36.1006 32.1582C35.8553 32.8787 35.7326 33.4229 35.7326 33.7909Z" stroke="#F1F1F1" stroke-width="0.650538"/>
</g>
<g style="mix-blend-mode:overlay">
<circle cx="26.0392" cy="25.9173" r="19.7847" transform="rotate(-159.07 26.0392 25.9173)" fill="url(#paint0_linear_426_122)" style="mix-blend-mode:overlay"/>
<circle cx="26.0392" cy="25.9173" r="19.7847" transform="rotate(-159.07 26.0392 25.9173)" stroke="black" stroke-width="0.325269" style="mix-blend-mode:color"/>
</g>
</g>
<defs>
<filter id="filter0_d_426_122" x="-6.23405" y="-4.93961" width="64.8269" height="66.185" filterUnits="userSpaceOnUse" color-interpolation-filters="sRGB">
<feFlood flood-opacity="0" result="BackgroundImageFix"/>
<feColorMatrix in="SourceAlpha" type="matrix" values="0 0 0 0 0 0 0 0 0 0 0 0 0 0 0 0 0 0 127 0" result="hardAlpha"/>
<feOffset dy="2.60215"/>
<feGaussianBlur stdDeviation="1.30108"/>
<feComposite in2="hardAlpha" operator="out"/>
<feColorMatrix type="matrix" values="0 0 0 0 0 0 0 0 0 0 0 0 0 0 0 0 0 0 0.25 0"/>
<feBlend mode="normal" in2="BackgroundImageFix" result="effect1_dropShadow_426_122"/>
<feBlend mode="normal" in="SourceGraphic" in2="effect1_dropShadow_426_122" result="shape"/>
</filter>
<linearGradient id="paint0_linear_426_122" x1="57.533" y1="40.999" x2="0.484544" y2="9.88568" gradientUnits="userSpaceOnUse">
<stop offset="0.25" stop-color="#1A2739"/>
<stop offset="0.515653" stop-color="#D4CCB8"/>
<stop offset="0.819272" stop-color="#2C3B49"/>
</linearGradient>
</defs>
</svg>
