<svg width="100" height="100" viewBox="0 0 100 100" fill="none" xmlns="http://www.w3.org/2000/svg">
<g id="Avataaar">
<g id="Avataaar/Circle">
<g id="Group">
<g id="Avataaar_2">
<g id="Body">
<path id="Vector" d="M59.0909 65.3741V72.3357H60.6061C75.6684 72.3357 87.8788 84.5391 87.8788 99.5928V103H12.1212V99.5928C12.1212 84.5391 24.3316 72.3357 39.3939 72.3357H40.9091V65.3741C34.3798 62.2742 29.6865 55.9386 28.9035 48.4407C26.6971 48.129 25 46.234 25 43.9428V38.6428C25 36.3918 26.6381 34.5232 28.7879 34.1628V31.8285C28.7879 20.1201 38.2849 10.6285 50 10.6285C61.7151 10.6285 71.2121 20.1201 71.2121 31.8285V34.1628C73.3619 34.5232 75 36.3918 75 38.6428V43.9428C75 46.234 73.3029 48.129 71.0965 48.4407C70.3135 55.9386 65.6202 62.2742 59.0909 65.3741Z" fill="#D0C6AC"/>
<g id="Mask group">
<mask id="mask0_3795_827" style="mask-type:luminance" maskUnits="userSpaceOnUse" x="12" y="10" width="76" height="93">
<g id="Group_2">
<path id="Vector_2" d="M59.0909 65.3741V72.3357H60.6061C75.6684 72.3357 87.8788 84.5391 87.8788 99.5928V103H12.1212V99.5928C12.1212 84.5391 24.3316 72.3357 39.3939 72.3357H40.9091V65.3741C34.3798 62.2742 29.6865 55.9386 28.9035 48.4407C26.6971 48.129 25 46.234 25 43.9428V38.6428C25 36.3918 26.6381 34.5232 28.7879 34.1628V31.8285C28.7879 20.1201 38.2849 10.6285 50 10.6285C61.7151 10.6285 71.2121 20.1201 71.2121 31.8285V34.1628C73.3619 34.5232 75 36.3918 75 38.6428V43.9428C75 46.234 73.3029 48.129 71.0965 48.4407C70.3135 55.9386 65.6202 62.2742 59.0909 65.3741Z" fill="white"/>
</g>
</mask>
<g mask="url(#mask0_3795_827)">
<g id="Skin/&#240;&#159;&#145;&#182;&#240;&#159;&#143;&#189;-03-Brown">
<g id="Color">
<path id="Vector_3" d="M112.121 10.6285H12.1212V116.629H112.121V10.6285Z" fill="#FFDBB4"/>
</g>
</g>
</g>
</g>
<g id="Mask group_2">
<mask id="mask1_3795_827" style="mask-type:luminance" maskUnits="userSpaceOnUse" x="12" y="10" width="76" height="93">
<g id="Group_3">
<path id="Vector_4" d="M59.0909 65.3741V72.3357H60.6061C75.6684 72.3357 87.8788 84.5391 87.8788 99.5928V103H12.1212V99.5928C12.1212 84.5391 24.3316 72.3357 39.3939 72.3357H40.9091V65.3741C34.3798 62.2742 29.6865 55.9386 28.9035 48.4407C26.6971 48.129 25 46.234 25 43.9428V38.6428C25 36.3918 26.6381 34.5232 28.7879 34.1628V31.8285C28.7879 20.1201 38.2849 10.6285 50 10.6285C61.7151 10.6285 71.2121 20.1201 71.2121 31.8285V34.1628C73.3619 34.5232 75 36.3918 75 38.6428V43.9428C75 46.234 73.3029 48.129 71.0965 48.4407C70.3135 55.9386 65.6202 62.2742 59.0909 65.3741Z" fill="white"/>
</g>
</mask>
<g mask="url(#mask1_3795_827)">
<path id="Neck-Shadow" fill-rule="evenodd" clip-rule="evenodd" d="M71.2121 40.5356V49.2428C71.2121 60.9512 61.7151 70.4428 50 70.4428C38.2848 70.4428 28.7878 60.9512 28.7878 49.2428V40.5356V46.2142C28.7878 57.9227 38.2848 67.4142 50 67.4142C61.7151 67.4142 71.2121 57.9227 71.2121 46.2142V40.5356Z" fill="black" fill-opacity="0.1"/>
</g>
</g>
</g>
<g id="Clothing/Hoodie">
<path id="Hoodie" fill-rule="evenodd" clip-rule="evenodd" d="M40.9091 66.3054C34.1217 67.0645 28.8939 69.1375 28.7895 74.4727C18.9949 78.6079 12.1212 88.298 12.1212 99.5927V103H87.8788V99.5927C87.8788 88.298 81.0051 78.6079 71.2105 74.4728C71.1061 69.1375 65.8783 67.0645 59.0909 66.3054V73.4714C59.0909 78.4893 55.0208 82.5572 50 82.5572C44.9792 82.5572 40.9091 78.4893 40.9091 73.4714V66.3054Z" fill="#B7C1DB"/>
<g id="Mask group_3">
<mask id="mask2_3795_827" style="mask-type:luminance" maskUnits="userSpaceOnUse" x="12" y="66" width="76" height="37">
<g id="Group_4">
<path id="Vector_5" fill-rule="evenodd" clip-rule="evenodd" d="M40.9091 66.3054C34.1217 67.0645 28.8939 69.1375 28.7895 74.4727C18.9949 78.6079 12.1212 88.298 12.1212 99.5927V103H87.8788V99.5927C87.8788 88.298 81.0051 78.6079 71.2105 74.4728C71.1061 69.1375 65.8783 67.0645 59.0909 66.3054V73.4714C59.0909 78.4893 55.0208 82.5572 50 82.5572C44.9792 82.5572 40.9091 78.4893 40.9091 73.4714V66.3054Z" fill="white"/>
</g>
</mask>
<g mask="url(#mask2_3795_827)">
<g id="Color/Palette/Gray-01">
<path id="&#240;&#159;&#150;&#141;Color" d="M100 61.3572H0V103H100V61.3572Z" fill="#65C9FF"/>
</g>
</g>
</g>
<g id="Mask group_4">
<mask id="mask3_3795_827" style="mask-type:luminance" maskUnits="userSpaceOnUse" x="12" y="66" width="76" height="37">
<g id="Group_5">
<path id="Vector_6" fill-rule="evenodd" clip-rule="evenodd" d="M40.9091 66.3054C34.1217 67.0645 28.8939 69.1375 28.7895 74.4727C18.9949 78.6079 12.1212 88.298 12.1212 99.5927V103H87.8788V99.5927C87.8788 88.298 81.0051 78.6079 71.2105 74.4728C71.1061 69.1375 65.8783 67.0645 59.0909 66.3054V73.4714C59.0909 78.4893 55.0208 82.5572 50 82.5572C44.9792 82.5572 40.9091 78.4893 40.9091 73.4714V66.3054Z" fill="white"/>
</g>
</mask>
<g mask="url(#mask3_3795_827)">
<path id="Straps" fill-rule="evenodd" clip-rule="evenodd" d="M38.6364 84.7298V103H35.9849V83.3712C36.8196 83.8671 37.7071 84.3216 38.6364 84.7298ZM64.0152 83.3712V98.6465C64.0152 99.3783 63.4216 99.9715 62.6894 99.9715C61.9572 99.9715 61.3637 99.3783 61.3637 98.6465V84.7298C62.2929 84.3216 63.1804 83.8671 64.0152 83.3712Z" fill="#F4F4F4"/>
</g>
</g>
<g id="Mask group_5">
<mask id="mask4_3795_827" style="mask-type:luminance" maskUnits="userSpaceOnUse" x="12" y="66" width="76" height="37">
<g id="Group_6">
<path id="Vector_7" fill-rule="evenodd" clip-rule="evenodd" d="M40.9091 66.3054C34.1217 67.0645 28.8939 69.1375 28.7895 74.4727C18.9949 78.6079 12.1212 88.298 12.1212 99.5927V103H87.8788V99.5927C87.8788 88.298 81.0051 78.6079 71.2105 74.4728C71.1061 69.1375 65.8783 67.0645 59.0909 66.3054V73.4714C59.0909 78.4893 55.0208 82.5572 50 82.5572C44.9792 82.5572 40.9091 78.4893 40.9091 73.4714V66.3054Z" fill="white"/>
</g>
</mask>
<g mask="url(#mask4_3795_827)">
<path id="Shadow" fill-rule="evenodd" clip-rule="evenodd" d="M34.4547 66.1742C28.7536 67.2519 24.8107 69.3991 24.8107 73.5879C24.8107 81.0504 37.3249 87.1 50.0001 87.1C62.6752 87.1 75.1895 81.0504 75.1895 73.5879C75.1895 69.3991 71.2465 67.2519 65.5455 66.1742C68.9868 67.4424 71.2122 69.5744 71.2122 73.122C71.2122 80.8418 60.6738 87.1 50.0001 87.1C39.3263 87.1 28.7879 80.8418 28.7879 73.122C28.7879 69.5744 31.0134 67.4424 34.4547 66.1742Z" fill="black" fill-opacity="0.16"/>
</g>
</g>
</g>
<g id="Face">
<g id="Mouth/Smile">
<path id="Mouth" fill-rule="evenodd" clip-rule="evenodd" d="M42.8477 53.4557C43.2484 57.0489 46.2977 59.8429 50 59.8429C53.7137 59.8429 56.7705 57.0317 57.156 53.4223C57.187 53.1318 56.8624 52.65 56.4556 52.65C50.8139 52.65 46.4916 52.65 43.5935 52.65C43.1843 52.65 42.8076 53.0961 42.8477 53.4557Z" fill="black" fill-opacity="0.7"/>
<g id="Mask group_6">
<mask id="mask5_3795_827" style="mask-type:luminance" maskUnits="userSpaceOnUse" x="42" y="52" width="16" height="8">
<g id="Group_7">
<path id="Vector_8" fill-rule="evenodd" clip-rule="evenodd" d="M42.8477 53.4557C43.2484 57.0489 46.2977 59.8429 50 59.8429C53.7137 59.8429 56.7705 57.0317 57.156 53.4223C57.187 53.1318 56.8624 52.65 56.4556 52.65C50.8139 52.65 46.4916 52.65 43.5935 52.65C43.1843 52.65 42.8076 53.0961 42.8477 53.4557Z" fill="white"/>
</g>
</mask>
<g mask="url(#mask5_3795_827)">
<path id="Teeth" d="M54.1666 48.4857H46.2121C45.1661 48.4857 44.3181 49.3332 44.3181 50.3786V52.65C44.3181 53.6954 45.1661 54.5429 46.2121 54.5429H54.1666C55.2126 54.5429 56.0605 53.6954 56.0605 52.65V50.3786C56.0605 49.3332 55.2126 48.4857 54.1666 48.4857Z" fill="white"/>
</g>
</g>
<g id="Mask group_7">
<mask id="mask6_3795_827" style="mask-type:luminance" maskUnits="userSpaceOnUse" x="42" y="52" width="16" height="8">
<g id="Group_8">
<path id="Vector_9" fill-rule="evenodd" clip-rule="evenodd" d="M42.8477 53.4557C43.2484 57.0489 46.2977 59.8429 50 59.8429C53.7137 59.8429 56.7705 57.0317 57.156 53.4223C57.187 53.1318 56.8624 52.65 56.4556 52.65C50.8139 52.65 46.4916 52.65 43.5935 52.65C43.1843 52.65 42.8076 53.0961 42.8477 53.4557Z" fill="white"/>
</g>
</mask>
<g mask="url(#mask6_3795_827)">
<g id="Tongue">
<g id="Group_9">
<path id="Vector_10" d="M48.106 65.1429C50.4072 65.1429 52.2727 63.2785 52.2727 60.9786C52.2727 58.6787 50.4072 56.8143 48.106 56.8143C45.8048 56.8143 43.9393 58.6787 43.9393 60.9786C43.9393 63.2785 45.8048 65.1429 48.106 65.1429Z" fill="#FF4F6D"/>
<path id="Vector_11" d="M51.8938 65.1429C54.195 65.1429 56.0605 63.2785 56.0605 60.9786C56.0605 58.6787 54.195 56.8143 51.8938 56.8143C49.5927 56.8143 47.7272 58.6787 47.7272 60.9786C47.7272 63.2785 49.5927 65.1429 51.8938 65.1429Z" fill="#FF4F6D"/>
</g>
</g>
</g>
</g>
</g>
<g id="Nose/Default">
<path id="Nose" fill-rule="evenodd" clip-rule="evenodd" d="M45.4546 46.2142C45.4546 47.8869 47.4897 49.2428 50 49.2428C52.5104 49.2428 54.5455 47.8869 54.5455 46.2142" fill="black" fill-opacity="0.16"/>
</g>
<g id="Eyes/Default-&#240;&#159;&#152;&#128;">
<path id="Eye" d="M40.1515 41.6714C41.4067 41.6714 42.4242 40.6544 42.4242 39.4C42.4242 38.1455 41.4067 37.1285 40.1515 37.1285C38.8963 37.1285 37.8788 38.1455 37.8788 39.4C37.8788 40.6544 38.8963 41.6714 40.1515 41.6714Z" fill="black" fill-opacity="0.6"/>
<path id="Eye_2" d="M59.8485 41.6714C61.1037 41.6714 62.1213 40.6544 62.1213 39.4C62.1213 38.1455 61.1037 37.1285 59.8485 37.1285C58.5933 37.1285 57.5758 38.1455 57.5758 39.4C57.5758 40.6544 58.5933 41.6714 59.8485 41.6714Z" fill="black" fill-opacity="0.6"/>
</g>
<g id="Eyebrow/Natural/Raised-Excited-Natural">
<path id="Eye-Browse-Reddit" fill-rule="evenodd" clip-rule="evenodd" d="M37.4115 28.6404L37.7566 28.488C39.7421 27.7001 42.7518 28.0304 44.592 28.9132C44.8068 29.0163 44.6599 29.3497 44.4399 29.3327C38.7887 28.8969 34.9842 32.4163 33.6917 34.7992C33.6534 34.8699 33.5376 34.8779 33.509 34.812C32.635 32.7985 35.1945 29.5178 37.4115 28.6404Z" fill="black" fill-opacity="0.6"/>
<path id="Eye-Browse-Reddit_2" fill-rule="evenodd" clip-rule="evenodd" d="M62.5886 28.6404L62.2435 28.488C60.258 27.7001 57.2484 28.0304 55.4081 28.9132C55.1933 29.0163 55.3402 29.3497 55.5603 29.3327C61.2114 28.8969 65.0159 32.4163 66.3084 34.7992C66.3467 34.8699 66.4625 34.8779 66.4912 34.812C67.3651 32.7985 64.8056 29.5178 62.5886 28.6404Z" fill="black" fill-opacity="0.6"/>
</g>
</g>
<g id="Top">
<g id="Mask group_8">
<mask id="mask7_3795_827" style="mask-type:luminance" maskUnits="userSpaceOnUse" x="0" y="-3" width="100" height="106">
<g id="Group_10">
<path id="Vector_12" d="M100 -3H0V103H100V-3Z" fill="white"/>
</g>
</mask>
<g mask="url(#mask7_3795_827)">
<g id="Top/Short-Hair/The-Caesar-+-Side-Part">
<g id="Group_11">
<g id="Hair">
<path id="Caesar" fill-rule="evenodd" clip-rule="evenodd" d="M59.0977 19.1004C56.4341 18.8378 53.2793 18.6737 50.1184 18.6715C42.8061 18.6663 35.4614 19.5187 34.0909 20.4714C30.4151 23.2153 28.9914 33.5116 29.1666 34.1C29.0427 34.5628 28.5405 34.6634 28.4091 34.1C28.1367 30.2014 28.4091 10.5247 50 10.25C71.5909 9.97526 71.8633 30.2014 71.5909 34.1C71.4595 34.6634 70.9573 34.5628 70.8333 34.1C71.0086 33.5116 69.5849 23.2153 65.9091 20.4714C65.2427 20.0082 63.1639 19.5667 60.3631 19.2369L61.7424 15.9285L59.0977 19.1004Z" fill="#28354B"/>
<g id="Mask group_9">
<mask id="mask8_3795_827" style="mask-type:luminance" maskUnits="userSpaceOnUse" x="28" y="10" width="44" height="25">
<g id="Group_12">
<path id="Vector_13" fill-rule="evenodd" clip-rule="evenodd" d="M59.0977 19.1004C56.4341 18.8378 53.2793 18.6737 50.1184 18.6715C42.8061 18.6663 35.4614 19.5187 34.0909 20.4714C30.4151 23.2153 28.9914 33.5116 29.1666 34.1C29.0427 34.5628 28.5405 34.6634 28.4091 34.1C28.1367 30.2014 28.4091 10.5247 50 10.25C71.5909 9.97526 71.8633 30.2014 71.5909 34.1C71.4595 34.6634 70.9573 34.5628 70.8333 34.1C71.0086 33.5116 69.5849 23.2153 65.9091 20.4714C65.2427 20.0082 63.1639 19.5667 60.3631 19.2369L61.7424 15.9285L59.0977 19.1004Z" fill="white"/>
</g>
</mask>
<g mask="url(#mask8_3795_827)">
<g id="Skin/&#240;&#159;&#145;&#182;&#240;&#159;&#143;&#189;-03-Brown_2">
<g id="Color_2">
<path id="Vector_14" d="M128.03 9.87134H28.0303V115.871H128.03V9.87134Z" fill="#4A312C"/>
</g>
</g>
</g>
</g>
</g>
<g id="Top/_Resources/Prescription-02">
<g id="Wayfarers">
<path id="Left" d="M38.2575 47.3499H37.2129C31.9374 47.3499 28.7878 44.4485 28.7878 39.5892C28.7878 35.6623 29.4761 31.8285 37.7007 31.8285H38.8144C47.039 31.8285 47.7272 35.6623 47.7272 39.5892C47.7272 44.158 43.8338 47.3499 38.2575 47.3499ZM37.6459 34.0999C30.303 34.0999 30.303 36.6897 30.303 39.9684C30.303 42.645 31.4834 45.8356 37.1102 45.8356H38.2575C42.9412 45.8356 46.2121 43.423 46.2121 39.9684C46.2121 36.6897 46.2121 34.0999 38.8691 34.0999H37.6459Z" fill="#252C2F"/>
<path id="Right" d="M61.7424 47.3499H60.6978C55.4222 47.3499 52.2727 44.4485 52.2727 39.5892C52.2727 35.6623 52.961 31.8285 61.1856 31.8285H62.2992C70.5238 31.8285 71.2121 35.6623 71.2121 39.5892C71.2121 44.158 67.3186 47.3499 61.7424 47.3499ZM61.1308 34.0999C53.7879 34.0999 53.7879 36.6897 53.7879 39.9684C53.7879 42.645 54.9695 45.8356 60.595 45.8356H61.7424C66.4261 45.8356 69.6969 43.423 69.6969 39.9684C69.6969 36.6897 69.6969 34.0999 62.354 34.0999H61.1308Z" fill="#252C2F"/>
<path id="Stuff" d="M26.4979 34.0134C26.7598 33.7578 29.6248 31.8285 37.6894 31.8285C44.4513 31.8285 45.8827 32.5299 48.0493 33.5896L48.2079 33.6678C48.3586 33.721 49.1289 33.9825 50.0299 34.0113C50.8509 33.976 51.553 33.7537 51.7582 33.6824C54.2312 32.4804 56.6519 31.8285 62.3106 31.8285C70.3752 31.8285 73.2402 33.7578 73.5021 34.0134C74.121 34.0134 74.6212 34.5018 74.6212 35.1059V36.1984C74.6212 36.8025 74.121 37.2909 73.5021 37.2909C73.5021 37.2909 70.8879 37.2909 70.8879 38.3833C70.8879 39.4758 70.1446 36.8025 70.1446 36.1984V35.1343C68.7798 34.6123 66.3365 33.6404 62.3106 33.6404C57.8252 33.6404 55.5913 34.4353 53.6751 35.2247L53.6965 35.2763L53.6956 36.0283L52.8557 38.0536L51.8184 37.6437C51.7257 37.6071 51.5258 37.5413 51.2486 37.473C50.4759 37.2825 49.6814 37.2245 48.9788 37.3686C48.7211 37.4215 48.4819 37.5009 48.2624 37.608L47.2615 38.0968L46.2601 36.1428L46.3046 35.2742L46.3352 35.2004C44.6826 34.4307 43.1588 33.6404 37.6894 33.6404C33.6637 33.6404 31.2205 34.6119 29.8554 35.134V36.1984C29.8554 36.8025 28.7362 39.4758 28.7362 38.3833C28.7362 37.2909 26.4979 37.2909 26.4979 37.2909C25.8802 37.2909 25.3788 36.8025 25.3788 36.1984V35.1059C25.3788 34.5018 25.8802 34.0134 26.4979 34.0134Z" fill="#252C2F"/>
</g>
</g>
</g>
</g>
</g>
</g>
</g>
</g>
</g>
</g>
</g>
</svg>
