<svg width="195" height="212" viewBox="0 0 195 212" fill="none" xmlns="http://www.w3.org/2000/svg">
<g id="Vector" style="mix-blend-mode:color-burn">
<path d="M182.061 33.4379L194.041 45.2261C195.908 47.0627 196.151 49.9486 194.608 51.9599L177.935 74.5262C180.649 80.873 182.327 87.524 183.338 94.2543L209.29 105.084C209.885 105.376 210.407 105.742 210.855 106.183C212.124 107.432 212.731 109.352 212.225 111.207L201.684 151.719C201.035 154.315 198.599 155.889 196.076 155.613L168.175 152.425C166.118 155.107 163.912 157.79 161.483 160.252C159.053 162.715 156.4 164.957 153.745 167.051L157.351 194.864C157.665 197.379 156.051 199.761 153.535 200.521L113.13 211.648C111.28 212.181 109.348 211.604 108.004 210.281C107.556 209.841 107.182 209.325 106.956 208.809L95.7277 183.054C88.9005 182.219 82.29 180.568 75.8951 177.952L53.5483 194.935C51.5574 196.506 48.6643 196.306 46.7978 194.47L34.8173 182.682L49.5416 167.757L51.8163 169.995L72.6876 154.06L83.7674 158.639C88.303 160.454 92.9827 161.676 98.1777 162.376L110.125 163.838L114.874 174.834L120.601 187.969L134.735 184.082L132.856 169.88L131.365 158.118L140.729 150.714C143.236 148.622 145.078 147.052 146.551 145.56C148.023 144.067 149.567 142.204 151.552 139.745L158.826 130.284L170.624 131.599L184.872 133.265L188.554 119.093L175.317 113.569L164.46 109.063L162.747 97.3772C161.893 91.8304 160.599 87.0275 158.789 82.747L154.041 71.7513L161.165 62.1436L169.611 50.6004L167.337 48.3623L182.061 33.4379Z" fill="#99803F"/>
<path d="M137.746 78.3548C151.399 94.7057 150.64 119.045 135.352 134.54C120.063 150.036 95.7059 151.155 79.1322 137.765L137.746 78.3548Z" fill="#99803F"/>
<path d="M36.8837 160.425L23.6633 147.417C18.2793 148.919 12.2645 147.581 7.99965 143.384C1.6584 137.145 1.58689 126.949 7.83994 120.611C14.093 114.273 24.3026 114.193 30.6439 120.432C35.2022 124.917 36.5208 131.447 34.5793 137.118L47.4162 149.749L36.8837 160.425Z" fill="#99803F"/>
<path d="M74.5584 122.238L48.5387 96.6364L28.2525 96.4791C27.5876 97.7961 26.7091 99.0337 25.6168 100.141C19.9738 105.86 10.7603 105.932 5.03767 100.302C-0.684891 94.671 -0.74942 85.4697 4.89354 79.7501C10.5365 74.0305 19.7501 73.9584 25.4727 79.5892C26.0784 80.1852 26.6208 80.8212 27.0997 81.4889L54.3103 81.6998L54.5224 81.4848L85.0909 111.563L74.5584 122.238Z" fill="#99803F"/>
<path d="M93.0791 103.466L45.0941 56.2512C39.94 57.7388 34.1559 56.4789 30.0647 52.4534C24.0337 46.5192 23.9657 36.8219 29.9128 30.794C35.86 24.766 45.5702 24.6901 51.6013 30.6244C55.6924 34.6498 57.0396 40.4069 55.6267 45.5756L103.612 92.7905L93.0791 103.466Z" fill="#99803F"/>
<path d="M111.6 84.6938L81.0313 54.6158L81.2434 54.4009L80.6286 27.2329C79.953 26.7646 79.3081 26.2325 78.7024 25.6364C72.9798 20.0057 72.9153 10.8044 78.5582 5.0848C84.2012 -0.634821 93.4148 -0.70688 99.1374 4.92386C104.86 10.5546 104.924 19.7559 99.2815 25.4755C98.1892 26.5826 96.9631 27.4782 95.6544 28.1617L96.1128 48.4161L122.132 74.0181L111.6 84.6938Z" fill="#99803F"/>
<path d="M149.032 46.7537L133.543 31.514C128.59 32.8586 123.075 31.6117 119.157 27.7567C113.292 21.9859 113.226 12.5556 119.009 6.69371C124.793 0.831808 134.235 0.757953 140.1 6.52877C144.018 10.3838 145.349 15.8719 144.076 20.8384L159.564 36.078L149.032 46.7537Z" fill="#99803F"/>
</g>
</svg>
