<svg width="39" height="39" viewBox="0 0 39 39" fill="none" xmlns="http://www.w3.org/2000/svg">
<g style="mix-blend-mode:luminosity">
<path fill-rule="evenodd" clip-rule="evenodd" d="M27.9231 36.265C18.4689 40.7223 7.19149 36.6716 2.73416 27.2175C-1.72316 17.7634 2.32754 6.48592 11.7817 2.0286C21.2358 -2.42873 32.5132 1.62197 36.9706 11.0761C41.4279 20.5302 37.3772 31.8077 27.9231 36.265ZM12.2081 2.93311C3.25353 7.15491 -0.583129 17.8365 3.63868 26.791C7.86048 35.7456 18.542 39.5823 27.4966 35.3605C36.4512 31.1387 40.2878 20.4571 36.066 11.5025C31.8442 2.54797 21.1627 -1.2887 12.2081 2.93311Z" fill="#096C4E"/>
<path fill-rule="evenodd" clip-rule="evenodd" d="M27.4966 35.3605C22.8835 37.5354 17.8121 37.5716 13.4017 35.8712L25.7665 2.22511C30.1456 3.75588 33.9315 6.97509 36.066 11.5025C40.2878 20.4571 36.4512 31.1387 27.4966 35.3605ZM19.1493 26.6247L19.2628 25.7848C19.3321 25.3361 19.4126 24.7935 19.504 24.1567L19.5047 24.1516L19.6911 22.9407L19.7057 22.8983C19.759 22.7435 19.8955 22.471 20.2197 22.4013L20.2326 22.3985C20.3544 22.3757 20.4893 22.3719 20.6233 22.3763C20.8192 22.3828 21.0615 22.4433 21.2373 22.6487C21.3772 22.8044 21.4375 22.9947 21.4364 23.1842C21.4379 23.2214 21.4376 23.2586 21.4358 23.2957C21.7582 23.281 22.08 23.2443 22.4013 23.1855L22.4028 23.1853C22.946 23.0876 23.4858 22.9783 24.022 22.8573C24.5721 22.7331 25.1219 22.6208 25.6713 22.5204C26.2488 22.4148 26.8291 22.3716 27.4117 22.3909C27.5301 22.3949 27.6507 22.4154 27.7676 22.4596C28.0601 22.5529 28.1864 22.8099 28.2387 22.9732L28.2913 23.1376L28.2313 23.2994C28.163 23.4836 28.0463 23.6382 27.8899 23.755C27.7368 23.8694 27.5326 23.9472 27.3316 24.007C27.1243 24.0713 26.8562 24.1333 26.5353 24.1944L26.5235 24.1966C26.214 24.2479 25.8129 24.3195 25.319 24.4122L25.3116 24.4136C24.8169 24.4986 24.2121 24.6034 23.4971 24.7281C22.8899 24.8353 22.1857 24.9655 21.3841 25.1188L21.3664 25.6529C21.4536 25.6427 21.5445 25.6311 21.6389 25.6182C22.2429 25.5354 22.7314 25.4949 23.087 25.5068C23.4028 25.5173 23.6673 25.53 23.8789 25.5452C24.1592 25.565 24.45 25.6462 24.746 25.7708C25.1078 25.9235 25.4068 26.1576 25.6195 26.4779C25.8302 26.7951 25.938 27.1688 25.9665 27.5756L25.9683 27.6013L25.9674 27.6271C25.9478 28.2173 25.7638 28.7428 25.3973 29.1736C25.0705 29.5596 24.6656 29.861 24.1906 30.0791C23.3301 30.4742 22.3541 30.6454 21.2759 30.6096C21.0463 30.6019 20.7895 30.5728 20.588 30.4635C20.2543 30.2826 20.1882 29.9397 20.1962 29.6982C20.2062 29.3957 20.3398 29.1377 20.5356 28.9316C20.7417 28.7147 21.0155 28.5685 21.3434 28.5794L21.8431 28.5961L21.8363 28.7998C22.473 28.8018 22.9137 28.7595 23.1819 28.6874C23.539 28.5831 23.7897 28.4451 23.96 28.2911C24.1071 28.1579 24.1805 28.0018 24.1875 27.7907C24.1973 27.4969 24.1374 27.3947 24.1188 27.3727C24.036 27.2743 23.9333 27.1979 23.8028 27.1427L23.7967 27.1401C23.5564 27.0346 23.2676 26.9706 22.9215 26.9591C22.5376 26.9463 22.296 26.9698 22.1642 27.0056C21.9722 27.0578 21.7838 27.1173 21.599 27.1842L21.588 27.1882C21.0482 27.3694 20.5754 27.4791 20.2078 27.4669L20.0204 27.4607C19.8441 27.4548 19.6235 27.4191 19.439 27.2794C19.2233 27.1162 19.1409 26.8774 19.1484 26.65L19.1493 26.6247ZM29.9043 30.8837C29.1206 30.8577 28.417 30.6305 27.8115 30.1925C27.4813 29.9647 27.2147 29.6815 27.0207 29.3428L27.0175 29.3372C26.8196 28.9809 26.7246 28.5959 26.7381 28.1911C26.75 27.8318 26.8172 27.4252 26.9307 26.977C27.0441 26.5291 27.1821 26.1106 27.3457 25.7225L27.3494 25.7141C27.5201 25.329 27.7194 24.9576 27.9471 24.5999L27.9517 24.5929C28.194 24.2261 28.4672 23.8989 28.7721 23.6136L28.7771 23.609C29.4673 22.9805 30.2641 22.6607 31.1499 22.6901C32.2894 22.728 33.1988 23.187 33.8052 24.0852C34.3459 24.8689 34.5832 25.8107 34.5477 26.8796C34.5052 28.1585 34.0568 29.199 33.1613 29.9305L33.1583 29.9329C32.2961 30.626 31.1948 30.9266 29.9043 30.8837ZM32.2357 28.691C32.6783 28.2709 32.9476 27.6327 32.9786 26.6984L32.9817 26.6047C33.009 25.7851 32.8246 25.2314 32.5059 24.8668C32.1847 24.4993 31.7249 24.2843 31.0624 24.2623L30.6525 24.2487C30.4829 24.243 30.1992 24.3503 29.8067 24.8574L29.8026 24.8626C29.4438 25.3139 29.1167 25.9133 28.8295 26.6745C28.5584 27.3916 28.4409 27.8774 28.4313 28.1653C28.4182 28.5579 28.5403 28.7919 28.7554 28.954C29.0018 29.1399 29.4381 29.2814 30.1444 29.3049C31.1412 29.338 31.8064 29.1043 32.2331 28.6935L32.2357 28.691Z" fill="#096C4E"/>
<path fill-rule="evenodd" clip-rule="evenodd" d="M3.9124 15.1118L3.79888 15.9517L3.79804 15.977C3.79048 16.2044 3.87291 16.4432 4.08856 16.6064C4.27308 16.7461 4.49373 16.7818 4.67003 16.7876L4.85742 16.7939C5.22501 16.8061 5.69784 16.6964 6.2376 16.5152L6.24859 16.5112C6.43341 16.4443 6.62181 16.3848 6.81384 16.3326C6.94562 16.2968 7.18722 16.2733 7.57111 16.2861C7.91721 16.2976 8.20599 16.3616 8.44627 16.4671L8.45241 16.4697C8.58288 16.5249 8.68564 16.6013 8.76841 16.6997C8.78697 16.7217 8.84691 16.8239 8.83714 17.1177C8.83013 17.3288 8.75666 17.4849 8.6096 17.6181C8.43935 17.7721 8.18862 17.9101 7.8315 18.0144C7.56326 18.0865 7.12262 18.1288 6.48591 18.1268L6.49268 17.923L5.99296 17.9064C5.66511 17.8955 5.39133 18.0417 5.18524 18.2585C4.98937 18.4647 4.85584 18.7227 4.84578 19.0252C4.83775 19.2667 4.90386 19.6096 5.23759 19.7905C5.43908 19.8998 5.69594 19.9289 5.92547 19.9366C7.00375 19.9724 7.97973 19.8012 8.84019 19.4061C9.31524 19.188 9.72014 18.8866 10.0469 18.5006C10.4134 18.0698 10.5974 17.5443 10.617 16.9541L10.6179 16.9283L10.6161 16.9026C10.5876 16.4958 10.4798 16.1221 10.2691 15.8049C10.0564 15.4846 9.75741 15.2505 9.39563 15.0978C9.09963 14.9732 8.80877 14.892 8.52845 14.8722C8.31689 14.857 8.05237 14.8443 7.73664 14.8338C7.38097 14.8219 6.89252 14.8624 6.28846 14.9452C6.19405 14.9581 6.10323 14.9697 6.01599 14.9799L6.03374 14.4458C6.83529 14.2925 7.53954 14.1623 8.14672 14.055C8.86173 13.9304 9.46653 13.8256 9.96118 13.7406L9.96864 13.7392C10.4625 13.6465 10.8636 13.5749 11.1731 13.5236L11.1849 13.5214C11.5058 13.4603 11.7739 13.3983 11.9812 13.334C12.1822 13.2742 12.3864 13.1964 12.5395 13.082C12.6959 12.9652 12.8126 12.8106 12.8809 12.6264L12.9409 12.4646L12.8883 12.3002C12.836 12.1369 12.7097 11.8799 12.4172 11.7866C12.3003 11.7424 12.1797 11.7219 12.0613 11.7179C11.4787 11.6986 10.8984 11.7418 10.3209 11.8474C9.77145 11.9478 9.22169 12.0601 8.67163 12.1842C8.13539 12.3053 7.59564 12.4146 7.05238 12.5123L7.05092 12.5125C6.72956 12.5713 6.40776 12.608 6.08539 12.6227C6.08721 12.5856 6.08747 12.5484 6.086 12.5112C6.08709 12.3217 6.02684 12.1314 5.88692 11.9757C5.71112 11.7703 5.46877 11.7098 5.27288 11.7033C5.13895 11.6989 5.00403 11.7027 4.88217 11.7255L4.86931 11.7283C4.54514 11.798 4.40858 12.0705 4.35527 12.2253L4.34065 12.2677L4.15431 13.4786L4.1536 13.4836C4.0622 14.1205 3.98175 14.6631 3.9124 15.1118Z" fill="#096C4E"/>
<path fill-rule="evenodd" clip-rule="evenodd" d="M12.4611 19.5195C13.0666 19.9575 13.7702 20.1847 14.5539 20.2107C15.8444 20.2536 16.9457 19.953 17.8079 19.2599L17.8109 19.2575C18.7064 18.526 19.1548 17.4855 19.1973 16.2066C19.2328 15.1377 18.9955 14.1959 18.4548 13.4122C17.8484 12.514 16.939 12.055 15.7995 12.0171C14.9137 11.9877 14.1169 12.3075 13.4267 12.936L13.4217 12.9406C13.1168 13.2259 12.8436 13.5531 12.6013 13.9199L12.5967 13.9269C12.369 14.2846 12.1697 14.656 11.999 15.0411L11.9953 15.0495C11.8317 15.4376 11.6937 15.8561 11.5803 16.304C11.4667 16.7522 11.3996 17.1588 11.3877 17.5181C11.3742 17.9229 11.4692 18.3079 11.6671 18.6642L11.6703 18.6698C11.8643 19.0085 12.1309 19.2917 12.4611 19.5195ZM17.6282 16.0254C17.5972 16.9597 17.3279 17.5979 16.8852 18.018L16.8826 18.0205C16.456 18.4313 15.7908 18.665 14.794 18.6319C14.0877 18.6084 13.6514 18.4669 13.405 18.281C13.1899 18.1189 13.0678 17.8849 13.0809 17.4923C13.0905 17.2044 13.208 16.7186 13.4791 16.0015C13.7663 15.2402 14.0934 14.6408 14.4522 14.1896L14.4563 14.1844C14.8488 13.6773 15.1325 13.57 15.3021 13.5757L15.712 13.5893C16.3745 13.6113 16.8343 13.8263 17.1555 14.1938C17.4742 14.5584 17.6586 15.1121 17.6313 15.9317L17.6282 16.0254Z" fill="#096C4E"/>
</g>
</svg>
