<svg width="69" height="75" viewBox="0 0 69 75" fill="none" xmlns="http://www.w3.org/2000/svg">
<g id="Vector" style="mix-blend-mode:color-burn">
<path fill-rule="evenodd" clip-rule="evenodd" d="M26.4911 0.00293842C28.2751 -0.0346533 30.0485 0.288774 31.707 0.954198C33.3655 1.61962 34.8757 2.61361 36.1487 3.87769C37.4216 5.14178 38.4317 6.65045 39.1195 8.31495C39.8065 9.97764 40.1536 12.073 40.1536 13.8492L40.1537 57.537C40.1512 59.8487 39.68 62.1354 38.7691 64.2559C37.8583 66.3763 36.5271 68.2854 34.8577 69.8654C33.1884 71.4453 31.2164 72.6625 29.0636 73.4418C26.9107 74.2211 24.6227 74.5459 22.3407 74.3962C20.0588 74.2465 17.8315 73.6254 15.7963 72.5714C13.7611 71.5174 11.9613 70.0527 10.508 68.2679C9.05463 66.4831 7.97866 64.4161 7.3465 62.1944C6.91441 60.6758 6.69593 59.1071 6.69454 57.5341C7.27059 57.9706 7.87556 58.3704 8.50617 58.7303L10.1509 55.7846L6.83254 55.351C6.73978 56.0766 6.69389 56.8058 6.69454 57.5341C5.10232 56.3273 3.73106 54.8394 2.65001 53.1365C1.17786 50.8174 0.288488 48.1699 0.059267 45.4241C-0.169954 42.6783 0.267918 39.9175 1.33479 37.3818C2.05978 35.6587 3.0603 34.0751 4.29095 32.6918C4.57865 33.5198 4.93048 34.3264 5.34437 35.1036L8.29053 33.5003L6.18077 30.8749C5.50283 31.4317 4.8713 32.0395 4.29095 32.6918C3.7423 31.1127 3.42694 29.4553 3.35936 27.7733C3.25635 25.2092 3.73184 22.6551 4.74982 20.3043C5.76779 17.9535 7.30156 15.8678 9.23496 14.205C10.5292 13.0919 11.9798 12.1879 13.5349 11.5201C13.4067 12.3828 13.361 13.2581 13.3997 14.1338L16.7423 13.9829L15.9091 10.7069C15.0964 10.9182 14.3029 11.1904 13.5349 11.5201C13.6705 10.6077 13.8984 9.70945 14.2163 8.83971C14.8349 7.14768 15.782 5.59777 17.0017 4.28116C18.2215 2.96455 19.6893 1.90781 21.319 1.1731C22.9486 0.438383 24.7072 0.0405303 26.4911 0.00293842ZM29.2385 7.24221C28.4093 6.9095 27.5226 6.74779 26.6306 6.76658C25.7386 6.78538 24.8593 6.9843 24.0445 7.35166C23.2297 7.71902 22.4958 8.24739 21.8859 8.90569C21.276 9.564 20.8025 10.3389 20.4932 11.185C20.1839 12.031 20.0451 12.931 20.0849 13.832C20.1555 15.4306 19.1085 16.8605 17.5755 17.2589C16.1005 17.6424 14.7311 18.3601 13.571 19.3578C12.411 20.3554 11.4907 21.6069 10.8799 23.0174C10.2692 24.4278 9.98387 25.9603 10.0457 27.4987C10.1075 29.0372 10.5148 30.5412 11.2367 31.897C11.998 33.3268 11.647 35.1018 10.4003 36.1257C9.13096 37.1682 8.13283 38.5084 7.4927 40.0298C6.85258 41.5512 6.58985 43.2077 6.72739 44.8552C6.86492 46.5026 7.39854 48.0912 8.28184 49.4826C9.16513 50.874 10.3713 52.0262 11.7955 52.8389C12.9819 53.5158 13.6438 54.8523 13.4692 56.2182C13.2933 57.5938 13.3982 58.9912 13.7775 60.3242C14.1568 61.6572 14.8024 62.8974 15.6744 63.9683C16.5464 65.0392 17.6263 65.918 18.8474 66.5504C20.0685 67.1828 21.4049 67.5555 22.7741 67.6453C24.1432 67.7351 25.5161 67.5402 26.8078 67.0726C28.0995 66.6051 29.2827 65.8747 30.2843 64.9268C31.2859 63.9788 32.0846 62.8333 32.6311 61.5611C33.1773 60.2896 33.46 58.9186 33.4618 57.5324V13.5601L33.4618 13.5502C33.4645 12.6482 33.2887 11.7548 32.9448 10.9226C32.6009 10.0903 32.0958 9.336 31.4594 8.70396C30.8229 8.07192 30.0678 7.57492 29.2385 7.24221Z" fill="#525252"/>
<path fill-rule="evenodd" clip-rule="evenodd" d="M36.9899 23.7128C38.8351 23.8145 40.2493 25.4091 40.1487 27.2745C39.9505 30.9485 38.6792 34.4805 36.4955 37.4241C34.3117 40.3676 31.3137 42.5904 27.8803 43.8114C26.1372 44.4314 24.2269 43.5053 23.6137 41.7431C23.0005 39.9808 23.9165 38.0496 25.6597 37.4297C27.8445 36.6527 29.7524 35.2382 31.142 33.365C32.5317 31.4918 33.3407 29.2442 33.4668 26.9062C33.5674 25.0408 35.1447 23.6111 36.9899 23.7128Z" fill="#525252"/>
<path fill-rule="evenodd" clip-rule="evenodd" d="M16.6056 10.6032C18.452 10.5269 20.0099 11.9782 20.0854 13.8448C20.1295 14.9356 20.4341 15.9995 20.9732 16.9455C21.8956 18.5642 21.3454 20.6324 19.7442 21.5649C18.143 22.4975 16.0972 21.9412 15.1747 20.3225C14.0966 18.4305 13.4874 16.3028 13.3992 14.1211C13.3237 12.2545 14.7593 10.6795 16.6056 10.6032Z" fill="#525252"/>
<path fill-rule="evenodd" clip-rule="evenodd" d="M13.1735 30.5228C14.0702 32.1562 13.4872 34.2153 11.8715 35.1218C11.3538 35.4123 10.8594 35.7477 10.4003 36.1257C8.96747 37.3054 6.86314 37.0883 5.69619 35.6398C4.52924 34.1913 4.74476 32.0607 6.17758 30.8809C6.9427 30.251 7.76146 29.6906 8.62428 29.2066C10.24 28.3 12.2768 28.8893 13.1735 30.5228Z" fill="#525252"/>
<path fill-rule="evenodd" clip-rule="evenodd" d="M7.23656 54.1262C8.14441 52.499 10.186 51.9211 11.7955 52.8389C13.3019 53.6978 15.0013 54.1516 16.7307 54.1508C18.5786 54.1499 20.0773 55.6636 20.0782 57.5318C20.079 59.3999 18.5817 60.915 16.7338 60.9159C13.8514 60.9173 11.0176 60.1657 8.50706 58.7342C6.89754 57.8164 6.32872 55.7533 7.23656 54.1262Z" fill="#525252"/>
<path fill-rule="evenodd" clip-rule="evenodd" d="M33.4618 40.6206C33.4618 38.7524 34.9598 37.238 36.8077 37.238H50.1914C52.0393 37.238 53.5373 38.7524 53.5373 40.6206C53.5373 42.4887 52.0393 44.0031 50.1914 44.0031H36.8077C34.9598 44.0031 33.4618 42.4887 33.4618 40.6206Z" fill="#525252"/>
<path fill-rule="evenodd" clip-rule="evenodd" d="M33.4618 57.5324C33.4618 55.6643 34.9598 54.1508 36.8077 54.1508H56.8832C59.5454 54.1508 62.0985 55.2199 63.981 57.123C65.8634 59.026 66.921 61.6071 66.921 64.2985V67.681C66.921 69.5492 65.4229 71.0636 63.575 71.0636C61.7271 71.0636 60.2291 69.5492 60.2291 67.681V64.2985C60.2291 63.4014 59.8766 62.541 59.2491 61.9066C58.6217 61.2723 57.7706 60.9159 56.8832 60.9159H36.8077C34.9598 60.9159 33.4618 59.4006 33.4618 57.5324Z" fill="#525252"/>
<path fill-rule="evenodd" clip-rule="evenodd" d="M33.4618 23.7078C33.4618 21.8397 34.9598 20.3252 36.8077 20.3252H63.575C65.4229 20.3252 66.921 21.8397 66.921 23.7078C66.921 25.5759 65.4229 27.0903 63.575 27.0903H36.8077C34.9598 27.0903 33.4618 25.5759 33.4618 23.7078Z" fill="#525252"/>
<path fill-rule="evenodd" clip-rule="evenodd" d="M56.8832 10.1776C55.9958 10.1776 55.1448 10.5339 54.5173 11.1683C53.8898 11.8026 53.5373 12.663 53.5373 13.5601V23.7078C53.5373 25.5759 52.0393 27.0903 50.1914 27.0903C48.3435 27.0903 46.8455 25.5759 46.8455 23.7078V13.5601C46.8455 10.8688 47.903 8.28769 49.7855 6.38464C51.6679 4.48158 54.221 3.41246 56.8832 3.41246C58.7311 3.41246 60.2291 4.92688 60.2291 6.79501C60.2291 8.66314 58.7311 10.1776 56.8832 10.1776Z" fill="#525252"/>
<path fill-rule="evenodd" clip-rule="evenodd" d="M50.1914 42.3119C51.1153 42.3119 51.8643 41.5546 51.8643 40.6206C51.8643 39.6865 51.1153 38.9293 50.1914 38.9293C49.2674 38.9293 48.5184 39.6865 48.5184 40.6206C48.5184 41.5546 49.2674 42.3119 50.1914 42.3119ZM45.1725 40.6206C45.1725 37.8184 47.4195 35.5467 50.1914 35.5467C52.9632 35.5467 55.2103 37.8184 55.2103 40.6206C55.2103 43.4228 52.9632 45.6944 50.1914 45.6944C47.4195 45.6944 45.1725 43.4228 45.1725 40.6206Z" fill="#525252"/>
<path fill-rule="evenodd" clip-rule="evenodd" d="M56.8832 8.48629C57.8072 8.48629 58.5562 7.72908 58.5562 6.79501C58.5562 5.86094 57.8072 5.10373 56.8832 5.10373C55.9593 5.10373 55.2103 5.86094 55.2103 6.79501C55.2103 7.72908 55.9593 8.48629 56.8832 8.48629ZM51.8643 6.79501C51.8643 3.99281 54.1114 1.72118 56.8832 1.72118C59.6551 1.72118 61.9021 3.99281 61.9021 6.79501C61.9021 9.59721 59.6551 11.8688 56.8832 11.8688C54.1114 11.8688 51.8643 9.59721 51.8643 6.79501Z" fill="#525252"/>
<path fill-rule="evenodd" clip-rule="evenodd" d="M63.575 69.3723C64.499 69.3723 65.248 68.6151 65.248 67.681C65.248 66.7469 64.499 65.9897 63.575 65.9897C62.6511 65.9897 61.9021 66.7469 61.9021 67.681C61.9021 68.6151 62.6511 69.3723 63.575 69.3723ZM58.5562 67.681C58.5562 64.8788 60.8032 62.6072 63.575 62.6072C66.3469 62.6072 68.5939 64.8788 68.5939 67.681C68.5939 70.4832 66.3469 72.7549 63.575 72.7549C60.8032 72.7549 58.5562 70.4832 58.5562 67.681Z" fill="#525252"/>
<path fill-rule="evenodd" clip-rule="evenodd" d="M63.575 25.3991C64.499 25.3991 65.248 24.6419 65.248 23.7078C65.248 22.7737 64.499 22.0165 63.575 22.0165C62.6511 22.0165 61.9021 22.7737 61.9021 23.7078C61.9021 24.6419 62.6511 25.3991 63.575 25.3991ZM58.5562 23.7078C58.5562 20.9056 60.8032 18.634 63.575 18.634C66.3469 18.634 68.5939 20.9056 68.5939 23.7078C68.5939 26.51 66.3469 28.7816 63.575 28.7816C60.8032 28.7816 58.5562 26.51 58.5562 23.7078Z" fill="#525252"/>
</g>
</svg>
