<svg width="32" height="33" viewBox="0 0 32 33" fill="none" xmlns="http://www.w3.org/2000/svg">
<g id="Content paste" clip-path="url(#clip0_1607_2418)">
<path id="Vector" d="M25.3333 2.98649H19.76C19.2 1.43982 17.7333 0.319824 16 0.319824C14.2667 0.319824 12.8 1.43982 12.24 2.98649H6.66667C5.2 2.98649 4 4.18649 4 5.65316V26.9865C4 28.4532 5.2 29.6532 6.66667 29.6532H25.3333C26.8 29.6532 28 28.4532 28 26.9865V5.65316C28 4.18649 26.8 2.98649 25.3333 2.98649ZM16 2.98649C16.7333 2.98649 17.3333 3.58649 17.3333 4.31982C17.3333 5.05316 16.7333 5.65316 16 5.65316C15.2667 5.65316 14.6667 5.05316 14.6667 4.31982C14.6667 3.58649 15.2667 2.98649 16 2.98649ZM25.3333 26.9865H6.66667V5.65316H9.33333V9.65316H22.6667V5.65316H25.3333V26.9865Z" fill="#525252"/>
</g>
<defs>
<clipPath id="clip0_1607_2418">
<rect width="32" height="32" fill="white" transform="translate(0 0.319824)"/>
</clipPath>
</defs>
</svg>
