<svg width="8" height="11" viewBox="0 0 8 11" fill="none" xmlns="http://www.w3.org/2000/svg">
<path id="Vector" d="M6.99211 4.31014H6.51592V3.35776C6.51592 2.04347 5.44925 0.976807 4.13496 0.976807C2.82068 0.976807 1.75401 2.04347 1.75401 3.35776V4.31014H1.27782C0.754011 4.31014 0.325439 4.73871 0.325439 5.26252V10.0244C0.325439 10.5482 0.754011 10.9768 1.27782 10.9768H6.99211C7.51592 10.9768 7.94449 10.5482 7.94449 10.0244V5.26252C7.94449 4.73871 7.51592 4.31014 6.99211 4.31014ZM4.13496 8.59585C3.61115 8.59585 3.18258 8.16728 3.18258 7.64347C3.18258 7.11966 3.61115 6.69109 4.13496 6.69109C4.65877 6.69109 5.08734 7.11966 5.08734 7.64347C5.08734 8.16728 4.65877 8.59585 4.13496 8.59585ZM2.70639 4.31014V3.35776C2.70639 2.56728 3.34449 1.92919 4.13496 1.92919C4.92544 1.92919 5.56353 2.56728 5.56353 3.35776V4.31014H2.70639Z" fill="white"/>
</svg>
