<svg width="22" height="22" viewBox="0 0 22 22" fill="none" xmlns="http://www.w3.org/2000/svg">
<g id="Frame 61">
<path id="Rectangle 38 (Stroke)" fill-rule="evenodd" clip-rule="evenodd" d="M0 3.78816C0 1.69602 1.69602 0 3.78816 0H18.2118C20.304 0 22 1.69602 22 3.78816V18.2118C22 20.304 20.304 22 18.2118 22H3.78816C1.69602 22 0 20.304 0 18.2118V3.78816ZM3.78816 2.06627C2.83718 2.06627 2.06627 2.83718 2.06627 3.78816V18.2118C2.06627 19.1628 2.83718 19.9337 3.78816 19.9337H18.2118C19.1628 19.9337 19.9337 19.1628 19.9337 18.2118V3.78816C19.9337 2.83718 19.1628 2.06627 18.2118 2.06627H3.78816Z" fill="#12A1D5"/>
<path id="D" d="M10.1353 16.5H6.57422V5.5H10.248C11.3258 5.5 12.2515 5.72021 13.0249 6.16064C13.7983 6.59749 14.391 7.22591 14.8027 8.0459C15.2181 8.8623 15.4258 9.84163 15.4258 10.9839C15.4258 12.1297 15.2163 13.1144 14.7974 13.938C14.382 14.7616 13.7804 15.3953 12.9927 15.8394C12.2049 16.2798 11.2524 16.5 10.1353 16.5ZM8.23389 15.0498H10.0439C10.8818 15.0498 11.5783 14.8923 12.1333 14.5771C12.6883 14.2585 13.1037 13.7983 13.3794 13.1968C13.6551 12.5916 13.793 11.854 13.793 10.9839C13.793 10.1209 13.6551 9.38867 13.3794 8.78711C13.1073 8.18555 12.7008 7.729 12.1602 7.41748C11.6195 7.10596 10.9481 6.9502 10.146 6.9502H8.23389V15.0498Z" fill="#12A1D5"/>
</g>
</svg>
