<svg width="36" height="36" viewBox="0 0 36 36" fill="none" xmlns="http://www.w3.org/2000/svg">
<path id="Vector (Stroke)" fill-rule="evenodd" clip-rule="evenodd" d="M13.3027 0.712672C14.1423 0.695171 14.9769 0.84574 15.7575 1.15552C16.5381 1.46531 17.2488 1.92805 17.8479 2.51654C17.9826 2.64881 18.111 2.78684 18.2328 2.93015C18.3547 2.78684 18.4831 2.64881 18.6177 2.51654C19.2169 1.92805 19.9276 1.46531 20.7082 1.15552C21.4887 0.84574 22.3234 0.695171 23.163 0.712672C24.0026 0.730172 24.8302 0.91539 25.5972 1.25743C26.3642 1.59947 27.055 2.09143 27.6291 2.70437C28.2032 3.31731 28.6489 4.03885 28.94 4.82657C29.0961 5.24901 29.2061 5.6859 29.2688 6.12965C30.0225 6.44351 30.7251 6.87322 31.3504 7.40519C32.2633 8.18174 32.9874 9.15583 33.468 10.2537C33.9486 11.3515 34.1731 12.5443 34.1245 13.7418C34.0918 14.5472 33.9361 15.3404 33.6648 16.0946C34.2641 16.7509 34.7502 17.5058 35.1003 18.3288C35.604 19.513 35.8107 20.8023 35.7025 22.0847C35.5943 23.367 35.1744 24.6034 34.4793 25.6865C33.9599 26.4958 33.2986 27.2012 32.5298 27.77C32.5339 28.5213 32.4307 29.2711 32.2221 29.9963C31.9236 31.0339 31.4156 31.9992 30.7295 32.8327C30.0433 33.6663 29.1935 34.3503 28.2327 34.8425C27.2718 35.3348 26.2202 35.6248 25.1428 35.6947C24.0655 35.7646 22.9852 35.6129 21.9688 35.249C20.9524 34.8851 20.0213 34.3166 19.2332 33.5788C18.8632 33.2324 18.5284 32.8521 18.2328 32.4437C17.9372 32.8521 17.6024 33.2324 17.2325 33.5788C16.4443 34.3166 15.5133 34.8851 14.4969 35.249C13.4804 35.6129 12.4002 35.7646 11.3228 35.6947C10.2455 35.6248 9.19387 35.3348 8.233 34.8425C7.27212 34.3503 6.42236 33.6663 5.7362 32.8327C5.05004 31.9992 4.54204 31.0339 4.24358 29.9963C4.03496 29.2711 3.93181 28.5213 3.93588 27.77C3.1671 27.2012 2.50577 26.4958 1.98635 25.6865C1.2913 24.6034 0.871403 23.367 0.763181 22.0847C0.654958 20.8023 0.861691 19.513 1.3654 18.3288C1.71546 17.5058 2.20158 16.7509 2.80084 16.0946C2.52957 15.3404 2.37389 14.5472 2.34118 13.7418C2.29255 12.5443 2.51704 11.3515 2.99766 10.2537C3.47828 9.15583 4.20241 8.18174 5.11523 7.40519C5.74055 6.87322 6.44319 6.4435 7.1969 6.12965C7.25955 5.6859 7.36953 5.24901 7.52566 4.82657C7.81679 4.03886 8.2625 3.31731 8.83657 2.70437C9.41064 2.09143 10.1015 1.59947 10.8685 1.25743C11.6354 0.91539 12.4631 0.730172 13.3027 0.712672ZM7.56488 9.31326C7.38883 9.42762 7.21986 9.55346 7.05913 9.6902C6.49301 10.1718 6.04392 10.7759 5.74585 11.4568C5.44777 12.1376 5.30855 12.8774 5.33871 13.6201C5.34837 13.8578 5.37531 14.0939 5.41903 14.3265C5.98572 14.2829 6.55265 14.565 6.8465 15.0945C7.24849 15.8188 6.98717 16.7319 6.26281 17.1339C6.00706 17.2758 5.76773 17.437 5.5464 17.6173L5.54497 17.6184C4.92553 18.1217 4.43843 18.7686 4.12604 19.503C3.81365 20.2375 3.68544 21.0371 3.75255 21.8324C3.81967 22.6276 4.08009 23.3945 4.51114 24.0661C4.94212 24.7377 5.53062 25.2938 6.22547 25.6861C6.96185 26.1014 7.79181 26.32 8.63433 26.3196C9.46276 26.3192 10.1346 26.9905 10.135 27.8189C10.1354 28.6473 9.46416 29.3192 8.63573 29.3196C8.12781 29.3198 7.62331 29.2709 7.12891 29.1748C7.31431 29.8153 7.62853 30.4112 8.05236 30.9261C8.47791 31.443 9.00492 31.8672 9.60083 32.1725C10.1968 32.4778 10.8489 32.6577 11.5171 32.701C12.1852 32.7444 12.8552 32.6503 13.4856 32.4246C14.116 32.1989 14.6934 31.8463 15.1822 31.3887C15.6709 30.9311 16.0607 30.3782 16.3274 29.764C16.594 29.1501 16.732 28.4881 16.7328 27.8188C16.7328 27.8185 16.7328 27.8183 16.7328 27.818L16.7328 19.6122C15.9131 20.3206 14.964 20.8733 13.9317 21.2364C13.1502 21.5113 12.2938 21.1007 12.0189 20.3192C11.744 19.5377 12.1547 18.6813 12.9362 18.4064C13.9993 18.0324 14.9276 17.3516 15.6038 16.45C16.2723 15.5587 16.6647 14.4912 16.7328 13.3796V7.02634C16.7328 7.01648 16.7328 7.00662 16.7328 6.99677C16.7311 6.56482 16.6445 6.13735 16.4779 5.73863C16.3084 5.3328 16.0594 4.96496 15.7457 4.65675C15.4319 4.34855 15.0597 4.1062 14.6509 3.94395C14.2421 3.78171 13.8049 3.70285 13.3652 3.71202C12.9255 3.72119 12.492 3.81819 12.0903 3.99732C11.6886 4.17646 11.3268 4.43411 11.0262 4.75513C10.7255 5.07614 10.4921 5.45403 10.3396 5.86658C10.1871 6.27913 10.1187 6.718 10.1383 7.15738L10.1386 7.16303L10.1386 7.16303C10.1603 7.69496 10.3105 8.21373 10.5762 8.67503C10.9898 9.39286 10.7431 10.31 10.0253 10.7235C9.30742 11.1371 8.39027 10.8904 7.97673 10.1726C7.81745 9.89607 7.67991 9.60877 7.56488 9.31326ZM19.7328 7.02597V13.3797C19.801 14.4912 20.1933 15.5587 20.8618 16.45C21.538 17.3516 22.4664 18.0324 23.5295 18.4064C24.311 18.6813 24.7217 19.5377 24.4467 20.3192C24.1718 21.1007 23.3154 21.5113 22.534 21.2364C21.5016 20.8733 20.5525 20.3206 19.7328 19.6122L19.7328 27.818C19.7328 27.8185 19.7328 27.8191 19.7328 27.8196C19.7338 28.4886 19.8717 29.1504 20.1382 29.764C20.4049 30.3782 20.7947 30.9311 21.2835 31.3887C21.7723 31.8463 22.3497 32.1989 22.9801 32.4246C23.6105 32.6503 24.2804 32.7444 24.9486 32.701C25.6167 32.6577 26.2689 32.4778 26.8648 32.1725C27.4608 31.8672 27.9878 31.443 28.4133 30.9261C28.8371 30.4112 29.1514 29.8153 29.3368 29.1748C28.8424 29.2709 28.3379 29.3198 27.8299 29.3196C27.0015 29.3192 26.3303 28.6473 26.3306 27.8189C26.331 26.9905 27.0029 26.3192 27.8313 26.3196C28.6739 26.32 29.5038 26.1014 30.2402 25.6861C30.935 25.2938 31.5236 24.7377 31.9545 24.0661C32.3856 23.3945 32.646 22.6276 32.7131 21.8324C32.7802 21.0371 32.652 20.2375 32.3396 19.503C32.0272 18.7686 31.5401 18.1217 30.9207 17.6184L30.9193 17.6173C30.6979 17.437 30.4586 17.2758 30.2029 17.1339C29.4785 16.7319 29.2172 15.8188 29.6192 15.0945C29.913 14.565 30.4799 14.2829 31.0466 14.3265C31.0904 14.0939 31.1173 13.8578 31.127 13.6201C31.1571 12.8774 31.0179 12.1376 30.7198 11.4568C30.4218 10.7759 29.9727 10.1718 29.4065 9.6902C29.2459 9.5535 29.0769 9.42769 28.9009 9.31336C28.7859 9.60899 28.6482 9.89659 28.4884 10.1735C28.0744 10.891 27.157 11.1371 26.4395 10.723C25.722 10.309 25.4759 9.39163 25.89 8.6741C26.1551 8.21467 26.305 7.69619 26.3271 7.1621L26.3273 7.15738C26.347 6.718 26.2785 6.27912 26.126 5.86658C25.9736 5.45403 25.7401 5.07614 25.4395 4.75513C25.1388 4.43411 24.777 4.17646 24.3753 3.99732C23.9736 3.81819 23.5402 3.72119 23.1005 3.71202C22.6607 3.70285 22.2236 3.78171 21.8148 3.94395C21.406 4.1062 21.0338 4.34855 20.72 4.65675C20.4062 4.96496 20.1573 5.3328 19.9877 5.73863C19.8212 6.13735 19.7346 6.56483 19.7328 6.99678C19.7329 7.00651 19.7329 7.01624 19.7328 7.02597Z" fill="white"/>
</svg>
