<svg width="14" height="14" viewBox="0 0 14 14" fill="none" xmlns="http://www.w3.org/2000/svg">
<path d="M7.00016 10C7.18905 10 7.3475 9.936 7.4755 9.808C7.60305 9.68044 7.66683 9.52222 7.66683 9.33333C7.66683 9.14444 7.60305 8.986 7.4755 8.858C7.3475 8.73044 7.18905 8.66667 7.00016 8.66667C6.81127 8.66667 6.65305 8.73044 6.5255 8.858C6.3975 8.986 6.3335 9.14444 6.3335 9.33333C6.3335 9.52222 6.3975 9.68044 6.5255 9.808C6.65305 9.936 6.81127 10 7.00016 10ZM6.3335 7.33333H7.66683V3.33333H6.3335V7.33333ZM7.00016 13.3333C6.07794 13.3333 5.21127 13.1582 4.40016 12.808C3.58905 12.4582 2.8835 11.9833 2.2835 11.3833C1.6835 10.7833 1.20861 10.0778 0.858829 9.26667C0.508607 8.45556 0.333496 7.58889 0.333496 6.66667C0.333496 5.74444 0.508607 4.87778 0.858829 4.06667C1.20861 3.25556 1.6835 2.55 2.2835 1.95C2.8835 1.35 3.58905 0.874889 4.40016 0.524667C5.21127 0.174889 6.07794 0 7.00016 0C7.92239 0 8.78905 0.174889 9.60016 0.524667C10.4113 0.874889 11.1168 1.35 11.7168 1.95C12.3168 2.55 12.7917 3.25556 13.1415 4.06667C13.4917 4.87778 13.6668 5.74444 13.6668 6.66667C13.6668 7.58889 13.4917 8.45556 13.1415 9.26667C12.7917 10.0778 12.3168 10.7833 11.7168 11.3833C11.1168 11.9833 10.4113 12.4582 9.60016 12.808C8.78905 13.1582 7.92239 13.3333 7.00016 13.3333Z" fill="#EF4444"/>
</svg>
