<svg width="17" height="24" viewBox="0 0 17 24" fill="none" xmlns="http://www.w3.org/2000/svg">
<path id="Vector" d="M7.45036 6.86652L7.45024 6.86627C6.97314 5.91252 6.95148 5.11164 7.23446 4.3256C7.36459 3.96411 7.5679 3.58309 7.85394 3.18074C8.83659 5.56598 10.4517 7.72907 12.4325 9.31371C14.5834 11.0344 15.5 12.9338 15.5 14.7982C15.5 15.7136 15.3197 16.6201 14.9694 17.4659C14.619 18.3116 14.1056 19.0801 13.4582 19.7274C12.8109 20.3747 12.0424 20.8882 11.1967 21.2385C10.3509 21.5889 9.44445 21.7692 8.529 21.7692C7.61356 21.7692 6.70708 21.5889 5.86132 21.2385C5.01556 20.8882 4.24709 20.3747 3.59977 19.7274C2.95245 19.0801 2.43897 18.3116 2.08865 17.4659C1.73832 16.6201 1.55801 15.7136 1.55801 14.7982C1.55801 14.7897 1.55804 14.7813 1.55809 14.7728C2.34052 15.3665 3.30018 15.6931 4.29351 15.6931C5.49371 15.6931 6.64475 15.2163 7.49342 14.3677C8.34208 13.519 8.81886 12.368 8.81886 11.1678C8.81886 9.39694 8.22078 8.29698 7.72566 7.38637C7.62811 7.20696 7.53456 7.03491 7.45036 6.86652Z" fill="white" stroke="url(#paint0_linear_1065_621)" stroke-width="3" stroke-linecap="round" stroke-linejoin="round"/>
<defs>
<linearGradient id="paint0_linear_1065_621" x1="8.529" y1="0.276489" x2="8.529" y2="23.2692" gradientUnits="userSpaceOnUse">
<stop stop-color="#FF6B2C"/>
<stop offset="1" stop-color="#E67C00"/>
</linearGradient>
</defs>
</svg>
