<svg width="20" height="22" viewBox="0 0 20 22" fill="none" xmlns="http://www.w3.org/2000/svg">
<path id="Vector" d="M9.95589 0.357666C10.3657 0.357666 10.6978 0.688689 10.6978 1.09702V2.67293L11.7701 1.96054C12.1111 1.73404 12.5717 1.82586 12.799 2.1656C13.0263 2.50535 12.9342 2.9644 12.5933 3.19091L10.6978 4.45011V9.42822L15.0243 6.93902L15.171 4.67365C15.1974 4.26616 15.5502 3.95714 15.959 3.98342C16.368 4.00969 16.6781 4.36133 16.6517 4.76882L16.5688 6.05044L17.9384 5.26248C18.2932 5.05832 18.7469 5.17947 18.9519 5.5331C19.1568 5.88673 19.0351 6.3389 18.6803 6.54307L17.3107 7.33102L18.466 7.90025C18.8333 8.08124 18.9838 8.52468 18.8023 8.89072C18.6207 9.25675 18.1756 9.40677 17.8082 9.22578L15.7663 8.21962L11.4397 10.7089L15.7652 13.1976L17.8074 12.1914C18.1746 12.0104 18.6196 12.1604 18.8012 12.5265C18.9829 12.8925 18.8324 13.3359 18.465 13.5169L17.3098 14.0861L18.6793 14.8741C19.0342 15.0783 19.1557 15.5305 18.9508 15.8841C18.746 16.2378 18.2923 16.3589 17.9373 16.1547L16.5679 15.3668L16.6508 16.6484C16.6771 17.0558 16.3671 17.4074 15.9581 17.4337C15.5492 17.4601 15.1963 17.151 15.1699 16.7435L15.0233 14.4781L10.6978 11.9895V16.9671L12.5933 18.2263C12.9342 18.4529 13.0263 18.9118 12.799 19.2517C12.5717 19.5913 12.1111 19.6831 11.7701 19.4566L10.6978 18.7443V20.3202C10.6978 20.7284 10.3657 21.0595 9.95589 21.0595C9.54614 21.0595 9.21396 20.7284 9.21396 20.3202V18.7443L8.14163 19.4566C7.8007 19.6831 7.34006 19.5913 7.11276 19.2517C6.88546 18.9118 6.97759 18.4529 7.31853 18.2263L9.21396 16.9671V11.9894L4.88836 14.4781L4.74174 16.7435C4.71537 17.151 4.3625 17.4601 3.95359 17.4337C3.54468 17.4074 3.23457 17.0558 3.26095 16.6482L3.34388 15.3667L1.97434 16.1547C1.61947 16.3589 1.16571 16.2376 0.960827 15.8841C0.755949 15.5303 0.877537 15.0782 1.23241 14.8741L2.60195 14.0861L1.44669 13.5169C1.07937 13.3359 0.928835 12.8924 1.11046 12.5264C1.29207 12.1604 1.73707 12.0104 2.10437 12.1913L4.14642 13.1975L8.47193 10.7089L4.14546 8.21968L2.10342 9.22583C1.73611 9.40683 1.29111 9.25681 1.1095 8.89078C0.927885 8.52474 1.07842 8.0813 1.44573 7.90031L2.601 7.33108L1.23144 6.54313C0.876573 6.33896 0.754999 5.88679 0.959878 5.53316C1.16476 5.17953 1.61851 5.05838 1.97338 5.26254L3.34293 6.0505L3.25999 4.76887C3.23362 4.36139 3.54373 4.00975 3.95264 3.98348C4.36155 3.9572 4.71442 4.26622 4.74079 4.67371L4.88739 6.93908L9.21396 9.42833V4.45011L7.31853 3.19091C6.97759 2.9644 6.88546 2.50535 7.11276 2.1656C7.34006 1.82586 7.8007 1.73404 8.14163 1.96054L9.21396 2.67293V1.09702C9.21396 0.688689 9.54614 0.357666 9.95589 0.357666Z" fill="#219FD0"/>
</svg>
