<svg width="120" height="142" viewBox="0 0 120 142" fill="none" xmlns="http://www.w3.org/2000/svg">
<path d="M57.9256 101.868C67.6817 89.6517 80.113 78.1345 79.5328 61.4763C79.2779 54.3442 76.9963 47.4298 72.9522 41.5336C68.9081 35.6375 63.267 31.0008 56.6819 28.1605C50.0969 25.3202 42.8373 24.3925 35.7439 25.4848C28.6504 26.577 22.0132 29.6446 16.6008 34.3322C18.952 26.3743 23.3452 19.1615 29.3487 13.4025C35.3522 7.64362 42.7595 3.53676 50.8427 1.48554C58.9258 -0.565689 67.4067 -0.490697 75.4518 1.70314C83.497 3.89698 90.8296 8.13418 96.7292 13.9984C104.098 20.1245 110.485 33.6941 109.053 42.8323C107.358 53.5531 108.627 59.6078 114.819 66.2701C121.012 72.9323 121.772 75.8831 116.431 77.3125C111.091 78.742 110.747 82.2033 111.425 83.3826C112.313 84.9141 113.761 86.5427 113.715 88.2325C113.653 90.7238 110.198 89.4373 109.053 89.9631C108.503 90.2133 111.004 90.3001 112.021 93.1641C113.037 96.0281 105.263 97.3146 106.598 99.5098C107.933 101.705 110.922 114.601 99.1374 111.481C87.3531 108.362 80.38 109.199 73.5251 115.53C68.7754 119.91 66.0642 129.355 73.5251 142C73.5251 142 42.5777 121.094 57.9256 101.868Z" fill="#066FAA"/>
<g style="mix-blend-mode:overlay" opacity="0.56">
<path style="mix-blend-mode:overlay" opacity="0.74" d="M103.235 22.09C94.1669 13.0752 81.8685 8.01077 69.045 8.01077C56.2214 8.01077 43.9231 13.0752 34.855 22.09C33.4263 23.4928 32.0853 24.9811 30.8396 26.5468C25.5842 28.0908 20.7269 30.7466 16.6008 34.3322C18.952 26.3743 23.3452 19.1615 29.3487 13.4025C35.3522 7.64362 42.7595 3.53676 50.8427 1.48554C58.9258 -0.565689 67.4067 -0.490697 75.4518 1.70314C83.497 3.89698 90.8296 8.13418 96.7292 13.9984C99.5198 16.4369 101.883 19.3198 103.723 22.5291C103.574 22.3759 103.404 22.2279 103.235 22.09Z" fill="url(#paint0_linear_170_1453)"/>
<path style="mix-blend-mode:overlay" opacity="0.68" d="M93.2016 61.5682C91.9282 80.3552 72.1849 93.7307 63.1785 106.591C56.0566 116.801 59.2299 125.786 62.7677 132.494C62.5623 132.264 62.3518 132.035 62.1464 131.8L61.9924 131.616C61.8332 131.437 61.6792 131.254 61.5251 131.07L61.33 130.84C61.1862 130.673 61.0425 130.503 60.8987 130.33L60.6984 130.079L60.2825 129.569L60.0874 129.319L59.6458 128.732L59.4969 128.533C59.1066 128.022 58.7215 127.455 58.3518 126.899L58.2235 126.7C58.0848 126.491 57.9513 126.281 57.8178 126.072L57.6484 125.791C57.5303 125.602 57.4173 125.413 57.3043 125.224C57.2427 125.122 57.1811 125.02 57.1246 124.913C57.0168 124.729 56.9141 124.545 56.8114 124.357C56.7498 124.254 56.6933 124.147 56.6368 124.04C56.5341 123.846 56.4314 123.652 56.3339 123.458L56.1798 123.162C56.0668 122.932 55.959 122.703 55.8512 122.473C55.8204 122.406 55.7844 122.34 55.7588 122.274C55.6201 121.972 55.4866 121.671 55.3634 121.37C55.3634 121.314 55.3223 121.258 55.2966 121.202C55.1991 120.957 55.1015 120.691 55.0091 120.466L54.9012 120.155C54.8294 119.956 54.7575 119.752 54.6907 119.548L54.5829 119.195C54.5213 119.001 54.4648 118.807 54.4083 118.613C54.3518 118.419 54.3416 118.373 54.3107 118.251C54.2799 118.128 54.2132 117.858 54.167 117.659C54.167 117.541 54.1105 117.424 54.0848 117.306L53.9616 116.668C53.9616 116.566 53.9256 116.464 53.9051 116.357C53.8589 116.056 53.8127 115.749 53.7767 115.438C53.7791 115.428 53.7791 115.417 53.7767 115.407C53.7408 115.091 53.7151 114.769 53.6997 114.447C53.6997 114.35 53.6997 114.248 53.6997 114.146C53.6997 113.925 53.6997 113.706 53.6997 113.488C53.6997 113.365 53.6997 113.243 53.6997 113.12C53.6997 112.916 53.6997 112.717 53.6997 112.513C53.6997 112.308 53.6997 112.257 53.6997 112.13C53.6997 112.002 53.7305 111.732 53.7511 111.527L53.7973 111.144C53.7973 110.935 53.8589 110.731 53.8948 110.522C53.8948 110.404 53.9308 110.282 53.9564 110.164C54.0027 109.919 54.0591 109.654 54.1156 109.429C54.1156 109.347 54.1516 109.266 54.1721 109.184C54.2594 108.857 54.3518 108.531 54.4545 108.204L54.5367 107.969C54.6188 107.719 54.7061 107.459 54.8037 107.219C54.8499 107.101 54.9012 106.984 54.9526 106.866C55.0399 106.657 55.1272 106.448 55.2247 106.233C55.2795 106.107 55.3411 105.98 55.4096 105.85C55.5072 105.646 55.6098 105.442 55.7125 105.243L55.9282 104.85C56.0412 104.646 56.1644 104.441 56.2876 104.237C56.3647 104.115 56.4365 103.987 56.5187 103.859C56.6573 103.64 56.8063 103.42 56.9603 103.196L57.1811 102.879C57.4104 102.539 57.6569 102.212 57.9205 101.899C67.6766 89.6823 80.1079 78.1651 79.5277 61.507C79.2536 54.3997 76.9749 47.5122 72.9518 41.631C68.9286 35.7498 63.3232 31.1119 56.7754 28.2469C76.5598 29.8346 94.6342 40.4022 93.2016 61.5682Z" fill="url(#paint1_linear_170_1453)"/>
</g>
<path d="M45.8329 97.5977C56.046 94.2768 65.9126 89.3863 70.9278 79.146C72.9271 75.1803 74.1151 70.8596 74.4231 66.4342C74.7311 62.0088 74.153 57.5666 72.7221 53.3649C71.2913 49.1632 69.0362 45.2855 66.0875 41.9564C63.1388 38.6272 59.555 35.9128 55.5438 33.9704C51.5326 32.0279 47.1736 30.896 42.7193 30.6402C38.265 30.3844 33.8039 31.0098 29.5943 32.4801C25.3848 33.9505 21.5106 36.2366 18.1959 39.206C14.8813 42.1754 12.1921 45.7692 10.2842 49.7791C5.26908 60.0195 7.99323 67.7237 11.1505 80.8017C12.4549 86.9506 13.2249 91.4296 11.4682 95.0137L10.2313 97.5451C9.53338 98.9807 9.18203 99.6841 9.36974 100.215C9.55744 100.746 10.2698 101.091 11.704 101.79L28.8816 110.106C30.3255 110.8 31.0378 111.145 31.5672 110.963C32.0966 110.781 32.4528 110.068 33.1507 108.637L34.3924 106.111C35.9326 102.938 40.553 100.364 45.8329 97.5977Z" fill="url(#paint2_linear_170_1453)"/>
<path d="M39.9035 121.878C39.4222 122.864 38.2286 123.275 37.8243 123.136L18.3606 113.714C16.7819 112.891 16.368 111.695 16.8493 110.738L17.1862 110.044C17.4195 109.572 17.8314 109.21 18.332 109.039C18.8326 108.868 19.3811 108.9 19.8574 109.13L39.3163 118.552C39.7924 118.783 40.157 119.192 40.3302 119.69C40.5034 120.188 40.4711 120.734 40.2404 121.208L39.9035 121.878Z" fill="#AE3A4F"/>
<path d="M4.42209 110.566C4.27257 110.494 4.10085 110.485 3.9441 110.538C3.78736 110.592 3.65821 110.705 3.58463 110.853C2.91768 112.213 2.52681 113.69 2.43436 115.201C2.34191 116.711 2.54968 118.225 3.04581 119.655C3.54194 121.086 4.3167 122.405 5.32583 123.537C6.33495 124.67 7.55866 125.594 8.92704 126.256L11.141 127.328C13.9046 128.666 17.0894 128.857 19.9949 127.86C22.9004 126.863 25.2885 124.759 26.634 122.012C26.7056 121.863 26.7155 121.692 26.6615 121.537C26.6074 121.381 26.4938 121.252 26.3452 121.179L4.42209 110.566Z" fill="url(#paint3_linear_170_1453)"/>
<defs>
<linearGradient id="paint0_linear_170_1453" x1="103.738" y1="17.1687" x2="16.6008" y2="17.1687" gradientUnits="userSpaceOnUse">
<stop/>
<stop offset="0.09" stop-color="#0A0A0A"/>
<stop offset="0.23" stop-color="#252525"/>
<stop offset="0.42" stop-color="#515151"/>
<stop offset="0.64" stop-color="#8F8F8F"/>
<stop offset="0.89" stop-color="#DCDCDC"/>
<stop offset="1" stop-color="white"/>
</linearGradient>
<linearGradient id="paint1_linear_170_1453" x1="93.2786" y1s="80.3552" x2="53.6535" y2="80.3552" gradientUnits="userSpaceOnUse">
<stop/>
<stop offset="1" stop-color="white"/>
</linearGradient>
<linearGradient id="paint2_linear_170_1453" x1="74.5035" y1="73.8055" x2="7.5133" y2="46.5187" gradientUnits="userSpaceOnUse">
<stop stop-color="#4BCFFF"/>
<stop offset="1" stop-color="#0092C8"/>
</linearGradient>
<linearGradient id="paint3_linear_170_1453" x1="26.6959" y1="120.17" x2="6.97847" y2="107.152" gradientUnits="userSpaceOnUse">
<stop stop-color="#4BCFFF"/>
<stop offset="1" stop-color="#0892C5"/>
</linearGradient>
</defs>
</svg>
