<svg xmlns="http://www.w3.org/2000/svg" width="428" height="870" viewBox="0 0 428 870" fill="none">
  <g style="mix-blend-mode:overlay">
    <path fill-rule="evenodd" clip-rule="evenodd" d="M455.537 11.3768C456.236 8.27923 453.908 5.32335 450.733 5.27691L137.071 0.688542C133.877 0.641829 131.459 3.55997 132.099 6.68896L142.946 59.7771C143.423 62.1119 145.482 63.7855 147.865 63.7761L439.999 62.6158C442.329 62.6066 444.344 60.9891 444.857 58.7162L455.537 11.3768ZM450.704 7.27669L137.041 2.68833C135.125 2.6603 133.675 4.41119 134.058 6.28858L144.906 59.3767C145.192 60.7776 146.427 61.7818 147.857 61.7761L439.992 60.6158C441.39 60.6103 442.598 59.6398 442.906 58.2761L453.586 10.9366C454.006 9.07809 452.609 7.30456 450.704 7.27669Z" fill="black"/>
    <path fill-rule="evenodd" clip-rule="evenodd" d="M520.191 140.827L279.676 141.782L273.053 171.134C272.541 173.407 270.526 175.025 268.196 175.034L-23.939 176.194C-26.322 176.204 -28.3805 174.53 -28.8575 172.195L-39.705 119.107C-40.3442 115.978 -37.9263 113.06 -34.733 113.107L218.811 116.816L212.29 84.8998C211.651 81.7709 214.069 78.8527 217.262 78.8994L530.925 83.4878C534.1 83.5342 536.428 86.4901 535.729 89.5877L525.049 136.927C524.536 139.2 522.521 140.817 520.191 140.827ZM217.233 80.8992L530.895 85.4876C532.8 85.5154 534.197 87.289 533.778 89.1475L523.098 136.487C522.79 137.851 521.581 138.821 520.183 138.827L280.127 139.78L283.734 123.795C284.433 120.697 282.105 117.742 278.93 117.695L220.859 116.846L214.25 84.4995C213.866 82.6221 215.317 80.8712 217.233 80.8992ZM-34.7623 115.106L219.221 118.822L223.138 137.988C223.615 140.323 225.673 141.996 228.056 141.987L277.624 141.79L271.103 170.694C270.795 172.058 269.586 173.028 268.188 173.034L-23.9469 174.194C-25.3767 174.2 -26.6118 173.196 -26.8981 171.795L-37.7454 118.707C-38.129 116.829 -36.6782 115.078 -34.7623 115.106ZM225.097 137.588L221.269 118.852L278.9 119.695C280.805 119.723 282.202 121.496 281.783 123.355L278.075 139.788L228.048 139.987C226.618 139.993 225.383 138.988 225.097 137.588Z" fill="black"/>
    <path fill-rule="evenodd" clip-rule="evenodd" d="M287.305 449.298L289.557 439.317L461.174 439.999C463.557 440.008 465.616 438.335 466.093 436L476.94 382.912C477.58 379.783 475.162 376.865 471.968 376.911L319.532 379.141L325.498 352.697L546.74 353.576C549.123 353.586 551.181 351.912 551.658 349.577L562.506 296.489C563.145 293.36 560.727 290.442 557.534 290.489L243.871 295.077C240.696 295.123 238.368 298.079 239.067 301.177L245.907 331.497L10.1808 328.049C6.98749 328.002 4.56958 330.92 5.20886 334.049L16.0563 387.137C16.5333 389.472 18.5919 391.146 20.9749 391.136L154.18 390.607L160.78 419.861L-26.3141 417.124C-29.5074 417.078 -31.9253 419.996 -31.286 423.125L-20.4386 476.213C-19.9615 478.548 -17.903 480.221 -15.52 480.212L247.958 479.165L253.811 507.81C254.288 510.145 256.347 511.819 258.73 511.809L550.865 510.649C553.195 510.64 555.209 509.022 555.722 506.749L566.403 459.41C567.101 456.312 564.773 453.357 561.598 453.31L287.305 449.298ZM284.812 451.261L247.907 450.722C245.991 450.693 244.54 452.444 244.923 454.322L249.59 477.159L276.607 477.052C278.005 477.046 279.214 476.076 279.521 474.712L284.812 451.261ZM292.153 427.813L290.008 437.319L461.182 437.999C462.612 438.005 463.847 437 464.133 435.6L474.981 382.511C475.364 380.634 473.914 378.883 471.998 378.911L319.079 381.148L317.967 386.077C317.454 388.35 315.44 389.967 313.11 389.976L156.228 390.599L162.837 419.891L287.348 421.713C290.524 421.759 292.852 424.715 292.153 427.813ZM290.202 427.372L287.96 437.311L169.047 436.839C167.649 436.833 166.44 435.863 166.133 434.499L163.29 421.898L287.319 423.712C289.224 423.74 290.621 425.514 290.202 427.372ZM169.039 438.839L287.509 439.309L285.262 449.268L247.936 448.722C244.742 448.675 242.325 451.593 242.964 454.722L247.55 477.167L-15.528 478.212C-16.9578 478.218 -18.1929 477.213 -18.4791 475.812L-29.3265 422.724C-29.7101 420.847 -28.2593 419.096 -26.3433 419.124L161.233 421.868L164.182 434.939C164.695 437.212 166.709 438.829 169.039 438.839ZM316.016 385.636L317.022 381.178L158.335 383.5C156.43 383.527 155.033 385.301 155.452 387.16L155.778 388.601L313.102 387.976C314.5 387.971 315.709 387 316.016 385.636ZM158.306 381.5L317.475 379.171L323.45 352.689L254.605 352.416C252.275 352.407 250.26 350.789 249.747 348.516L246.36 333.504L10.1516 330.049C8.2356 330.021 6.78479 331.772 7.1684 333.649L18.0157 386.737C18.302 388.138 19.5371 389.142 20.9669 389.136L153.729 388.609L153.501 387.6C152.803 384.502 155.131 381.546 158.306 381.5ZM249.998 479.157L255.771 507.41C256.057 508.811 257.292 509.815 258.722 509.809L550.857 508.649C552.255 508.643 553.464 507.673 553.771 506.309L564.452 458.97C564.871 457.111 563.474 455.338 561.569 455.31L286.856 451.291L281.472 475.152C280.96 477.425 278.945 479.042 276.615 479.052L249.998 479.157ZM248.417 333.534L323.814 334.637C325.719 334.665 327.116 336.438 326.697 338.297L323.9 350.691L254.613 350.416C253.215 350.41 252.006 349.44 251.698 348.076L248.417 333.534ZM247.965 331.527L323.843 332.637C327.018 332.684 329.346 335.64 328.648 338.737L325.949 350.699L546.747 351.576C548.177 351.582 549.412 350.578 549.699 349.177L560.546 296.089C560.93 294.211 559.479 292.46 557.563 292.488L243.9 297.077C241.995 297.105 240.598 298.878 241.018 300.737L247.965 331.527Z" fill="black"/>
    <path fill-rule="evenodd" clip-rule="evenodd" d="M311.64 539.848L303.587 575.541L604.969 579.949C608.144 579.996 610.472 582.952 609.773 586.049L599.093 633.389C598.58 635.661 596.565 637.279 594.235 637.288L302.1 638.448C299.717 638.458 297.659 636.784 297.182 634.449L288.328 591.118L3.96716 592.247C1.58417 592.257 -0.474365 590.583 -0.951416 588.248L-11.7988 535.16C-12.4381 532.031 -10.0202 529.113 -6.8269 529.16L306.836 533.748C310.011 533.795 312.339 536.75 311.64 539.848ZM-6.85614 531.159L306.806 535.748C308.711 535.776 310.108 537.549 309.689 539.408L301.544 575.511L291.306 575.361C288.113 575.314 285.695 578.232 286.334 581.361L287.92 589.12L3.95923 590.247C2.52942 590.253 1.29431 589.249 1.00806 587.848L-9.83929 534.76C-10.2229 532.882 -8.77209 531.131 -6.85614 531.159ZM299.141 634.049L290.368 591.11L296.102 591.087C298.432 591.078 300.447 589.46 300.96 587.187L303.137 577.534L604.94 581.949C606.845 581.977 608.241 583.75 607.822 585.609L597.142 632.948C596.834 634.312 595.625 635.283 594.227 635.288L302.092 636.448C300.663 636.454 299.427 635.45 299.141 634.049ZM296.094 589.087L289.959 589.111L288.294 580.961C287.91 579.084 289.361 577.333 291.277 577.361L301.094 577.504L299.009 586.747C298.701 588.111 297.492 589.081 296.094 589.087Z" fill="black"/>
    <path fill-rule="evenodd" clip-rule="evenodd" d="M241.904 214.569L235.915 185.256C235.276 182.127 237.694 179.209 240.887 179.256L554.55 183.844C557.725 183.891 560.053 186.847 559.354 189.944L548.673 237.284C548.161 239.557 546.146 241.174 543.816 241.183L398.696 241.76L392.647 271.367C392.17 273.701 390.111 275.375 387.728 275.366L95.5933 274.205C93.2633 274.196 91.2485 272.579 90.7358 270.306L80.0554 222.966C79.3566 219.869 81.6846 216.913 84.8597 216.866L241.904 214.569ZM244.347 216.534L398.551 214.278C400.467 214.25 401.918 216.001 401.535 217.878L397.062 239.766L251.673 240.343C250.243 240.349 249.008 239.345 248.722 237.944L244.347 216.534ZM243.94 214.539L398.522 212.278C401.716 212.231 404.133 215.15 403.494 218.279L399.105 239.758L543.808 239.183C545.206 239.178 546.415 238.207 546.722 236.843L557.403 189.504C557.822 187.645 556.425 185.872 554.52 185.844L240.858 181.256C238.942 181.228 237.491 182.979 237.875 184.856L243.94 214.539ZM242.312 216.563L84.8889 218.866C82.9839 218.894 81.587 220.668 82.0063 222.526L92.6867 269.866C92.9944 271.229 94.2032 272.2 95.6013 272.205L387.736 273.366C389.166 273.371 390.401 272.367 390.687 270.966L396.653 241.768L251.681 242.343C249.298 242.353 247.24 240.679 246.762 238.344L242.312 216.563Z" fill="black"/>
    <path fill-rule="evenodd" clip-rule="evenodd" d="M231.854 736.465L33.966 735.679C31.636 735.67 29.6212 734.052 29.1085 731.779L18.4281 684.44C17.7292 681.342 20.0573 678.387 23.2324 678.34L336.895 673.752C340.088 673.705 342.506 676.623 341.867 679.752L332.922 723.528L549.1 720.365C552.293 720.319 554.711 723.237 554.072 726.366L543.224 779.454C542.747 781.789 540.689 783.462 538.306 783.453L443.311 783.076L436.017 818.773C435.54 821.108 433.482 822.782 431.099 822.772L337.593 822.401L328.81 865.387C328.333 867.722 326.275 869.395 323.891 869.386L31.7567 868.226C29.4266 868.216 27.4119 866.599 26.8991 864.326L16.2188 816.987C15.5199 813.889 17.848 810.933 21.023 810.887L132.199 809.26L123.426 770.373C122.727 767.276 125.055 764.32 128.23 764.273L237.766 762.671L231.854 736.465ZM23.2616 680.34L336.924 675.752C338.84 675.724 340.291 677.474 339.907 679.352L330.875 723.558L235.437 724.954C232.262 725 229.934 727.956 230.633 731.054L231.402 734.463L33.9739 733.679C32.5759 733.673 31.3671 732.703 31.0594 731.339L20.379 684C19.9597 682.141 21.3566 680.368 23.2616 680.34ZM434.058 818.373L441.272 783.067L246.171 782.293C243.841 782.283 241.826 780.666 241.313 778.393L238.216 764.665L128.259 766.273C126.354 766.301 124.958 768.074 125.377 769.933L134.243 809.231L334.686 806.298C337.879 806.252 340.297 809.17 339.657 812.299L338.002 820.403L431.107 820.772C432.536 820.778 433.772 819.774 434.058 818.373ZM243.264 777.953L240.26 764.635L441.922 761.685C443.838 761.657 445.289 763.408 444.905 765.285L441.68 781.069L246.179 780.293C244.781 780.287 243.572 779.317 243.264 777.953ZM441.893 759.685L239.81 762.641L233.906 736.473L326.101 736.839C328.484 736.849 330.542 735.175 331.019 732.84L332.512 725.534L549.129 722.365C551.045 722.337 552.496 724.088 552.112 725.965L541.265 779.053C540.979 780.454 539.744 781.458 538.314 781.453L443.72 781.077L446.865 765.685C447.504 762.556 445.086 759.638 441.893 759.685ZM334.715 808.298L134.693 811.224L136.057 817.272C136.365 818.636 137.574 819.607 138.972 819.612L335.962 820.395L337.698 811.898C338.082 810.021 336.631 808.27 334.715 808.298ZM326.851 864.987L335.554 822.393L138.964 821.612C136.634 821.603 134.619 819.985 134.106 817.713L132.649 811.254L21.0522 812.887C19.1472 812.914 17.7504 814.688 18.1697 816.546L28.85 863.886C29.1577 865.25 30.3666 866.22 31.7646 866.226L323.899 867.386C325.329 867.392 326.564 866.387 326.851 864.987ZM233.454 734.471L232.584 730.613C232.165 728.755 233.562 726.981 235.467 726.953L330.465 725.564L329.06 732.44C328.774 733.841 327.539 734.845 326.109 734.839L233.454 734.471Z" fill="black"/>
  </g>
</svg>