<svg width="653" height="870" viewBox="0 0 653 870" fill="none" xmlns="http://www.w3.org/2000/svg">
  <g clip-path="url(#clip0_973_3021)">
    <g transform="scale(-1, 1) translate(-653, 0)">
      <path d="M329.292 123.203C328.733 120.725 330.596 118.36 333.136 118.323L646.798 113.735C649.353 113.697 651.287 116.032 650.776 118.535L639.928 171.623C639.547 173.491 637.9 174.83 635.994 174.822L343.859 173.662C341.995 173.655 340.383 172.361 339.973 170.542L329.292 123.203Z" stroke="black" stroke-width="2"/>
      <path d="M46.6233 458.818C46.0643 456.34 47.9267 453.975 50.4668 453.938L364.129 449.35C366.684 449.312 368.618 451.647 368.107 454.15L357.259 507.238C356.878 509.106 355.231 510.445 353.325 510.437L61.1897 509.277C59.3257 509.27 57.7139 507.976 57.3037 506.157L46.6233 458.818Z" stroke="black" stroke-width="2"/>
      <path d="M301.386 539.256C300.827 536.778 302.689 534.413 305.229 534.376L618.892 529.788C621.447 529.75 623.381 532.085 622.87 534.588L612.022 587.676C611.641 589.544 609.994 590.883 608.087 590.875L315.952 589.715C314.088 589.708 312.477 588.414 312.066 586.595L301.386 539.256Z" stroke="black" stroke-width="2"/>
      <path d="M320.873 427.221C320.314 424.743 322.177 422.378 324.717 422.341L638.379 417.752C640.934 417.715 642.868 420.049 642.357 422.553L631.509 475.641C631.128 477.509 629.481 478.848 627.575 478.84L335.44 477.68C333.576 477.672 331.964 476.378 331.554 474.56L320.873 427.221Z" stroke="black" stroke-width="2"/>
      <path d="M77.2972 88.9956C76.7381 86.5176 78.6005 84.1529 81.1406 84.1157L394.803 79.5274C397.358 79.49 399.292 81.8245 398.781 84.3277L387.933 137.416C387.552 139.284 385.905 140.623 383.998 140.615L91.8636 139.455C89.9996 139.447 88.3878 138.153 87.9775 136.335L77.2972 88.9956Z" stroke="black" stroke-width="2"/>
      <path d="M157.489 10.7848C156.93 8.30673 158.792 5.94203 161.332 5.90487L474.995 1.31651C477.549 1.27914 479.484 3.61365 478.972 6.11685L468.125 59.2049C467.743 61.0728 466.096 62.4117 464.19 62.4042L172.055 61.2439C170.191 61.2365 168.579 59.9426 168.169 58.1242L157.489 10.7848Z" stroke="black" stroke-width="2"/>
      <path d="M284.378 338.145C283.819 335.667 285.682 333.302 288.222 333.265L601.884 328.677C604.439 328.64 606.373 330.974 605.862 333.477L595.014 386.565C594.633 388.433 592.986 389.772 591.079 389.765L298.945 388.604C297.081 388.597 295.469 387.303 295.059 385.485L284.378 338.145Z" stroke="black" stroke-width="2"/>
      <path d="M372.008 300.585C372.567 298.107 370.705 295.742 368.165 295.705L54.502 291.116C51.9474 291.079 50.013 293.414 50.5245 295.917L61.3719 349.005C61.7535 350.873 63.4003 352.212 65.3068 352.204L357.442 351.044C359.306 351.036 360.917 349.743 361.328 347.924L372.008 300.585Z" stroke="black" stroke-width="2"/>
      <path d="M457.573 387.008C458.133 384.53 456.27 382.165 453.73 382.128L140.067 377.539C137.513 377.502 135.578 379.837 136.09 382.34L146.937 435.428C147.319 437.296 148.966 438.635 150.872 438.627L443.007 437.467C444.871 437.459 446.483 436.165 446.893 434.347L457.573 387.008Z" stroke="black" stroke-width="2"/>
      <path d="M531.019 222.374C531.578 219.896 529.716 217.532 527.176 217.494L213.513 212.906C210.959 212.869 209.024 215.203 209.536 217.706L220.383 270.794C220.765 272.662 222.412 274.001 224.318 273.994L516.453 272.833C518.317 272.826 519.929 271.532 520.339 269.714L531.019 222.374Z" stroke="black" stroke-width="2"/>
      <path d="M3.25274 585.457C2.69367 582.979 4.55611 580.614 7.09616 580.577L320.759 575.989C323.313 575.952 325.248 578.286 324.736 580.789L313.889 633.877C313.507 635.745 311.86 637.084 309.954 637.077L17.8191 635.916C15.9551 635.909 14.3433 634.615 13.9331 632.797L3.25274 585.457Z" stroke="black" stroke-width="2"/>
      <path d="M592.647 683.848C593.206 681.37 591.343 679.005 588.803 678.968L275.141 674.38C272.586 674.342 270.652 676.677 271.163 679.18L282.011 732.268C282.392 734.136 284.039 735.475 285.945 735.467L578.08 734.307C579.944 734.3 581.556 733.006 581.966 731.188L592.647 683.848Z" stroke="black" stroke-width="2"/>
      <path d="M594.856 816.395C595.415 813.917 593.553 811.552 591.013 811.515L277.35 806.926C274.796 806.889 272.861 809.224 273.373 811.727L284.22 864.815C284.602 866.683 286.248 868.022 288.155 868.014L580.29 866.854C582.154 866.846 583.766 865.552 584.176 863.734L594.856 816.395Z" stroke="black" stroke-width="2"/>
      <path d="M380.442 730.462C381.001 727.984 379.139 725.619 376.599 725.582L62.9361 720.993C60.3814 720.956 58.4471 723.29 58.9586 725.794L69.8059 778.882C70.1876 780.75 71.8344 782.089 73.7408 782.081L365.876 780.921C367.74 780.913 369.351 779.619 369.762 777.801L380.442 730.462Z" stroke="black" stroke-width="2"/>
      <path d="M487.649 769.781C488.208 767.303 486.346 764.938 483.806 764.901L170.143 760.313C167.588 760.276 165.654 762.61 166.166 765.113L177.013 818.201C177.395 820.069 179.041 821.408 180.948 821.401L473.083 820.24C474.947 820.233 476.559 818.939 476.969 817.121L487.649 769.781Z" stroke="black" stroke-width="2"/>
      <path d="M53.6722 189.352C53.1131 186.874 54.9755 184.509 57.5156 184.472L371.178 179.884C373.733 179.847 375.667 182.181 375.156 184.684L364.308 237.772C363.927 239.64 362.28 240.979 360.373 240.972L68.2386 239.811C66.3746 239.804 64.7628 238.51 64.3525 236.692L53.6722 189.352Z" stroke="black" stroke-width="2"/>
    </g>
  </g>
  <defs>
    <clipPath id="clip0_973_3021">
      <rect width="652.079" height="868.805" fill="black" transform="translate(0.921387 0.225677)"/>
    </clipPath>
  </defs>
</svg>

  