<svg xmlns="http://www.w3.org/2000/svg" width="120" height="142" viewBox="0 0 120 142" fill="none">
    <path d="M57.9256 101.868C67.6817 89.6516 80.113 78.1344 79.5328 61.4763C79.2779 54.3442 76.9963 47.4297 72.9522 41.5336C68.9081 35.6374 63.267 31.0008 56.6819 28.1605C50.0969 25.3202 42.8373 24.3925 35.7439 25.4847C28.6504 26.5769 22.0132 29.6445 16.6008 34.3321C18.952 26.3742 23.3452 19.1614 29.3487 13.4025C35.3522 7.64356 42.7595 3.5367 50.8427 1.48548C58.9258 -0.56575 67.4067 -0.490758 75.4518 1.70308C83.497 3.89692 90.8296 8.13412 96.7292 13.9983C104.098 20.1245 110.485 33.694 109.053 42.8322C107.358 53.5531 108.627 59.6078 114.819 66.27C121.012 72.9323 121.772 75.883 116.431 77.3125C111.091 78.7419 110.747 82.2032 111.425 83.3825C112.313 84.9141 113.761 86.5426 113.715 88.2324C113.653 90.7237 110.198 89.4372 109.053 89.9631C108.503 90.2132 111.004 90.3 112.021 93.164C113.037 96.028 105.263 97.3145 106.598 99.5097C107.933 101.705 110.922 114.601 99.1374 111.481C87.3531 108.362 80.38 109.199 73.5251 115.53C68.7754 119.91 66.0642 129.354 73.5251 142C73.5251 142 42.5777 121.094 57.9256 101.868Z" fill="#066FAA"/>
    <g style="mix-blend-mode:overlay" opacity="0.56">
      <g opacity="0.68">
      </g>
    </g>
    <path d="M45.8329 97.5977C56.046 94.2767 65.9126 89.3863 70.9278 79.1459C72.9271 75.1802 74.1151 70.8595 74.4231 66.4341C74.7311 62.0087 74.153 57.5665 72.7221 53.3648C71.2913 49.1631 69.0362 45.2854 66.0875 41.9563C63.1388 38.6272 59.555 35.9128 55.5438 33.9703C51.5326 32.0279 47.1736 30.896 42.7193 30.6402C38.265 30.3844 33.8039 31.0097 29.5943 32.4801C25.3848 33.9504 21.5106 36.2365 18.1959 39.2059C14.8813 42.1754 12.1921 45.7691 10.2842 49.7791C5.26908 60.0194 7.99323 67.7236 11.1505 80.8016C12.4549 86.9506 13.2249 91.4295 11.4682 95.0137L10.2313 97.545C9.53338 98.9806 9.18203 99.684 9.36974 100.215C9.55744 100.746 10.2698 101.091 11.704 101.79L28.8816 110.106C30.3255 110.8 31.0378 111.145 31.5672 110.963C32.0966 110.781 32.4528 110.068 33.1507 108.637L34.3924 106.111C35.9326 102.938 40.553 100.364 45.8329 97.5977Z" fill="url(#paint0_linear_973_2738)"/>
    <path d="M39.9035 121.878C39.4222 122.864 38.2285 123.275 37.8243 123.136L18.3606 113.714C16.7819 112.891 16.368 111.695 16.8493 110.738L17.1862 110.044C17.4195 109.571 17.8314 109.21 18.332 109.039C18.8326 108.867 19.3811 108.9 19.8574 109.13L39.3163 118.552C39.7924 118.783 40.157 119.192 40.3302 119.69C40.5034 120.188 40.4711 120.734 40.2404 121.208L39.9035 121.878Z" fill="#AE3A4F"/>
    <path d="M4.42209 110.566C4.27257 110.494 4.10085 110.485 3.9441 110.538C3.78736 110.592 3.65821 110.705 3.58463 110.853C2.91768 112.213 2.52681 113.69 2.43436 115.201C2.34191 116.711 2.54968 118.225 3.04581 119.655C3.54194 121.085 4.3167 122.405 5.32583 123.537C6.33495 124.67 7.55866 125.594 8.92704 126.256L11.141 127.328C13.9046 128.666 17.0894 128.857 19.9949 127.86C22.9004 126.863 25.2885 124.759 26.634 122.012C26.7056 121.863 26.7155 121.692 26.6615 121.537C26.6074 121.381 26.4938 121.252 26.3452 121.179L4.42209 110.566Z" fill="url(#paint1_linear_973_2738)"/>
    <defs>
      <linearGradient id="paint0_linear_973_2738" x1="74.5035" y1="73.8054" x2="7.5133" y2="46.5186" gradientUnits="userSpaceOnUse">
        <stop stop-color="#4BCFFF"/>
        <stop offset="1" stop-color="#0092C8"/>
      </linearGradient>
      <linearGradient id="paint1_linear_973_2738" x1="26.6959" y1="120.17" x2="6.97847" y2="107.152" gradientUnits="userSpaceOnUse">
        <stop stop-color="#4BCFFF"/>
        <stop offset="1" stop-color="#0892C5"/>
      </linearGradient>
    </defs>
  </svg>