<svg width="32" height="33" viewBox="0 0 32 33" fill="none" xmlns="http://www.w3.org/2000/svg">
<g id="Qr code 2">
<g clip-path="url(#clip0_1627_2578)">
<path id="Vector" d="M20 28.3198H17.3333V25.6532H20V28.3198ZM17.3333 18.9865H14.6667V25.6532H17.3333V18.9865ZM28 16.3198H25.3333V21.6532H28V16.3198ZM25.3333 13.6532H22.6667V16.3198H25.3333V13.6532ZM9.33333 16.3198H6.66667V18.9865H9.33333V16.3198ZM6.66667 13.6532H4V16.3198H6.66667V13.6532ZM16 6.98649H18.6667V4.31982H16V6.98649ZM6 6.31982V10.3198H10V6.31982H6ZM12 12.3198H4V4.31982H12V12.3198ZM6 22.3198V26.3198H10V22.3198H6ZM12 28.3198H4V20.3198H12V28.3198ZM22 6.31982V10.3198H26V6.31982H22ZM28 12.3198H20V4.31982H28V12.3198ZM25.3333 25.6532V21.6532H20V24.3198H22.6667V28.3198H28V25.6532H25.3333ZM22.6667 16.3198H17.3333V18.9865H22.6667V16.3198ZM17.3333 13.6532H9.33333V16.3198H12V18.9865H14.6667V16.3198H17.3333V13.6532ZM18.6667 12.3198V9.65316H16V6.98649H13.3333V12.3198H18.6667ZM9 7.31982H7V9.31982H9V7.31982ZM9 23.3198H7V25.3198H9V23.3198ZM25 7.31982H23V9.31982H25V7.31982Z" fill="#525252"/>
</g>
<rect x="0.5" y="0.819824" width="31" height="31" stroke="#525252"/>
</g>
<defs>
<clipPath id="clip0_1627_2578">
<rect y="0.319824" width="32" height="32" fill="white"/>
</clipPath>
</defs>
</svg>
