<svg width="23" height="23" viewBox="0 0 23 23" fill="none" xmlns="http://www.w3.org/2000/svg">
<g id="Group 9">
<g id="Vector">
<path fill-rule="evenodd" clip-rule="evenodd" d="M1.80387 0.952637C2.54474 0.952637 3.14533 1.55323 3.14533 2.2941V20.2697H21.1209C21.8618 20.2697 22.4624 20.8703 22.4624 21.6112C22.4624 22.352 21.8618 22.9526 21.1209 22.9526H1.80387C1.063 22.9526 0.462402 22.352 0.462402 21.6112V2.2941C0.462402 1.55323 1.063 0.952637 1.80387 0.952637Z" fill="#12A1D5"/>
<path fill-rule="evenodd" clip-rule="evenodd" d="M17.9014 7.39166C18.6423 7.39166 19.2429 7.99225 19.2429 8.73312V17.3185C19.2429 18.0594 18.6423 18.66 17.9014 18.66C17.1606 18.66 16.56 18.0594 16.56 17.3185V8.73312C16.56 7.99225 17.1606 7.39166 17.9014 7.39166Z" fill="#12A1D5"/>
<path fill-rule="evenodd" clip-rule="evenodd" d="M12.5356 3.09898C13.2764 3.09898 13.877 3.69957 13.877 4.44044V17.3185C13.877 18.0594 13.2764 18.66 12.5356 18.66C11.7947 18.66 11.1941 18.0594 11.1941 17.3185V4.44044C11.1941 3.69957 11.7947 3.09898 12.5356 3.09898Z" fill="#12A1D5"/>
<path fill-rule="evenodd" clip-rule="evenodd" d="M7.16972 12.7575C7.91059 12.7575 8.51118 13.3581 8.51118 14.099V17.3185C8.51118 18.0594 7.91059 18.66 7.16972 18.66C6.42885 18.66 5.82826 18.0594 5.82826 17.3185V14.099C5.82826 13.3581 6.42885 12.7575 7.16972 12.7575Z" fill="#12A1D5"/>
</g>
</g>
</svg>
