<svg width="22" height="23" viewBox="0 0 22 23" fill="none" xmlns="http://www.w3.org/2000/svg">
<g id="Vector">
<path d="M22 11.9526C22 18.0278 17.0751 22.9526 11 22.9526C4.92487 22.9526 0 18.0278 0 11.9526C0 5.8775 4.92487 0.952637 11 0.952637C17.0751 0.952637 22 5.8775 22 11.9526Z" fill="#A9A9A9"/>
<path d="M13.012 10.8627C13.012 11.5335 12.7964 12.6913 12.3652 14.3363C11.934 15.9652 11.7184 17.0353 11.7184 17.5463C11.7184 18.0414 11.7903 18.2889 11.934 18.2889C12.0299 18.2889 12.3972 18.1372 13.036 17.8338C13.1942 17.7547 13.3866 17.82 13.4639 17.9791L13.5563 18.1695C13.6595 18.3818 13.609 18.637 13.427 18.7873C13.3447 18.8554 13.2543 18.9288 13.1558 19.0076C12.9162 19.1992 12.469 19.4628 11.8142 19.7981C11.1595 20.1175 10.5526 20.2772 9.99363 20.2772C9.43466 20.2772 8.99548 20.1096 8.67607 19.7742C8.35666 19.4228 8.19696 18.9597 8.19696 18.3848C8.19696 17.7939 8.39659 16.7558 8.79585 15.2705C9.19511 13.7693 9.39474 12.7951 9.39474 12.348C9.39474 11.6772 9.18712 11.0464 8.77189 10.4555L8.55629 10.168L8.58025 9.85658C9.42668 9.61702 10.8001 9.49724 12.7006 9.49724C12.9082 9.7368 13.012 10.192 13.012 10.8627ZM9.53847 6.88607C9.21906 6.56666 9.05936 6.14345 9.05936 5.61642C9.05936 5.0894 9.27496 4.62626 9.70616 4.227C10.1533 3.82774 10.6644 3.62811 11.2393 3.62811C11.8142 3.62811 12.2614 3.78782 12.5808 4.10722C12.9002 4.42663 13.0599 4.84985 13.0599 5.37687C13.0599 5.88792 12.8284 6.34308 12.3652 6.74233C11.9181 7.14159 11.415 7.34122 10.856 7.34122C10.2971 7.34122 9.85788 7.18951 9.53847 6.88607Z" fill="#525252"/>
</g>
</svg>
