<svg width="31" height="33" viewBox="0 0 31 33" fill="none" xmlns="http://www.w3.org/2000/svg">
<g id="Vector">
<path fill-rule="evenodd" clip-rule="evenodd" d="M11.9004 0.841107C12.6758 0.824945 13.4465 0.963995 14.1674 1.25008C14.8882 1.53616 15.5446 1.9635 16.0979 2.50696C16.6511 3.05042 17.0902 3.69903 17.3891 4.41464C17.6877 5.12947 17.8386 6.03031 17.8386 6.79395L17.8386 25.5764C17.8375 26.5703 17.6327 27.5534 17.2368 28.465C16.8409 29.3766 16.2623 30.1974 15.5368 30.8767C14.8113 31.5559 13.9542 32.0792 13.0185 32.4143C12.0827 32.7493 11.0883 32.8889 10.0965 32.8246C9.1047 32.7602 8.13663 32.4932 7.25207 32.0401C6.36751 31.5869 5.58525 30.9572 4.95358 30.1899C4.32191 29.4226 3.85426 28.5339 3.57951 27.5787C3.3917 26.9259 3.29675 26.2514 3.29614 25.5751C3.54651 25.7628 3.80945 25.9347 4.08354 26.0894L4.79837 24.823L3.35612 24.6366C3.3158 24.9485 3.29586 25.262 3.29614 25.5751C2.60411 25.0563 2.00812 24.4166 1.53826 23.6845C0.898411 22.6875 0.511861 21.5492 0.412234 20.3688C0.312607 19.1883 0.50292 18.0014 0.966619 16.9112C1.28172 16.1704 1.71658 15.4895 2.25146 14.8948C2.3765 15.2508 2.52942 15.5976 2.70931 15.9318L3.98981 15.2424L3.07284 14.1137C2.77818 14.3531 2.5037 14.6144 2.25146 14.8948C2.013 14.2159 1.87593 13.5034 1.84656 12.7802C1.80179 11.6779 2.00846 10.5798 2.4509 9.56916C2.89335 8.55851 3.55997 7.66179 4.40029 6.94691C4.96281 6.46837 5.59329 6.07971 6.26919 5.79263C6.21348 6.1635 6.19362 6.53981 6.21043 6.91633L7.66323 6.85145L7.30109 5.44302C6.94785 5.53385 6.60298 5.65085 6.26919 5.79263C6.32812 5.40036 6.42717 5.01417 6.56537 4.64025C6.83422 3.9128 7.24583 3.24646 7.77598 2.68042C8.30612 2.11437 8.94411 1.66006 9.65241 1.34419C10.3607 1.02832 11.125 0.857269 11.9004 0.841107ZM13.0945 3.95345C12.7341 3.81041 12.3487 3.74088 11.961 3.74896C11.5733 3.75704 11.1912 3.84257 10.837 4.0005C10.4829 4.15844 10.1639 4.3856 9.89879 4.66862C9.63372 4.95164 9.42792 5.28481 9.29349 5.64853C9.15906 6.01226 9.09872 6.39919 9.11602 6.78657C9.14671 7.47383 8.69164 8.08857 8.02537 8.25988C7.38427 8.42473 6.78908 8.73329 6.28489 9.16222C5.7807 9.59114 5.38072 10.1292 5.11526 10.7356C4.84979 11.342 4.72579 12.0008 4.75265 12.6622C4.77952 13.3236 4.95654 13.9703 5.2703 14.5531C5.60121 15.1678 5.44862 15.931 4.90678 16.3711C4.35509 16.8193 3.92127 17.3955 3.64305 18.0496C3.36483 18.7037 3.25064 19.4159 3.31042 20.1242C3.37019 20.8325 3.60212 21.5154 3.98603 22.1136C4.36994 22.7118 4.8942 23.2072 5.5132 23.5566C6.02882 23.8476 6.31651 24.4222 6.24061 25.0094C6.16418 25.6008 6.20979 26.2016 6.37465 26.7747C6.5395 27.3478 6.82009 27.881 7.19909 28.3414C7.57809 28.8018 8.04745 29.1796 8.57819 29.4515C9.10892 29.7234 9.68976 29.8836 10.2848 29.9222C10.8799 29.9608 11.4766 29.877 12.038 29.676C12.5994 29.475 13.1137 29.161 13.549 28.7535C13.9843 28.3459 14.3315 27.8534 14.569 27.3065C14.8064 26.7598 14.9293 26.1704 14.9301 25.5744V6.66967L14.9301 6.66539C14.9312 6.27762 14.8548 5.89354 14.7054 5.53573C14.5559 5.17792 14.3364 4.85362 14.0597 4.58189C13.7831 4.31016 13.4549 4.09649 13.0945 3.95345Z" fill="white"/>
<path fill-rule="evenodd" clip-rule="evenodd" d="M16.4635 11.0346C17.2655 11.0783 17.8801 11.7639 17.8364 12.5658C17.7503 14.1453 17.1977 15.6639 16.2486 16.9294C15.2995 18.1949 13.9964 19.1505 12.5042 19.6755C11.7465 19.942 10.9163 19.5439 10.6498 18.7862C10.3832 18.0286 10.7814 17.1983 11.539 16.9318C12.4886 16.5977 13.3178 15.9896 13.9218 15.1843C14.5258 14.379 14.8774 13.4126 14.9322 12.4075C14.976 11.6055 15.6615 10.9908 16.4635 11.0346Z" fill="white"/>
<path fill-rule="evenodd" clip-rule="evenodd" d="M7.60383 5.39842C8.40631 5.36562 9.08345 5.98957 9.11626 6.79205C9.13543 7.26103 9.26782 7.7184 9.50212 8.12511C9.90304 8.82104 9.66388 9.71022 8.96794 10.1111C8.27201 10.5121 7.38283 10.2729 6.98192 9.57697C6.51332 8.76355 6.24854 7.84881 6.2102 6.91085C6.17739 6.10837 6.80134 5.43123 7.60383 5.39842Z" fill="white"/>
<path fill-rule="evenodd" clip-rule="evenodd" d="M6.11209 13.9623C6.50183 14.6646 6.24848 15.5498 5.54622 15.9396C5.32121 16.0644 5.10631 16.2086 4.90678 16.3711C4.28403 16.8783 3.36942 16.785 2.86223 16.1622C2.35503 15.5395 2.4487 14.6235 3.07145 14.1163C3.404 13.8455 3.75986 13.6046 4.13487 13.3965C4.83713 13.0067 5.72236 13.2601 6.11209 13.9623Z" fill="white"/>
<path fill-rule="evenodd" clip-rule="evenodd" d="M3.53172 24.11C3.9263 23.4105 4.81365 23.162 5.5132 23.5566C6.1679 23.9258 6.90652 24.1209 7.65819 24.1206C8.46134 24.1202 9.11273 24.771 9.11311 25.5742C9.11348 26.3773 8.4627 27.0287 7.65954 27.0291C6.40677 27.0297 5.17509 26.7066 4.08392 26.0911C3.38437 25.6965 3.13715 24.8096 3.53172 24.11Z" fill="white"/>
<path fill-rule="evenodd" clip-rule="evenodd" d="M14.9301 18.3036C14.9301 17.5005 15.5812 16.8494 16.3843 16.8494H22.2013C23.0045 16.8494 23.6555 17.5005 23.6555 18.3036C23.6555 19.1068 23.0045 19.7579 22.2013 19.7579H16.3843C15.5812 19.7579 14.9301 19.1068 14.9301 18.3036Z" fill="white"/>
<path fill-rule="evenodd" clip-rule="evenodd" d="M14.9301 25.5744C14.9301 24.7713 15.5812 24.1206 16.3843 24.1206H25.1098C26.2669 24.1206 27.3765 24.5802 28.1947 25.3984C29.0129 26.2166 29.4725 27.3263 29.4725 28.4833V29.9376C29.4725 30.7407 28.8214 31.3918 28.0183 31.3918C27.2151 31.3918 26.564 30.7407 26.564 29.9376V28.4833C26.564 28.0976 26.4108 27.7277 26.1381 27.455C25.8654 27.1823 25.4955 27.0291 25.1098 27.0291H16.3843C15.5812 27.0291 14.9301 26.3776 14.9301 25.5744Z" fill="white"/>
<path fill-rule="evenodd" clip-rule="evenodd" d="M14.9301 11.0324C14.9301 10.2292 15.5812 9.57816 16.3843 9.57816H28.0183C28.8214 9.57816 29.4725 10.2292 29.4725 11.0324C29.4725 11.8356 28.8214 12.4866 28.0183 12.4866H16.3843C15.5812 12.4866 14.9301 11.8356 14.9301 11.0324Z" fill="white"/>
<path fill-rule="evenodd" clip-rule="evenodd" d="M25.1098 5.21543C24.7241 5.21543 24.3542 5.36864 24.0815 5.64137C23.8088 5.91409 23.6555 6.28398 23.6555 6.66967V11.0324C23.6555 11.8356 23.0045 12.4866 22.2013 12.4866C21.3981 12.4866 20.7471 11.8356 20.7471 11.0324V6.66967C20.7471 5.5126 21.2067 4.40293 22.0249 3.58476C22.843 2.76658 23.9527 2.30694 25.1098 2.30694C25.9129 2.30694 26.564 2.95803 26.564 3.76118C26.564 4.56434 25.9129 5.21543 25.1098 5.21543Z" fill="white"/>
<path fill-rule="evenodd" clip-rule="evenodd" d="M22.2013 19.0307C22.6029 19.0307 22.9284 18.7052 22.9284 18.3036C22.9284 17.902 22.6029 17.5765 22.2013 17.5765C21.7997 17.5765 21.4742 17.902 21.4742 18.3036C21.4742 18.7052 21.7997 19.0307 22.2013 19.0307ZM20.0199 18.3036C20.0199 17.0989 20.9966 16.1223 22.2013 16.1223C23.406 16.1223 24.3827 17.0989 24.3827 18.3036C24.3827 19.5084 23.406 20.485 22.2013 20.485C20.9966 20.485 20.0199 19.5084 20.0199 18.3036Z" fill="white"/>
<path fill-rule="evenodd" clip-rule="evenodd" d="M25.1098 4.48831C25.5114 4.48831 25.8369 4.16276 25.8369 3.76118C25.8369 3.35961 25.5114 3.03406 25.1098 3.03406C24.7082 3.03406 24.3827 3.35961 24.3827 3.76118C24.3827 4.16276 24.7082 4.48831 25.1098 4.48831ZM22.9284 3.76118C22.9284 2.55645 23.9051 1.57982 25.1098 1.57982C26.3145 1.57982 27.2911 2.55645 27.2911 3.76118C27.2911 4.96592 26.3145 5.94255 25.1098 5.94255C23.9051 5.94255 22.9284 4.96592 22.9284 3.76118Z" fill="white"/>
<path fill-rule="evenodd" clip-rule="evenodd" d="M28.0183 30.6647C28.4198 30.6647 28.7454 30.3391 28.7454 29.9376C28.7454 29.536 28.4198 29.2104 28.0183 29.2104C27.6167 29.2104 27.2911 29.536 27.2911 29.9376C27.2911 30.3391 27.6167 30.6647 28.0183 30.6647ZM25.8369 29.9376C25.8369 28.7328 26.8135 27.7562 28.0183 27.7562C29.223 27.7562 30.1996 28.7328 30.1996 29.9376C30.1996 31.1423 29.223 32.1189 28.0183 32.1189C26.8135 32.1189 25.8369 31.1423 25.8369 29.9376Z" fill="white"/>
<path fill-rule="evenodd" clip-rule="evenodd" d="M28.0183 11.7595C28.4198 11.7595 28.7454 11.434 28.7454 11.0324C28.7454 10.6308 28.4198 10.3053 28.0183 10.3053C27.6167 10.3053 27.2911 10.6308 27.2911 11.0324C27.2911 11.434 27.6167 11.7595 28.0183 11.7595ZM25.8369 11.0324C25.8369 9.82767 26.8135 8.85104 28.0183 8.85104C29.223 8.85104 30.1996 9.82767 30.1996 11.0324C30.1996 12.2371 29.223 13.2138 28.0183 13.2138C26.8135 13.2138 25.8369 12.2371 25.8369 11.0324Z" fill="white"/>
</g>
</svg>
