<svg width="22" height="22" viewBox="0 0 22 22" fill="none" xmlns="http://www.w3.org/2000/svg">
<g id="Frame 62">
<path id="M" d="M5.23145 6.95932C5.23145 6.15336 5.8848 5.5 6.69076 5.5C7.28305 5.5 7.81659 5.85799 8.04114 6.40606L10.9355 13.4707H11.0645L13.9589 6.40606C14.1834 5.85799 14.717 5.5 15.3092 5.5C16.1152 5.5 16.7686 6.15336 16.7686 6.95932V15.5439C16.7686 16.072 16.3405 16.5 15.8125 16.5C15.2845 16.5 14.8564 16.072 14.8564 15.5439V8.94287H14.7544L11.9818 15.8057C11.8202 16.2058 11.4318 16.4678 11.0003 16.4678C10.5685 16.4678 10.1799 16.2055 10.0184 15.805L7.24561 8.92676H7.14355V15.5439C7.14355 16.072 6.71551 16.5 6.1875 16.5C5.65949 16.5 5.23145 16.072 5.23145 15.5439V6.95932Z" fill="#A9A9A9"/>
<path id="Rectangle 38 (Stroke)" fill-rule="evenodd" clip-rule="evenodd" d="M0 3.78816C0 1.69602 1.69602 0 3.78816 0H18.2118C20.304 0 22 1.69602 22 3.78816V18.2118C22 20.304 20.304 22 18.2118 22H3.78816C1.69602 22 0 20.304 0 18.2118V3.78816ZM3.78816 2.06627C2.83718 2.06627 2.06627 2.83718 2.06627 3.78816V18.2118C2.06627 19.1628 2.83718 19.9337 3.78816 19.9337H18.2118C19.1628 19.9337 19.9337 19.1628 19.9337 18.2118V3.78816C19.9337 2.83718 19.1628 2.06627 18.2118 2.06627H3.78816Z" fill="#A9A9A9"/>
</g>
</svg>
