<svg width="47" height="48" viewBox="0 0 47 48" fill="none" xmlns="http://www.w3.org/2000/svg">
<g id="Vector">
<path d="M20.045 25.517H2.55817C1.17172 25.517 0.0600586 26.6411 0.0600586 28.0151V45.5019C0.0600586 46.8758 1.17172 48 2.55817 48H20.045C21.4189 48 22.5431 46.8758 22.5431 45.5019V28.0151C22.5431 26.6411 21.4189 25.517 20.045 25.517ZM20.045 45.5019H2.55817V28.0151H20.045V45.5019ZM10.0525 41.7547C10.0525 42.4445 10.6117 43.0038 11.3016 43.0038C11.9914 43.0038 12.5506 42.4445 12.5506 41.7547V38.0075H16.2978C16.9876 38.0075 17.5469 37.4483 17.5469 36.7585C17.5469 36.0687 16.9876 35.5094 16.2978 35.5094H12.5506V31.7623C12.5506 31.0724 11.9914 30.5132 11.3016 30.5132C10.6117 30.5132 10.0525 31.0724 10.0525 31.7623V35.5094H6.30534C5.61551 35.5094 5.05629 36.0687 5.05629 36.7585C5.05629 37.4483 5.61551 38.0075 6.30534 38.0075H10.0525V41.7547Z" fill="white"/>
<path d="M31.857 9.32582C30.9747 9.32582 30.2596 10.0409 30.2596 10.9231C30.2596 11.8053 30.9747 12.5205 31.857 12.5205H39.7904C40.6726 12.5205 41.3877 11.8053 41.3877 10.9231C41.3877 10.0409 40.6726 9.32582 39.7904 9.32582H31.857Z" fill="white"/>
<path fill-rule="evenodd" clip-rule="evenodd" d="M35.8238 0C29.7223 0 24.7705 4.95191 24.7705 11.0533C24.7705 17.1547 29.7223 22.1066 35.8238 22.1066C41.9253 22.1066 46.8771 17.1547 46.8771 11.0533C46.8771 4.95191 41.9253 0 35.8238 0ZM44.3137 11.0533C44.3137 15.742 40.5127 19.543 35.824 19.543C31.1353 19.543 27.3343 15.742 27.3343 11.0533C27.3343 6.36467 31.1353 2.56367 35.824 2.56367C40.5127 2.56367 44.3137 6.36467 44.3137 11.0533Z" fill="white"/>
<path d="M26.2665 42.7318V39.1478H45.3809V42.7318H26.2665ZM26.2665 34.3692V30.7853H45.3809V34.3692H26.2665Z" fill="white"/>
<path d="M16.28 19.0189C17.1049 19.8438 18.4423 19.8438 19.2672 19.0189C20.092 18.194 20.092 16.8567 19.2672 16.0318L6.3229 3.08753C5.49802 2.26265 4.16063 2.26265 3.33576 3.08753C2.51088 3.9124 2.51088 5.24979 3.33576 6.07466L16.28 19.0189Z" fill="white"/>
<path d="M6.32285 19.0189C5.49798 19.8438 4.16059 19.8438 3.33572 19.0189C2.51084 18.194 2.51084 16.8567 3.33572 16.0318L16.28 3.08753C17.1048 2.26265 18.4422 2.26265 19.2671 3.08753C20.092 3.9124 20.092 5.24979 19.2671 6.07466L6.32285 19.0189Z" fill="white"/>
</g>
</svg>
