<svg width="8" height="9" viewBox="0 0 8 9" fill="none" xmlns="http://www.w3.org/2000/svg">
<path id="Vector" d="M1.02271 8.0191H5.59414V4.20958H1.02271V8.0191ZM3.30842 6.87624C3.51795 6.87624 3.69731 6.80164 3.84652 6.65243C3.99572 6.50323 4.07033 6.32386 4.07033 6.11434C4.07033 5.90482 3.99572 5.72545 3.84652 5.57624C3.69731 5.42704 3.51795 5.35243 3.30842 5.35243C3.0989 5.35243 2.91953 5.42704 2.77033 5.57624C2.62112 5.72545 2.54652 5.90482 2.54652 6.11434C2.54652 6.32386 2.62112 6.50323 2.77033 6.65243C2.91953 6.80164 3.0989 6.87624 3.30842 6.87624ZM1.02271 8.78101C0.813184 8.78101 0.633819 8.7064 0.484613 8.5572C0.335406 8.40799 0.260803 8.22863 0.260803 8.0191V4.20958C0.260803 4.00005 0.335406 3.82069 0.484613 3.67148C0.633819 3.52228 0.813184 3.44767 1.02271 3.44767H3.68937V2.68577C3.68937 2.15878 3.87509 1.70958 4.24652 1.33815C4.61795 0.96672 5.06715 0.781006 5.59414 0.781006C6.12112 0.781006 6.57033 0.96672 6.94176 1.33815C7.31318 1.70958 7.4989 2.15878 7.4989 2.68577H6.73699C6.73699 2.36831 6.62588 2.09847 6.40366 1.87624C6.18144 1.65402 5.9116 1.54291 5.59414 1.54291C5.27668 1.54291 5.00683 1.65402 4.78461 1.87624C4.56239 2.09847 4.45128 2.36831 4.45128 2.68577V3.44767H5.59414C5.80366 3.44767 5.98303 3.52228 6.13223 3.67148C6.28144 3.82069 6.35604 4.00005 6.35604 4.20958V8.0191C6.35604 8.22863 6.28144 8.40799 6.13223 8.5572C5.98303 8.7064 5.80366 8.78101 5.59414 8.78101H1.02271Z" fill="white"/>
</svg>
