<svg width="9" height="9" viewBox="0 0 9 9" fill="none" xmlns="http://www.w3.org/2000/svg">
<path id="Vector" d="M0.898711 4.34996C0.727033 4.34996 0.598274 4.27718 0.512435 4.13163C0.426596 3.98608 0.42473 3.83866 0.506837 3.68937L1.98476 1.02463C2.06687 0.875342 2.19749 0.800699 2.37664 0.800699C2.55578 0.800699 2.6864 0.875342 2.76851 1.02463L4.24644 3.68937C4.32854 3.83866 4.32668 3.98608 4.24084 4.13163C4.155 4.27718 4.02624 4.34996 3.85456 4.34996H0.898711ZM2.37664 8.82852C1.88399 8.82852 1.46226 8.65311 1.11144 8.30229C0.760622 7.95147 0.585211 7.52974 0.585211 7.0371C0.585211 6.53699 0.760622 6.11339 1.11144 5.76631C1.46226 5.41922 1.88399 5.24567 2.37664 5.24567C2.86928 5.24567 3.29101 5.42108 3.64183 5.7719C3.99265 6.12272 4.16806 6.54446 4.16806 7.0371C4.16806 7.52974 3.99265 7.95147 3.64183 8.30229C3.29101 8.65311 2.86928 8.82852 2.37664 8.82852ZM2.37664 7.93281C2.62296 7.93281 2.83382 7.8451 3.00923 7.66969C3.18464 7.49428 3.27235 7.28342 3.27235 7.0371C3.27235 6.79078 3.18464 6.57991 3.00923 6.4045C2.83382 6.22909 2.62296 6.14139 2.37664 6.14139C2.13032 6.14139 1.91945 6.22909 1.74404 6.4045C1.56863 6.57991 1.48092 6.79078 1.48092 7.0371C1.48092 7.28342 1.56863 7.49428 1.74404 7.66969C1.91945 7.8451 2.13032 7.93281 2.37664 7.93281ZM1.66007 3.45425H3.09321L2.37664 2.16666L1.66007 3.45425ZM5.51163 8.82852C5.38474 8.82852 5.27837 8.7856 5.19253 8.69976C5.10669 8.61392 5.06377 8.50756 5.06377 8.38067V5.69353C5.06377 5.56664 5.10669 5.46027 5.19253 5.37443C5.27837 5.28859 5.38474 5.24567 5.51163 5.24567H8.19877C8.32566 5.24567 8.43203 5.28859 8.51787 5.37443C8.6037 5.46027 8.64662 5.56664 8.64662 5.69353V8.38067C8.64662 8.50756 8.6037 8.61392 8.51787 8.69976C8.43203 8.7856 8.32566 8.82852 8.19877 8.82852H5.51163ZM5.95949 7.93281H7.75091V6.14139H5.95949V7.93281ZM6.2282 2.33461L5.37727 1.48368C5.29517 1.40157 5.25411 1.29707 5.25411 1.17018C5.25411 1.04329 5.29517 0.938788 5.37727 0.856681C5.45938 0.774574 5.56388 0.733521 5.69077 0.733521C5.81767 0.733521 5.92217 0.774574 6.00427 0.856681L6.8552 1.70761L7.70613 0.856681C7.78823 0.774574 7.89273 0.733521 8.01963 0.733521C8.14652 0.733521 8.25102 0.774574 8.33313 0.856681C8.41523 0.938788 8.45629 1.04329 8.45629 1.17018C8.45629 1.29707 8.41523 1.40157 8.33313 1.48368L7.4822 2.33461L8.33313 3.18553C8.41523 3.26764 8.45629 3.37214 8.45629 3.49903C8.45629 3.62593 8.41523 3.73043 8.33313 3.81253C8.25102 3.89464 8.14652 3.93569 8.01963 3.93569C7.89273 3.93569 7.78823 3.89464 7.70613 3.81253L6.8552 2.96161L6.00427 3.81253C5.92217 3.89464 5.81767 3.93569 5.69077 3.93569C5.56388 3.93569 5.45938 3.89464 5.37727 3.81253C5.29517 3.73043 5.25411 3.62593 5.25411 3.49903C5.25411 3.37214 5.29517 3.26764 5.37727 3.18553L6.2282 2.33461Z" fill="white"/>
</svg>
