<svg width="32" height="33" viewBox="0 0 32 33" fill="none" xmlns="http://www.w3.org/2000/svg">
<g id="Qr code scanner" clip-path="url(#clip0_1607_2421)">
<path id="Vector" d="M12.6667 8.98648V12.9865H8.66669V8.98648H12.6667ZM14.6667 6.98648H6.66669V14.9865H14.6667V6.98648ZM12.6667 19.6531V23.6531H8.66669V19.6531H12.6667ZM14.6667 17.6531H6.66669V25.6531H14.6667V17.6531ZM23.3334 8.98648V12.9865H19.3334V8.98648H23.3334ZM25.3334 6.98648H17.3334V14.9865H25.3334V6.98648ZM17.3334 17.6531H19.3334V19.6531H17.3334V17.6531ZM19.3334 19.6531H21.3334V21.6531H19.3334V19.6531ZM21.3334 17.6531H23.3334V19.6531H21.3334V17.6531ZM17.3334 21.6531H19.3334V23.6531H17.3334V21.6531ZM19.3334 23.6531H21.3334V25.6531H19.3334V23.6531ZM21.3334 21.6531H23.3334V23.6531H21.3334V21.6531ZM23.3334 19.6531H25.3334V21.6531H23.3334V19.6531ZM23.3334 23.6531H25.3334V25.6531H23.3334V23.6531ZM29.3334 9.65315H26.6667V5.65315H22.6667V2.98648H29.3334V9.65315ZM29.3334 29.6531V22.9865H26.6667V26.9865H22.6667V29.6531H29.3334ZM2.66669 29.6531H9.33335V26.9865H5.33335V22.9865H2.66669V29.6531ZM2.66669 2.98648V9.65315H5.33335V5.65315H9.33335V2.98648H2.66669Z" fill="#525252"/>
</g>
<defs>
<clipPath id="clip0_1607_2421">
<rect width="32" height="32" fill="white" transform="translate(0 0.319824)"/>
</clipPath>
</defs>
</svg>
