<svg width="40" height="41" viewBox="0 0 40 41" fill="none" xmlns="http://www.w3.org/2000/svg">
<g id="Question exchange">
<rect y="0.161987" width="40" height="40" rx="20" fill="#066FAA"/>
<path id="Vector" d="M20 32.162C17.9637 32.162 16.091 31.6984 14.3819 30.7711C12.6728 29.8438 11.2728 28.6074 10.1819 27.062V29.9802H8.00004V23.4347H14.5455V25.6165H11.8455C12.7182 26.9256 13.8682 27.9802 15.2955 28.7802C16.7228 29.5802 18.291 29.9802 20 29.9802C21.3637 29.9802 22.641 29.7211 23.8319 29.2029C25.0228 28.6847 26.0591 27.9847 26.941 27.1029C27.8228 26.2211 28.5228 25.1847 29.041 23.9938C29.5591 22.8029 29.8182 21.5256 29.8182 20.162H32C32 21.8165 31.6864 23.3711 31.0591 24.8256C30.4319 26.2802 29.5728 27.5529 28.4819 28.6438C27.391 29.7347 26.1182 30.5938 24.6637 31.2211C23.2091 31.8484 21.6546 32.162 20 32.162ZM8.00004 20.162C8.00004 18.5074 8.31368 16.9529 8.94095 15.4984C9.56822 14.0438 10.4273 12.7711 11.5182 11.6802C12.6091 10.5893 13.8819 9.73017 15.3364 9.1029C16.791 8.47562 18.3455 8.16199 20 8.16199C22.0364 8.16199 23.9091 8.62562 25.6182 9.5529C27.3273 10.4802 28.7273 11.7165 29.8182 13.262V10.3438H32V16.8893H25.4546V14.7074H28.1546C27.2819 13.3984 26.1319 12.3438 24.7046 11.5438C23.2773 10.7438 21.7091 10.3438 20 10.3438C18.6364 10.3438 17.3591 10.6029 16.1682 11.1211C14.9773 11.6393 13.941 12.3393 13.0591 13.2211C12.1773 14.1029 11.4773 15.1393 10.9591 16.3302C10.441 17.5211 10.1819 18.7984 10.1819 20.162H8.00004ZM20 26.7074C20.3819 26.7074 20.7046 26.5756 20.9682 26.312C21.2319 26.0484 21.3637 25.7256 21.3637 25.3438C21.3637 24.962 21.2319 24.6347 20.9682 24.362C20.7046 24.0893 20.3819 23.9529 20 23.9529C19.6182 23.9529 19.2955 24.0847 19.0319 24.3484C18.7682 24.612 18.6364 24.9347 18.6364 25.3165C18.6364 25.6984 18.7682 26.0256 19.0319 26.2984C19.2955 26.5711 19.6182 26.7074 20 26.7074ZM19.0182 22.562H21.0091C21.0091 21.9074 21.0864 21.4165 21.241 21.0893C21.3955 20.762 21.7091 20.362 22.1819 19.8893C22.8182 19.2529 23.241 18.7393 23.45 18.3484C23.6591 17.9574 23.7637 17.4893 23.7637 16.9438C23.7637 15.9256 23.4 15.1165 22.6728 14.5165C21.9455 13.9165 21.0546 13.6165 20 13.6165C19.091 13.6165 18.3091 13.8529 17.6546 14.3256C17 14.7984 16.5273 15.4711 16.2364 16.3438L18.0364 17.1074C18.1637 16.6347 18.4046 16.2438 18.7591 15.9347C19.1137 15.6256 19.5273 15.4711 20 15.4711C20.491 15.4711 20.9046 15.612 21.241 15.8938C21.5773 16.1756 21.7455 16.5529 21.7455 17.0256C21.7455 17.3347 21.6728 17.6438 21.5273 17.9529C21.3819 18.262 21.0728 18.6256 20.6 19.0438C20 19.5711 19.5864 20.0847 19.3591 20.5847C19.1319 21.0847 19.0182 21.7438 19.0182 22.562Z" fill="white"/>
</g>
</svg>
