<svg width="13" height="13" viewBox="0 0 13 13" fill="none" xmlns="http://www.w3.org/2000/svg">
<path id="Vector" d="M6.91916 12.5376C5.90098 12.5376 4.96461 12.3058 4.11007 11.8422C3.25552 11.3785 2.55552 10.7604 2.01007 9.98763V11.4467H0.919159V8.17399H4.19189V9.2649H2.84189C3.27825 9.91945 3.85325 10.4467 4.56689 10.8467C5.28052 11.2467 6.06461 11.4467 6.91916 11.4467C7.60098 11.4467 8.23961 11.3172 8.83507 11.0581C9.43052 10.799 9.9487 10.449 10.3896 10.0081C10.8305 9.56717 11.1805 9.04899 11.4396 8.45354C11.6987 7.85808 11.8282 7.21945 11.8282 6.53763H12.9192C12.9192 7.3649 12.7623 8.14217 12.4487 8.86945C12.1351 9.59672 11.7055 10.2331 11.1601 10.7785C10.6146 11.324 9.97825 11.7535 9.25098 12.0672C8.52371 12.3808 7.74643 12.5376 6.91916 12.5376ZM0.919159 6.53763C0.919159 5.71036 1.07598 4.93308 1.38961 4.20581C1.70325 3.47854 2.1328 2.84217 2.67825 2.29672C3.2237 1.75126 3.86007 1.32172 4.58734 1.00808C5.31461 0.694446 6.09189 0.537628 6.91916 0.537628C7.93734 0.537628 8.8737 0.769446 9.72825 1.23308C10.5828 1.69672 11.2828 2.3149 11.8282 3.08763V1.62854H12.9192V4.90126H9.64643V3.81036H10.9964C10.5601 3.15581 9.98507 2.62854 9.27143 2.22854C8.5578 1.82854 7.7737 1.62854 6.91916 1.62854C6.23734 1.62854 5.5987 1.75808 5.00325 2.01717C4.40779 2.27626 3.88961 2.62626 3.4487 3.06717C3.0078 3.50808 2.6578 4.02626 2.3987 4.62172C2.13961 5.21717 2.01007 5.85581 2.01007 6.53763H0.919159ZM6.91916 9.81036C7.11007 9.81036 7.27143 9.74445 7.40325 9.61263C7.53507 9.48081 7.60098 9.31945 7.60098 9.12854C7.60098 8.93763 7.53507 8.77399 7.40325 8.63763C7.27143 8.50127 7.11007 8.43308 6.91916 8.43308C6.72825 8.43308 6.56689 8.49899 6.43507 8.63081C6.30325 8.76263 6.23734 8.92399 6.23734 9.1149C6.23734 9.30581 6.30325 9.46945 6.43507 9.60581C6.56689 9.74217 6.72825 9.81036 6.91916 9.81036ZM6.42825 7.73763H7.4237C7.4237 7.41036 7.46234 7.1649 7.53961 7.00126C7.61689 6.83763 7.7737 6.63763 8.01007 6.40126C8.32825 6.08308 8.53961 5.82626 8.64416 5.63081C8.7487 5.43536 8.80098 5.20126 8.80098 4.92854C8.80098 4.41945 8.61916 4.0149 8.25552 3.7149C7.89189 3.4149 7.44643 3.2649 6.91916 3.2649C6.46461 3.2649 6.0737 3.38308 5.74643 3.61945C5.41916 3.85581 5.1828 4.19217 5.03734 4.62854L5.93734 5.01036C6.00098 4.77399 6.12143 4.57854 6.2987 4.42399C6.47598 4.26945 6.6828 4.19217 6.91916 4.19217C7.16461 4.19217 7.37143 4.26263 7.53961 4.40354C7.7078 4.54445 7.79189 4.73308 7.79189 4.96945C7.79189 5.12399 7.75552 5.27854 7.6828 5.43308C7.61007 5.58763 7.45552 5.76945 7.21916 5.97854C6.91916 6.24217 6.71234 6.49899 6.5987 6.74899C6.48507 6.99899 6.42825 7.32854 6.42825 7.73763Z" fill="#066FAA"/>
</svg>
