<svg width="40" height="40" viewBox="0 0 40 40" fill="none" xmlns="http://www.w3.org/2000/svg">
<g id="Frame 119">
<rect width="40" height="40" rx="20" fill="#066FAA"/>
<g id="Vector">
<path fill-rule="evenodd" clip-rule="evenodd" d="M12.579 12.3698C11.3017 13.8431 10.5903 15.5755 10.4002 16.9551C10.3456 17.3509 10.024 17.6761 9.62438 17.6761C9.22479 17.6761 8.8982 17.3513 8.94222 16.9541C9.1339 15.2247 9.99054 13.1465 11.4857 11.4219C13.2154 9.42688 15.8317 7.86865 19.3249 7.86865C23.1431 7.86865 25.7629 9.32512 27.4753 11.2327L30.1301 10.2389C30.4779 10.1087 30.8361 10.4038 30.775 10.77L29.5371 18.1865L23.7332 13.4061C23.4466 13.1701 23.523 12.7123 23.8708 12.5821L26.0006 11.7848C24.5527 10.3751 22.422 9.31569 19.3249 9.31569C16.3054 9.31569 14.0715 10.6484 12.579 12.3698Z" fill="white"/>
<path d="M6.55737 21.4058C6.55737 20.8731 6.98928 20.4412 7.52207 20.4412H11.3808C11.9136 20.4412 12.3455 20.8731 12.3455 21.4058V25.2646C12.3455 25.7974 11.9136 26.2293 11.3808 26.2293H7.52207C6.98928 26.2293 6.55737 25.7974 6.55737 25.2646V21.4058Z" fill="white"/>
<path fill-rule="evenodd" clip-rule="evenodd" d="M21.5101 21.4058H17.6513V25.2646H21.5101V21.4058ZM17.6513 20.4412C17.1186 20.4412 16.6866 20.8731 16.6866 21.4058V25.2646C16.6866 25.7974 17.1186 26.2293 17.6513 26.2293H21.5101C22.0429 26.2293 22.4748 25.7974 22.4748 25.2646V21.4058C22.4748 20.8731 22.0429 20.4412 21.5101 20.4412H17.6513Z" fill="white"/>
<path d="M27.2983 21.4058C27.2983 20.8731 27.7302 20.4412 28.263 20.4412H32.1217C32.6545 20.4412 33.0864 20.8731 33.0864 21.4058V25.2646C33.0864 25.7974 32.6545 26.2293 32.1217 26.2293H28.263C27.7302 26.2293 27.2983 25.7974 27.2983 25.2646V21.4058Z" fill="white"/>
</g>
</g>
</svg>
