<svg width="13" height="15" viewBox="0 0 13 15" fill="none" xmlns="http://www.w3.org/2000/svg">
<path id="Vector" d="M6.5 8.5C5.61595 8.5 4.7681 8.14881 4.14298 7.52369C3.51786 6.89857 3.16667 6.05072 3.16667 5.16667H4.5C4.5 5.6971 4.71071 6.20581 5.08579 6.58088C5.46086 6.95595 5.96957 7.16667 6.5 7.16667C7.03043 7.16667 7.53914 6.95595 7.91421 6.58088C8.28929 6.20581 8.5 5.6971 8.5 5.16667H9.83333C9.83333 6.05072 9.48214 6.89857 8.85702 7.52369C8.2319 8.14881 7.38406 8.5 6.5 8.5ZM6.5 1.83333C7.03043 1.83333 7.53914 2.04405 7.91421 2.41912C8.28929 2.79419 8.5 3.3029 8.5 3.83333H4.5C4.5 3.3029 4.71071 2.79419 5.08579 2.41912C5.46086 2.04405 5.96957 1.83333 6.5 1.83333ZM11.1667 3.83333H9.83333C9.83333 3.39559 9.74712 2.96214 9.5796 2.55772C9.41208 2.1533 9.16655 1.78584 8.85702 1.47631C8.54749 1.16678 8.18003 0.921251 7.77561 0.753735C7.37119 0.586219 6.93774 0.5 6.5 0.5C5.61595 0.5 4.7681 0.851189 4.14298 1.47631C3.51786 2.10143 3.16667 2.94928 3.16667 3.83333H1.83333C1.09333 3.83333 0.5 4.42667 0.5 5.16667V13.1667C0.5 13.5203 0.640476 13.8594 0.890524 14.1095C1.14057 14.3595 1.47971 14.5 1.83333 14.5H11.1667C11.5203 14.5 11.8594 14.3595 12.1095 14.1095C12.3595 13.8594 12.5 13.5203 12.5 13.1667V5.16667C12.5 4.42667 11.9 3.83333 11.1667 3.83333Z" fill="#12A1D5"/>
</svg>
