<svg xmlns="http://www.w3.org/2000/svg" width="42" height="40" viewBox="0 0 42 40" fill="none">
  <mask id="path-1-inside-1_973_2826" fill="white">
    <path d="M20.7536 32.0619L7.9261 40L11.4134 25.1852L0 15.2792L14.9815 14.063L20.7536 0L26.5258 14.063L41.5094 15.2792L30.0939 25.1852L33.5812 40L20.7536 32.0619ZM20.7536 26.8789L26.9012 30.6821L25.2295 23.5843L30.7005 18.8369L23.5208 18.2532L20.7536 11.5158L17.9865 18.2532L10.8067 18.8369L16.2777 23.5843L14.6061 30.6821L20.7536 26.8789Z"/>
  </mask>
  <path d="M20.7536 32.0619L7.9261 40L11.4134 25.1852L0 15.2792L14.9815 14.063L20.7536 0L26.5258 14.063L41.5094 15.2792L30.0939 25.1852L33.5812 40L20.7536 32.0619ZM20.7536 26.8789L26.9012 30.6821L25.2295 23.5843L30.7005 18.8369L23.5208 18.2532L20.7536 11.5158L17.9865 18.2532L10.8067 18.8369L16.2777 23.5843L14.6061 30.6821L20.7536 26.8789Z" fill="url(#paint0_linear_973_2826)"/>
  <path d="M20.7536 32.0619L27.5945 21.0074L20.7536 16.774L13.9127 21.0074L20.7536 32.0619ZM7.9261 40L-4.72805 37.0213L-11.9186 67.5684L14.767 51.0545L7.9261 40ZM11.4134 25.1852L24.0675 28.1639L25.8676 20.5168L19.9346 15.3674L11.4134 25.1852ZM0 15.2792L-1.05183 2.32178L-31.8788 4.82421L-8.52117 25.097L0 15.2792ZM14.9815 14.063L16.0333 27.0204L23.9803 26.3753L27.0078 18.9993L14.9815 14.063ZM20.7536 0L32.78 -4.93623L20.7536 -34.2366L8.72726 -4.93623L20.7536 0ZM26.5258 14.063L14.4994 18.9992L17.527 26.3754L25.4741 27.0204L26.5258 14.063ZM41.5094 15.2792L50.0297 25.0978L73.3927 4.8242L42.5611 2.32177L41.5094 15.2792ZM30.0939 25.1852L21.5736 15.3666L15.6395 20.516L17.4397 28.1639L30.0939 25.1852ZM33.5812 40L26.7403 51.0545L53.4259 67.5684L46.2353 37.0213L33.5812 40ZM20.7536 26.8789L27.5931 15.8236L20.7536 11.5923L13.9142 15.8236L20.7536 26.8789ZM26.9012 30.6821L20.0617 41.7375L46.7489 58.2477L39.555 27.702L26.9012 30.6821ZM25.2295 23.5843L16.7094 13.7655L10.7743 18.9156L12.5757 26.5645L25.2295 23.5843ZM30.7005 18.8369L39.2206 28.6557L62.58 8.38598L31.754 5.87968L30.7005 18.8369ZM23.5208 18.2532L11.4955 23.1921L14.5235 30.5646L22.4673 31.2104L23.5208 18.2532ZM20.7536 11.5158L32.7789 6.57682L20.7536 -22.7021L8.72837 6.57682L20.7536 11.5158ZM17.9865 18.2532L19.04 31.2104L26.9838 30.5646L30.0117 23.1921L17.9865 18.2532ZM10.8067 18.8369L9.75324 5.87968L-21.0728 8.38598L2.28666 28.6557L10.8067 18.8369ZM16.2777 23.5843L28.9315 26.5645L30.733 18.9156L24.7978 13.7655L16.2777 23.5843ZM14.6061 30.6821L1.9523 27.702L-5.24165 58.2477L21.4456 41.7375L14.6061 30.6821ZM13.9127 21.0074L1.08521 28.9455L14.767 51.0545L27.5945 43.1164L13.9127 21.0074ZM20.5802 42.9787L24.0675 28.1639L-1.24074 22.2065L-4.72805 37.0213L20.5802 42.9787ZM19.9346 15.3674L8.52117 5.46134L-8.52117 25.097L2.89223 35.003L19.9346 15.3674ZM1.05183 28.2365L16.0333 27.0204L13.9296 1.10564L-1.05183 2.32178L1.05183 28.2365ZM27.0078 18.9993L32.78 4.93623L8.72726 -4.93623L2.95509 9.12679L27.0078 18.9993ZM8.72726 4.93623L14.4994 18.9992L38.5522 9.12679L32.78 -4.93623L8.72726 4.93623ZM25.4741 27.0204L40.4578 28.2365L42.5611 2.32177L27.5775 1.10563L25.4741 27.0204ZM32.9892 5.46053L21.5736 15.3666L38.6141 35.0038L50.0297 25.0978L32.9892 5.46053ZM17.4397 28.1639L20.927 42.9787L46.2353 37.0213L42.748 22.2065L17.4397 28.1639ZM40.4221 28.9455L27.5945 21.0074L13.9127 43.1164L26.7403 51.0545L40.4221 28.9455ZM13.9142 37.9343L20.0617 41.7375L33.7406 19.6268L27.5931 15.8236L13.9142 37.9343ZM39.555 27.702L37.8833 20.6042L12.5757 26.5645L14.2474 33.6623L39.555 27.702ZM33.7496 33.4031L39.2206 28.6557L22.1805 9.01815L16.7094 13.7655L33.7496 33.4031ZM31.754 5.87968L24.5743 5.29594L22.4673 31.2104L29.6471 31.7942L31.754 5.87968ZM35.546 13.3142L32.7789 6.57682L8.72837 16.4547L11.4955 23.1921L35.546 13.3142ZM8.72837 6.57682L5.96122 13.3142L30.0117 23.1921L32.7789 16.4547L8.72837 6.57682ZM16.933 5.29594L9.75324 5.87968L11.8602 31.7942L19.04 31.2104L16.933 5.29594ZM2.28666 28.6557L7.75768 33.4031L24.7978 13.7655L19.3268 9.01815L2.28666 28.6557ZM3.62394 20.6042L1.9523 27.702L27.2599 33.6623L28.9315 26.5645L3.62394 20.6042ZM21.4456 41.7375L27.5931 37.9343L13.9142 15.8236L7.76663 19.6268L21.4456 41.7375Z" fill="#3C3321" fill-opacity="0.78" style="mix-blend-mode:overlay" mask="url(#path-1-inside-1_973_2826)"/>
  <defs>
    <linearGradient id="paint0_linear_973_2826" x1="6.1152e-07" y1="3.16728" x2="32.1468" y2="42.2215" gradientUnits="userSpaceOnUse">
      <stop stop-color="#C18E09"/>
      <stop offset="0.53125" stop-color="#F9DD79"/>
      <stop offset="1" stop-color="#B58D00"/>
    </linearGradient>
  </defs>
</svg>