<svg width="52" height="46" viewBox="0 0 52 46" fill="none" xmlns="http://www.w3.org/2000/svg">
<g id="outlined-active" filter="url(#filter0_d_1953_7362)">
<path id="Rectangle 24" d="M4.06098 8.34384C3.86178 5.45392 6.15236 3 9.04914 3H42.3483C45.226 3 47.5098 5.42312 47.3395 8.29581L45.6908 36.1143C45.5299 38.8293 43.2283 40.9178 40.5105 40.8149L10.6998 39.6865C8.1462 39.5899 6.07645 37.5833 5.90072 35.0339L4.06098 8.34384Z" fill="#EBF6F9"/>
<g id="Vector">
<path fill-rule="evenodd" clip-rule="evenodd" d="M25.339 22.217C25.7304 21.8316 26.3586 21.8316 26.75 22.217L31.1884 26.5871C31.7558 27.1457 32.0777 27.9067 32.0779 28.7036V31.8289H33.0834C33.6388 31.8289 34.089 32.2791 34.089 32.8344C34.089 33.3898 33.6388 33.84 33.0834 33.84C27.5857 33.84 24.5033 33.84 19.0056 33.84C18.4502 33.84 18 33.3898 18 32.8344C18 32.2791 18.4502 31.8289 19.0056 31.8289H20.0111V28.7038C20.0113 27.9069 20.333 27.1458 20.9004 26.5873L25.339 22.217ZM22.0222 31.8289H30.0667V28.704C30.0666 28.4507 29.9645 28.2043 29.7776 28.0204L26.0445 24.3447L22.3114 28.0203C22.1246 28.2042 22.0224 28.4505 22.0222 28.7038V31.8289Z" fill="#066FAA"/>
<path fill-rule="evenodd" clip-rule="evenodd" d="M18 11.0056C18 10.4502 18.4502 10 19.0056 10H33.0834C33.6388 10 34.089 10.4502 34.089 11.0056C34.089 11.5609 33.6388 12.0111 33.0834 12.0111H32.0779V15.1362C32.0777 15.9331 31.7559 16.6942 31.1886 17.2527L26.75 21.623C26.3586 22.0084 25.7304 22.0084 25.339 21.623L20.9005 17.2529C20.3332 16.6943 20.0113 15.9333 20.0111 15.1364V12.0111H19.0056C18.4502 12.0111 18 11.5609 18 11.0056ZM22.0222 12.0111V15.136C22.0224 15.3893 22.1245 15.6357 22.3113 15.8196L26.0445 19.4953L29.7775 15.8197C29.9644 15.6358 30.0666 15.3895 30.0667 15.1362V12.0111H22.0222Z" fill="#066FAA"/>
<path d="M27.7116 17.2527C27.7116 17.554 27.4674 17.7982 27.1662 17.7982C26.8649 17.7982 26.6207 17.554 26.6207 17.2527C26.6207 16.9515 26.8649 16.7073 27.1662 16.7073C27.4674 16.7073 27.7116 16.9515 27.7116 17.2527Z" fill="#066FAA"/>
<path d="M26.6207 18.4029C26.6207 18.7041 26.3765 18.9483 26.0753 18.9483C25.7741 18.9483 25.5299 18.7041 25.5299 18.4029C25.5299 18.1017 25.7741 17.8575 26.0753 17.8575C26.3765 17.8575 26.6207 18.1017 26.6207 18.4029Z" fill="#066FAA"/>
<path d="M22.596 28.8227C22.9342 27.4672 25.3874 26.8953 26.0445 26.5873C26.7017 26.2792 29.4742 28.8227 29.4742 28.8227V31.0915H22.596V28.8227Z" fill="#066FAA"/>
</g>
</g>
<defs>
<filter id="filter0_d_1953_7362" x="-0.107373" y="0.2" width="51.5608" height="45.6" filterUnits="userSpaceOnUse" color-interpolation-filters="sRGB">
<feFlood flood-opacity="0" result="BackgroundImageFix"/>
<feColorMatrix in="SourceAlpha" type="matrix" values="0 0 0 0 0 0 0 0 0 0 0 0 0 0 0 0 0 0 127 0" result="hardAlpha"/>
<feOffset dy="1"/>
<feGaussianBlur stdDeviation="1.9"/>
<feComposite in2="hardAlpha" operator="out"/>
<feColorMatrix type="matrix" values="0 0 0 0 0 0 0 0 0 0 0 0 0 0 0 0 0 0 0.14 0"/>
<feBlend mode="normal" in2="BackgroundImageFix" result="effect1_dropShadow_1953_7362"/>
<feBlend mode="normal" in="SourceGraphic" in2="effect1_dropShadow_1953_7362" result="shape"/>
</filter>
</defs>
</svg>
